G75*
%MOIN*%
%OFA0B0*%
%FSLAX25Y25*%
%IPPOS*%
%LPD*%
%AMOC8*
5,1,8,0,0,1.08239X$1,22.5*
%
%ADD10C,0.00000*%
%ADD11C,0.00700*%
%ADD12C,0.00600*%
%ADD13C,0.00200*%
%ADD14R,0.03000X0.02500*%
%ADD15R,0.05000X0.11000*%
%ADD16C,0.00500*%
%ADD17R,0.01500X0.02000*%
%ADD18C,0.00800*%
%ADD19C,0.01000*%
%ADD20R,0.02000X0.01500*%
%ADD21C,0.01100*%
%ADD22C,0.01200*%
%ADD23R,0.02000X0.10000*%
%ADD24R,0.07500X0.03000*%
%ADD25C,0.00591*%
D10*
X0010978Y0001500D02*
X0010978Y0316461D01*
X0404679Y0316461D01*
X0404679Y0001500D01*
X0010978Y0001500D01*
X0023978Y0021500D02*
X0023980Y0021672D01*
X0023986Y0021843D01*
X0023997Y0022015D01*
X0024012Y0022186D01*
X0024031Y0022357D01*
X0024054Y0022527D01*
X0024081Y0022697D01*
X0024113Y0022866D01*
X0024148Y0023034D01*
X0024188Y0023201D01*
X0024232Y0023367D01*
X0024279Y0023532D01*
X0024331Y0023696D01*
X0024387Y0023858D01*
X0024447Y0024019D01*
X0024511Y0024179D01*
X0024579Y0024337D01*
X0024650Y0024493D01*
X0024725Y0024647D01*
X0024805Y0024800D01*
X0024887Y0024950D01*
X0024974Y0025099D01*
X0025064Y0025245D01*
X0025158Y0025389D01*
X0025255Y0025531D01*
X0025356Y0025670D01*
X0025460Y0025807D01*
X0025567Y0025941D01*
X0025678Y0026072D01*
X0025791Y0026201D01*
X0025908Y0026327D01*
X0026028Y0026450D01*
X0026151Y0026570D01*
X0026277Y0026687D01*
X0026406Y0026800D01*
X0026537Y0026911D01*
X0026671Y0027018D01*
X0026808Y0027122D01*
X0026947Y0027223D01*
X0027089Y0027320D01*
X0027233Y0027414D01*
X0027379Y0027504D01*
X0027528Y0027591D01*
X0027678Y0027673D01*
X0027831Y0027753D01*
X0027985Y0027828D01*
X0028141Y0027899D01*
X0028299Y0027967D01*
X0028459Y0028031D01*
X0028620Y0028091D01*
X0028782Y0028147D01*
X0028946Y0028199D01*
X0029111Y0028246D01*
X0029277Y0028290D01*
X0029444Y0028330D01*
X0029612Y0028365D01*
X0029781Y0028397D01*
X0029951Y0028424D01*
X0030121Y0028447D01*
X0030292Y0028466D01*
X0030463Y0028481D01*
X0030635Y0028492D01*
X0030806Y0028498D01*
X0030978Y0028500D01*
X0031150Y0028498D01*
X0031321Y0028492D01*
X0031493Y0028481D01*
X0031664Y0028466D01*
X0031835Y0028447D01*
X0032005Y0028424D01*
X0032175Y0028397D01*
X0032344Y0028365D01*
X0032512Y0028330D01*
X0032679Y0028290D01*
X0032845Y0028246D01*
X0033010Y0028199D01*
X0033174Y0028147D01*
X0033336Y0028091D01*
X0033497Y0028031D01*
X0033657Y0027967D01*
X0033815Y0027899D01*
X0033971Y0027828D01*
X0034125Y0027753D01*
X0034278Y0027673D01*
X0034428Y0027591D01*
X0034577Y0027504D01*
X0034723Y0027414D01*
X0034867Y0027320D01*
X0035009Y0027223D01*
X0035148Y0027122D01*
X0035285Y0027018D01*
X0035419Y0026911D01*
X0035550Y0026800D01*
X0035679Y0026687D01*
X0035805Y0026570D01*
X0035928Y0026450D01*
X0036048Y0026327D01*
X0036165Y0026201D01*
X0036278Y0026072D01*
X0036389Y0025941D01*
X0036496Y0025807D01*
X0036600Y0025670D01*
X0036701Y0025531D01*
X0036798Y0025389D01*
X0036892Y0025245D01*
X0036982Y0025099D01*
X0037069Y0024950D01*
X0037151Y0024800D01*
X0037231Y0024647D01*
X0037306Y0024493D01*
X0037377Y0024337D01*
X0037445Y0024179D01*
X0037509Y0024019D01*
X0037569Y0023858D01*
X0037625Y0023696D01*
X0037677Y0023532D01*
X0037724Y0023367D01*
X0037768Y0023201D01*
X0037808Y0023034D01*
X0037843Y0022866D01*
X0037875Y0022697D01*
X0037902Y0022527D01*
X0037925Y0022357D01*
X0037944Y0022186D01*
X0037959Y0022015D01*
X0037970Y0021843D01*
X0037976Y0021672D01*
X0037978Y0021500D01*
X0037976Y0021328D01*
X0037970Y0021157D01*
X0037959Y0020985D01*
X0037944Y0020814D01*
X0037925Y0020643D01*
X0037902Y0020473D01*
X0037875Y0020303D01*
X0037843Y0020134D01*
X0037808Y0019966D01*
X0037768Y0019799D01*
X0037724Y0019633D01*
X0037677Y0019468D01*
X0037625Y0019304D01*
X0037569Y0019142D01*
X0037509Y0018981D01*
X0037445Y0018821D01*
X0037377Y0018663D01*
X0037306Y0018507D01*
X0037231Y0018353D01*
X0037151Y0018200D01*
X0037069Y0018050D01*
X0036982Y0017901D01*
X0036892Y0017755D01*
X0036798Y0017611D01*
X0036701Y0017469D01*
X0036600Y0017330D01*
X0036496Y0017193D01*
X0036389Y0017059D01*
X0036278Y0016928D01*
X0036165Y0016799D01*
X0036048Y0016673D01*
X0035928Y0016550D01*
X0035805Y0016430D01*
X0035679Y0016313D01*
X0035550Y0016200D01*
X0035419Y0016089D01*
X0035285Y0015982D01*
X0035148Y0015878D01*
X0035009Y0015777D01*
X0034867Y0015680D01*
X0034723Y0015586D01*
X0034577Y0015496D01*
X0034428Y0015409D01*
X0034278Y0015327D01*
X0034125Y0015247D01*
X0033971Y0015172D01*
X0033815Y0015101D01*
X0033657Y0015033D01*
X0033497Y0014969D01*
X0033336Y0014909D01*
X0033174Y0014853D01*
X0033010Y0014801D01*
X0032845Y0014754D01*
X0032679Y0014710D01*
X0032512Y0014670D01*
X0032344Y0014635D01*
X0032175Y0014603D01*
X0032005Y0014576D01*
X0031835Y0014553D01*
X0031664Y0014534D01*
X0031493Y0014519D01*
X0031321Y0014508D01*
X0031150Y0014502D01*
X0030978Y0014500D01*
X0030806Y0014502D01*
X0030635Y0014508D01*
X0030463Y0014519D01*
X0030292Y0014534D01*
X0030121Y0014553D01*
X0029951Y0014576D01*
X0029781Y0014603D01*
X0029612Y0014635D01*
X0029444Y0014670D01*
X0029277Y0014710D01*
X0029111Y0014754D01*
X0028946Y0014801D01*
X0028782Y0014853D01*
X0028620Y0014909D01*
X0028459Y0014969D01*
X0028299Y0015033D01*
X0028141Y0015101D01*
X0027985Y0015172D01*
X0027831Y0015247D01*
X0027678Y0015327D01*
X0027528Y0015409D01*
X0027379Y0015496D01*
X0027233Y0015586D01*
X0027089Y0015680D01*
X0026947Y0015777D01*
X0026808Y0015878D01*
X0026671Y0015982D01*
X0026537Y0016089D01*
X0026406Y0016200D01*
X0026277Y0016313D01*
X0026151Y0016430D01*
X0026028Y0016550D01*
X0025908Y0016673D01*
X0025791Y0016799D01*
X0025678Y0016928D01*
X0025567Y0017059D01*
X0025460Y0017193D01*
X0025356Y0017330D01*
X0025255Y0017469D01*
X0025158Y0017611D01*
X0025064Y0017755D01*
X0024974Y0017901D01*
X0024887Y0018050D01*
X0024805Y0018200D01*
X0024725Y0018353D01*
X0024650Y0018507D01*
X0024579Y0018663D01*
X0024511Y0018821D01*
X0024447Y0018981D01*
X0024387Y0019142D01*
X0024331Y0019304D01*
X0024279Y0019468D01*
X0024232Y0019633D01*
X0024188Y0019799D01*
X0024148Y0019966D01*
X0024113Y0020134D01*
X0024081Y0020303D01*
X0024054Y0020473D01*
X0024031Y0020643D01*
X0024012Y0020814D01*
X0023997Y0020985D01*
X0023986Y0021157D01*
X0023980Y0021328D01*
X0023978Y0021500D01*
X0094478Y0247500D02*
X0094480Y0247661D01*
X0094486Y0247821D01*
X0094496Y0247982D01*
X0094510Y0248142D01*
X0094528Y0248302D01*
X0094549Y0248461D01*
X0094575Y0248620D01*
X0094605Y0248778D01*
X0094638Y0248935D01*
X0094676Y0249092D01*
X0094717Y0249247D01*
X0094762Y0249401D01*
X0094811Y0249554D01*
X0094864Y0249706D01*
X0094920Y0249857D01*
X0094981Y0250006D01*
X0095044Y0250154D01*
X0095112Y0250300D01*
X0095183Y0250444D01*
X0095257Y0250586D01*
X0095335Y0250727D01*
X0095417Y0250865D01*
X0095502Y0251002D01*
X0095590Y0251136D01*
X0095682Y0251268D01*
X0095777Y0251398D01*
X0095875Y0251526D01*
X0095976Y0251651D01*
X0096080Y0251773D01*
X0096187Y0251893D01*
X0096297Y0252010D01*
X0096410Y0252125D01*
X0096526Y0252236D01*
X0096645Y0252345D01*
X0096766Y0252450D01*
X0096890Y0252553D01*
X0097016Y0252653D01*
X0097144Y0252749D01*
X0097275Y0252842D01*
X0097409Y0252932D01*
X0097544Y0253019D01*
X0097682Y0253102D01*
X0097821Y0253182D01*
X0097963Y0253258D01*
X0098106Y0253331D01*
X0098251Y0253400D01*
X0098398Y0253466D01*
X0098546Y0253528D01*
X0098696Y0253586D01*
X0098847Y0253641D01*
X0099000Y0253692D01*
X0099154Y0253739D01*
X0099309Y0253782D01*
X0099465Y0253821D01*
X0099621Y0253857D01*
X0099779Y0253888D01*
X0099937Y0253916D01*
X0100096Y0253940D01*
X0100256Y0253960D01*
X0100416Y0253976D01*
X0100576Y0253988D01*
X0100737Y0253996D01*
X0100898Y0254000D01*
X0101058Y0254000D01*
X0101219Y0253996D01*
X0101380Y0253988D01*
X0101540Y0253976D01*
X0101700Y0253960D01*
X0101860Y0253940D01*
X0102019Y0253916D01*
X0102177Y0253888D01*
X0102335Y0253857D01*
X0102491Y0253821D01*
X0102647Y0253782D01*
X0102802Y0253739D01*
X0102956Y0253692D01*
X0103109Y0253641D01*
X0103260Y0253586D01*
X0103410Y0253528D01*
X0103558Y0253466D01*
X0103705Y0253400D01*
X0103850Y0253331D01*
X0103993Y0253258D01*
X0104135Y0253182D01*
X0104274Y0253102D01*
X0104412Y0253019D01*
X0104547Y0252932D01*
X0104681Y0252842D01*
X0104812Y0252749D01*
X0104940Y0252653D01*
X0105066Y0252553D01*
X0105190Y0252450D01*
X0105311Y0252345D01*
X0105430Y0252236D01*
X0105546Y0252125D01*
X0105659Y0252010D01*
X0105769Y0251893D01*
X0105876Y0251773D01*
X0105980Y0251651D01*
X0106081Y0251526D01*
X0106179Y0251398D01*
X0106274Y0251268D01*
X0106366Y0251136D01*
X0106454Y0251002D01*
X0106539Y0250865D01*
X0106621Y0250727D01*
X0106699Y0250586D01*
X0106773Y0250444D01*
X0106844Y0250300D01*
X0106912Y0250154D01*
X0106975Y0250006D01*
X0107036Y0249857D01*
X0107092Y0249706D01*
X0107145Y0249554D01*
X0107194Y0249401D01*
X0107239Y0249247D01*
X0107280Y0249092D01*
X0107318Y0248935D01*
X0107351Y0248778D01*
X0107381Y0248620D01*
X0107407Y0248461D01*
X0107428Y0248302D01*
X0107446Y0248142D01*
X0107460Y0247982D01*
X0107470Y0247821D01*
X0107476Y0247661D01*
X0107478Y0247500D01*
X0107476Y0247339D01*
X0107470Y0247179D01*
X0107460Y0247018D01*
X0107446Y0246858D01*
X0107428Y0246698D01*
X0107407Y0246539D01*
X0107381Y0246380D01*
X0107351Y0246222D01*
X0107318Y0246065D01*
X0107280Y0245908D01*
X0107239Y0245753D01*
X0107194Y0245599D01*
X0107145Y0245446D01*
X0107092Y0245294D01*
X0107036Y0245143D01*
X0106975Y0244994D01*
X0106912Y0244846D01*
X0106844Y0244700D01*
X0106773Y0244556D01*
X0106699Y0244414D01*
X0106621Y0244273D01*
X0106539Y0244135D01*
X0106454Y0243998D01*
X0106366Y0243864D01*
X0106274Y0243732D01*
X0106179Y0243602D01*
X0106081Y0243474D01*
X0105980Y0243349D01*
X0105876Y0243227D01*
X0105769Y0243107D01*
X0105659Y0242990D01*
X0105546Y0242875D01*
X0105430Y0242764D01*
X0105311Y0242655D01*
X0105190Y0242550D01*
X0105066Y0242447D01*
X0104940Y0242347D01*
X0104812Y0242251D01*
X0104681Y0242158D01*
X0104547Y0242068D01*
X0104412Y0241981D01*
X0104274Y0241898D01*
X0104135Y0241818D01*
X0103993Y0241742D01*
X0103850Y0241669D01*
X0103705Y0241600D01*
X0103558Y0241534D01*
X0103410Y0241472D01*
X0103260Y0241414D01*
X0103109Y0241359D01*
X0102956Y0241308D01*
X0102802Y0241261D01*
X0102647Y0241218D01*
X0102491Y0241179D01*
X0102335Y0241143D01*
X0102177Y0241112D01*
X0102019Y0241084D01*
X0101860Y0241060D01*
X0101700Y0241040D01*
X0101540Y0241024D01*
X0101380Y0241012D01*
X0101219Y0241004D01*
X0101058Y0241000D01*
X0100898Y0241000D01*
X0100737Y0241004D01*
X0100576Y0241012D01*
X0100416Y0241024D01*
X0100256Y0241040D01*
X0100096Y0241060D01*
X0099937Y0241084D01*
X0099779Y0241112D01*
X0099621Y0241143D01*
X0099465Y0241179D01*
X0099309Y0241218D01*
X0099154Y0241261D01*
X0099000Y0241308D01*
X0098847Y0241359D01*
X0098696Y0241414D01*
X0098546Y0241472D01*
X0098398Y0241534D01*
X0098251Y0241600D01*
X0098106Y0241669D01*
X0097963Y0241742D01*
X0097821Y0241818D01*
X0097682Y0241898D01*
X0097544Y0241981D01*
X0097409Y0242068D01*
X0097275Y0242158D01*
X0097144Y0242251D01*
X0097016Y0242347D01*
X0096890Y0242447D01*
X0096766Y0242550D01*
X0096645Y0242655D01*
X0096526Y0242764D01*
X0096410Y0242875D01*
X0096297Y0242990D01*
X0096187Y0243107D01*
X0096080Y0243227D01*
X0095976Y0243349D01*
X0095875Y0243474D01*
X0095777Y0243602D01*
X0095682Y0243732D01*
X0095590Y0243864D01*
X0095502Y0243998D01*
X0095417Y0244135D01*
X0095335Y0244273D01*
X0095257Y0244414D01*
X0095183Y0244556D01*
X0095112Y0244700D01*
X0095044Y0244846D01*
X0094981Y0244994D01*
X0094920Y0245143D01*
X0094864Y0245294D01*
X0094811Y0245446D01*
X0094762Y0245599D01*
X0094717Y0245753D01*
X0094676Y0245908D01*
X0094638Y0246065D01*
X0094605Y0246222D01*
X0094575Y0246380D01*
X0094549Y0246539D01*
X0094528Y0246698D01*
X0094510Y0246858D01*
X0094496Y0247018D01*
X0094486Y0247179D01*
X0094480Y0247339D01*
X0094478Y0247500D01*
X0023978Y0296500D02*
X0023980Y0296672D01*
X0023986Y0296843D01*
X0023997Y0297015D01*
X0024012Y0297186D01*
X0024031Y0297357D01*
X0024054Y0297527D01*
X0024081Y0297697D01*
X0024113Y0297866D01*
X0024148Y0298034D01*
X0024188Y0298201D01*
X0024232Y0298367D01*
X0024279Y0298532D01*
X0024331Y0298696D01*
X0024387Y0298858D01*
X0024447Y0299019D01*
X0024511Y0299179D01*
X0024579Y0299337D01*
X0024650Y0299493D01*
X0024725Y0299647D01*
X0024805Y0299800D01*
X0024887Y0299950D01*
X0024974Y0300099D01*
X0025064Y0300245D01*
X0025158Y0300389D01*
X0025255Y0300531D01*
X0025356Y0300670D01*
X0025460Y0300807D01*
X0025567Y0300941D01*
X0025678Y0301072D01*
X0025791Y0301201D01*
X0025908Y0301327D01*
X0026028Y0301450D01*
X0026151Y0301570D01*
X0026277Y0301687D01*
X0026406Y0301800D01*
X0026537Y0301911D01*
X0026671Y0302018D01*
X0026808Y0302122D01*
X0026947Y0302223D01*
X0027089Y0302320D01*
X0027233Y0302414D01*
X0027379Y0302504D01*
X0027528Y0302591D01*
X0027678Y0302673D01*
X0027831Y0302753D01*
X0027985Y0302828D01*
X0028141Y0302899D01*
X0028299Y0302967D01*
X0028459Y0303031D01*
X0028620Y0303091D01*
X0028782Y0303147D01*
X0028946Y0303199D01*
X0029111Y0303246D01*
X0029277Y0303290D01*
X0029444Y0303330D01*
X0029612Y0303365D01*
X0029781Y0303397D01*
X0029951Y0303424D01*
X0030121Y0303447D01*
X0030292Y0303466D01*
X0030463Y0303481D01*
X0030635Y0303492D01*
X0030806Y0303498D01*
X0030978Y0303500D01*
X0031150Y0303498D01*
X0031321Y0303492D01*
X0031493Y0303481D01*
X0031664Y0303466D01*
X0031835Y0303447D01*
X0032005Y0303424D01*
X0032175Y0303397D01*
X0032344Y0303365D01*
X0032512Y0303330D01*
X0032679Y0303290D01*
X0032845Y0303246D01*
X0033010Y0303199D01*
X0033174Y0303147D01*
X0033336Y0303091D01*
X0033497Y0303031D01*
X0033657Y0302967D01*
X0033815Y0302899D01*
X0033971Y0302828D01*
X0034125Y0302753D01*
X0034278Y0302673D01*
X0034428Y0302591D01*
X0034577Y0302504D01*
X0034723Y0302414D01*
X0034867Y0302320D01*
X0035009Y0302223D01*
X0035148Y0302122D01*
X0035285Y0302018D01*
X0035419Y0301911D01*
X0035550Y0301800D01*
X0035679Y0301687D01*
X0035805Y0301570D01*
X0035928Y0301450D01*
X0036048Y0301327D01*
X0036165Y0301201D01*
X0036278Y0301072D01*
X0036389Y0300941D01*
X0036496Y0300807D01*
X0036600Y0300670D01*
X0036701Y0300531D01*
X0036798Y0300389D01*
X0036892Y0300245D01*
X0036982Y0300099D01*
X0037069Y0299950D01*
X0037151Y0299800D01*
X0037231Y0299647D01*
X0037306Y0299493D01*
X0037377Y0299337D01*
X0037445Y0299179D01*
X0037509Y0299019D01*
X0037569Y0298858D01*
X0037625Y0298696D01*
X0037677Y0298532D01*
X0037724Y0298367D01*
X0037768Y0298201D01*
X0037808Y0298034D01*
X0037843Y0297866D01*
X0037875Y0297697D01*
X0037902Y0297527D01*
X0037925Y0297357D01*
X0037944Y0297186D01*
X0037959Y0297015D01*
X0037970Y0296843D01*
X0037976Y0296672D01*
X0037978Y0296500D01*
X0037976Y0296328D01*
X0037970Y0296157D01*
X0037959Y0295985D01*
X0037944Y0295814D01*
X0037925Y0295643D01*
X0037902Y0295473D01*
X0037875Y0295303D01*
X0037843Y0295134D01*
X0037808Y0294966D01*
X0037768Y0294799D01*
X0037724Y0294633D01*
X0037677Y0294468D01*
X0037625Y0294304D01*
X0037569Y0294142D01*
X0037509Y0293981D01*
X0037445Y0293821D01*
X0037377Y0293663D01*
X0037306Y0293507D01*
X0037231Y0293353D01*
X0037151Y0293200D01*
X0037069Y0293050D01*
X0036982Y0292901D01*
X0036892Y0292755D01*
X0036798Y0292611D01*
X0036701Y0292469D01*
X0036600Y0292330D01*
X0036496Y0292193D01*
X0036389Y0292059D01*
X0036278Y0291928D01*
X0036165Y0291799D01*
X0036048Y0291673D01*
X0035928Y0291550D01*
X0035805Y0291430D01*
X0035679Y0291313D01*
X0035550Y0291200D01*
X0035419Y0291089D01*
X0035285Y0290982D01*
X0035148Y0290878D01*
X0035009Y0290777D01*
X0034867Y0290680D01*
X0034723Y0290586D01*
X0034577Y0290496D01*
X0034428Y0290409D01*
X0034278Y0290327D01*
X0034125Y0290247D01*
X0033971Y0290172D01*
X0033815Y0290101D01*
X0033657Y0290033D01*
X0033497Y0289969D01*
X0033336Y0289909D01*
X0033174Y0289853D01*
X0033010Y0289801D01*
X0032845Y0289754D01*
X0032679Y0289710D01*
X0032512Y0289670D01*
X0032344Y0289635D01*
X0032175Y0289603D01*
X0032005Y0289576D01*
X0031835Y0289553D01*
X0031664Y0289534D01*
X0031493Y0289519D01*
X0031321Y0289508D01*
X0031150Y0289502D01*
X0030978Y0289500D01*
X0030806Y0289502D01*
X0030635Y0289508D01*
X0030463Y0289519D01*
X0030292Y0289534D01*
X0030121Y0289553D01*
X0029951Y0289576D01*
X0029781Y0289603D01*
X0029612Y0289635D01*
X0029444Y0289670D01*
X0029277Y0289710D01*
X0029111Y0289754D01*
X0028946Y0289801D01*
X0028782Y0289853D01*
X0028620Y0289909D01*
X0028459Y0289969D01*
X0028299Y0290033D01*
X0028141Y0290101D01*
X0027985Y0290172D01*
X0027831Y0290247D01*
X0027678Y0290327D01*
X0027528Y0290409D01*
X0027379Y0290496D01*
X0027233Y0290586D01*
X0027089Y0290680D01*
X0026947Y0290777D01*
X0026808Y0290878D01*
X0026671Y0290982D01*
X0026537Y0291089D01*
X0026406Y0291200D01*
X0026277Y0291313D01*
X0026151Y0291430D01*
X0026028Y0291550D01*
X0025908Y0291673D01*
X0025791Y0291799D01*
X0025678Y0291928D01*
X0025567Y0292059D01*
X0025460Y0292193D01*
X0025356Y0292330D01*
X0025255Y0292469D01*
X0025158Y0292611D01*
X0025064Y0292755D01*
X0024974Y0292901D01*
X0024887Y0293050D01*
X0024805Y0293200D01*
X0024725Y0293353D01*
X0024650Y0293507D01*
X0024579Y0293663D01*
X0024511Y0293821D01*
X0024447Y0293981D01*
X0024387Y0294142D01*
X0024331Y0294304D01*
X0024279Y0294468D01*
X0024232Y0294633D01*
X0024188Y0294799D01*
X0024148Y0294966D01*
X0024113Y0295134D01*
X0024081Y0295303D01*
X0024054Y0295473D01*
X0024031Y0295643D01*
X0024012Y0295814D01*
X0023997Y0295985D01*
X0023986Y0296157D01*
X0023980Y0296328D01*
X0023978Y0296500D01*
X0378978Y0296500D02*
X0378980Y0296672D01*
X0378986Y0296843D01*
X0378997Y0297015D01*
X0379012Y0297186D01*
X0379031Y0297357D01*
X0379054Y0297527D01*
X0379081Y0297697D01*
X0379113Y0297866D01*
X0379148Y0298034D01*
X0379188Y0298201D01*
X0379232Y0298367D01*
X0379279Y0298532D01*
X0379331Y0298696D01*
X0379387Y0298858D01*
X0379447Y0299019D01*
X0379511Y0299179D01*
X0379579Y0299337D01*
X0379650Y0299493D01*
X0379725Y0299647D01*
X0379805Y0299800D01*
X0379887Y0299950D01*
X0379974Y0300099D01*
X0380064Y0300245D01*
X0380158Y0300389D01*
X0380255Y0300531D01*
X0380356Y0300670D01*
X0380460Y0300807D01*
X0380567Y0300941D01*
X0380678Y0301072D01*
X0380791Y0301201D01*
X0380908Y0301327D01*
X0381028Y0301450D01*
X0381151Y0301570D01*
X0381277Y0301687D01*
X0381406Y0301800D01*
X0381537Y0301911D01*
X0381671Y0302018D01*
X0381808Y0302122D01*
X0381947Y0302223D01*
X0382089Y0302320D01*
X0382233Y0302414D01*
X0382379Y0302504D01*
X0382528Y0302591D01*
X0382678Y0302673D01*
X0382831Y0302753D01*
X0382985Y0302828D01*
X0383141Y0302899D01*
X0383299Y0302967D01*
X0383459Y0303031D01*
X0383620Y0303091D01*
X0383782Y0303147D01*
X0383946Y0303199D01*
X0384111Y0303246D01*
X0384277Y0303290D01*
X0384444Y0303330D01*
X0384612Y0303365D01*
X0384781Y0303397D01*
X0384951Y0303424D01*
X0385121Y0303447D01*
X0385292Y0303466D01*
X0385463Y0303481D01*
X0385635Y0303492D01*
X0385806Y0303498D01*
X0385978Y0303500D01*
X0386150Y0303498D01*
X0386321Y0303492D01*
X0386493Y0303481D01*
X0386664Y0303466D01*
X0386835Y0303447D01*
X0387005Y0303424D01*
X0387175Y0303397D01*
X0387344Y0303365D01*
X0387512Y0303330D01*
X0387679Y0303290D01*
X0387845Y0303246D01*
X0388010Y0303199D01*
X0388174Y0303147D01*
X0388336Y0303091D01*
X0388497Y0303031D01*
X0388657Y0302967D01*
X0388815Y0302899D01*
X0388971Y0302828D01*
X0389125Y0302753D01*
X0389278Y0302673D01*
X0389428Y0302591D01*
X0389577Y0302504D01*
X0389723Y0302414D01*
X0389867Y0302320D01*
X0390009Y0302223D01*
X0390148Y0302122D01*
X0390285Y0302018D01*
X0390419Y0301911D01*
X0390550Y0301800D01*
X0390679Y0301687D01*
X0390805Y0301570D01*
X0390928Y0301450D01*
X0391048Y0301327D01*
X0391165Y0301201D01*
X0391278Y0301072D01*
X0391389Y0300941D01*
X0391496Y0300807D01*
X0391600Y0300670D01*
X0391701Y0300531D01*
X0391798Y0300389D01*
X0391892Y0300245D01*
X0391982Y0300099D01*
X0392069Y0299950D01*
X0392151Y0299800D01*
X0392231Y0299647D01*
X0392306Y0299493D01*
X0392377Y0299337D01*
X0392445Y0299179D01*
X0392509Y0299019D01*
X0392569Y0298858D01*
X0392625Y0298696D01*
X0392677Y0298532D01*
X0392724Y0298367D01*
X0392768Y0298201D01*
X0392808Y0298034D01*
X0392843Y0297866D01*
X0392875Y0297697D01*
X0392902Y0297527D01*
X0392925Y0297357D01*
X0392944Y0297186D01*
X0392959Y0297015D01*
X0392970Y0296843D01*
X0392976Y0296672D01*
X0392978Y0296500D01*
X0392976Y0296328D01*
X0392970Y0296157D01*
X0392959Y0295985D01*
X0392944Y0295814D01*
X0392925Y0295643D01*
X0392902Y0295473D01*
X0392875Y0295303D01*
X0392843Y0295134D01*
X0392808Y0294966D01*
X0392768Y0294799D01*
X0392724Y0294633D01*
X0392677Y0294468D01*
X0392625Y0294304D01*
X0392569Y0294142D01*
X0392509Y0293981D01*
X0392445Y0293821D01*
X0392377Y0293663D01*
X0392306Y0293507D01*
X0392231Y0293353D01*
X0392151Y0293200D01*
X0392069Y0293050D01*
X0391982Y0292901D01*
X0391892Y0292755D01*
X0391798Y0292611D01*
X0391701Y0292469D01*
X0391600Y0292330D01*
X0391496Y0292193D01*
X0391389Y0292059D01*
X0391278Y0291928D01*
X0391165Y0291799D01*
X0391048Y0291673D01*
X0390928Y0291550D01*
X0390805Y0291430D01*
X0390679Y0291313D01*
X0390550Y0291200D01*
X0390419Y0291089D01*
X0390285Y0290982D01*
X0390148Y0290878D01*
X0390009Y0290777D01*
X0389867Y0290680D01*
X0389723Y0290586D01*
X0389577Y0290496D01*
X0389428Y0290409D01*
X0389278Y0290327D01*
X0389125Y0290247D01*
X0388971Y0290172D01*
X0388815Y0290101D01*
X0388657Y0290033D01*
X0388497Y0289969D01*
X0388336Y0289909D01*
X0388174Y0289853D01*
X0388010Y0289801D01*
X0387845Y0289754D01*
X0387679Y0289710D01*
X0387512Y0289670D01*
X0387344Y0289635D01*
X0387175Y0289603D01*
X0387005Y0289576D01*
X0386835Y0289553D01*
X0386664Y0289534D01*
X0386493Y0289519D01*
X0386321Y0289508D01*
X0386150Y0289502D01*
X0385978Y0289500D01*
X0385806Y0289502D01*
X0385635Y0289508D01*
X0385463Y0289519D01*
X0385292Y0289534D01*
X0385121Y0289553D01*
X0384951Y0289576D01*
X0384781Y0289603D01*
X0384612Y0289635D01*
X0384444Y0289670D01*
X0384277Y0289710D01*
X0384111Y0289754D01*
X0383946Y0289801D01*
X0383782Y0289853D01*
X0383620Y0289909D01*
X0383459Y0289969D01*
X0383299Y0290033D01*
X0383141Y0290101D01*
X0382985Y0290172D01*
X0382831Y0290247D01*
X0382678Y0290327D01*
X0382528Y0290409D01*
X0382379Y0290496D01*
X0382233Y0290586D01*
X0382089Y0290680D01*
X0381947Y0290777D01*
X0381808Y0290878D01*
X0381671Y0290982D01*
X0381537Y0291089D01*
X0381406Y0291200D01*
X0381277Y0291313D01*
X0381151Y0291430D01*
X0381028Y0291550D01*
X0380908Y0291673D01*
X0380791Y0291799D01*
X0380678Y0291928D01*
X0380567Y0292059D01*
X0380460Y0292193D01*
X0380356Y0292330D01*
X0380255Y0292469D01*
X0380158Y0292611D01*
X0380064Y0292755D01*
X0379974Y0292901D01*
X0379887Y0293050D01*
X0379805Y0293200D01*
X0379725Y0293353D01*
X0379650Y0293507D01*
X0379579Y0293663D01*
X0379511Y0293821D01*
X0379447Y0293981D01*
X0379387Y0294142D01*
X0379331Y0294304D01*
X0379279Y0294468D01*
X0379232Y0294633D01*
X0379188Y0294799D01*
X0379148Y0294966D01*
X0379113Y0295134D01*
X0379081Y0295303D01*
X0379054Y0295473D01*
X0379031Y0295643D01*
X0379012Y0295814D01*
X0378997Y0295985D01*
X0378986Y0296157D01*
X0378980Y0296328D01*
X0378978Y0296500D01*
X0378978Y0021500D02*
X0378980Y0021672D01*
X0378986Y0021843D01*
X0378997Y0022015D01*
X0379012Y0022186D01*
X0379031Y0022357D01*
X0379054Y0022527D01*
X0379081Y0022697D01*
X0379113Y0022866D01*
X0379148Y0023034D01*
X0379188Y0023201D01*
X0379232Y0023367D01*
X0379279Y0023532D01*
X0379331Y0023696D01*
X0379387Y0023858D01*
X0379447Y0024019D01*
X0379511Y0024179D01*
X0379579Y0024337D01*
X0379650Y0024493D01*
X0379725Y0024647D01*
X0379805Y0024800D01*
X0379887Y0024950D01*
X0379974Y0025099D01*
X0380064Y0025245D01*
X0380158Y0025389D01*
X0380255Y0025531D01*
X0380356Y0025670D01*
X0380460Y0025807D01*
X0380567Y0025941D01*
X0380678Y0026072D01*
X0380791Y0026201D01*
X0380908Y0026327D01*
X0381028Y0026450D01*
X0381151Y0026570D01*
X0381277Y0026687D01*
X0381406Y0026800D01*
X0381537Y0026911D01*
X0381671Y0027018D01*
X0381808Y0027122D01*
X0381947Y0027223D01*
X0382089Y0027320D01*
X0382233Y0027414D01*
X0382379Y0027504D01*
X0382528Y0027591D01*
X0382678Y0027673D01*
X0382831Y0027753D01*
X0382985Y0027828D01*
X0383141Y0027899D01*
X0383299Y0027967D01*
X0383459Y0028031D01*
X0383620Y0028091D01*
X0383782Y0028147D01*
X0383946Y0028199D01*
X0384111Y0028246D01*
X0384277Y0028290D01*
X0384444Y0028330D01*
X0384612Y0028365D01*
X0384781Y0028397D01*
X0384951Y0028424D01*
X0385121Y0028447D01*
X0385292Y0028466D01*
X0385463Y0028481D01*
X0385635Y0028492D01*
X0385806Y0028498D01*
X0385978Y0028500D01*
X0386150Y0028498D01*
X0386321Y0028492D01*
X0386493Y0028481D01*
X0386664Y0028466D01*
X0386835Y0028447D01*
X0387005Y0028424D01*
X0387175Y0028397D01*
X0387344Y0028365D01*
X0387512Y0028330D01*
X0387679Y0028290D01*
X0387845Y0028246D01*
X0388010Y0028199D01*
X0388174Y0028147D01*
X0388336Y0028091D01*
X0388497Y0028031D01*
X0388657Y0027967D01*
X0388815Y0027899D01*
X0388971Y0027828D01*
X0389125Y0027753D01*
X0389278Y0027673D01*
X0389428Y0027591D01*
X0389577Y0027504D01*
X0389723Y0027414D01*
X0389867Y0027320D01*
X0390009Y0027223D01*
X0390148Y0027122D01*
X0390285Y0027018D01*
X0390419Y0026911D01*
X0390550Y0026800D01*
X0390679Y0026687D01*
X0390805Y0026570D01*
X0390928Y0026450D01*
X0391048Y0026327D01*
X0391165Y0026201D01*
X0391278Y0026072D01*
X0391389Y0025941D01*
X0391496Y0025807D01*
X0391600Y0025670D01*
X0391701Y0025531D01*
X0391798Y0025389D01*
X0391892Y0025245D01*
X0391982Y0025099D01*
X0392069Y0024950D01*
X0392151Y0024800D01*
X0392231Y0024647D01*
X0392306Y0024493D01*
X0392377Y0024337D01*
X0392445Y0024179D01*
X0392509Y0024019D01*
X0392569Y0023858D01*
X0392625Y0023696D01*
X0392677Y0023532D01*
X0392724Y0023367D01*
X0392768Y0023201D01*
X0392808Y0023034D01*
X0392843Y0022866D01*
X0392875Y0022697D01*
X0392902Y0022527D01*
X0392925Y0022357D01*
X0392944Y0022186D01*
X0392959Y0022015D01*
X0392970Y0021843D01*
X0392976Y0021672D01*
X0392978Y0021500D01*
X0392976Y0021328D01*
X0392970Y0021157D01*
X0392959Y0020985D01*
X0392944Y0020814D01*
X0392925Y0020643D01*
X0392902Y0020473D01*
X0392875Y0020303D01*
X0392843Y0020134D01*
X0392808Y0019966D01*
X0392768Y0019799D01*
X0392724Y0019633D01*
X0392677Y0019468D01*
X0392625Y0019304D01*
X0392569Y0019142D01*
X0392509Y0018981D01*
X0392445Y0018821D01*
X0392377Y0018663D01*
X0392306Y0018507D01*
X0392231Y0018353D01*
X0392151Y0018200D01*
X0392069Y0018050D01*
X0391982Y0017901D01*
X0391892Y0017755D01*
X0391798Y0017611D01*
X0391701Y0017469D01*
X0391600Y0017330D01*
X0391496Y0017193D01*
X0391389Y0017059D01*
X0391278Y0016928D01*
X0391165Y0016799D01*
X0391048Y0016673D01*
X0390928Y0016550D01*
X0390805Y0016430D01*
X0390679Y0016313D01*
X0390550Y0016200D01*
X0390419Y0016089D01*
X0390285Y0015982D01*
X0390148Y0015878D01*
X0390009Y0015777D01*
X0389867Y0015680D01*
X0389723Y0015586D01*
X0389577Y0015496D01*
X0389428Y0015409D01*
X0389278Y0015327D01*
X0389125Y0015247D01*
X0388971Y0015172D01*
X0388815Y0015101D01*
X0388657Y0015033D01*
X0388497Y0014969D01*
X0388336Y0014909D01*
X0388174Y0014853D01*
X0388010Y0014801D01*
X0387845Y0014754D01*
X0387679Y0014710D01*
X0387512Y0014670D01*
X0387344Y0014635D01*
X0387175Y0014603D01*
X0387005Y0014576D01*
X0386835Y0014553D01*
X0386664Y0014534D01*
X0386493Y0014519D01*
X0386321Y0014508D01*
X0386150Y0014502D01*
X0385978Y0014500D01*
X0385806Y0014502D01*
X0385635Y0014508D01*
X0385463Y0014519D01*
X0385292Y0014534D01*
X0385121Y0014553D01*
X0384951Y0014576D01*
X0384781Y0014603D01*
X0384612Y0014635D01*
X0384444Y0014670D01*
X0384277Y0014710D01*
X0384111Y0014754D01*
X0383946Y0014801D01*
X0383782Y0014853D01*
X0383620Y0014909D01*
X0383459Y0014969D01*
X0383299Y0015033D01*
X0383141Y0015101D01*
X0382985Y0015172D01*
X0382831Y0015247D01*
X0382678Y0015327D01*
X0382528Y0015409D01*
X0382379Y0015496D01*
X0382233Y0015586D01*
X0382089Y0015680D01*
X0381947Y0015777D01*
X0381808Y0015878D01*
X0381671Y0015982D01*
X0381537Y0016089D01*
X0381406Y0016200D01*
X0381277Y0016313D01*
X0381151Y0016430D01*
X0381028Y0016550D01*
X0380908Y0016673D01*
X0380791Y0016799D01*
X0380678Y0016928D01*
X0380567Y0017059D01*
X0380460Y0017193D01*
X0380356Y0017330D01*
X0380255Y0017469D01*
X0380158Y0017611D01*
X0380064Y0017755D01*
X0379974Y0017901D01*
X0379887Y0018050D01*
X0379805Y0018200D01*
X0379725Y0018353D01*
X0379650Y0018507D01*
X0379579Y0018663D01*
X0379511Y0018821D01*
X0379447Y0018981D01*
X0379387Y0019142D01*
X0379331Y0019304D01*
X0379279Y0019468D01*
X0379232Y0019633D01*
X0379188Y0019799D01*
X0379148Y0019966D01*
X0379113Y0020134D01*
X0379081Y0020303D01*
X0379054Y0020473D01*
X0379031Y0020643D01*
X0379012Y0020814D01*
X0378997Y0020985D01*
X0378986Y0021157D01*
X0378980Y0021328D01*
X0378978Y0021500D01*
D11*
X0377706Y0019850D02*
X0372435Y0019850D01*
X0372435Y0027757D01*
X0369787Y0027757D02*
X0364516Y0027757D01*
X0364516Y0019850D01*
X0369787Y0019850D01*
X0367152Y0023803D02*
X0364516Y0023803D01*
X0361868Y0023803D02*
X0356597Y0023803D01*
X0356597Y0025121D02*
X0359233Y0027757D01*
X0361868Y0025121D01*
X0361868Y0019850D01*
X0356597Y0019850D02*
X0356597Y0025121D01*
X0353950Y0026439D02*
X0353950Y0021168D01*
X0352632Y0019850D01*
X0348679Y0019850D01*
X0348679Y0027757D01*
X0352632Y0027757D01*
X0353950Y0026439D01*
X0338112Y0023803D02*
X0332841Y0023803D01*
X0322275Y0023803D02*
X0320957Y0022486D01*
X0317004Y0022486D01*
X0319639Y0022486D02*
X0322275Y0019850D01*
X0322275Y0023803D02*
X0322275Y0026439D01*
X0320957Y0027757D01*
X0317004Y0027757D01*
X0317004Y0019850D01*
X0314356Y0023803D02*
X0313038Y0022486D01*
X0309085Y0022486D01*
X0309085Y0019850D02*
X0309085Y0027757D01*
X0313038Y0027757D01*
X0314356Y0026439D01*
X0314356Y0023803D01*
X0306437Y0027757D02*
X0301166Y0027757D01*
X0301166Y0019850D01*
X0301166Y0023803D02*
X0303802Y0023803D01*
X0298518Y0027757D02*
X0293247Y0027757D01*
X0295883Y0027757D02*
X0295883Y0019850D01*
X0290600Y0021168D02*
X0290600Y0027757D01*
X0285328Y0027757D02*
X0285328Y0021168D01*
X0286646Y0019850D01*
X0289282Y0019850D01*
X0290600Y0021168D01*
X0380354Y0027757D02*
X0385625Y0027757D01*
X0382989Y0027757D02*
X0382989Y0019850D01*
D12*
X0378478Y0041500D02*
X0375978Y0044000D01*
X0375978Y0049000D01*
X0378478Y0051500D01*
X0375978Y0054000D01*
X0375978Y0059000D01*
X0378478Y0061500D01*
X0375978Y0064000D01*
X0375978Y0069000D01*
X0378478Y0071500D01*
X0375978Y0074000D01*
X0375978Y0079000D01*
X0378478Y0081500D01*
X0375978Y0084000D01*
X0375978Y0089000D01*
X0378478Y0091500D01*
X0393478Y0091500D01*
X0395978Y0089000D01*
X0395978Y0084000D01*
X0393478Y0081500D01*
X0395978Y0079000D01*
X0395978Y0074000D01*
X0393478Y0071500D01*
X0395978Y0069000D01*
X0395978Y0064000D01*
X0393478Y0061500D01*
X0395978Y0059000D01*
X0395978Y0054000D01*
X0393478Y0051500D01*
X0395978Y0049000D01*
X0395978Y0044000D01*
X0393478Y0041500D01*
X0378478Y0041500D01*
X0401944Y0081487D02*
X0402778Y0082321D01*
X0402778Y0083155D01*
X0401944Y0083989D01*
X0397774Y0083989D01*
X0397774Y0083155D02*
X0397774Y0084823D01*
X0400276Y0086644D02*
X0400276Y0089980D01*
X0402778Y0089146D02*
X0397774Y0089146D01*
X0400276Y0086644D01*
X0388478Y0146500D02*
X0383478Y0146500D01*
X0380978Y0149000D01*
X0380978Y0154000D01*
X0383478Y0156500D01*
X0380978Y0159000D01*
X0380978Y0164000D01*
X0383478Y0166500D01*
X0380978Y0169000D01*
X0380978Y0174000D01*
X0383478Y0176500D01*
X0380978Y0179000D01*
X0380978Y0184000D01*
X0383478Y0186500D01*
X0388478Y0186500D01*
X0390978Y0184000D01*
X0390978Y0179000D01*
X0388478Y0176500D01*
X0390978Y0174000D01*
X0390978Y0169000D01*
X0388478Y0166500D01*
X0390978Y0164000D01*
X0390978Y0159000D01*
X0388478Y0156500D01*
X0390978Y0154000D01*
X0390978Y0149000D01*
X0388478Y0146500D01*
X0396944Y0176487D02*
X0397778Y0177321D01*
X0397778Y0178155D01*
X0396944Y0178989D01*
X0392774Y0178989D01*
X0392774Y0178155D02*
X0392774Y0179823D01*
X0395276Y0181644D02*
X0393608Y0183312D01*
X0392774Y0184980D01*
X0395276Y0184146D02*
X0395276Y0181644D01*
X0396944Y0181644D01*
X0397778Y0182478D01*
X0397778Y0184146D01*
X0396944Y0184980D01*
X0396110Y0184980D01*
X0395276Y0184146D01*
X0334458Y0236934D02*
X0333624Y0236100D01*
X0331956Y0236100D01*
X0331122Y0236934D01*
X0329302Y0236100D02*
X0325966Y0236100D01*
X0327634Y0236100D02*
X0327634Y0241104D01*
X0325966Y0239436D01*
X0324145Y0238602D02*
X0323311Y0237768D01*
X0320809Y0237768D01*
X0320809Y0236100D02*
X0320809Y0241104D01*
X0323311Y0241104D01*
X0324145Y0240270D01*
X0324145Y0238602D01*
X0322477Y0237768D02*
X0324145Y0236100D01*
X0331122Y0240270D02*
X0331956Y0241104D01*
X0333624Y0241104D01*
X0334458Y0240270D01*
X0334458Y0239436D01*
X0333624Y0238602D01*
X0334458Y0237768D01*
X0334458Y0236934D01*
X0333624Y0238602D02*
X0332790Y0238602D01*
X0333478Y0242500D02*
X0332978Y0243000D01*
X0318978Y0243000D01*
X0318478Y0242500D01*
X0316978Y0242500D01*
X0316918Y0242502D01*
X0316857Y0242507D01*
X0316798Y0242516D01*
X0316739Y0242529D01*
X0316680Y0242545D01*
X0316623Y0242565D01*
X0316568Y0242588D01*
X0316513Y0242615D01*
X0316461Y0242644D01*
X0316410Y0242677D01*
X0316361Y0242713D01*
X0316315Y0242751D01*
X0316271Y0242793D01*
X0316229Y0242837D01*
X0316191Y0242883D01*
X0316155Y0242932D01*
X0316122Y0242983D01*
X0316093Y0243035D01*
X0316066Y0243090D01*
X0316043Y0243145D01*
X0316023Y0243202D01*
X0316007Y0243261D01*
X0315994Y0243320D01*
X0315985Y0243379D01*
X0315980Y0243440D01*
X0315978Y0243500D01*
X0315978Y0249500D01*
X0315980Y0249560D01*
X0315985Y0249621D01*
X0315994Y0249680D01*
X0316007Y0249739D01*
X0316023Y0249798D01*
X0316043Y0249855D01*
X0316066Y0249910D01*
X0316093Y0249965D01*
X0316122Y0250017D01*
X0316155Y0250068D01*
X0316191Y0250117D01*
X0316229Y0250163D01*
X0316271Y0250207D01*
X0316315Y0250249D01*
X0316361Y0250287D01*
X0316410Y0250323D01*
X0316461Y0250356D01*
X0316513Y0250385D01*
X0316568Y0250412D01*
X0316623Y0250435D01*
X0316680Y0250455D01*
X0316739Y0250471D01*
X0316798Y0250484D01*
X0316857Y0250493D01*
X0316918Y0250498D01*
X0316978Y0250500D01*
X0318478Y0250500D01*
X0318978Y0250000D01*
X0332978Y0250000D01*
X0333478Y0250500D01*
X0334978Y0250500D01*
X0335038Y0250498D01*
X0335099Y0250493D01*
X0335158Y0250484D01*
X0335217Y0250471D01*
X0335276Y0250455D01*
X0335333Y0250435D01*
X0335388Y0250412D01*
X0335443Y0250385D01*
X0335495Y0250356D01*
X0335546Y0250323D01*
X0335595Y0250287D01*
X0335641Y0250249D01*
X0335685Y0250207D01*
X0335727Y0250163D01*
X0335765Y0250117D01*
X0335801Y0250068D01*
X0335834Y0250017D01*
X0335863Y0249965D01*
X0335890Y0249910D01*
X0335913Y0249855D01*
X0335933Y0249798D01*
X0335949Y0249739D01*
X0335962Y0249680D01*
X0335971Y0249621D01*
X0335976Y0249560D01*
X0335978Y0249500D01*
X0335978Y0243500D01*
X0335976Y0243440D01*
X0335971Y0243379D01*
X0335962Y0243320D01*
X0335949Y0243261D01*
X0335933Y0243202D01*
X0335913Y0243145D01*
X0335890Y0243090D01*
X0335863Y0243035D01*
X0335834Y0242983D01*
X0335801Y0242932D01*
X0335765Y0242883D01*
X0335727Y0242837D01*
X0335685Y0242793D01*
X0335641Y0242751D01*
X0335595Y0242713D01*
X0335546Y0242677D01*
X0335495Y0242644D01*
X0335443Y0242615D01*
X0335388Y0242588D01*
X0335333Y0242565D01*
X0335276Y0242545D01*
X0335217Y0242529D01*
X0335158Y0242516D01*
X0335099Y0242507D01*
X0335038Y0242502D01*
X0334978Y0242500D01*
X0333478Y0242500D01*
X0333478Y0252500D02*
X0332978Y0253000D01*
X0318978Y0253000D01*
X0318478Y0252500D01*
X0316978Y0252500D01*
X0316918Y0252502D01*
X0316857Y0252507D01*
X0316798Y0252516D01*
X0316739Y0252529D01*
X0316680Y0252545D01*
X0316623Y0252565D01*
X0316568Y0252588D01*
X0316513Y0252615D01*
X0316461Y0252644D01*
X0316410Y0252677D01*
X0316361Y0252713D01*
X0316315Y0252751D01*
X0316271Y0252793D01*
X0316229Y0252837D01*
X0316191Y0252883D01*
X0316155Y0252932D01*
X0316122Y0252983D01*
X0316093Y0253035D01*
X0316066Y0253090D01*
X0316043Y0253145D01*
X0316023Y0253202D01*
X0316007Y0253261D01*
X0315994Y0253320D01*
X0315985Y0253379D01*
X0315980Y0253440D01*
X0315978Y0253500D01*
X0315978Y0259500D01*
X0315980Y0259560D01*
X0315985Y0259621D01*
X0315994Y0259680D01*
X0316007Y0259739D01*
X0316023Y0259798D01*
X0316043Y0259855D01*
X0316066Y0259910D01*
X0316093Y0259965D01*
X0316122Y0260017D01*
X0316155Y0260068D01*
X0316191Y0260117D01*
X0316229Y0260163D01*
X0316271Y0260207D01*
X0316315Y0260249D01*
X0316361Y0260287D01*
X0316410Y0260323D01*
X0316461Y0260356D01*
X0316513Y0260385D01*
X0316568Y0260412D01*
X0316623Y0260435D01*
X0316680Y0260455D01*
X0316739Y0260471D01*
X0316798Y0260484D01*
X0316857Y0260493D01*
X0316918Y0260498D01*
X0316978Y0260500D01*
X0318478Y0260500D01*
X0318978Y0260000D01*
X0332978Y0260000D01*
X0333478Y0260500D01*
X0334978Y0260500D01*
X0335038Y0260498D01*
X0335099Y0260493D01*
X0335158Y0260484D01*
X0335217Y0260471D01*
X0335276Y0260455D01*
X0335333Y0260435D01*
X0335388Y0260412D01*
X0335443Y0260385D01*
X0335495Y0260356D01*
X0335546Y0260323D01*
X0335595Y0260287D01*
X0335641Y0260249D01*
X0335685Y0260207D01*
X0335727Y0260163D01*
X0335765Y0260117D01*
X0335801Y0260068D01*
X0335834Y0260017D01*
X0335863Y0259965D01*
X0335890Y0259910D01*
X0335913Y0259855D01*
X0335933Y0259798D01*
X0335949Y0259739D01*
X0335962Y0259680D01*
X0335971Y0259621D01*
X0335976Y0259560D01*
X0335978Y0259500D01*
X0335978Y0253500D01*
X0335976Y0253440D01*
X0335971Y0253379D01*
X0335962Y0253320D01*
X0335949Y0253261D01*
X0335933Y0253202D01*
X0335913Y0253145D01*
X0335890Y0253090D01*
X0335863Y0253035D01*
X0335834Y0252983D01*
X0335801Y0252932D01*
X0335765Y0252883D01*
X0335727Y0252837D01*
X0335685Y0252793D01*
X0335641Y0252751D01*
X0335595Y0252713D01*
X0335546Y0252677D01*
X0335495Y0252644D01*
X0335443Y0252615D01*
X0335388Y0252588D01*
X0335333Y0252565D01*
X0335276Y0252545D01*
X0335217Y0252529D01*
X0335158Y0252516D01*
X0335099Y0252507D01*
X0335038Y0252502D01*
X0334978Y0252500D01*
X0333478Y0252500D01*
X0332624Y0260100D02*
X0333458Y0260934D01*
X0333458Y0264270D01*
X0332624Y0265104D01*
X0330956Y0265104D01*
X0330122Y0264270D01*
X0330122Y0263436D01*
X0330956Y0262602D01*
X0333458Y0262602D01*
X0332624Y0260100D02*
X0330956Y0260100D01*
X0330122Y0260934D01*
X0328302Y0260100D02*
X0326634Y0261768D01*
X0327468Y0261768D02*
X0324966Y0261768D01*
X0324966Y0260100D02*
X0324966Y0265104D01*
X0327468Y0265104D01*
X0328302Y0264270D01*
X0328302Y0262602D01*
X0327468Y0261768D01*
X0321458Y0266934D02*
X0321458Y0267768D01*
X0320624Y0268602D01*
X0318956Y0268602D01*
X0318122Y0269436D01*
X0318122Y0270270D01*
X0318956Y0271104D01*
X0320624Y0271104D01*
X0321458Y0270270D01*
X0321458Y0269436D01*
X0320624Y0268602D01*
X0318956Y0268602D02*
X0318122Y0267768D01*
X0318122Y0266934D01*
X0318956Y0266100D01*
X0320624Y0266100D01*
X0321458Y0266934D01*
X0316302Y0266100D02*
X0314634Y0267768D01*
X0315468Y0267768D02*
X0312966Y0267768D01*
X0312966Y0266100D02*
X0312966Y0271104D01*
X0315468Y0271104D01*
X0316302Y0270270D01*
X0316302Y0268602D01*
X0315468Y0267768D01*
X0316978Y0272500D02*
X0318478Y0272500D01*
X0318978Y0273000D01*
X0332978Y0273000D01*
X0333478Y0272500D01*
X0334978Y0272500D01*
X0335038Y0272502D01*
X0335099Y0272507D01*
X0335158Y0272516D01*
X0335217Y0272529D01*
X0335276Y0272545D01*
X0335333Y0272565D01*
X0335388Y0272588D01*
X0335443Y0272615D01*
X0335495Y0272644D01*
X0335546Y0272677D01*
X0335595Y0272713D01*
X0335641Y0272751D01*
X0335685Y0272793D01*
X0335727Y0272837D01*
X0335765Y0272883D01*
X0335801Y0272932D01*
X0335834Y0272983D01*
X0335863Y0273035D01*
X0335890Y0273090D01*
X0335913Y0273145D01*
X0335933Y0273202D01*
X0335949Y0273261D01*
X0335962Y0273320D01*
X0335971Y0273379D01*
X0335976Y0273440D01*
X0335978Y0273500D01*
X0335978Y0279500D01*
X0335976Y0279560D01*
X0335971Y0279621D01*
X0335962Y0279680D01*
X0335949Y0279739D01*
X0335933Y0279798D01*
X0335913Y0279855D01*
X0335890Y0279910D01*
X0335863Y0279965D01*
X0335834Y0280017D01*
X0335801Y0280068D01*
X0335765Y0280117D01*
X0335727Y0280163D01*
X0335685Y0280207D01*
X0335641Y0280249D01*
X0335595Y0280287D01*
X0335546Y0280323D01*
X0335495Y0280356D01*
X0335443Y0280385D01*
X0335388Y0280412D01*
X0335333Y0280435D01*
X0335276Y0280455D01*
X0335217Y0280471D01*
X0335158Y0280484D01*
X0335099Y0280493D01*
X0335038Y0280498D01*
X0334978Y0280500D01*
X0333478Y0280500D01*
X0332978Y0280000D01*
X0318978Y0280000D01*
X0318478Y0280500D01*
X0316978Y0280500D01*
X0316918Y0280498D01*
X0316857Y0280493D01*
X0316798Y0280484D01*
X0316739Y0280471D01*
X0316680Y0280455D01*
X0316623Y0280435D01*
X0316568Y0280412D01*
X0316513Y0280385D01*
X0316461Y0280356D01*
X0316410Y0280323D01*
X0316361Y0280287D01*
X0316315Y0280249D01*
X0316271Y0280207D01*
X0316229Y0280163D01*
X0316191Y0280117D01*
X0316155Y0280068D01*
X0316122Y0280017D01*
X0316093Y0279965D01*
X0316066Y0279910D01*
X0316043Y0279855D01*
X0316023Y0279798D01*
X0316007Y0279739D01*
X0315994Y0279680D01*
X0315985Y0279621D01*
X0315980Y0279560D01*
X0315978Y0279500D01*
X0315978Y0273500D01*
X0315980Y0273440D01*
X0315985Y0273379D01*
X0315994Y0273320D01*
X0316007Y0273261D01*
X0316023Y0273202D01*
X0316043Y0273145D01*
X0316066Y0273090D01*
X0316093Y0273035D01*
X0316122Y0272983D01*
X0316155Y0272932D01*
X0316191Y0272883D01*
X0316229Y0272837D01*
X0316271Y0272793D01*
X0316315Y0272751D01*
X0316361Y0272713D01*
X0316410Y0272677D01*
X0316461Y0272644D01*
X0316513Y0272615D01*
X0316568Y0272588D01*
X0316623Y0272565D01*
X0316680Y0272545D01*
X0316739Y0272529D01*
X0316798Y0272516D01*
X0316857Y0272507D01*
X0316918Y0272502D01*
X0316978Y0272500D01*
X0316978Y0282500D02*
X0318478Y0282500D01*
X0318978Y0283000D01*
X0332978Y0283000D01*
X0333478Y0282500D01*
X0334978Y0282500D01*
X0335038Y0282502D01*
X0335099Y0282507D01*
X0335158Y0282516D01*
X0335217Y0282529D01*
X0335276Y0282545D01*
X0335333Y0282565D01*
X0335388Y0282588D01*
X0335443Y0282615D01*
X0335495Y0282644D01*
X0335546Y0282677D01*
X0335595Y0282713D01*
X0335641Y0282751D01*
X0335685Y0282793D01*
X0335727Y0282837D01*
X0335765Y0282883D01*
X0335801Y0282932D01*
X0335834Y0282983D01*
X0335863Y0283035D01*
X0335890Y0283090D01*
X0335913Y0283145D01*
X0335933Y0283202D01*
X0335949Y0283261D01*
X0335962Y0283320D01*
X0335971Y0283379D01*
X0335976Y0283440D01*
X0335978Y0283500D01*
X0335978Y0289500D01*
X0335976Y0289560D01*
X0335971Y0289621D01*
X0335962Y0289680D01*
X0335949Y0289739D01*
X0335933Y0289798D01*
X0335913Y0289855D01*
X0335890Y0289910D01*
X0335863Y0289965D01*
X0335834Y0290017D01*
X0335801Y0290068D01*
X0335765Y0290117D01*
X0335727Y0290163D01*
X0335685Y0290207D01*
X0335641Y0290249D01*
X0335595Y0290287D01*
X0335546Y0290323D01*
X0335495Y0290356D01*
X0335443Y0290385D01*
X0335388Y0290412D01*
X0335333Y0290435D01*
X0335276Y0290455D01*
X0335217Y0290471D01*
X0335158Y0290484D01*
X0335099Y0290493D01*
X0335038Y0290498D01*
X0334978Y0290500D01*
X0333478Y0290500D01*
X0332978Y0290000D01*
X0318978Y0290000D01*
X0318478Y0290500D01*
X0316978Y0290500D01*
X0316918Y0290498D01*
X0316857Y0290493D01*
X0316798Y0290484D01*
X0316739Y0290471D01*
X0316680Y0290455D01*
X0316623Y0290435D01*
X0316568Y0290412D01*
X0316513Y0290385D01*
X0316461Y0290356D01*
X0316410Y0290323D01*
X0316361Y0290287D01*
X0316315Y0290249D01*
X0316271Y0290207D01*
X0316229Y0290163D01*
X0316191Y0290117D01*
X0316155Y0290068D01*
X0316122Y0290017D01*
X0316093Y0289965D01*
X0316066Y0289910D01*
X0316043Y0289855D01*
X0316023Y0289798D01*
X0316007Y0289739D01*
X0315994Y0289680D01*
X0315985Y0289621D01*
X0315980Y0289560D01*
X0315978Y0289500D01*
X0315978Y0283500D01*
X0315980Y0283440D01*
X0315985Y0283379D01*
X0315994Y0283320D01*
X0316007Y0283261D01*
X0316023Y0283202D01*
X0316043Y0283145D01*
X0316066Y0283090D01*
X0316093Y0283035D01*
X0316122Y0282983D01*
X0316155Y0282932D01*
X0316191Y0282883D01*
X0316229Y0282837D01*
X0316271Y0282793D01*
X0316315Y0282751D01*
X0316361Y0282713D01*
X0316410Y0282677D01*
X0316461Y0282644D01*
X0316513Y0282615D01*
X0316568Y0282588D01*
X0316623Y0282565D01*
X0316680Y0282545D01*
X0316739Y0282529D01*
X0316798Y0282516D01*
X0316857Y0282507D01*
X0316918Y0282502D01*
X0316978Y0282500D01*
X0316278Y0291900D02*
X0316278Y0296904D01*
X0318781Y0296904D01*
X0319615Y0296070D01*
X0319615Y0294402D01*
X0318781Y0293568D01*
X0316278Y0293568D01*
X0317947Y0293568D02*
X0319615Y0291900D01*
X0321435Y0291900D02*
X0324771Y0291900D01*
X0323103Y0291900D02*
X0323103Y0296904D01*
X0321435Y0295236D01*
X0326591Y0294402D02*
X0329093Y0294402D01*
X0329927Y0293568D01*
X0329927Y0292734D01*
X0329093Y0291900D01*
X0327425Y0291900D01*
X0326591Y0292734D01*
X0326591Y0294402D01*
X0328259Y0296070D01*
X0329927Y0296904D01*
X0332978Y0301500D02*
X0333978Y0302500D01*
X0334978Y0301500D01*
X0342978Y0301500D01*
X0343978Y0302500D01*
X0344978Y0301500D01*
X0353978Y0301500D01*
X0353978Y0311500D02*
X0344978Y0311500D01*
X0343978Y0310500D01*
X0342978Y0311500D01*
X0334978Y0311500D01*
X0333978Y0310500D01*
X0332978Y0311500D01*
X0324978Y0311500D01*
X0323978Y0310500D01*
X0322978Y0311500D01*
X0314978Y0311500D01*
X0313978Y0310500D01*
X0312978Y0311500D01*
X0304978Y0311500D01*
X0303978Y0310500D01*
X0302978Y0311500D01*
X0294978Y0311500D01*
X0293978Y0310500D01*
X0292978Y0311500D01*
X0284978Y0311500D01*
X0283978Y0310500D01*
X0282978Y0311500D01*
X0274978Y0311500D01*
X0273978Y0310500D01*
X0272978Y0311500D01*
X0264978Y0311500D01*
X0263978Y0310500D01*
X0262978Y0311500D01*
X0254978Y0311500D01*
X0253978Y0310500D01*
X0252978Y0311500D01*
X0244978Y0311500D01*
X0243978Y0310500D01*
X0242978Y0311500D01*
X0234978Y0311500D01*
X0233978Y0310500D01*
X0232978Y0311500D01*
X0224978Y0311500D01*
X0223978Y0310500D01*
X0222978Y0311500D01*
X0214978Y0311500D01*
X0213978Y0310500D01*
X0212978Y0311500D01*
X0203978Y0311500D01*
X0203978Y0301500D01*
X0212978Y0301500D01*
X0213978Y0302500D01*
X0214978Y0301500D01*
X0222978Y0301500D01*
X0223978Y0302500D01*
X0224978Y0301500D01*
X0232978Y0301500D01*
X0233978Y0302500D01*
X0234978Y0301500D01*
X0242978Y0301500D01*
X0243978Y0302500D01*
X0244978Y0301500D01*
X0252978Y0301500D01*
X0253978Y0302500D01*
X0254978Y0301500D01*
X0262978Y0301500D01*
X0263978Y0302500D01*
X0264978Y0301500D01*
X0272978Y0301500D01*
X0273978Y0302500D01*
X0274978Y0301500D01*
X0282978Y0301500D01*
X0283978Y0302500D01*
X0284978Y0301500D01*
X0292978Y0301500D01*
X0293978Y0302500D01*
X0294978Y0301500D01*
X0302978Y0301500D01*
X0303978Y0302500D01*
X0304978Y0301500D01*
X0312978Y0301500D01*
X0313978Y0302500D01*
X0314978Y0301500D01*
X0322978Y0301500D01*
X0323978Y0302500D01*
X0324978Y0301500D01*
X0332978Y0301500D01*
X0353978Y0289500D02*
X0353978Y0288000D01*
X0354478Y0287500D01*
X0354478Y0273500D01*
X0353978Y0273000D01*
X0353978Y0271500D01*
X0353980Y0271440D01*
X0353985Y0271379D01*
X0353994Y0271320D01*
X0354007Y0271261D01*
X0354023Y0271202D01*
X0354043Y0271145D01*
X0354066Y0271090D01*
X0354093Y0271035D01*
X0354122Y0270983D01*
X0354155Y0270932D01*
X0354191Y0270883D01*
X0354229Y0270837D01*
X0354271Y0270793D01*
X0354315Y0270751D01*
X0354361Y0270713D01*
X0354410Y0270677D01*
X0354461Y0270644D01*
X0354513Y0270615D01*
X0354568Y0270588D01*
X0354623Y0270565D01*
X0354680Y0270545D01*
X0354739Y0270529D01*
X0354798Y0270516D01*
X0354857Y0270507D01*
X0354918Y0270502D01*
X0354978Y0270500D01*
X0360978Y0270500D01*
X0361038Y0270502D01*
X0361099Y0270507D01*
X0361158Y0270516D01*
X0361217Y0270529D01*
X0361276Y0270545D01*
X0361333Y0270565D01*
X0361388Y0270588D01*
X0361443Y0270615D01*
X0361495Y0270644D01*
X0361546Y0270677D01*
X0361595Y0270713D01*
X0361641Y0270751D01*
X0361685Y0270793D01*
X0361727Y0270837D01*
X0361765Y0270883D01*
X0361801Y0270932D01*
X0361834Y0270983D01*
X0361863Y0271035D01*
X0361890Y0271090D01*
X0361913Y0271145D01*
X0361933Y0271202D01*
X0361949Y0271261D01*
X0361962Y0271320D01*
X0361971Y0271379D01*
X0361976Y0271440D01*
X0361978Y0271500D01*
X0361978Y0273000D01*
X0361478Y0273500D01*
X0361478Y0287500D01*
X0361978Y0288000D01*
X0361978Y0289500D01*
X0361976Y0289560D01*
X0361971Y0289621D01*
X0361962Y0289680D01*
X0361949Y0289739D01*
X0361933Y0289798D01*
X0361913Y0289855D01*
X0361890Y0289910D01*
X0361863Y0289965D01*
X0361834Y0290017D01*
X0361801Y0290068D01*
X0361765Y0290117D01*
X0361727Y0290163D01*
X0361685Y0290207D01*
X0361641Y0290249D01*
X0361595Y0290287D01*
X0361546Y0290323D01*
X0361495Y0290356D01*
X0361443Y0290385D01*
X0361388Y0290412D01*
X0361333Y0290435D01*
X0361276Y0290455D01*
X0361217Y0290471D01*
X0361158Y0290484D01*
X0361099Y0290493D01*
X0361038Y0290498D01*
X0360978Y0290500D01*
X0354978Y0290500D01*
X0354918Y0290498D01*
X0354857Y0290493D01*
X0354798Y0290484D01*
X0354739Y0290471D01*
X0354680Y0290455D01*
X0354623Y0290435D01*
X0354568Y0290412D01*
X0354513Y0290385D01*
X0354461Y0290356D01*
X0354410Y0290323D01*
X0354361Y0290287D01*
X0354315Y0290249D01*
X0354271Y0290207D01*
X0354229Y0290163D01*
X0354191Y0290117D01*
X0354155Y0290068D01*
X0354122Y0290017D01*
X0354093Y0289965D01*
X0354066Y0289910D01*
X0354043Y0289855D01*
X0354023Y0289798D01*
X0354007Y0289739D01*
X0353994Y0289680D01*
X0353985Y0289621D01*
X0353980Y0289560D01*
X0353978Y0289500D01*
X0363374Y0288146D02*
X0363374Y0286478D01*
X0364208Y0285644D01*
X0363374Y0288146D02*
X0364208Y0288980D01*
X0365042Y0288980D01*
X0368378Y0285644D01*
X0368378Y0288980D01*
X0368378Y0283823D02*
X0368378Y0280487D01*
X0368378Y0282155D02*
X0363374Y0282155D01*
X0365042Y0280487D01*
X0364208Y0278667D02*
X0365876Y0278667D01*
X0366710Y0277833D01*
X0366710Y0275331D01*
X0366710Y0276999D02*
X0368378Y0278667D01*
X0368378Y0275331D02*
X0363374Y0275331D01*
X0363374Y0277833D01*
X0364208Y0278667D01*
X0304478Y0291000D02*
X0304478Y0242000D01*
X0237478Y0242000D01*
X0237478Y0291000D01*
X0304478Y0291000D01*
X0281958Y0294034D02*
X0281124Y0293200D01*
X0279456Y0293200D01*
X0278622Y0294034D01*
X0280290Y0295702D02*
X0281124Y0295702D01*
X0281958Y0294868D01*
X0281958Y0294034D01*
X0281124Y0295702D02*
X0281958Y0296536D01*
X0281958Y0297370D01*
X0281124Y0298204D01*
X0279456Y0298204D01*
X0278622Y0297370D01*
X0276802Y0298204D02*
X0275134Y0298204D01*
X0275968Y0298204D02*
X0275968Y0294034D01*
X0275134Y0293200D01*
X0274300Y0293200D01*
X0273466Y0294034D01*
X0228271Y0295070D02*
X0224935Y0291734D01*
X0224935Y0290900D01*
X0224978Y0290500D02*
X0223478Y0290500D01*
X0222978Y0290000D01*
X0208978Y0290000D01*
X0208478Y0290500D01*
X0206978Y0290500D01*
X0206918Y0290498D01*
X0206857Y0290493D01*
X0206798Y0290484D01*
X0206739Y0290471D01*
X0206680Y0290455D01*
X0206623Y0290435D01*
X0206568Y0290412D01*
X0206513Y0290385D01*
X0206461Y0290356D01*
X0206410Y0290323D01*
X0206361Y0290287D01*
X0206315Y0290249D01*
X0206271Y0290207D01*
X0206229Y0290163D01*
X0206191Y0290117D01*
X0206155Y0290068D01*
X0206122Y0290017D01*
X0206093Y0289965D01*
X0206066Y0289910D01*
X0206043Y0289855D01*
X0206023Y0289798D01*
X0206007Y0289739D01*
X0205994Y0289680D01*
X0205985Y0289621D01*
X0205980Y0289560D01*
X0205978Y0289500D01*
X0205978Y0283500D01*
X0205980Y0283440D01*
X0205985Y0283379D01*
X0205994Y0283320D01*
X0206007Y0283261D01*
X0206023Y0283202D01*
X0206043Y0283145D01*
X0206066Y0283090D01*
X0206093Y0283035D01*
X0206122Y0282983D01*
X0206155Y0282932D01*
X0206191Y0282883D01*
X0206229Y0282837D01*
X0206271Y0282793D01*
X0206315Y0282751D01*
X0206361Y0282713D01*
X0206410Y0282677D01*
X0206461Y0282644D01*
X0206513Y0282615D01*
X0206568Y0282588D01*
X0206623Y0282565D01*
X0206680Y0282545D01*
X0206739Y0282529D01*
X0206798Y0282516D01*
X0206857Y0282507D01*
X0206918Y0282502D01*
X0206978Y0282500D01*
X0208478Y0282500D01*
X0208978Y0283000D01*
X0222978Y0283000D01*
X0223478Y0282500D01*
X0224978Y0282500D01*
X0225038Y0282502D01*
X0225099Y0282507D01*
X0225158Y0282516D01*
X0225217Y0282529D01*
X0225276Y0282545D01*
X0225333Y0282565D01*
X0225388Y0282588D01*
X0225443Y0282615D01*
X0225495Y0282644D01*
X0225546Y0282677D01*
X0225595Y0282713D01*
X0225641Y0282751D01*
X0225685Y0282793D01*
X0225727Y0282837D01*
X0225765Y0282883D01*
X0225801Y0282932D01*
X0225834Y0282983D01*
X0225863Y0283035D01*
X0225890Y0283090D01*
X0225913Y0283145D01*
X0225933Y0283202D01*
X0225949Y0283261D01*
X0225962Y0283320D01*
X0225971Y0283379D01*
X0225976Y0283440D01*
X0225978Y0283500D01*
X0225978Y0289500D01*
X0225976Y0289560D01*
X0225971Y0289621D01*
X0225962Y0289680D01*
X0225949Y0289739D01*
X0225933Y0289798D01*
X0225913Y0289855D01*
X0225890Y0289910D01*
X0225863Y0289965D01*
X0225834Y0290017D01*
X0225801Y0290068D01*
X0225765Y0290117D01*
X0225727Y0290163D01*
X0225685Y0290207D01*
X0225641Y0290249D01*
X0225595Y0290287D01*
X0225546Y0290323D01*
X0225495Y0290356D01*
X0225443Y0290385D01*
X0225388Y0290412D01*
X0225333Y0290435D01*
X0225276Y0290455D01*
X0225217Y0290471D01*
X0225158Y0290484D01*
X0225099Y0290493D01*
X0225038Y0290498D01*
X0224978Y0290500D01*
X0223115Y0290900D02*
X0221447Y0292568D01*
X0222281Y0292568D02*
X0219778Y0292568D01*
X0219778Y0290900D02*
X0219778Y0295904D01*
X0222281Y0295904D01*
X0223115Y0295070D01*
X0223115Y0293402D01*
X0222281Y0292568D01*
X0224935Y0295904D02*
X0228271Y0295904D01*
X0228271Y0295070D01*
X0224978Y0280500D02*
X0223478Y0280500D01*
X0222978Y0280000D01*
X0208978Y0280000D01*
X0208478Y0280500D01*
X0206978Y0280500D01*
X0206918Y0280498D01*
X0206857Y0280493D01*
X0206798Y0280484D01*
X0206739Y0280471D01*
X0206680Y0280455D01*
X0206623Y0280435D01*
X0206568Y0280412D01*
X0206513Y0280385D01*
X0206461Y0280356D01*
X0206410Y0280323D01*
X0206361Y0280287D01*
X0206315Y0280249D01*
X0206271Y0280207D01*
X0206229Y0280163D01*
X0206191Y0280117D01*
X0206155Y0280068D01*
X0206122Y0280017D01*
X0206093Y0279965D01*
X0206066Y0279910D01*
X0206043Y0279855D01*
X0206023Y0279798D01*
X0206007Y0279739D01*
X0205994Y0279680D01*
X0205985Y0279621D01*
X0205980Y0279560D01*
X0205978Y0279500D01*
X0205978Y0273500D01*
X0205980Y0273440D01*
X0205985Y0273379D01*
X0205994Y0273320D01*
X0206007Y0273261D01*
X0206023Y0273202D01*
X0206043Y0273145D01*
X0206066Y0273090D01*
X0206093Y0273035D01*
X0206122Y0272983D01*
X0206155Y0272932D01*
X0206191Y0272883D01*
X0206229Y0272837D01*
X0206271Y0272793D01*
X0206315Y0272751D01*
X0206361Y0272713D01*
X0206410Y0272677D01*
X0206461Y0272644D01*
X0206513Y0272615D01*
X0206568Y0272588D01*
X0206623Y0272565D01*
X0206680Y0272545D01*
X0206739Y0272529D01*
X0206798Y0272516D01*
X0206857Y0272507D01*
X0206918Y0272502D01*
X0206978Y0272500D01*
X0208478Y0272500D01*
X0208978Y0273000D01*
X0222978Y0273000D01*
X0223478Y0272500D01*
X0224978Y0272500D01*
X0225038Y0272502D01*
X0225099Y0272507D01*
X0225158Y0272516D01*
X0225217Y0272529D01*
X0225276Y0272545D01*
X0225333Y0272565D01*
X0225388Y0272588D01*
X0225443Y0272615D01*
X0225495Y0272644D01*
X0225546Y0272677D01*
X0225595Y0272713D01*
X0225641Y0272751D01*
X0225685Y0272793D01*
X0225727Y0272837D01*
X0225765Y0272883D01*
X0225801Y0272932D01*
X0225834Y0272983D01*
X0225863Y0273035D01*
X0225890Y0273090D01*
X0225913Y0273145D01*
X0225933Y0273202D01*
X0225949Y0273261D01*
X0225962Y0273320D01*
X0225971Y0273379D01*
X0225976Y0273440D01*
X0225978Y0273500D01*
X0225978Y0279500D01*
X0225976Y0279560D01*
X0225971Y0279621D01*
X0225962Y0279680D01*
X0225949Y0279739D01*
X0225933Y0279798D01*
X0225913Y0279855D01*
X0225890Y0279910D01*
X0225863Y0279965D01*
X0225834Y0280017D01*
X0225801Y0280068D01*
X0225765Y0280117D01*
X0225727Y0280163D01*
X0225685Y0280207D01*
X0225641Y0280249D01*
X0225595Y0280287D01*
X0225546Y0280323D01*
X0225495Y0280356D01*
X0225443Y0280385D01*
X0225388Y0280412D01*
X0225333Y0280435D01*
X0225276Y0280455D01*
X0225217Y0280471D01*
X0225158Y0280484D01*
X0225099Y0280493D01*
X0225038Y0280498D01*
X0224978Y0280500D01*
X0227771Y0271404D02*
X0226103Y0270570D01*
X0224435Y0268902D01*
X0226937Y0268902D01*
X0227771Y0268068D01*
X0227771Y0267234D01*
X0226937Y0266400D01*
X0225269Y0266400D01*
X0224435Y0267234D01*
X0224435Y0268902D01*
X0222615Y0268902D02*
X0222615Y0270570D01*
X0221781Y0271404D01*
X0219278Y0271404D01*
X0219278Y0266400D01*
X0219093Y0266404D02*
X0216591Y0263902D01*
X0219927Y0263902D01*
X0219093Y0261400D02*
X0219093Y0266404D01*
X0219278Y0268068D02*
X0221781Y0268068D01*
X0222615Y0268902D01*
X0220947Y0268068D02*
X0222615Y0266400D01*
X0223478Y0260500D02*
X0224978Y0260500D01*
X0225038Y0260498D01*
X0225099Y0260493D01*
X0225158Y0260484D01*
X0225217Y0260471D01*
X0225276Y0260455D01*
X0225333Y0260435D01*
X0225388Y0260412D01*
X0225443Y0260385D01*
X0225495Y0260356D01*
X0225546Y0260323D01*
X0225595Y0260287D01*
X0225641Y0260249D01*
X0225685Y0260207D01*
X0225727Y0260163D01*
X0225765Y0260117D01*
X0225801Y0260068D01*
X0225834Y0260017D01*
X0225863Y0259965D01*
X0225890Y0259910D01*
X0225913Y0259855D01*
X0225933Y0259798D01*
X0225949Y0259739D01*
X0225962Y0259680D01*
X0225971Y0259621D01*
X0225976Y0259560D01*
X0225978Y0259500D01*
X0225978Y0253500D01*
X0225976Y0253440D01*
X0225971Y0253379D01*
X0225962Y0253320D01*
X0225949Y0253261D01*
X0225933Y0253202D01*
X0225913Y0253145D01*
X0225890Y0253090D01*
X0225863Y0253035D01*
X0225834Y0252983D01*
X0225801Y0252932D01*
X0225765Y0252883D01*
X0225727Y0252837D01*
X0225685Y0252793D01*
X0225641Y0252751D01*
X0225595Y0252713D01*
X0225546Y0252677D01*
X0225495Y0252644D01*
X0225443Y0252615D01*
X0225388Y0252588D01*
X0225333Y0252565D01*
X0225276Y0252545D01*
X0225217Y0252529D01*
X0225158Y0252516D01*
X0225099Y0252507D01*
X0225038Y0252502D01*
X0224978Y0252500D01*
X0223478Y0252500D01*
X0222978Y0253000D01*
X0208978Y0253000D01*
X0208478Y0252500D01*
X0206978Y0252500D01*
X0206918Y0252502D01*
X0206857Y0252507D01*
X0206798Y0252516D01*
X0206739Y0252529D01*
X0206680Y0252545D01*
X0206623Y0252565D01*
X0206568Y0252588D01*
X0206513Y0252615D01*
X0206461Y0252644D01*
X0206410Y0252677D01*
X0206361Y0252713D01*
X0206315Y0252751D01*
X0206271Y0252793D01*
X0206229Y0252837D01*
X0206191Y0252883D01*
X0206155Y0252932D01*
X0206122Y0252983D01*
X0206093Y0253035D01*
X0206066Y0253090D01*
X0206043Y0253145D01*
X0206023Y0253202D01*
X0206007Y0253261D01*
X0205994Y0253320D01*
X0205985Y0253379D01*
X0205980Y0253440D01*
X0205978Y0253500D01*
X0205978Y0259500D01*
X0205980Y0259560D01*
X0205985Y0259621D01*
X0205994Y0259680D01*
X0206007Y0259739D01*
X0206023Y0259798D01*
X0206043Y0259855D01*
X0206066Y0259910D01*
X0206093Y0259965D01*
X0206122Y0260017D01*
X0206155Y0260068D01*
X0206191Y0260117D01*
X0206229Y0260163D01*
X0206271Y0260207D01*
X0206315Y0260249D01*
X0206361Y0260287D01*
X0206410Y0260323D01*
X0206461Y0260356D01*
X0206513Y0260385D01*
X0206568Y0260412D01*
X0206623Y0260435D01*
X0206680Y0260455D01*
X0206739Y0260471D01*
X0206798Y0260484D01*
X0206857Y0260493D01*
X0206918Y0260498D01*
X0206978Y0260500D01*
X0208478Y0260500D01*
X0208978Y0260000D01*
X0222978Y0260000D01*
X0223478Y0260500D01*
X0230374Y0257718D02*
X0235378Y0257718D01*
X0235378Y0256050D02*
X0235378Y0259387D01*
X0232042Y0256050D02*
X0230374Y0257718D01*
X0231208Y0254230D02*
X0230374Y0253396D01*
X0230374Y0251728D01*
X0231208Y0250894D01*
X0232042Y0250894D01*
X0232876Y0251728D01*
X0232876Y0253396D01*
X0233710Y0254230D01*
X0234544Y0254230D01*
X0235378Y0253396D01*
X0235378Y0251728D01*
X0234544Y0250894D01*
X0235378Y0249124D02*
X0235378Y0247456D01*
X0235378Y0248290D02*
X0230374Y0248290D01*
X0230374Y0247456D02*
X0230374Y0249124D01*
X0231208Y0245636D02*
X0230374Y0244802D01*
X0230374Y0242300D01*
X0235378Y0242300D01*
X0235378Y0244802D01*
X0234544Y0245636D01*
X0231208Y0245636D01*
X0225978Y0243500D02*
X0225978Y0249500D01*
X0225976Y0249560D01*
X0225971Y0249621D01*
X0225962Y0249680D01*
X0225949Y0249739D01*
X0225933Y0249798D01*
X0225913Y0249855D01*
X0225890Y0249910D01*
X0225863Y0249965D01*
X0225834Y0250017D01*
X0225801Y0250068D01*
X0225765Y0250117D01*
X0225727Y0250163D01*
X0225685Y0250207D01*
X0225641Y0250249D01*
X0225595Y0250287D01*
X0225546Y0250323D01*
X0225495Y0250356D01*
X0225443Y0250385D01*
X0225388Y0250412D01*
X0225333Y0250435D01*
X0225276Y0250455D01*
X0225217Y0250471D01*
X0225158Y0250484D01*
X0225099Y0250493D01*
X0225038Y0250498D01*
X0224978Y0250500D01*
X0223478Y0250500D01*
X0222978Y0250000D01*
X0208978Y0250000D01*
X0208478Y0250500D01*
X0206978Y0250500D01*
X0206918Y0250498D01*
X0206857Y0250493D01*
X0206798Y0250484D01*
X0206739Y0250471D01*
X0206680Y0250455D01*
X0206623Y0250435D01*
X0206568Y0250412D01*
X0206513Y0250385D01*
X0206461Y0250356D01*
X0206410Y0250323D01*
X0206361Y0250287D01*
X0206315Y0250249D01*
X0206271Y0250207D01*
X0206229Y0250163D01*
X0206191Y0250117D01*
X0206155Y0250068D01*
X0206122Y0250017D01*
X0206093Y0249965D01*
X0206066Y0249910D01*
X0206043Y0249855D01*
X0206023Y0249798D01*
X0206007Y0249739D01*
X0205994Y0249680D01*
X0205985Y0249621D01*
X0205980Y0249560D01*
X0205978Y0249500D01*
X0205978Y0243500D01*
X0205980Y0243440D01*
X0205985Y0243379D01*
X0205994Y0243320D01*
X0206007Y0243261D01*
X0206023Y0243202D01*
X0206043Y0243145D01*
X0206066Y0243090D01*
X0206093Y0243035D01*
X0206122Y0242983D01*
X0206155Y0242932D01*
X0206191Y0242883D01*
X0206229Y0242837D01*
X0206271Y0242793D01*
X0206315Y0242751D01*
X0206361Y0242713D01*
X0206410Y0242677D01*
X0206461Y0242644D01*
X0206513Y0242615D01*
X0206568Y0242588D01*
X0206623Y0242565D01*
X0206680Y0242545D01*
X0206739Y0242529D01*
X0206798Y0242516D01*
X0206857Y0242507D01*
X0206918Y0242502D01*
X0206978Y0242500D01*
X0208478Y0242500D01*
X0208978Y0243000D01*
X0222978Y0243000D01*
X0223478Y0242500D01*
X0224978Y0242500D01*
X0225038Y0242502D01*
X0225099Y0242507D01*
X0225158Y0242516D01*
X0225217Y0242529D01*
X0225276Y0242545D01*
X0225333Y0242565D01*
X0225388Y0242588D01*
X0225443Y0242615D01*
X0225495Y0242644D01*
X0225546Y0242677D01*
X0225595Y0242713D01*
X0225641Y0242751D01*
X0225685Y0242793D01*
X0225727Y0242837D01*
X0225765Y0242883D01*
X0225801Y0242932D01*
X0225834Y0242983D01*
X0225863Y0243035D01*
X0225890Y0243090D01*
X0225913Y0243145D01*
X0225933Y0243202D01*
X0225949Y0243261D01*
X0225962Y0243320D01*
X0225971Y0243379D01*
X0225976Y0243440D01*
X0225978Y0243500D01*
X0219927Y0241404D02*
X0216591Y0241404D01*
X0216591Y0238902D01*
X0218259Y0239736D01*
X0219093Y0239736D01*
X0219927Y0238902D01*
X0219927Y0237234D01*
X0219093Y0236400D01*
X0217425Y0236400D01*
X0216591Y0237234D01*
X0214771Y0236400D02*
X0211435Y0236400D01*
X0213103Y0236400D02*
X0213103Y0241404D01*
X0211435Y0239736D01*
X0209615Y0238902D02*
X0208781Y0238068D01*
X0206278Y0238068D01*
X0206278Y0236400D02*
X0206278Y0241404D01*
X0208781Y0241404D01*
X0209615Y0240570D01*
X0209615Y0238902D01*
X0207947Y0238068D02*
X0209615Y0236400D01*
X0208478Y0216500D02*
X0213478Y0216500D01*
X0215978Y0214000D01*
X0218478Y0216500D01*
X0223478Y0216500D01*
X0225978Y0214000D01*
X0228478Y0216500D01*
X0233478Y0216500D01*
X0235978Y0214000D01*
X0238478Y0216500D01*
X0243478Y0216500D01*
X0245978Y0214000D01*
X0248478Y0216500D01*
X0253478Y0216500D01*
X0255978Y0214000D01*
X0255978Y0199000D01*
X0253478Y0196500D01*
X0248478Y0196500D01*
X0245978Y0199000D01*
X0243478Y0196500D01*
X0238478Y0196500D01*
X0235978Y0199000D01*
X0233478Y0196500D01*
X0228478Y0196500D01*
X0225978Y0199000D01*
X0223478Y0196500D01*
X0218478Y0196500D01*
X0215978Y0199000D01*
X0213478Y0196500D01*
X0208478Y0196500D01*
X0205978Y0199000D01*
X0203478Y0196500D01*
X0198478Y0196500D01*
X0195978Y0199000D01*
X0193478Y0196500D01*
X0188478Y0196500D01*
X0185978Y0199000D01*
X0183478Y0196500D01*
X0178478Y0196500D01*
X0175978Y0199000D01*
X0173478Y0196500D01*
X0168478Y0196500D01*
X0165978Y0199000D01*
X0163478Y0196500D01*
X0158478Y0196500D01*
X0155978Y0199000D01*
X0155978Y0214000D01*
X0158478Y0216500D01*
X0163478Y0216500D01*
X0165978Y0214000D01*
X0168478Y0216500D01*
X0173478Y0216500D01*
X0175978Y0214000D01*
X0178478Y0216500D01*
X0183478Y0216500D01*
X0185978Y0214000D01*
X0188478Y0216500D01*
X0193478Y0216500D01*
X0195978Y0214000D01*
X0198478Y0216500D01*
X0203478Y0216500D01*
X0205978Y0214000D01*
X0208478Y0216500D01*
X0247634Y0194704D02*
X0249302Y0194704D01*
X0248468Y0194704D02*
X0248468Y0190534D01*
X0247634Y0189700D01*
X0246800Y0189700D01*
X0245966Y0190534D01*
X0251122Y0189700D02*
X0254458Y0189700D01*
X0252790Y0189700D02*
X0252790Y0194704D01*
X0251122Y0193036D01*
X0214771Y0261400D02*
X0211435Y0261400D01*
X0213103Y0261400D02*
X0213103Y0266404D01*
X0211435Y0264736D01*
X0209615Y0265570D02*
X0209615Y0263902D01*
X0208781Y0263068D01*
X0206278Y0263068D01*
X0206278Y0261400D02*
X0206278Y0266404D01*
X0208781Y0266404D01*
X0209615Y0265570D01*
X0207947Y0263068D02*
X0209615Y0261400D01*
X0157458Y0257870D02*
X0157458Y0254534D01*
X0156624Y0253700D01*
X0154956Y0253700D01*
X0154122Y0254534D01*
X0157458Y0257870D01*
X0156624Y0258704D01*
X0154956Y0258704D01*
X0154122Y0257870D01*
X0154122Y0254534D01*
X0152302Y0253700D02*
X0148966Y0253700D01*
X0150634Y0253700D02*
X0150634Y0258704D01*
X0148966Y0257036D01*
X0147145Y0257870D02*
X0146311Y0258704D01*
X0144643Y0258704D01*
X0143809Y0257870D01*
X0143809Y0254534D01*
X0144643Y0253700D01*
X0146311Y0253700D01*
X0147145Y0254534D01*
X0144478Y0254000D02*
X0144478Y0259000D01*
X0144476Y0259087D01*
X0144470Y0259174D01*
X0144461Y0259261D01*
X0144448Y0259347D01*
X0144431Y0259433D01*
X0144410Y0259518D01*
X0144385Y0259601D01*
X0144357Y0259684D01*
X0144326Y0259765D01*
X0144291Y0259845D01*
X0144252Y0259923D01*
X0144210Y0260000D01*
X0144165Y0260075D01*
X0144116Y0260147D01*
X0144065Y0260218D01*
X0144010Y0260286D01*
X0143953Y0260351D01*
X0143892Y0260414D01*
X0143829Y0260475D01*
X0143764Y0260532D01*
X0143696Y0260587D01*
X0143625Y0260638D01*
X0143553Y0260687D01*
X0143478Y0260732D01*
X0143401Y0260774D01*
X0143323Y0260813D01*
X0143243Y0260848D01*
X0143162Y0260879D01*
X0143079Y0260907D01*
X0142996Y0260932D01*
X0142911Y0260953D01*
X0142825Y0260970D01*
X0142739Y0260983D01*
X0142652Y0260992D01*
X0142565Y0260998D01*
X0142478Y0261000D01*
X0129478Y0261000D01*
X0129391Y0260998D01*
X0129304Y0260992D01*
X0129217Y0260983D01*
X0129131Y0260970D01*
X0129045Y0260953D01*
X0128960Y0260932D01*
X0128877Y0260907D01*
X0128794Y0260879D01*
X0128713Y0260848D01*
X0128633Y0260813D01*
X0128555Y0260774D01*
X0128478Y0260732D01*
X0128403Y0260687D01*
X0128331Y0260638D01*
X0128260Y0260587D01*
X0128192Y0260532D01*
X0128127Y0260475D01*
X0128064Y0260414D01*
X0128003Y0260351D01*
X0127946Y0260286D01*
X0127891Y0260218D01*
X0127840Y0260147D01*
X0127791Y0260075D01*
X0127746Y0260000D01*
X0127704Y0259923D01*
X0127665Y0259845D01*
X0127630Y0259765D01*
X0127599Y0259684D01*
X0127571Y0259601D01*
X0127546Y0259518D01*
X0127525Y0259433D01*
X0127508Y0259347D01*
X0127495Y0259261D01*
X0127486Y0259174D01*
X0127480Y0259087D01*
X0127478Y0259000D01*
X0127478Y0254000D01*
X0127480Y0253913D01*
X0127486Y0253826D01*
X0127495Y0253739D01*
X0127508Y0253653D01*
X0127525Y0253567D01*
X0127546Y0253482D01*
X0127571Y0253399D01*
X0127599Y0253316D01*
X0127630Y0253235D01*
X0127665Y0253155D01*
X0127704Y0253077D01*
X0127746Y0253000D01*
X0127791Y0252925D01*
X0127840Y0252853D01*
X0127891Y0252782D01*
X0127946Y0252714D01*
X0128003Y0252649D01*
X0128064Y0252586D01*
X0128127Y0252525D01*
X0128192Y0252468D01*
X0128260Y0252413D01*
X0128331Y0252362D01*
X0128403Y0252313D01*
X0128478Y0252268D01*
X0128555Y0252226D01*
X0128633Y0252187D01*
X0128713Y0252152D01*
X0128794Y0252121D01*
X0128877Y0252093D01*
X0128960Y0252068D01*
X0129045Y0252047D01*
X0129131Y0252030D01*
X0129217Y0252017D01*
X0129304Y0252008D01*
X0129391Y0252002D01*
X0129478Y0252000D01*
X0142478Y0252000D01*
X0142565Y0252002D01*
X0142652Y0252008D01*
X0142739Y0252017D01*
X0142825Y0252030D01*
X0142911Y0252047D01*
X0142996Y0252068D01*
X0143079Y0252093D01*
X0143162Y0252121D01*
X0143243Y0252152D01*
X0143323Y0252187D01*
X0143401Y0252226D01*
X0143478Y0252268D01*
X0143553Y0252313D01*
X0143625Y0252362D01*
X0143696Y0252413D01*
X0143764Y0252468D01*
X0143829Y0252525D01*
X0143892Y0252586D01*
X0143953Y0252649D01*
X0144010Y0252714D01*
X0144065Y0252782D01*
X0144116Y0252853D01*
X0144165Y0252925D01*
X0144210Y0253000D01*
X0144252Y0253077D01*
X0144291Y0253155D01*
X0144326Y0253235D01*
X0144357Y0253316D01*
X0144385Y0253399D01*
X0144410Y0253482D01*
X0144431Y0253567D01*
X0144448Y0253653D01*
X0144461Y0253739D01*
X0144470Y0253826D01*
X0144476Y0253913D01*
X0144478Y0254000D01*
X0142478Y0267000D02*
X0129478Y0267000D01*
X0129391Y0267002D01*
X0129304Y0267008D01*
X0129217Y0267017D01*
X0129131Y0267030D01*
X0129045Y0267047D01*
X0128960Y0267068D01*
X0128877Y0267093D01*
X0128794Y0267121D01*
X0128713Y0267152D01*
X0128633Y0267187D01*
X0128555Y0267226D01*
X0128478Y0267268D01*
X0128403Y0267313D01*
X0128331Y0267362D01*
X0128260Y0267413D01*
X0128192Y0267468D01*
X0128127Y0267525D01*
X0128064Y0267586D01*
X0128003Y0267649D01*
X0127946Y0267714D01*
X0127891Y0267782D01*
X0127840Y0267853D01*
X0127791Y0267925D01*
X0127746Y0268000D01*
X0127704Y0268077D01*
X0127665Y0268155D01*
X0127630Y0268235D01*
X0127599Y0268316D01*
X0127571Y0268399D01*
X0127546Y0268482D01*
X0127525Y0268567D01*
X0127508Y0268653D01*
X0127495Y0268739D01*
X0127486Y0268826D01*
X0127480Y0268913D01*
X0127478Y0269000D01*
X0127478Y0274000D01*
X0127480Y0274087D01*
X0127486Y0274174D01*
X0127495Y0274261D01*
X0127508Y0274347D01*
X0127525Y0274433D01*
X0127546Y0274518D01*
X0127571Y0274601D01*
X0127599Y0274684D01*
X0127630Y0274765D01*
X0127665Y0274845D01*
X0127704Y0274923D01*
X0127746Y0275000D01*
X0127791Y0275075D01*
X0127840Y0275147D01*
X0127891Y0275218D01*
X0127946Y0275286D01*
X0128003Y0275351D01*
X0128064Y0275414D01*
X0128127Y0275475D01*
X0128192Y0275532D01*
X0128260Y0275587D01*
X0128331Y0275638D01*
X0128403Y0275687D01*
X0128478Y0275732D01*
X0128555Y0275774D01*
X0128633Y0275813D01*
X0128713Y0275848D01*
X0128794Y0275879D01*
X0128877Y0275907D01*
X0128960Y0275932D01*
X0129045Y0275953D01*
X0129131Y0275970D01*
X0129217Y0275983D01*
X0129304Y0275992D01*
X0129391Y0275998D01*
X0129478Y0276000D01*
X0142478Y0276000D01*
X0142565Y0275998D01*
X0142652Y0275992D01*
X0142739Y0275983D01*
X0142825Y0275970D01*
X0142911Y0275953D01*
X0142996Y0275932D01*
X0143079Y0275907D01*
X0143162Y0275879D01*
X0143243Y0275848D01*
X0143323Y0275813D01*
X0143401Y0275774D01*
X0143478Y0275732D01*
X0143553Y0275687D01*
X0143625Y0275638D01*
X0143696Y0275587D01*
X0143764Y0275532D01*
X0143829Y0275475D01*
X0143892Y0275414D01*
X0143953Y0275351D01*
X0144010Y0275286D01*
X0144065Y0275218D01*
X0144116Y0275147D01*
X0144165Y0275075D01*
X0144210Y0275000D01*
X0144252Y0274923D01*
X0144291Y0274845D01*
X0144326Y0274765D01*
X0144357Y0274684D01*
X0144385Y0274601D01*
X0144410Y0274518D01*
X0144431Y0274433D01*
X0144448Y0274347D01*
X0144461Y0274261D01*
X0144470Y0274174D01*
X0144476Y0274087D01*
X0144478Y0274000D01*
X0144478Y0269000D01*
X0145800Y0270200D02*
X0147468Y0270200D01*
X0148302Y0271034D01*
X0150122Y0271034D02*
X0150122Y0271868D01*
X0150956Y0272702D01*
X0152624Y0272702D01*
X0153458Y0271868D01*
X0153458Y0271034D01*
X0152624Y0270200D01*
X0150956Y0270200D01*
X0150122Y0271034D01*
X0150956Y0272702D02*
X0150122Y0273536D01*
X0150122Y0274370D01*
X0150956Y0275204D01*
X0152624Y0275204D01*
X0153458Y0274370D01*
X0153458Y0273536D01*
X0152624Y0272702D01*
X0148302Y0274370D02*
X0147468Y0275204D01*
X0145800Y0275204D01*
X0144966Y0274370D01*
X0144966Y0271034D01*
X0145800Y0270200D01*
X0144478Y0269000D02*
X0144476Y0268913D01*
X0144470Y0268826D01*
X0144461Y0268739D01*
X0144448Y0268653D01*
X0144431Y0268567D01*
X0144410Y0268482D01*
X0144385Y0268399D01*
X0144357Y0268316D01*
X0144326Y0268235D01*
X0144291Y0268155D01*
X0144252Y0268077D01*
X0144210Y0268000D01*
X0144165Y0267925D01*
X0144116Y0267853D01*
X0144065Y0267782D01*
X0144010Y0267714D01*
X0143953Y0267649D01*
X0143892Y0267586D01*
X0143829Y0267525D01*
X0143764Y0267468D01*
X0143696Y0267413D01*
X0143625Y0267362D01*
X0143553Y0267313D01*
X0143478Y0267268D01*
X0143401Y0267226D01*
X0143323Y0267187D01*
X0143243Y0267152D01*
X0143162Y0267121D01*
X0143079Y0267093D01*
X0142996Y0267068D01*
X0142911Y0267047D01*
X0142825Y0267030D01*
X0142739Y0267017D01*
X0142652Y0267008D01*
X0142565Y0267002D01*
X0142478Y0267000D01*
X0121478Y0247500D02*
X0117978Y0247500D01*
X0117978Y0241500D01*
X0121478Y0241500D01*
X0121478Y0234000D01*
X0080478Y0234000D01*
X0080478Y0241500D01*
X0083978Y0241500D01*
X0083978Y0247500D01*
X0080478Y0247500D01*
X0080478Y0296500D01*
X0121478Y0296500D01*
X0121478Y0247500D01*
X0093878Y0247500D02*
X0093880Y0247674D01*
X0093887Y0247848D01*
X0093897Y0248022D01*
X0093912Y0248196D01*
X0093931Y0248369D01*
X0093955Y0248542D01*
X0093983Y0248714D01*
X0094014Y0248885D01*
X0094051Y0249056D01*
X0094091Y0249225D01*
X0094135Y0249394D01*
X0094184Y0249561D01*
X0094236Y0249727D01*
X0094293Y0249892D01*
X0094354Y0250055D01*
X0094418Y0250217D01*
X0094487Y0250377D01*
X0094560Y0250536D01*
X0094636Y0250692D01*
X0094716Y0250847D01*
X0094800Y0251000D01*
X0094888Y0251150D01*
X0094980Y0251298D01*
X0095075Y0251445D01*
X0095173Y0251588D01*
X0095275Y0251729D01*
X0095381Y0251868D01*
X0095490Y0252004D01*
X0095602Y0252138D01*
X0095717Y0252268D01*
X0095836Y0252396D01*
X0095958Y0252520D01*
X0096082Y0252642D01*
X0096210Y0252761D01*
X0096340Y0252876D01*
X0096474Y0252988D01*
X0096610Y0253097D01*
X0096749Y0253203D01*
X0096890Y0253305D01*
X0097033Y0253403D01*
X0097180Y0253498D01*
X0097328Y0253590D01*
X0097478Y0253678D01*
X0097631Y0253762D01*
X0097786Y0253842D01*
X0097942Y0253918D01*
X0098101Y0253991D01*
X0098261Y0254060D01*
X0098423Y0254124D01*
X0098586Y0254185D01*
X0098751Y0254242D01*
X0098917Y0254294D01*
X0099084Y0254343D01*
X0099253Y0254387D01*
X0099422Y0254427D01*
X0099593Y0254464D01*
X0099764Y0254495D01*
X0099936Y0254523D01*
X0100109Y0254547D01*
X0100282Y0254566D01*
X0100456Y0254581D01*
X0100630Y0254591D01*
X0100804Y0254598D01*
X0100978Y0254600D01*
X0101152Y0254598D01*
X0101326Y0254591D01*
X0101500Y0254581D01*
X0101674Y0254566D01*
X0101847Y0254547D01*
X0102020Y0254523D01*
X0102192Y0254495D01*
X0102363Y0254464D01*
X0102534Y0254427D01*
X0102703Y0254387D01*
X0102872Y0254343D01*
X0103039Y0254294D01*
X0103205Y0254242D01*
X0103370Y0254185D01*
X0103533Y0254124D01*
X0103695Y0254060D01*
X0103855Y0253991D01*
X0104014Y0253918D01*
X0104170Y0253842D01*
X0104325Y0253762D01*
X0104478Y0253678D01*
X0104628Y0253590D01*
X0104776Y0253498D01*
X0104923Y0253403D01*
X0105066Y0253305D01*
X0105207Y0253203D01*
X0105346Y0253097D01*
X0105482Y0252988D01*
X0105616Y0252876D01*
X0105746Y0252761D01*
X0105874Y0252642D01*
X0105998Y0252520D01*
X0106120Y0252396D01*
X0106239Y0252268D01*
X0106354Y0252138D01*
X0106466Y0252004D01*
X0106575Y0251868D01*
X0106681Y0251729D01*
X0106783Y0251588D01*
X0106881Y0251445D01*
X0106976Y0251298D01*
X0107068Y0251150D01*
X0107156Y0251000D01*
X0107240Y0250847D01*
X0107320Y0250692D01*
X0107396Y0250536D01*
X0107469Y0250377D01*
X0107538Y0250217D01*
X0107602Y0250055D01*
X0107663Y0249892D01*
X0107720Y0249727D01*
X0107772Y0249561D01*
X0107821Y0249394D01*
X0107865Y0249225D01*
X0107905Y0249056D01*
X0107942Y0248885D01*
X0107973Y0248714D01*
X0108001Y0248542D01*
X0108025Y0248369D01*
X0108044Y0248196D01*
X0108059Y0248022D01*
X0108069Y0247848D01*
X0108076Y0247674D01*
X0108078Y0247500D01*
X0108076Y0247326D01*
X0108069Y0247152D01*
X0108059Y0246978D01*
X0108044Y0246804D01*
X0108025Y0246631D01*
X0108001Y0246458D01*
X0107973Y0246286D01*
X0107942Y0246115D01*
X0107905Y0245944D01*
X0107865Y0245775D01*
X0107821Y0245606D01*
X0107772Y0245439D01*
X0107720Y0245273D01*
X0107663Y0245108D01*
X0107602Y0244945D01*
X0107538Y0244783D01*
X0107469Y0244623D01*
X0107396Y0244464D01*
X0107320Y0244308D01*
X0107240Y0244153D01*
X0107156Y0244000D01*
X0107068Y0243850D01*
X0106976Y0243702D01*
X0106881Y0243555D01*
X0106783Y0243412D01*
X0106681Y0243271D01*
X0106575Y0243132D01*
X0106466Y0242996D01*
X0106354Y0242862D01*
X0106239Y0242732D01*
X0106120Y0242604D01*
X0105998Y0242480D01*
X0105874Y0242358D01*
X0105746Y0242239D01*
X0105616Y0242124D01*
X0105482Y0242012D01*
X0105346Y0241903D01*
X0105207Y0241797D01*
X0105066Y0241695D01*
X0104923Y0241597D01*
X0104776Y0241502D01*
X0104628Y0241410D01*
X0104478Y0241322D01*
X0104325Y0241238D01*
X0104170Y0241158D01*
X0104014Y0241082D01*
X0103855Y0241009D01*
X0103695Y0240940D01*
X0103533Y0240876D01*
X0103370Y0240815D01*
X0103205Y0240758D01*
X0103039Y0240706D01*
X0102872Y0240657D01*
X0102703Y0240613D01*
X0102534Y0240573D01*
X0102363Y0240536D01*
X0102192Y0240505D01*
X0102020Y0240477D01*
X0101847Y0240453D01*
X0101674Y0240434D01*
X0101500Y0240419D01*
X0101326Y0240409D01*
X0101152Y0240402D01*
X0100978Y0240400D01*
X0100804Y0240402D01*
X0100630Y0240409D01*
X0100456Y0240419D01*
X0100282Y0240434D01*
X0100109Y0240453D01*
X0099936Y0240477D01*
X0099764Y0240505D01*
X0099593Y0240536D01*
X0099422Y0240573D01*
X0099253Y0240613D01*
X0099084Y0240657D01*
X0098917Y0240706D01*
X0098751Y0240758D01*
X0098586Y0240815D01*
X0098423Y0240876D01*
X0098261Y0240940D01*
X0098101Y0241009D01*
X0097942Y0241082D01*
X0097786Y0241158D01*
X0097631Y0241238D01*
X0097478Y0241322D01*
X0097328Y0241410D01*
X0097180Y0241502D01*
X0097033Y0241597D01*
X0096890Y0241695D01*
X0096749Y0241797D01*
X0096610Y0241903D01*
X0096474Y0242012D01*
X0096340Y0242124D01*
X0096210Y0242239D01*
X0096082Y0242358D01*
X0095958Y0242480D01*
X0095836Y0242604D01*
X0095717Y0242732D01*
X0095602Y0242862D01*
X0095490Y0242996D01*
X0095381Y0243132D01*
X0095275Y0243271D01*
X0095173Y0243412D01*
X0095075Y0243555D01*
X0094980Y0243702D01*
X0094888Y0243850D01*
X0094800Y0244000D01*
X0094716Y0244153D01*
X0094636Y0244308D01*
X0094560Y0244464D01*
X0094487Y0244623D01*
X0094418Y0244783D01*
X0094354Y0244945D01*
X0094293Y0245108D01*
X0094236Y0245273D01*
X0094184Y0245439D01*
X0094135Y0245606D01*
X0094091Y0245775D01*
X0094051Y0245944D01*
X0094014Y0246115D01*
X0093983Y0246286D01*
X0093955Y0246458D01*
X0093931Y0246631D01*
X0093912Y0246804D01*
X0093897Y0246978D01*
X0093887Y0247152D01*
X0093880Y0247326D01*
X0093878Y0247500D01*
X0075478Y0250000D02*
X0075478Y0263000D01*
X0075476Y0263087D01*
X0075470Y0263174D01*
X0075461Y0263261D01*
X0075448Y0263347D01*
X0075431Y0263433D01*
X0075410Y0263518D01*
X0075385Y0263601D01*
X0075357Y0263684D01*
X0075326Y0263765D01*
X0075291Y0263845D01*
X0075252Y0263923D01*
X0075210Y0264000D01*
X0075165Y0264075D01*
X0075116Y0264147D01*
X0075065Y0264218D01*
X0075010Y0264286D01*
X0074953Y0264351D01*
X0074892Y0264414D01*
X0074829Y0264475D01*
X0074764Y0264532D01*
X0074696Y0264587D01*
X0074625Y0264638D01*
X0074553Y0264687D01*
X0074478Y0264732D01*
X0074401Y0264774D01*
X0074323Y0264813D01*
X0074243Y0264848D01*
X0074162Y0264879D01*
X0074079Y0264907D01*
X0073996Y0264932D01*
X0073911Y0264953D01*
X0073825Y0264970D01*
X0073739Y0264983D01*
X0073652Y0264992D01*
X0073565Y0264998D01*
X0073478Y0265000D01*
X0068478Y0265000D01*
X0068391Y0264998D01*
X0068304Y0264992D01*
X0068217Y0264983D01*
X0068131Y0264970D01*
X0068045Y0264953D01*
X0067960Y0264932D01*
X0067877Y0264907D01*
X0067794Y0264879D01*
X0067713Y0264848D01*
X0067633Y0264813D01*
X0067555Y0264774D01*
X0067478Y0264732D01*
X0067403Y0264687D01*
X0067331Y0264638D01*
X0067260Y0264587D01*
X0067192Y0264532D01*
X0067127Y0264475D01*
X0067064Y0264414D01*
X0067003Y0264351D01*
X0066946Y0264286D01*
X0066891Y0264218D01*
X0066840Y0264147D01*
X0066791Y0264075D01*
X0066746Y0264000D01*
X0066704Y0263923D01*
X0066665Y0263845D01*
X0066630Y0263765D01*
X0066599Y0263684D01*
X0066571Y0263601D01*
X0066546Y0263518D01*
X0066525Y0263433D01*
X0066508Y0263347D01*
X0066495Y0263261D01*
X0066486Y0263174D01*
X0066480Y0263087D01*
X0066478Y0263000D01*
X0066478Y0250000D01*
X0066480Y0249913D01*
X0066486Y0249826D01*
X0066495Y0249739D01*
X0066508Y0249653D01*
X0066525Y0249567D01*
X0066546Y0249482D01*
X0066571Y0249399D01*
X0066599Y0249316D01*
X0066630Y0249235D01*
X0066665Y0249155D01*
X0066704Y0249077D01*
X0066746Y0249000D01*
X0066791Y0248925D01*
X0066840Y0248853D01*
X0066891Y0248782D01*
X0066946Y0248714D01*
X0067003Y0248649D01*
X0067064Y0248586D01*
X0067127Y0248525D01*
X0067192Y0248468D01*
X0067260Y0248413D01*
X0067331Y0248362D01*
X0067403Y0248313D01*
X0067478Y0248268D01*
X0067555Y0248226D01*
X0067633Y0248187D01*
X0067713Y0248152D01*
X0067794Y0248121D01*
X0067877Y0248093D01*
X0067960Y0248068D01*
X0068045Y0248047D01*
X0068131Y0248030D01*
X0068217Y0248017D01*
X0068304Y0248008D01*
X0068391Y0248002D01*
X0068478Y0248000D01*
X0073478Y0248000D01*
X0073565Y0248002D01*
X0073652Y0248008D01*
X0073739Y0248017D01*
X0073825Y0248030D01*
X0073911Y0248047D01*
X0073996Y0248068D01*
X0074079Y0248093D01*
X0074162Y0248121D01*
X0074243Y0248152D01*
X0074323Y0248187D01*
X0074401Y0248226D01*
X0074478Y0248268D01*
X0074553Y0248313D01*
X0074625Y0248362D01*
X0074696Y0248413D01*
X0074764Y0248468D01*
X0074829Y0248525D01*
X0074892Y0248586D01*
X0074953Y0248649D01*
X0075010Y0248714D01*
X0075065Y0248782D01*
X0075116Y0248853D01*
X0075165Y0248925D01*
X0075210Y0249000D01*
X0075252Y0249077D01*
X0075291Y0249155D01*
X0075326Y0249235D01*
X0075357Y0249316D01*
X0075385Y0249399D01*
X0075410Y0249482D01*
X0075431Y0249567D01*
X0075448Y0249653D01*
X0075461Y0249739D01*
X0075470Y0249826D01*
X0075476Y0249913D01*
X0075478Y0250000D01*
X0052194Y0245737D02*
X0052056Y0245926D01*
X0051922Y0246119D01*
X0051793Y0246315D01*
X0051669Y0246514D01*
X0051549Y0246716D01*
X0051435Y0246920D01*
X0051326Y0247128D01*
X0051222Y0247338D01*
X0051123Y0247550D01*
X0051029Y0247765D01*
X0050940Y0247982D01*
X0050857Y0248201D01*
X0050779Y0248423D01*
X0050707Y0248646D01*
X0050640Y0248870D01*
X0050579Y0249097D01*
X0050523Y0249324D01*
X0050472Y0249553D01*
X0050428Y0249784D01*
X0050389Y0250015D01*
X0050355Y0250247D01*
X0050327Y0250480D01*
X0050305Y0250713D01*
X0050289Y0250947D01*
X0050278Y0251181D01*
X0050273Y0251416D01*
X0050274Y0251650D01*
X0050281Y0251884D01*
X0050293Y0252119D01*
X0050311Y0252352D01*
X0050335Y0252586D01*
X0050364Y0252818D01*
X0050399Y0253050D01*
X0050440Y0253281D01*
X0050486Y0253511D01*
X0050538Y0253740D01*
X0050595Y0253967D01*
X0050658Y0254193D01*
X0050727Y0254417D01*
X0050801Y0254640D01*
X0050880Y0254860D01*
X0050965Y0255079D01*
X0051055Y0255295D01*
X0051150Y0255510D01*
X0051250Y0255721D01*
X0051356Y0255931D01*
X0051467Y0256137D01*
X0051582Y0256341D01*
X0051703Y0256542D01*
X0051829Y0256740D01*
X0051959Y0256935D01*
X0052094Y0257127D01*
X0052234Y0257315D01*
X0052378Y0257500D01*
X0052978Y0257600D02*
X0055478Y0245600D01*
X0055978Y0246100D02*
X0053478Y0258100D01*
X0052237Y0257334D02*
X0052286Y0257418D01*
X0052338Y0257499D01*
X0052393Y0257578D01*
X0052452Y0257655D01*
X0052513Y0257729D01*
X0052578Y0257801D01*
X0052646Y0257870D01*
X0052716Y0257936D01*
X0052789Y0257999D01*
X0052865Y0258059D01*
X0052943Y0258115D01*
X0053023Y0258169D01*
X0053105Y0258219D01*
X0053190Y0258266D01*
X0053276Y0258309D01*
X0053364Y0258349D01*
X0053454Y0258385D01*
X0053545Y0258417D01*
X0053637Y0258445D01*
X0053730Y0258470D01*
X0053824Y0258491D01*
X0053920Y0258507D01*
X0054015Y0258520D01*
X0054111Y0258529D01*
X0054208Y0258534D01*
X0054304Y0258535D01*
X0054401Y0258532D01*
X0054497Y0258525D01*
X0054593Y0258514D01*
X0054688Y0258499D01*
X0054783Y0258480D01*
X0054877Y0258457D01*
X0054969Y0258430D01*
X0055061Y0258400D01*
X0055151Y0258366D01*
X0055240Y0258328D01*
X0055327Y0258286D01*
X0055412Y0258241D01*
X0055496Y0258192D01*
X0055577Y0258140D01*
X0055656Y0258085D01*
X0055733Y0258026D01*
X0055807Y0257965D01*
X0055879Y0257900D01*
X0059478Y0259700D02*
X0049478Y0259700D01*
X0049478Y0243700D01*
X0059478Y0243700D01*
X0059478Y0259700D01*
X0059478Y0263400D02*
X0059478Y0279400D01*
X0049478Y0279400D01*
X0049478Y0263400D01*
X0059478Y0263400D01*
X0055978Y0265800D02*
X0053478Y0277800D01*
X0052978Y0277300D02*
X0055478Y0265300D01*
X0055878Y0265401D02*
X0055801Y0265334D01*
X0055722Y0265271D01*
X0055641Y0265211D01*
X0055558Y0265153D01*
X0055472Y0265099D01*
X0055384Y0265049D01*
X0055295Y0265001D01*
X0055204Y0264957D01*
X0055111Y0264916D01*
X0055017Y0264879D01*
X0054922Y0264846D01*
X0054825Y0264816D01*
X0054727Y0264789D01*
X0054628Y0264767D01*
X0054529Y0264748D01*
X0054429Y0264733D01*
X0054328Y0264722D01*
X0054227Y0264714D01*
X0054126Y0264710D01*
X0054025Y0264711D01*
X0053924Y0264714D01*
X0053823Y0264722D01*
X0053722Y0264734D01*
X0053622Y0264749D01*
X0053523Y0264768D01*
X0053424Y0264791D01*
X0053326Y0264817D01*
X0053230Y0264847D01*
X0053134Y0264881D01*
X0053040Y0264918D01*
X0052948Y0264959D01*
X0052856Y0265003D01*
X0052767Y0265051D01*
X0052680Y0265102D01*
X0052594Y0265156D01*
X0052511Y0265214D01*
X0052430Y0265274D01*
X0052351Y0265338D01*
X0052275Y0265404D01*
X0052201Y0265473D01*
X0052130Y0265545D01*
X0052061Y0265620D01*
X0055895Y0265381D02*
X0056041Y0265512D01*
X0056185Y0265646D01*
X0056325Y0265784D01*
X0056462Y0265925D01*
X0056596Y0266069D01*
X0056726Y0266217D01*
X0056852Y0266367D01*
X0056974Y0266521D01*
X0057093Y0266677D01*
X0057208Y0266837D01*
X0057319Y0266999D01*
X0057427Y0267164D01*
X0057530Y0267331D01*
X0057629Y0267501D01*
X0057724Y0267673D01*
X0057814Y0267847D01*
X0057901Y0268024D01*
X0057983Y0268202D01*
X0058061Y0268383D01*
X0058134Y0268565D01*
X0058203Y0268749D01*
X0058267Y0268935D01*
X0058327Y0269122D01*
X0058383Y0269310D01*
X0058433Y0269500D01*
X0058480Y0269691D01*
X0058521Y0269883D01*
X0058558Y0270076D01*
X0058590Y0270270D01*
X0058618Y0270465D01*
X0058640Y0270660D01*
X0058658Y0270856D01*
X0058672Y0271052D01*
X0058680Y0271248D01*
X0058684Y0271445D01*
X0058683Y0271641D01*
X0058677Y0271838D01*
X0058666Y0272034D01*
X0058651Y0272230D01*
X0058631Y0272425D01*
X0058606Y0272620D01*
X0058577Y0272815D01*
X0058542Y0273008D01*
X0058504Y0273201D01*
X0058460Y0273393D01*
X0058412Y0273583D01*
X0058359Y0273772D01*
X0058302Y0273960D01*
X0058240Y0274147D01*
X0058173Y0274332D01*
X0058102Y0274515D01*
X0058027Y0274697D01*
X0057947Y0274876D01*
X0057863Y0275054D01*
X0057775Y0275230D01*
X0057683Y0275403D01*
X0057586Y0275574D01*
X0057485Y0275743D01*
X0057380Y0275909D01*
X0057271Y0276073D01*
X0057158Y0276234D01*
X0057042Y0276392D01*
X0056921Y0276547D01*
X0056797Y0276699D01*
X0056669Y0276848D01*
X0056538Y0276995D01*
X0056403Y0277137D01*
X0056264Y0277277D01*
X0056123Y0277413D01*
X0055978Y0277546D01*
X0055829Y0277675D01*
X0055678Y0277800D01*
X0055879Y0277600D02*
X0055807Y0277665D01*
X0055733Y0277726D01*
X0055656Y0277785D01*
X0055577Y0277840D01*
X0055496Y0277892D01*
X0055412Y0277941D01*
X0055327Y0277986D01*
X0055240Y0278028D01*
X0055151Y0278066D01*
X0055061Y0278100D01*
X0054969Y0278130D01*
X0054877Y0278157D01*
X0054783Y0278180D01*
X0054688Y0278199D01*
X0054593Y0278214D01*
X0054497Y0278225D01*
X0054401Y0278232D01*
X0054304Y0278235D01*
X0054208Y0278234D01*
X0054111Y0278229D01*
X0054015Y0278220D01*
X0053920Y0278207D01*
X0053824Y0278191D01*
X0053730Y0278170D01*
X0053637Y0278145D01*
X0053545Y0278117D01*
X0053454Y0278085D01*
X0053364Y0278049D01*
X0053276Y0278009D01*
X0053190Y0277966D01*
X0053105Y0277919D01*
X0053023Y0277869D01*
X0052943Y0277815D01*
X0052865Y0277759D01*
X0052789Y0277699D01*
X0052716Y0277636D01*
X0052646Y0277570D01*
X0052578Y0277501D01*
X0052513Y0277429D01*
X0052452Y0277355D01*
X0052393Y0277278D01*
X0052338Y0277199D01*
X0052286Y0277118D01*
X0052237Y0277034D01*
X0052935Y0281800D02*
X0056271Y0281800D01*
X0054603Y0281800D02*
X0054603Y0286804D01*
X0052935Y0285136D01*
X0051115Y0286804D02*
X0047778Y0281800D01*
X0048478Y0281500D02*
X0060478Y0281500D01*
X0060478Y0241500D01*
X0060478Y0239500D01*
X0041478Y0239500D01*
X0042478Y0241500D01*
X0048478Y0241500D01*
X0048478Y0281500D01*
X0038478Y0281500D01*
X0038478Y0277900D01*
X0036978Y0277900D02*
X0036978Y0279400D01*
X0018978Y0279400D01*
X0011478Y0279400D01*
X0011478Y0263400D01*
X0011478Y0259700D01*
X0011478Y0243700D01*
X0018978Y0243700D01*
X0018978Y0259700D01*
X0036978Y0259700D01*
X0036978Y0258200D01*
X0038478Y0258200D02*
X0038478Y0264900D01*
X0036978Y0264900D02*
X0036978Y0263400D01*
X0018978Y0263400D01*
X0018978Y0279400D01*
X0021478Y0277900D02*
X0033978Y0277900D01*
X0038478Y0281500D02*
X0011478Y0281500D01*
X0011478Y0279400D01*
X0021478Y0277900D02*
X0021478Y0264900D01*
X0033978Y0264900D01*
X0033978Y0258200D02*
X0021478Y0258200D01*
X0021478Y0245200D01*
X0033978Y0245200D01*
X0036978Y0245200D02*
X0036978Y0243700D01*
X0018978Y0243700D01*
X0019978Y0241500D02*
X0015478Y0241500D01*
X0011478Y0241500D01*
X0011478Y0243700D01*
X0015478Y0241500D02*
X0014478Y0239500D01*
X0020978Y0239500D01*
X0019978Y0241500D01*
X0038478Y0241500D01*
X0038478Y0245200D01*
X0038478Y0241500D02*
X0042478Y0241500D01*
X0048478Y0241500D02*
X0060478Y0241500D01*
X0055878Y0245701D02*
X0055801Y0245634D01*
X0055722Y0245571D01*
X0055641Y0245511D01*
X0055558Y0245453D01*
X0055472Y0245399D01*
X0055384Y0245349D01*
X0055295Y0245301D01*
X0055204Y0245257D01*
X0055111Y0245216D01*
X0055017Y0245179D01*
X0054922Y0245146D01*
X0054825Y0245116D01*
X0054727Y0245089D01*
X0054628Y0245067D01*
X0054529Y0245048D01*
X0054429Y0245033D01*
X0054328Y0245022D01*
X0054227Y0245014D01*
X0054126Y0245010D01*
X0054025Y0245011D01*
X0053924Y0245014D01*
X0053823Y0245022D01*
X0053722Y0245034D01*
X0053622Y0245049D01*
X0053523Y0245068D01*
X0053424Y0245091D01*
X0053326Y0245117D01*
X0053230Y0245147D01*
X0053134Y0245181D01*
X0053040Y0245218D01*
X0052948Y0245259D01*
X0052856Y0245303D01*
X0052767Y0245351D01*
X0052680Y0245402D01*
X0052594Y0245456D01*
X0052511Y0245514D01*
X0052430Y0245574D01*
X0052351Y0245638D01*
X0052275Y0245704D01*
X0052201Y0245773D01*
X0052130Y0245845D01*
X0052061Y0245920D01*
X0055894Y0245682D02*
X0056040Y0245812D01*
X0056184Y0245946D01*
X0056324Y0246084D01*
X0056461Y0246225D01*
X0056595Y0246369D01*
X0056724Y0246517D01*
X0056851Y0246667D01*
X0056973Y0246821D01*
X0057092Y0246977D01*
X0057207Y0247137D01*
X0057318Y0247299D01*
X0057425Y0247464D01*
X0057529Y0247631D01*
X0057628Y0247801D01*
X0057722Y0247973D01*
X0057813Y0248147D01*
X0057900Y0248324D01*
X0057982Y0248502D01*
X0058059Y0248683D01*
X0058133Y0248865D01*
X0058202Y0249049D01*
X0058266Y0249234D01*
X0058326Y0249422D01*
X0058382Y0249610D01*
X0058432Y0249800D01*
X0058479Y0249991D01*
X0058520Y0250183D01*
X0058557Y0250376D01*
X0058589Y0250570D01*
X0058617Y0250765D01*
X0058639Y0250960D01*
X0058657Y0251155D01*
X0058671Y0251351D01*
X0058679Y0251548D01*
X0058683Y0251744D01*
X0058682Y0251941D01*
X0058676Y0252137D01*
X0058665Y0252333D01*
X0058650Y0252529D01*
X0058630Y0252725D01*
X0058605Y0252920D01*
X0058576Y0253114D01*
X0058542Y0253308D01*
X0058503Y0253500D01*
X0058459Y0253692D01*
X0058411Y0253882D01*
X0058358Y0254072D01*
X0058301Y0254260D01*
X0058239Y0254446D01*
X0058172Y0254631D01*
X0058102Y0254814D01*
X0058026Y0254996D01*
X0057947Y0255175D01*
X0057863Y0255353D01*
X0057774Y0255529D01*
X0057682Y0255702D01*
X0057585Y0255873D01*
X0057484Y0256042D01*
X0057379Y0256208D01*
X0057271Y0256372D01*
X0057158Y0256533D01*
X0057041Y0256691D01*
X0056921Y0256846D01*
X0056796Y0256998D01*
X0056669Y0257147D01*
X0056537Y0257294D01*
X0056402Y0257436D01*
X0056264Y0257576D01*
X0056122Y0257712D01*
X0055977Y0257845D01*
X0055829Y0257974D01*
X0055678Y0258099D01*
X0052194Y0265437D02*
X0052055Y0265627D01*
X0051922Y0265819D01*
X0051793Y0266015D01*
X0051669Y0266214D01*
X0051549Y0266416D01*
X0051435Y0266621D01*
X0051326Y0266828D01*
X0051222Y0267038D01*
X0051123Y0267251D01*
X0051029Y0267466D01*
X0050940Y0267683D01*
X0050857Y0267902D01*
X0050779Y0268123D01*
X0050707Y0268346D01*
X0050640Y0268571D01*
X0050578Y0268797D01*
X0050523Y0269025D01*
X0050472Y0269254D01*
X0050428Y0269484D01*
X0050388Y0269715D01*
X0050355Y0269947D01*
X0050327Y0270180D01*
X0050305Y0270413D01*
X0050289Y0270647D01*
X0050278Y0270882D01*
X0050273Y0271116D01*
X0050274Y0271350D01*
X0050281Y0271585D01*
X0050293Y0271819D01*
X0050311Y0272053D01*
X0050335Y0272286D01*
X0050364Y0272519D01*
X0050399Y0272750D01*
X0050440Y0272981D01*
X0050486Y0273211D01*
X0050538Y0273440D01*
X0050595Y0273667D01*
X0050658Y0273893D01*
X0050727Y0274117D01*
X0050801Y0274340D01*
X0050880Y0274560D01*
X0050965Y0274779D01*
X0051055Y0274996D01*
X0051150Y0275210D01*
X0051251Y0275422D01*
X0051356Y0275631D01*
X0051467Y0275838D01*
X0051583Y0276042D01*
X0051703Y0276243D01*
X0051829Y0276441D01*
X0051959Y0276636D01*
X0052094Y0276827D01*
X0052234Y0277016D01*
X0052378Y0277200D01*
X0051115Y0281800D02*
X0047778Y0286804D01*
X0045978Y0301500D02*
X0045981Y0301745D01*
X0045990Y0301991D01*
X0046005Y0302236D01*
X0046026Y0302480D01*
X0046053Y0302724D01*
X0046086Y0302967D01*
X0046125Y0303210D01*
X0046170Y0303451D01*
X0046221Y0303691D01*
X0046278Y0303930D01*
X0046340Y0304167D01*
X0046409Y0304403D01*
X0046483Y0304637D01*
X0046563Y0304869D01*
X0046648Y0305099D01*
X0046739Y0305327D01*
X0046836Y0305552D01*
X0046938Y0305776D01*
X0047046Y0305996D01*
X0047159Y0306214D01*
X0047277Y0306429D01*
X0047401Y0306641D01*
X0047529Y0306850D01*
X0047663Y0307056D01*
X0047802Y0307258D01*
X0047946Y0307457D01*
X0048095Y0307652D01*
X0048248Y0307844D01*
X0048406Y0308032D01*
X0048568Y0308216D01*
X0048736Y0308395D01*
X0048907Y0308571D01*
X0049083Y0308742D01*
X0049262Y0308910D01*
X0049446Y0309072D01*
X0049634Y0309230D01*
X0049826Y0309383D01*
X0050021Y0309532D01*
X0050220Y0309676D01*
X0050422Y0309815D01*
X0050628Y0309949D01*
X0050837Y0310077D01*
X0051049Y0310201D01*
X0051264Y0310319D01*
X0051482Y0310432D01*
X0051702Y0310540D01*
X0051926Y0310642D01*
X0052151Y0310739D01*
X0052379Y0310830D01*
X0052609Y0310915D01*
X0052841Y0310995D01*
X0053075Y0311069D01*
X0053311Y0311138D01*
X0053548Y0311200D01*
X0053787Y0311257D01*
X0054027Y0311308D01*
X0054268Y0311353D01*
X0054511Y0311392D01*
X0054754Y0311425D01*
X0054998Y0311452D01*
X0055242Y0311473D01*
X0055487Y0311488D01*
X0055733Y0311497D01*
X0055978Y0311500D01*
X0056223Y0311497D01*
X0056469Y0311488D01*
X0056714Y0311473D01*
X0056958Y0311452D01*
X0057202Y0311425D01*
X0057445Y0311392D01*
X0057688Y0311353D01*
X0057929Y0311308D01*
X0058169Y0311257D01*
X0058408Y0311200D01*
X0058645Y0311138D01*
X0058881Y0311069D01*
X0059115Y0310995D01*
X0059347Y0310915D01*
X0059577Y0310830D01*
X0059805Y0310739D01*
X0060030Y0310642D01*
X0060254Y0310540D01*
X0060474Y0310432D01*
X0060692Y0310319D01*
X0060907Y0310201D01*
X0061119Y0310077D01*
X0061328Y0309949D01*
X0061534Y0309815D01*
X0061736Y0309676D01*
X0061935Y0309532D01*
X0062130Y0309383D01*
X0062322Y0309230D01*
X0062510Y0309072D01*
X0062694Y0308910D01*
X0062873Y0308742D01*
X0063049Y0308571D01*
X0063220Y0308395D01*
X0063388Y0308216D01*
X0063550Y0308032D01*
X0063708Y0307844D01*
X0063861Y0307652D01*
X0064010Y0307457D01*
X0064154Y0307258D01*
X0064293Y0307056D01*
X0064427Y0306850D01*
X0064555Y0306641D01*
X0064679Y0306429D01*
X0064797Y0306214D01*
X0064910Y0305996D01*
X0065018Y0305776D01*
X0065120Y0305552D01*
X0065217Y0305327D01*
X0065308Y0305099D01*
X0065393Y0304869D01*
X0065473Y0304637D01*
X0065547Y0304403D01*
X0065616Y0304167D01*
X0065678Y0303930D01*
X0065735Y0303691D01*
X0065786Y0303451D01*
X0065831Y0303210D01*
X0065870Y0302967D01*
X0065903Y0302724D01*
X0065930Y0302480D01*
X0065951Y0302236D01*
X0065966Y0301991D01*
X0065975Y0301745D01*
X0065978Y0301500D01*
X0065975Y0301255D01*
X0065966Y0301009D01*
X0065951Y0300764D01*
X0065930Y0300520D01*
X0065903Y0300276D01*
X0065870Y0300033D01*
X0065831Y0299790D01*
X0065786Y0299549D01*
X0065735Y0299309D01*
X0065678Y0299070D01*
X0065616Y0298833D01*
X0065547Y0298597D01*
X0065473Y0298363D01*
X0065393Y0298131D01*
X0065308Y0297901D01*
X0065217Y0297673D01*
X0065120Y0297448D01*
X0065018Y0297224D01*
X0064910Y0297004D01*
X0064797Y0296786D01*
X0064679Y0296571D01*
X0064555Y0296359D01*
X0064427Y0296150D01*
X0064293Y0295944D01*
X0064154Y0295742D01*
X0064010Y0295543D01*
X0063861Y0295348D01*
X0063708Y0295156D01*
X0063550Y0294968D01*
X0063388Y0294784D01*
X0063220Y0294605D01*
X0063049Y0294429D01*
X0062873Y0294258D01*
X0062694Y0294090D01*
X0062510Y0293928D01*
X0062322Y0293770D01*
X0062130Y0293617D01*
X0061935Y0293468D01*
X0061736Y0293324D01*
X0061534Y0293185D01*
X0061328Y0293051D01*
X0061119Y0292923D01*
X0060907Y0292799D01*
X0060692Y0292681D01*
X0060474Y0292568D01*
X0060254Y0292460D01*
X0060030Y0292358D01*
X0059805Y0292261D01*
X0059577Y0292170D01*
X0059347Y0292085D01*
X0059115Y0292005D01*
X0058881Y0291931D01*
X0058645Y0291862D01*
X0058408Y0291800D01*
X0058169Y0291743D01*
X0057929Y0291692D01*
X0057688Y0291647D01*
X0057445Y0291608D01*
X0057202Y0291575D01*
X0056958Y0291548D01*
X0056714Y0291527D01*
X0056469Y0291512D01*
X0056223Y0291503D01*
X0055978Y0291500D01*
X0055733Y0291503D01*
X0055487Y0291512D01*
X0055242Y0291527D01*
X0054998Y0291548D01*
X0054754Y0291575D01*
X0054511Y0291608D01*
X0054268Y0291647D01*
X0054027Y0291692D01*
X0053787Y0291743D01*
X0053548Y0291800D01*
X0053311Y0291862D01*
X0053075Y0291931D01*
X0052841Y0292005D01*
X0052609Y0292085D01*
X0052379Y0292170D01*
X0052151Y0292261D01*
X0051926Y0292358D01*
X0051702Y0292460D01*
X0051482Y0292568D01*
X0051264Y0292681D01*
X0051049Y0292799D01*
X0050837Y0292923D01*
X0050628Y0293051D01*
X0050422Y0293185D01*
X0050220Y0293324D01*
X0050021Y0293468D01*
X0049826Y0293617D01*
X0049634Y0293770D01*
X0049446Y0293928D01*
X0049262Y0294090D01*
X0049083Y0294258D01*
X0048907Y0294429D01*
X0048736Y0294605D01*
X0048568Y0294784D01*
X0048406Y0294968D01*
X0048248Y0295156D01*
X0048095Y0295348D01*
X0047946Y0295543D01*
X0047802Y0295742D01*
X0047663Y0295944D01*
X0047529Y0296150D01*
X0047401Y0296359D01*
X0047277Y0296571D01*
X0047159Y0296786D01*
X0047046Y0297004D01*
X0046938Y0297224D01*
X0046836Y0297448D01*
X0046739Y0297673D01*
X0046648Y0297901D01*
X0046563Y0298131D01*
X0046483Y0298363D01*
X0046409Y0298597D01*
X0046340Y0298833D01*
X0046278Y0299070D01*
X0046221Y0299309D01*
X0046170Y0299549D01*
X0046125Y0299790D01*
X0046086Y0300033D01*
X0046053Y0300276D01*
X0046026Y0300520D01*
X0046005Y0300764D01*
X0045990Y0301009D01*
X0045981Y0301255D01*
X0045978Y0301500D01*
X0059978Y0307000D02*
X0060978Y0307000D01*
X0061978Y0307000D01*
X0060978Y0307000D02*
X0060978Y0306000D01*
X0060978Y0307000D02*
X0060978Y0308000D01*
X0066278Y0308134D02*
X0067113Y0307300D01*
X0068781Y0307300D01*
X0069615Y0308134D01*
X0071435Y0307300D02*
X0074771Y0307300D01*
X0073103Y0307300D02*
X0073103Y0312304D01*
X0071435Y0310636D01*
X0069615Y0311470D02*
X0068781Y0312304D01*
X0067113Y0312304D01*
X0066278Y0311470D01*
X0066278Y0308134D01*
X0072613Y0273804D02*
X0071778Y0272970D01*
X0071778Y0269634D01*
X0072613Y0268800D01*
X0074281Y0268800D01*
X0075115Y0269634D01*
X0076935Y0268800D02*
X0080271Y0272136D01*
X0080271Y0272970D01*
X0079437Y0273804D01*
X0077769Y0273804D01*
X0076935Y0272970D01*
X0075115Y0272970D02*
X0074281Y0273804D01*
X0072613Y0273804D01*
X0076935Y0268800D02*
X0080271Y0268800D01*
X0115278Y0297300D02*
X0116947Y0297300D01*
X0116112Y0297300D02*
X0116112Y0302304D01*
X0115278Y0302304D02*
X0116947Y0302304D01*
X0118716Y0301470D02*
X0118716Y0298134D01*
X0119550Y0297300D01*
X0121218Y0297300D01*
X0122052Y0298134D01*
X0123872Y0297300D02*
X0127209Y0300636D01*
X0127209Y0301470D01*
X0126375Y0302304D01*
X0124706Y0302304D01*
X0123872Y0301470D01*
X0122052Y0301470D02*
X0121218Y0302304D01*
X0119550Y0302304D01*
X0118716Y0301470D01*
X0123872Y0297300D02*
X0127209Y0297300D01*
X0127478Y0299000D02*
X0127478Y0294000D01*
X0127480Y0293913D01*
X0127486Y0293826D01*
X0127495Y0293739D01*
X0127508Y0293653D01*
X0127525Y0293567D01*
X0127546Y0293482D01*
X0127571Y0293399D01*
X0127599Y0293316D01*
X0127630Y0293235D01*
X0127665Y0293155D01*
X0127704Y0293077D01*
X0127746Y0293000D01*
X0127791Y0292925D01*
X0127840Y0292853D01*
X0127891Y0292782D01*
X0127946Y0292714D01*
X0128003Y0292649D01*
X0128064Y0292586D01*
X0128127Y0292525D01*
X0128192Y0292468D01*
X0128260Y0292413D01*
X0128331Y0292362D01*
X0128403Y0292313D01*
X0128478Y0292268D01*
X0128555Y0292226D01*
X0128633Y0292187D01*
X0128713Y0292152D01*
X0128794Y0292121D01*
X0128877Y0292093D01*
X0128960Y0292068D01*
X0129045Y0292047D01*
X0129131Y0292030D01*
X0129217Y0292017D01*
X0129304Y0292008D01*
X0129391Y0292002D01*
X0129478Y0292000D01*
X0142478Y0292000D01*
X0142565Y0292002D01*
X0142652Y0292008D01*
X0142739Y0292017D01*
X0142825Y0292030D01*
X0142911Y0292047D01*
X0142996Y0292068D01*
X0143079Y0292093D01*
X0143162Y0292121D01*
X0143243Y0292152D01*
X0143323Y0292187D01*
X0143401Y0292226D01*
X0143478Y0292268D01*
X0143553Y0292313D01*
X0143625Y0292362D01*
X0143696Y0292413D01*
X0143764Y0292468D01*
X0143829Y0292525D01*
X0143892Y0292586D01*
X0143953Y0292649D01*
X0144010Y0292714D01*
X0144065Y0292782D01*
X0144116Y0292853D01*
X0144165Y0292925D01*
X0144210Y0293000D01*
X0144252Y0293077D01*
X0144291Y0293155D01*
X0144326Y0293235D01*
X0144357Y0293316D01*
X0144385Y0293399D01*
X0144410Y0293482D01*
X0144431Y0293567D01*
X0144448Y0293653D01*
X0144461Y0293739D01*
X0144470Y0293826D01*
X0144476Y0293913D01*
X0144478Y0294000D01*
X0144478Y0299000D01*
X0144966Y0297870D02*
X0144966Y0294534D01*
X0145800Y0293700D01*
X0147468Y0293700D01*
X0148302Y0294534D01*
X0150122Y0294534D02*
X0150956Y0293700D01*
X0152624Y0293700D01*
X0153458Y0294534D01*
X0153458Y0297870D01*
X0152624Y0298704D01*
X0150956Y0298704D01*
X0150122Y0297870D01*
X0150122Y0297036D01*
X0150956Y0296202D01*
X0153458Y0296202D01*
X0148302Y0297870D02*
X0147468Y0298704D01*
X0145800Y0298704D01*
X0144966Y0297870D01*
X0144478Y0299000D02*
X0144476Y0299087D01*
X0144470Y0299174D01*
X0144461Y0299261D01*
X0144448Y0299347D01*
X0144431Y0299433D01*
X0144410Y0299518D01*
X0144385Y0299601D01*
X0144357Y0299684D01*
X0144326Y0299765D01*
X0144291Y0299845D01*
X0144252Y0299923D01*
X0144210Y0300000D01*
X0144165Y0300075D01*
X0144116Y0300147D01*
X0144065Y0300218D01*
X0144010Y0300286D01*
X0143953Y0300351D01*
X0143892Y0300414D01*
X0143829Y0300475D01*
X0143764Y0300532D01*
X0143696Y0300587D01*
X0143625Y0300638D01*
X0143553Y0300687D01*
X0143478Y0300732D01*
X0143401Y0300774D01*
X0143323Y0300813D01*
X0143243Y0300848D01*
X0143162Y0300879D01*
X0143079Y0300907D01*
X0142996Y0300932D01*
X0142911Y0300953D01*
X0142825Y0300970D01*
X0142739Y0300983D01*
X0142652Y0300992D01*
X0142565Y0300998D01*
X0142478Y0301000D01*
X0129478Y0301000D01*
X0129391Y0300998D01*
X0129304Y0300992D01*
X0129217Y0300983D01*
X0129131Y0300970D01*
X0129045Y0300953D01*
X0128960Y0300932D01*
X0128877Y0300907D01*
X0128794Y0300879D01*
X0128713Y0300848D01*
X0128633Y0300813D01*
X0128555Y0300774D01*
X0128478Y0300732D01*
X0128403Y0300687D01*
X0128331Y0300638D01*
X0128260Y0300587D01*
X0128192Y0300532D01*
X0128127Y0300475D01*
X0128064Y0300414D01*
X0128003Y0300351D01*
X0127946Y0300286D01*
X0127891Y0300218D01*
X0127840Y0300147D01*
X0127791Y0300075D01*
X0127746Y0300000D01*
X0127704Y0299923D01*
X0127665Y0299845D01*
X0127630Y0299765D01*
X0127599Y0299684D01*
X0127571Y0299601D01*
X0127546Y0299518D01*
X0127525Y0299433D01*
X0127508Y0299347D01*
X0127495Y0299261D01*
X0127486Y0299174D01*
X0127480Y0299087D01*
X0127478Y0299000D01*
X0093978Y0221500D02*
X0087978Y0221500D01*
X0087918Y0221498D01*
X0087857Y0221493D01*
X0087798Y0221484D01*
X0087739Y0221471D01*
X0087680Y0221455D01*
X0087623Y0221435D01*
X0087568Y0221412D01*
X0087513Y0221385D01*
X0087461Y0221356D01*
X0087410Y0221323D01*
X0087361Y0221287D01*
X0087315Y0221249D01*
X0087271Y0221207D01*
X0087229Y0221163D01*
X0087191Y0221117D01*
X0087155Y0221068D01*
X0087122Y0221017D01*
X0087093Y0220965D01*
X0087066Y0220910D01*
X0087043Y0220855D01*
X0087023Y0220798D01*
X0087007Y0220739D01*
X0086994Y0220680D01*
X0086985Y0220621D01*
X0086980Y0220560D01*
X0086978Y0220500D01*
X0086978Y0219000D01*
X0087478Y0218500D01*
X0087478Y0204500D01*
X0086978Y0204000D01*
X0086978Y0202500D01*
X0086578Y0201800D02*
X0081574Y0201800D01*
X0081574Y0204302D01*
X0082408Y0205136D01*
X0084076Y0205136D01*
X0084910Y0204302D01*
X0084910Y0201800D01*
X0084910Y0203468D02*
X0086578Y0205136D01*
X0086578Y0206956D02*
X0083242Y0210293D01*
X0082408Y0210293D01*
X0081574Y0209459D01*
X0081574Y0207790D01*
X0082408Y0206956D01*
X0079478Y0204500D02*
X0079478Y0218500D01*
X0079978Y0219000D01*
X0079978Y0220500D01*
X0079976Y0220560D01*
X0079971Y0220621D01*
X0079962Y0220680D01*
X0079949Y0220739D01*
X0079933Y0220798D01*
X0079913Y0220855D01*
X0079890Y0220910D01*
X0079863Y0220965D01*
X0079834Y0221017D01*
X0079801Y0221068D01*
X0079765Y0221117D01*
X0079727Y0221163D01*
X0079685Y0221207D01*
X0079641Y0221249D01*
X0079595Y0221287D01*
X0079546Y0221323D01*
X0079495Y0221356D01*
X0079443Y0221385D01*
X0079388Y0221412D01*
X0079333Y0221435D01*
X0079276Y0221455D01*
X0079217Y0221471D01*
X0079158Y0221484D01*
X0079099Y0221493D01*
X0079038Y0221498D01*
X0078978Y0221500D01*
X0072978Y0221500D01*
X0072918Y0221498D01*
X0072857Y0221493D01*
X0072798Y0221484D01*
X0072739Y0221471D01*
X0072680Y0221455D01*
X0072623Y0221435D01*
X0072568Y0221412D01*
X0072513Y0221385D01*
X0072461Y0221356D01*
X0072410Y0221323D01*
X0072361Y0221287D01*
X0072315Y0221249D01*
X0072271Y0221207D01*
X0072229Y0221163D01*
X0072191Y0221117D01*
X0072155Y0221068D01*
X0072122Y0221017D01*
X0072093Y0220965D01*
X0072066Y0220910D01*
X0072043Y0220855D01*
X0072023Y0220798D01*
X0072007Y0220739D01*
X0071994Y0220680D01*
X0071985Y0220621D01*
X0071980Y0220560D01*
X0071978Y0220500D01*
X0071978Y0219000D01*
X0072478Y0218500D01*
X0072478Y0204500D01*
X0071978Y0204000D01*
X0071978Y0202500D01*
X0071980Y0202440D01*
X0071985Y0202379D01*
X0071994Y0202320D01*
X0072007Y0202261D01*
X0072023Y0202202D01*
X0072043Y0202145D01*
X0072066Y0202090D01*
X0072093Y0202035D01*
X0072122Y0201983D01*
X0072155Y0201932D01*
X0072191Y0201883D01*
X0072229Y0201837D01*
X0072271Y0201793D01*
X0072315Y0201751D01*
X0072361Y0201713D01*
X0072410Y0201677D01*
X0072461Y0201644D01*
X0072513Y0201615D01*
X0072568Y0201588D01*
X0072623Y0201565D01*
X0072680Y0201545D01*
X0072739Y0201529D01*
X0072798Y0201516D01*
X0072857Y0201507D01*
X0072918Y0201502D01*
X0072978Y0201500D01*
X0078978Y0201500D01*
X0079038Y0201502D01*
X0079099Y0201507D01*
X0079158Y0201516D01*
X0079217Y0201529D01*
X0079276Y0201545D01*
X0079333Y0201565D01*
X0079388Y0201588D01*
X0079443Y0201615D01*
X0079495Y0201644D01*
X0079546Y0201677D01*
X0079595Y0201713D01*
X0079641Y0201751D01*
X0079685Y0201793D01*
X0079727Y0201837D01*
X0079765Y0201883D01*
X0079801Y0201932D01*
X0079834Y0201983D01*
X0079863Y0202035D01*
X0079890Y0202090D01*
X0079913Y0202145D01*
X0079933Y0202202D01*
X0079949Y0202261D01*
X0079962Y0202320D01*
X0079971Y0202379D01*
X0079976Y0202440D01*
X0079978Y0202500D01*
X0079978Y0204000D01*
X0079478Y0204500D01*
X0086578Y0206956D02*
X0086578Y0210293D01*
X0094478Y0204500D02*
X0094478Y0218500D01*
X0094978Y0219000D01*
X0094978Y0220500D01*
X0094976Y0220560D01*
X0094971Y0220621D01*
X0094962Y0220680D01*
X0094949Y0220739D01*
X0094933Y0220798D01*
X0094913Y0220855D01*
X0094890Y0220910D01*
X0094863Y0220965D01*
X0094834Y0221017D01*
X0094801Y0221068D01*
X0094765Y0221117D01*
X0094727Y0221163D01*
X0094685Y0221207D01*
X0094641Y0221249D01*
X0094595Y0221287D01*
X0094546Y0221323D01*
X0094495Y0221356D01*
X0094443Y0221385D01*
X0094388Y0221412D01*
X0094333Y0221435D01*
X0094276Y0221455D01*
X0094217Y0221471D01*
X0094158Y0221484D01*
X0094099Y0221493D01*
X0094038Y0221498D01*
X0093978Y0221500D01*
X0094478Y0204500D02*
X0094978Y0204000D01*
X0094978Y0202500D01*
X0094976Y0202440D01*
X0094971Y0202379D01*
X0094962Y0202320D01*
X0094949Y0202261D01*
X0094933Y0202202D01*
X0094913Y0202145D01*
X0094890Y0202090D01*
X0094863Y0202035D01*
X0094834Y0201983D01*
X0094801Y0201932D01*
X0094765Y0201883D01*
X0094727Y0201837D01*
X0094685Y0201793D01*
X0094641Y0201751D01*
X0094595Y0201713D01*
X0094546Y0201677D01*
X0094495Y0201644D01*
X0094443Y0201615D01*
X0094388Y0201588D01*
X0094333Y0201565D01*
X0094276Y0201545D01*
X0094217Y0201529D01*
X0094158Y0201516D01*
X0094099Y0201507D01*
X0094038Y0201502D01*
X0093978Y0201500D01*
X0087978Y0201500D01*
X0087918Y0201502D01*
X0087857Y0201507D01*
X0087798Y0201516D01*
X0087739Y0201529D01*
X0087680Y0201545D01*
X0087623Y0201565D01*
X0087568Y0201588D01*
X0087513Y0201615D01*
X0087461Y0201644D01*
X0087410Y0201677D01*
X0087361Y0201713D01*
X0087315Y0201751D01*
X0087271Y0201793D01*
X0087229Y0201837D01*
X0087191Y0201883D01*
X0087155Y0201932D01*
X0087122Y0201983D01*
X0087093Y0202035D01*
X0087066Y0202090D01*
X0087043Y0202145D01*
X0087023Y0202202D01*
X0087007Y0202261D01*
X0086994Y0202320D01*
X0086985Y0202379D01*
X0086980Y0202440D01*
X0086978Y0202500D01*
X0085290Y0191704D02*
X0085290Y0186700D01*
X0083622Y0186700D02*
X0086958Y0186700D01*
X0085978Y0184000D02*
X0085978Y0181500D01*
X0085978Y0179000D01*
X0085978Y0181500D02*
X0081978Y0184000D01*
X0081978Y0179000D01*
X0085978Y0181500D01*
X0079978Y0181500D01*
X0080968Y0186700D02*
X0081802Y0187534D01*
X0081802Y0190870D01*
X0080968Y0191704D01*
X0078466Y0191704D01*
X0078466Y0186700D01*
X0080968Y0186700D01*
X0077978Y0186500D02*
X0077978Y0176500D01*
X0093978Y0176500D01*
X0093978Y0186500D01*
X0077978Y0186500D01*
X0083622Y0190036D02*
X0085290Y0191704D01*
X0085978Y0181500D02*
X0088478Y0181500D01*
X0090041Y0168304D02*
X0088372Y0166636D01*
X0086552Y0167470D02*
X0085718Y0168304D01*
X0084050Y0168304D01*
X0083216Y0167470D01*
X0083216Y0164134D01*
X0084050Y0163300D01*
X0085718Y0163300D01*
X0086552Y0164134D01*
X0088372Y0163300D02*
X0091709Y0163300D01*
X0090041Y0163300D02*
X0090041Y0168304D01*
X0086978Y0161500D02*
X0086980Y0161374D01*
X0086986Y0161249D01*
X0086996Y0161124D01*
X0087010Y0160999D01*
X0087027Y0160874D01*
X0087049Y0160750D01*
X0087074Y0160627D01*
X0087104Y0160505D01*
X0087137Y0160384D01*
X0087174Y0160264D01*
X0087214Y0160145D01*
X0087259Y0160028D01*
X0087307Y0159911D01*
X0087359Y0159797D01*
X0087414Y0159684D01*
X0087473Y0159573D01*
X0087535Y0159464D01*
X0087601Y0159357D01*
X0087670Y0159252D01*
X0087742Y0159149D01*
X0087817Y0159048D01*
X0087896Y0158950D01*
X0087978Y0158855D01*
X0088062Y0158762D01*
X0088150Y0158672D01*
X0088240Y0158584D01*
X0088333Y0158500D01*
X0088428Y0158418D01*
X0088526Y0158339D01*
X0088627Y0158264D01*
X0088730Y0158192D01*
X0088835Y0158123D01*
X0088942Y0158057D01*
X0089051Y0157995D01*
X0089162Y0157936D01*
X0089275Y0157881D01*
X0089389Y0157829D01*
X0089506Y0157781D01*
X0089623Y0157736D01*
X0089742Y0157696D01*
X0089862Y0157659D01*
X0089983Y0157626D01*
X0090105Y0157596D01*
X0090228Y0157571D01*
X0090352Y0157549D01*
X0090477Y0157532D01*
X0090602Y0157518D01*
X0090727Y0157508D01*
X0090852Y0157502D01*
X0090978Y0157500D01*
X0091104Y0157502D01*
X0091229Y0157508D01*
X0091354Y0157518D01*
X0091479Y0157532D01*
X0091604Y0157549D01*
X0091728Y0157571D01*
X0091851Y0157596D01*
X0091973Y0157626D01*
X0092094Y0157659D01*
X0092214Y0157696D01*
X0092333Y0157736D01*
X0092450Y0157781D01*
X0092567Y0157829D01*
X0092681Y0157881D01*
X0092794Y0157936D01*
X0092905Y0157995D01*
X0093014Y0158057D01*
X0093121Y0158123D01*
X0093226Y0158192D01*
X0093329Y0158264D01*
X0093430Y0158339D01*
X0093528Y0158418D01*
X0093623Y0158500D01*
X0093716Y0158584D01*
X0093806Y0158672D01*
X0093894Y0158762D01*
X0093978Y0158855D01*
X0094060Y0158950D01*
X0094139Y0159048D01*
X0094214Y0159149D01*
X0094286Y0159252D01*
X0094355Y0159357D01*
X0094421Y0159464D01*
X0094483Y0159573D01*
X0094542Y0159684D01*
X0094597Y0159797D01*
X0094649Y0159911D01*
X0094697Y0160028D01*
X0094742Y0160145D01*
X0094782Y0160264D01*
X0094819Y0160384D01*
X0094852Y0160505D01*
X0094882Y0160627D01*
X0094907Y0160750D01*
X0094929Y0160874D01*
X0094946Y0160999D01*
X0094960Y0161124D01*
X0094970Y0161249D01*
X0094976Y0161374D01*
X0094978Y0161500D01*
X0102478Y0161500D01*
X0102478Y0081500D01*
X0079478Y0081500D01*
X0079478Y0161500D01*
X0086978Y0161500D01*
X0081447Y0163300D02*
X0079778Y0163300D01*
X0080613Y0163300D02*
X0080613Y0168304D01*
X0081447Y0168304D02*
X0079778Y0168304D01*
X0062458Y0168202D02*
X0059122Y0168202D01*
X0061624Y0170704D01*
X0061624Y0165700D01*
X0057302Y0166534D02*
X0056468Y0165700D01*
X0054800Y0165700D01*
X0053966Y0166534D01*
X0053966Y0169870D01*
X0054800Y0170704D01*
X0056468Y0170704D01*
X0057302Y0169870D01*
X0055478Y0170000D02*
X0055478Y0183000D01*
X0055476Y0183087D01*
X0055470Y0183174D01*
X0055461Y0183261D01*
X0055448Y0183347D01*
X0055431Y0183433D01*
X0055410Y0183518D01*
X0055385Y0183601D01*
X0055357Y0183684D01*
X0055326Y0183765D01*
X0055291Y0183845D01*
X0055252Y0183923D01*
X0055210Y0184000D01*
X0055165Y0184075D01*
X0055116Y0184147D01*
X0055065Y0184218D01*
X0055010Y0184286D01*
X0054953Y0184351D01*
X0054892Y0184414D01*
X0054829Y0184475D01*
X0054764Y0184532D01*
X0054696Y0184587D01*
X0054625Y0184638D01*
X0054553Y0184687D01*
X0054478Y0184732D01*
X0054401Y0184774D01*
X0054323Y0184813D01*
X0054243Y0184848D01*
X0054162Y0184879D01*
X0054079Y0184907D01*
X0053996Y0184932D01*
X0053911Y0184953D01*
X0053825Y0184970D01*
X0053739Y0184983D01*
X0053652Y0184992D01*
X0053565Y0184998D01*
X0053478Y0185000D01*
X0048478Y0185000D01*
X0048391Y0184998D01*
X0048304Y0184992D01*
X0048217Y0184983D01*
X0048131Y0184970D01*
X0048045Y0184953D01*
X0047960Y0184932D01*
X0047877Y0184907D01*
X0047794Y0184879D01*
X0047713Y0184848D01*
X0047633Y0184813D01*
X0047555Y0184774D01*
X0047478Y0184732D01*
X0047403Y0184687D01*
X0047331Y0184638D01*
X0047260Y0184587D01*
X0047192Y0184532D01*
X0047127Y0184475D01*
X0047064Y0184414D01*
X0047003Y0184351D01*
X0046946Y0184286D01*
X0046891Y0184218D01*
X0046840Y0184147D01*
X0046791Y0184075D01*
X0046746Y0184000D01*
X0046704Y0183923D01*
X0046665Y0183845D01*
X0046630Y0183765D01*
X0046599Y0183684D01*
X0046571Y0183601D01*
X0046546Y0183518D01*
X0046525Y0183433D01*
X0046508Y0183347D01*
X0046495Y0183261D01*
X0046486Y0183174D01*
X0046480Y0183087D01*
X0046478Y0183000D01*
X0046478Y0170000D01*
X0046480Y0169913D01*
X0046486Y0169826D01*
X0046495Y0169739D01*
X0046508Y0169653D01*
X0046525Y0169567D01*
X0046546Y0169482D01*
X0046571Y0169399D01*
X0046599Y0169316D01*
X0046630Y0169235D01*
X0046665Y0169155D01*
X0046704Y0169077D01*
X0046746Y0169000D01*
X0046791Y0168925D01*
X0046840Y0168853D01*
X0046891Y0168782D01*
X0046946Y0168714D01*
X0047003Y0168649D01*
X0047064Y0168586D01*
X0047127Y0168525D01*
X0047192Y0168468D01*
X0047260Y0168413D01*
X0047331Y0168362D01*
X0047403Y0168313D01*
X0047478Y0168268D01*
X0047555Y0168226D01*
X0047633Y0168187D01*
X0047713Y0168152D01*
X0047794Y0168121D01*
X0047877Y0168093D01*
X0047960Y0168068D01*
X0048045Y0168047D01*
X0048131Y0168030D01*
X0048217Y0168017D01*
X0048304Y0168008D01*
X0048391Y0168002D01*
X0048478Y0168000D01*
X0053478Y0168000D01*
X0053565Y0168002D01*
X0053652Y0168008D01*
X0053739Y0168017D01*
X0053825Y0168030D01*
X0053911Y0168047D01*
X0053996Y0168068D01*
X0054079Y0168093D01*
X0054162Y0168121D01*
X0054243Y0168152D01*
X0054323Y0168187D01*
X0054401Y0168226D01*
X0054478Y0168268D01*
X0054553Y0168313D01*
X0054625Y0168362D01*
X0054696Y0168413D01*
X0054764Y0168468D01*
X0054829Y0168525D01*
X0054892Y0168586D01*
X0054953Y0168649D01*
X0055010Y0168714D01*
X0055065Y0168782D01*
X0055116Y0168853D01*
X0055165Y0168925D01*
X0055210Y0169000D01*
X0055252Y0169077D01*
X0055291Y0169155D01*
X0055326Y0169235D01*
X0055357Y0169316D01*
X0055385Y0169399D01*
X0055410Y0169482D01*
X0055431Y0169567D01*
X0055448Y0169653D01*
X0055461Y0169739D01*
X0055470Y0169826D01*
X0055476Y0169913D01*
X0055478Y0170000D01*
X0049093Y0162804D02*
X0047425Y0162804D01*
X0046591Y0161970D01*
X0046591Y0158634D01*
X0049927Y0161970D01*
X0049927Y0158634D01*
X0049093Y0157800D01*
X0047425Y0157800D01*
X0046591Y0158634D01*
X0044771Y0157800D02*
X0041435Y0157800D01*
X0043103Y0157800D02*
X0043103Y0162804D01*
X0041435Y0161136D01*
X0039615Y0162804D02*
X0039615Y0157800D01*
X0037978Y0156500D02*
X0035978Y0156500D01*
X0035978Y0154500D01*
X0036278Y0157800D02*
X0036278Y0162804D01*
X0037947Y0161136D01*
X0039615Y0162804D01*
X0033259Y0162804D02*
X0033259Y0157800D01*
X0031591Y0157800D02*
X0034927Y0157800D01*
X0030978Y0156500D02*
X0030978Y0154500D01*
X0030978Y0156500D02*
X0028978Y0156500D01*
X0029771Y0157800D02*
X0026435Y0157800D01*
X0028103Y0157800D02*
X0028103Y0162804D01*
X0026435Y0161136D01*
X0024615Y0162804D02*
X0024615Y0157800D01*
X0022978Y0156500D02*
X0020978Y0156500D01*
X0020978Y0154500D01*
X0021278Y0157800D02*
X0021278Y0162804D01*
X0022947Y0161136D01*
X0024615Y0162804D01*
X0031591Y0161136D02*
X0033259Y0162804D01*
X0043978Y0156500D02*
X0045978Y0156500D01*
X0045978Y0154500D01*
X0045978Y0148500D02*
X0045978Y0146500D01*
X0043978Y0146500D01*
X0037978Y0146500D02*
X0035978Y0146500D01*
X0035978Y0148500D01*
X0030978Y0148500D02*
X0030978Y0146500D01*
X0028978Y0146500D01*
X0028958Y0142204D02*
X0025622Y0142204D01*
X0023802Y0141370D02*
X0022968Y0142204D01*
X0021300Y0142204D01*
X0020466Y0141370D01*
X0020466Y0138034D01*
X0021300Y0137200D01*
X0022968Y0137200D01*
X0023802Y0138034D01*
X0025622Y0138034D02*
X0025622Y0137200D01*
X0025622Y0138034D02*
X0028958Y0141370D01*
X0028958Y0142204D01*
X0022978Y0146500D02*
X0020978Y0146500D01*
X0020978Y0148500D01*
X0019378Y0164674D02*
X0014374Y0164674D01*
X0019378Y0164674D02*
X0019378Y0168011D01*
X0019378Y0169831D02*
X0014374Y0169831D01*
X0014374Y0173167D01*
X0014374Y0174987D02*
X0014374Y0177489D01*
X0015208Y0178323D01*
X0018544Y0178323D01*
X0019378Y0177489D01*
X0019378Y0174987D01*
X0014374Y0174987D01*
X0019378Y0173167D02*
X0019378Y0169831D01*
X0016876Y0169831D02*
X0016876Y0171499D01*
X0016042Y0180144D02*
X0014374Y0181812D01*
X0019378Y0181812D01*
X0019378Y0180144D02*
X0019378Y0183480D01*
X0020978Y0176500D02*
X0020981Y0176745D01*
X0020990Y0176991D01*
X0021005Y0177236D01*
X0021026Y0177480D01*
X0021053Y0177724D01*
X0021086Y0177967D01*
X0021125Y0178210D01*
X0021170Y0178451D01*
X0021221Y0178691D01*
X0021278Y0178930D01*
X0021340Y0179167D01*
X0021409Y0179403D01*
X0021483Y0179637D01*
X0021563Y0179869D01*
X0021648Y0180099D01*
X0021739Y0180327D01*
X0021836Y0180552D01*
X0021938Y0180776D01*
X0022046Y0180996D01*
X0022159Y0181214D01*
X0022277Y0181429D01*
X0022401Y0181641D01*
X0022529Y0181850D01*
X0022663Y0182056D01*
X0022802Y0182258D01*
X0022946Y0182457D01*
X0023095Y0182652D01*
X0023248Y0182844D01*
X0023406Y0183032D01*
X0023568Y0183216D01*
X0023736Y0183395D01*
X0023907Y0183571D01*
X0024083Y0183742D01*
X0024262Y0183910D01*
X0024446Y0184072D01*
X0024634Y0184230D01*
X0024826Y0184383D01*
X0025021Y0184532D01*
X0025220Y0184676D01*
X0025422Y0184815D01*
X0025628Y0184949D01*
X0025837Y0185077D01*
X0026049Y0185201D01*
X0026264Y0185319D01*
X0026482Y0185432D01*
X0026702Y0185540D01*
X0026926Y0185642D01*
X0027151Y0185739D01*
X0027379Y0185830D01*
X0027609Y0185915D01*
X0027841Y0185995D01*
X0028075Y0186069D01*
X0028311Y0186138D01*
X0028548Y0186200D01*
X0028787Y0186257D01*
X0029027Y0186308D01*
X0029268Y0186353D01*
X0029511Y0186392D01*
X0029754Y0186425D01*
X0029998Y0186452D01*
X0030242Y0186473D01*
X0030487Y0186488D01*
X0030733Y0186497D01*
X0030978Y0186500D01*
X0031223Y0186497D01*
X0031469Y0186488D01*
X0031714Y0186473D01*
X0031958Y0186452D01*
X0032202Y0186425D01*
X0032445Y0186392D01*
X0032688Y0186353D01*
X0032929Y0186308D01*
X0033169Y0186257D01*
X0033408Y0186200D01*
X0033645Y0186138D01*
X0033881Y0186069D01*
X0034115Y0185995D01*
X0034347Y0185915D01*
X0034577Y0185830D01*
X0034805Y0185739D01*
X0035030Y0185642D01*
X0035254Y0185540D01*
X0035474Y0185432D01*
X0035692Y0185319D01*
X0035907Y0185201D01*
X0036119Y0185077D01*
X0036328Y0184949D01*
X0036534Y0184815D01*
X0036736Y0184676D01*
X0036935Y0184532D01*
X0037130Y0184383D01*
X0037322Y0184230D01*
X0037510Y0184072D01*
X0037694Y0183910D01*
X0037873Y0183742D01*
X0038049Y0183571D01*
X0038220Y0183395D01*
X0038388Y0183216D01*
X0038550Y0183032D01*
X0038708Y0182844D01*
X0038861Y0182652D01*
X0039010Y0182457D01*
X0039154Y0182258D01*
X0039293Y0182056D01*
X0039427Y0181850D01*
X0039555Y0181641D01*
X0039679Y0181429D01*
X0039797Y0181214D01*
X0039910Y0180996D01*
X0040018Y0180776D01*
X0040120Y0180552D01*
X0040217Y0180327D01*
X0040308Y0180099D01*
X0040393Y0179869D01*
X0040473Y0179637D01*
X0040547Y0179403D01*
X0040616Y0179167D01*
X0040678Y0178930D01*
X0040735Y0178691D01*
X0040786Y0178451D01*
X0040831Y0178210D01*
X0040870Y0177967D01*
X0040903Y0177724D01*
X0040930Y0177480D01*
X0040951Y0177236D01*
X0040966Y0176991D01*
X0040975Y0176745D01*
X0040978Y0176500D01*
X0040975Y0176255D01*
X0040966Y0176009D01*
X0040951Y0175764D01*
X0040930Y0175520D01*
X0040903Y0175276D01*
X0040870Y0175033D01*
X0040831Y0174790D01*
X0040786Y0174549D01*
X0040735Y0174309D01*
X0040678Y0174070D01*
X0040616Y0173833D01*
X0040547Y0173597D01*
X0040473Y0173363D01*
X0040393Y0173131D01*
X0040308Y0172901D01*
X0040217Y0172673D01*
X0040120Y0172448D01*
X0040018Y0172224D01*
X0039910Y0172004D01*
X0039797Y0171786D01*
X0039679Y0171571D01*
X0039555Y0171359D01*
X0039427Y0171150D01*
X0039293Y0170944D01*
X0039154Y0170742D01*
X0039010Y0170543D01*
X0038861Y0170348D01*
X0038708Y0170156D01*
X0038550Y0169968D01*
X0038388Y0169784D01*
X0038220Y0169605D01*
X0038049Y0169429D01*
X0037873Y0169258D01*
X0037694Y0169090D01*
X0037510Y0168928D01*
X0037322Y0168770D01*
X0037130Y0168617D01*
X0036935Y0168468D01*
X0036736Y0168324D01*
X0036534Y0168185D01*
X0036328Y0168051D01*
X0036119Y0167923D01*
X0035907Y0167799D01*
X0035692Y0167681D01*
X0035474Y0167568D01*
X0035254Y0167460D01*
X0035030Y0167358D01*
X0034805Y0167261D01*
X0034577Y0167170D01*
X0034347Y0167085D01*
X0034115Y0167005D01*
X0033881Y0166931D01*
X0033645Y0166862D01*
X0033408Y0166800D01*
X0033169Y0166743D01*
X0032929Y0166692D01*
X0032688Y0166647D01*
X0032445Y0166608D01*
X0032202Y0166575D01*
X0031958Y0166548D01*
X0031714Y0166527D01*
X0031469Y0166512D01*
X0031223Y0166503D01*
X0030978Y0166500D01*
X0030733Y0166503D01*
X0030487Y0166512D01*
X0030242Y0166527D01*
X0029998Y0166548D01*
X0029754Y0166575D01*
X0029511Y0166608D01*
X0029268Y0166647D01*
X0029027Y0166692D01*
X0028787Y0166743D01*
X0028548Y0166800D01*
X0028311Y0166862D01*
X0028075Y0166931D01*
X0027841Y0167005D01*
X0027609Y0167085D01*
X0027379Y0167170D01*
X0027151Y0167261D01*
X0026926Y0167358D01*
X0026702Y0167460D01*
X0026482Y0167568D01*
X0026264Y0167681D01*
X0026049Y0167799D01*
X0025837Y0167923D01*
X0025628Y0168051D01*
X0025422Y0168185D01*
X0025220Y0168324D01*
X0025021Y0168468D01*
X0024826Y0168617D01*
X0024634Y0168770D01*
X0024446Y0168928D01*
X0024262Y0169090D01*
X0024083Y0169258D01*
X0023907Y0169429D01*
X0023736Y0169605D01*
X0023568Y0169784D01*
X0023406Y0169968D01*
X0023248Y0170156D01*
X0023095Y0170348D01*
X0022946Y0170543D01*
X0022802Y0170742D01*
X0022663Y0170944D01*
X0022529Y0171150D01*
X0022401Y0171359D01*
X0022277Y0171571D01*
X0022159Y0171786D01*
X0022046Y0172004D01*
X0021938Y0172224D01*
X0021836Y0172448D01*
X0021739Y0172673D01*
X0021648Y0172901D01*
X0021563Y0173131D01*
X0021483Y0173363D01*
X0021409Y0173597D01*
X0021340Y0173833D01*
X0021278Y0174070D01*
X0021221Y0174309D01*
X0021170Y0174549D01*
X0021125Y0174790D01*
X0021086Y0175033D01*
X0021053Y0175276D01*
X0021026Y0175520D01*
X0021005Y0175764D01*
X0020990Y0176009D01*
X0020981Y0176255D01*
X0020978Y0176500D01*
X0049093Y0162804D02*
X0049927Y0161970D01*
X0050956Y0142204D02*
X0052624Y0142204D01*
X0053458Y0141370D01*
X0053458Y0140536D01*
X0052624Y0139702D01*
X0053458Y0138868D01*
X0053458Y0138034D01*
X0052624Y0137200D01*
X0050956Y0137200D01*
X0050122Y0138034D01*
X0048302Y0138034D02*
X0047468Y0137200D01*
X0045800Y0137200D01*
X0044966Y0138034D01*
X0044966Y0141370D01*
X0045800Y0142204D01*
X0047468Y0142204D01*
X0048302Y0141370D01*
X0050122Y0141370D02*
X0050956Y0142204D01*
X0051790Y0139702D02*
X0052624Y0139702D01*
X0040978Y0126500D02*
X0040981Y0126745D01*
X0040990Y0126991D01*
X0041005Y0127236D01*
X0041026Y0127480D01*
X0041053Y0127724D01*
X0041086Y0127967D01*
X0041125Y0128210D01*
X0041170Y0128451D01*
X0041221Y0128691D01*
X0041278Y0128930D01*
X0041340Y0129167D01*
X0041409Y0129403D01*
X0041483Y0129637D01*
X0041563Y0129869D01*
X0041648Y0130099D01*
X0041739Y0130327D01*
X0041836Y0130552D01*
X0041938Y0130776D01*
X0042046Y0130996D01*
X0042159Y0131214D01*
X0042277Y0131429D01*
X0042401Y0131641D01*
X0042529Y0131850D01*
X0042663Y0132056D01*
X0042802Y0132258D01*
X0042946Y0132457D01*
X0043095Y0132652D01*
X0043248Y0132844D01*
X0043406Y0133032D01*
X0043568Y0133216D01*
X0043736Y0133395D01*
X0043907Y0133571D01*
X0044083Y0133742D01*
X0044262Y0133910D01*
X0044446Y0134072D01*
X0044634Y0134230D01*
X0044826Y0134383D01*
X0045021Y0134532D01*
X0045220Y0134676D01*
X0045422Y0134815D01*
X0045628Y0134949D01*
X0045837Y0135077D01*
X0046049Y0135201D01*
X0046264Y0135319D01*
X0046482Y0135432D01*
X0046702Y0135540D01*
X0046926Y0135642D01*
X0047151Y0135739D01*
X0047379Y0135830D01*
X0047609Y0135915D01*
X0047841Y0135995D01*
X0048075Y0136069D01*
X0048311Y0136138D01*
X0048548Y0136200D01*
X0048787Y0136257D01*
X0049027Y0136308D01*
X0049268Y0136353D01*
X0049511Y0136392D01*
X0049754Y0136425D01*
X0049998Y0136452D01*
X0050242Y0136473D01*
X0050487Y0136488D01*
X0050733Y0136497D01*
X0050978Y0136500D01*
X0051223Y0136497D01*
X0051469Y0136488D01*
X0051714Y0136473D01*
X0051958Y0136452D01*
X0052202Y0136425D01*
X0052445Y0136392D01*
X0052688Y0136353D01*
X0052929Y0136308D01*
X0053169Y0136257D01*
X0053408Y0136200D01*
X0053645Y0136138D01*
X0053881Y0136069D01*
X0054115Y0135995D01*
X0054347Y0135915D01*
X0054577Y0135830D01*
X0054805Y0135739D01*
X0055030Y0135642D01*
X0055254Y0135540D01*
X0055474Y0135432D01*
X0055692Y0135319D01*
X0055907Y0135201D01*
X0056119Y0135077D01*
X0056328Y0134949D01*
X0056534Y0134815D01*
X0056736Y0134676D01*
X0056935Y0134532D01*
X0057130Y0134383D01*
X0057322Y0134230D01*
X0057510Y0134072D01*
X0057694Y0133910D01*
X0057873Y0133742D01*
X0058049Y0133571D01*
X0058220Y0133395D01*
X0058388Y0133216D01*
X0058550Y0133032D01*
X0058708Y0132844D01*
X0058861Y0132652D01*
X0059010Y0132457D01*
X0059154Y0132258D01*
X0059293Y0132056D01*
X0059427Y0131850D01*
X0059555Y0131641D01*
X0059679Y0131429D01*
X0059797Y0131214D01*
X0059910Y0130996D01*
X0060018Y0130776D01*
X0060120Y0130552D01*
X0060217Y0130327D01*
X0060308Y0130099D01*
X0060393Y0129869D01*
X0060473Y0129637D01*
X0060547Y0129403D01*
X0060616Y0129167D01*
X0060678Y0128930D01*
X0060735Y0128691D01*
X0060786Y0128451D01*
X0060831Y0128210D01*
X0060870Y0127967D01*
X0060903Y0127724D01*
X0060930Y0127480D01*
X0060951Y0127236D01*
X0060966Y0126991D01*
X0060975Y0126745D01*
X0060978Y0126500D01*
X0060975Y0126255D01*
X0060966Y0126009D01*
X0060951Y0125764D01*
X0060930Y0125520D01*
X0060903Y0125276D01*
X0060870Y0125033D01*
X0060831Y0124790D01*
X0060786Y0124549D01*
X0060735Y0124309D01*
X0060678Y0124070D01*
X0060616Y0123833D01*
X0060547Y0123597D01*
X0060473Y0123363D01*
X0060393Y0123131D01*
X0060308Y0122901D01*
X0060217Y0122673D01*
X0060120Y0122448D01*
X0060018Y0122224D01*
X0059910Y0122004D01*
X0059797Y0121786D01*
X0059679Y0121571D01*
X0059555Y0121359D01*
X0059427Y0121150D01*
X0059293Y0120944D01*
X0059154Y0120742D01*
X0059010Y0120543D01*
X0058861Y0120348D01*
X0058708Y0120156D01*
X0058550Y0119968D01*
X0058388Y0119784D01*
X0058220Y0119605D01*
X0058049Y0119429D01*
X0057873Y0119258D01*
X0057694Y0119090D01*
X0057510Y0118928D01*
X0057322Y0118770D01*
X0057130Y0118617D01*
X0056935Y0118468D01*
X0056736Y0118324D01*
X0056534Y0118185D01*
X0056328Y0118051D01*
X0056119Y0117923D01*
X0055907Y0117799D01*
X0055692Y0117681D01*
X0055474Y0117568D01*
X0055254Y0117460D01*
X0055030Y0117358D01*
X0054805Y0117261D01*
X0054577Y0117170D01*
X0054347Y0117085D01*
X0054115Y0117005D01*
X0053881Y0116931D01*
X0053645Y0116862D01*
X0053408Y0116800D01*
X0053169Y0116743D01*
X0052929Y0116692D01*
X0052688Y0116647D01*
X0052445Y0116608D01*
X0052202Y0116575D01*
X0051958Y0116548D01*
X0051714Y0116527D01*
X0051469Y0116512D01*
X0051223Y0116503D01*
X0050978Y0116500D01*
X0050733Y0116503D01*
X0050487Y0116512D01*
X0050242Y0116527D01*
X0049998Y0116548D01*
X0049754Y0116575D01*
X0049511Y0116608D01*
X0049268Y0116647D01*
X0049027Y0116692D01*
X0048787Y0116743D01*
X0048548Y0116800D01*
X0048311Y0116862D01*
X0048075Y0116931D01*
X0047841Y0117005D01*
X0047609Y0117085D01*
X0047379Y0117170D01*
X0047151Y0117261D01*
X0046926Y0117358D01*
X0046702Y0117460D01*
X0046482Y0117568D01*
X0046264Y0117681D01*
X0046049Y0117799D01*
X0045837Y0117923D01*
X0045628Y0118051D01*
X0045422Y0118185D01*
X0045220Y0118324D01*
X0045021Y0118468D01*
X0044826Y0118617D01*
X0044634Y0118770D01*
X0044446Y0118928D01*
X0044262Y0119090D01*
X0044083Y0119258D01*
X0043907Y0119429D01*
X0043736Y0119605D01*
X0043568Y0119784D01*
X0043406Y0119968D01*
X0043248Y0120156D01*
X0043095Y0120348D01*
X0042946Y0120543D01*
X0042802Y0120742D01*
X0042663Y0120944D01*
X0042529Y0121150D01*
X0042401Y0121359D01*
X0042277Y0121571D01*
X0042159Y0121786D01*
X0042046Y0122004D01*
X0041938Y0122224D01*
X0041836Y0122448D01*
X0041739Y0122673D01*
X0041648Y0122901D01*
X0041563Y0123131D01*
X0041483Y0123363D01*
X0041409Y0123597D01*
X0041340Y0123833D01*
X0041278Y0124070D01*
X0041221Y0124309D01*
X0041170Y0124549D01*
X0041125Y0124790D01*
X0041086Y0125033D01*
X0041053Y0125276D01*
X0041026Y0125520D01*
X0041005Y0125764D01*
X0040990Y0126009D01*
X0040981Y0126255D01*
X0040978Y0126500D01*
X0032478Y0121500D02*
X0031478Y0121500D01*
X0031478Y0120500D01*
X0031478Y0121500D02*
X0030478Y0121500D01*
X0031478Y0121500D02*
X0031478Y0122500D01*
X0015978Y0126500D02*
X0015981Y0126745D01*
X0015990Y0126991D01*
X0016005Y0127236D01*
X0016026Y0127480D01*
X0016053Y0127724D01*
X0016086Y0127967D01*
X0016125Y0128210D01*
X0016170Y0128451D01*
X0016221Y0128691D01*
X0016278Y0128930D01*
X0016340Y0129167D01*
X0016409Y0129403D01*
X0016483Y0129637D01*
X0016563Y0129869D01*
X0016648Y0130099D01*
X0016739Y0130327D01*
X0016836Y0130552D01*
X0016938Y0130776D01*
X0017046Y0130996D01*
X0017159Y0131214D01*
X0017277Y0131429D01*
X0017401Y0131641D01*
X0017529Y0131850D01*
X0017663Y0132056D01*
X0017802Y0132258D01*
X0017946Y0132457D01*
X0018095Y0132652D01*
X0018248Y0132844D01*
X0018406Y0133032D01*
X0018568Y0133216D01*
X0018736Y0133395D01*
X0018907Y0133571D01*
X0019083Y0133742D01*
X0019262Y0133910D01*
X0019446Y0134072D01*
X0019634Y0134230D01*
X0019826Y0134383D01*
X0020021Y0134532D01*
X0020220Y0134676D01*
X0020422Y0134815D01*
X0020628Y0134949D01*
X0020837Y0135077D01*
X0021049Y0135201D01*
X0021264Y0135319D01*
X0021482Y0135432D01*
X0021702Y0135540D01*
X0021926Y0135642D01*
X0022151Y0135739D01*
X0022379Y0135830D01*
X0022609Y0135915D01*
X0022841Y0135995D01*
X0023075Y0136069D01*
X0023311Y0136138D01*
X0023548Y0136200D01*
X0023787Y0136257D01*
X0024027Y0136308D01*
X0024268Y0136353D01*
X0024511Y0136392D01*
X0024754Y0136425D01*
X0024998Y0136452D01*
X0025242Y0136473D01*
X0025487Y0136488D01*
X0025733Y0136497D01*
X0025978Y0136500D01*
X0026223Y0136497D01*
X0026469Y0136488D01*
X0026714Y0136473D01*
X0026958Y0136452D01*
X0027202Y0136425D01*
X0027445Y0136392D01*
X0027688Y0136353D01*
X0027929Y0136308D01*
X0028169Y0136257D01*
X0028408Y0136200D01*
X0028645Y0136138D01*
X0028881Y0136069D01*
X0029115Y0135995D01*
X0029347Y0135915D01*
X0029577Y0135830D01*
X0029805Y0135739D01*
X0030030Y0135642D01*
X0030254Y0135540D01*
X0030474Y0135432D01*
X0030692Y0135319D01*
X0030907Y0135201D01*
X0031119Y0135077D01*
X0031328Y0134949D01*
X0031534Y0134815D01*
X0031736Y0134676D01*
X0031935Y0134532D01*
X0032130Y0134383D01*
X0032322Y0134230D01*
X0032510Y0134072D01*
X0032694Y0133910D01*
X0032873Y0133742D01*
X0033049Y0133571D01*
X0033220Y0133395D01*
X0033388Y0133216D01*
X0033550Y0133032D01*
X0033708Y0132844D01*
X0033861Y0132652D01*
X0034010Y0132457D01*
X0034154Y0132258D01*
X0034293Y0132056D01*
X0034427Y0131850D01*
X0034555Y0131641D01*
X0034679Y0131429D01*
X0034797Y0131214D01*
X0034910Y0130996D01*
X0035018Y0130776D01*
X0035120Y0130552D01*
X0035217Y0130327D01*
X0035308Y0130099D01*
X0035393Y0129869D01*
X0035473Y0129637D01*
X0035547Y0129403D01*
X0035616Y0129167D01*
X0035678Y0128930D01*
X0035735Y0128691D01*
X0035786Y0128451D01*
X0035831Y0128210D01*
X0035870Y0127967D01*
X0035903Y0127724D01*
X0035930Y0127480D01*
X0035951Y0127236D01*
X0035966Y0126991D01*
X0035975Y0126745D01*
X0035978Y0126500D01*
X0035975Y0126255D01*
X0035966Y0126009D01*
X0035951Y0125764D01*
X0035930Y0125520D01*
X0035903Y0125276D01*
X0035870Y0125033D01*
X0035831Y0124790D01*
X0035786Y0124549D01*
X0035735Y0124309D01*
X0035678Y0124070D01*
X0035616Y0123833D01*
X0035547Y0123597D01*
X0035473Y0123363D01*
X0035393Y0123131D01*
X0035308Y0122901D01*
X0035217Y0122673D01*
X0035120Y0122448D01*
X0035018Y0122224D01*
X0034910Y0122004D01*
X0034797Y0121786D01*
X0034679Y0121571D01*
X0034555Y0121359D01*
X0034427Y0121150D01*
X0034293Y0120944D01*
X0034154Y0120742D01*
X0034010Y0120543D01*
X0033861Y0120348D01*
X0033708Y0120156D01*
X0033550Y0119968D01*
X0033388Y0119784D01*
X0033220Y0119605D01*
X0033049Y0119429D01*
X0032873Y0119258D01*
X0032694Y0119090D01*
X0032510Y0118928D01*
X0032322Y0118770D01*
X0032130Y0118617D01*
X0031935Y0118468D01*
X0031736Y0118324D01*
X0031534Y0118185D01*
X0031328Y0118051D01*
X0031119Y0117923D01*
X0030907Y0117799D01*
X0030692Y0117681D01*
X0030474Y0117568D01*
X0030254Y0117460D01*
X0030030Y0117358D01*
X0029805Y0117261D01*
X0029577Y0117170D01*
X0029347Y0117085D01*
X0029115Y0117005D01*
X0028881Y0116931D01*
X0028645Y0116862D01*
X0028408Y0116800D01*
X0028169Y0116743D01*
X0027929Y0116692D01*
X0027688Y0116647D01*
X0027445Y0116608D01*
X0027202Y0116575D01*
X0026958Y0116548D01*
X0026714Y0116527D01*
X0026469Y0116512D01*
X0026223Y0116503D01*
X0025978Y0116500D01*
X0025733Y0116503D01*
X0025487Y0116512D01*
X0025242Y0116527D01*
X0024998Y0116548D01*
X0024754Y0116575D01*
X0024511Y0116608D01*
X0024268Y0116647D01*
X0024027Y0116692D01*
X0023787Y0116743D01*
X0023548Y0116800D01*
X0023311Y0116862D01*
X0023075Y0116931D01*
X0022841Y0117005D01*
X0022609Y0117085D01*
X0022379Y0117170D01*
X0022151Y0117261D01*
X0021926Y0117358D01*
X0021702Y0117460D01*
X0021482Y0117568D01*
X0021264Y0117681D01*
X0021049Y0117799D01*
X0020837Y0117923D01*
X0020628Y0118051D01*
X0020422Y0118185D01*
X0020220Y0118324D01*
X0020021Y0118468D01*
X0019826Y0118617D01*
X0019634Y0118770D01*
X0019446Y0118928D01*
X0019262Y0119090D01*
X0019083Y0119258D01*
X0018907Y0119429D01*
X0018736Y0119605D01*
X0018568Y0119784D01*
X0018406Y0119968D01*
X0018248Y0120156D01*
X0018095Y0120348D01*
X0017946Y0120543D01*
X0017802Y0120742D01*
X0017663Y0120944D01*
X0017529Y0121150D01*
X0017401Y0121359D01*
X0017277Y0121571D01*
X0017159Y0121786D01*
X0017046Y0122004D01*
X0016938Y0122224D01*
X0016836Y0122448D01*
X0016739Y0122673D01*
X0016648Y0122901D01*
X0016563Y0123131D01*
X0016483Y0123363D01*
X0016409Y0123597D01*
X0016340Y0123833D01*
X0016278Y0124070D01*
X0016221Y0124309D01*
X0016170Y0124549D01*
X0016125Y0124790D01*
X0016086Y0125033D01*
X0016053Y0125276D01*
X0016026Y0125520D01*
X0016005Y0125764D01*
X0015990Y0126009D01*
X0015981Y0126255D01*
X0015978Y0126500D01*
X0021278Y0112804D02*
X0022947Y0111136D01*
X0024615Y0112804D01*
X0024615Y0107800D01*
X0026435Y0108634D02*
X0027269Y0107800D01*
X0028937Y0107800D01*
X0029771Y0108634D01*
X0029771Y0111970D01*
X0026435Y0108634D01*
X0026435Y0111970D01*
X0027269Y0112804D01*
X0028937Y0112804D01*
X0029771Y0111970D01*
X0031591Y0111136D02*
X0033259Y0112804D01*
X0033259Y0107800D01*
X0031591Y0107800D02*
X0034927Y0107800D01*
X0036278Y0107800D02*
X0036278Y0112804D01*
X0037947Y0111136D01*
X0039615Y0112804D01*
X0039615Y0107800D01*
X0041435Y0108634D02*
X0044771Y0111970D01*
X0044771Y0108634D01*
X0043937Y0107800D01*
X0042269Y0107800D01*
X0041435Y0108634D01*
X0041435Y0111970D01*
X0042269Y0112804D01*
X0043937Y0112804D01*
X0044771Y0111970D01*
X0046591Y0111970D02*
X0047425Y0112804D01*
X0049093Y0112804D01*
X0049927Y0111970D01*
X0049927Y0111136D01*
X0046591Y0107800D01*
X0049927Y0107800D01*
X0045978Y0106500D02*
X0045978Y0104500D01*
X0045978Y0106500D02*
X0043978Y0106500D01*
X0037978Y0106500D02*
X0035978Y0106500D01*
X0035978Y0104500D01*
X0030978Y0104500D02*
X0030978Y0106500D01*
X0028978Y0106500D01*
X0022978Y0106500D02*
X0020978Y0106500D01*
X0020978Y0104500D01*
X0021278Y0107800D02*
X0021278Y0112804D01*
X0020978Y0098500D02*
X0020978Y0096500D01*
X0022978Y0096500D01*
X0028978Y0096500D02*
X0030978Y0096500D01*
X0030978Y0098500D01*
X0035978Y0098500D02*
X0035978Y0096500D01*
X0037978Y0096500D01*
X0038935Y0092704D02*
X0038935Y0087700D01*
X0042271Y0087700D01*
X0044091Y0087700D02*
X0046593Y0087700D01*
X0047427Y0088534D01*
X0047427Y0091870D01*
X0046593Y0092704D01*
X0044091Y0092704D01*
X0044091Y0087700D01*
X0040603Y0090202D02*
X0038935Y0090202D01*
X0038935Y0092704D02*
X0042271Y0092704D01*
X0043978Y0096500D02*
X0045978Y0096500D01*
X0045978Y0098500D01*
X0050082Y0092704D02*
X0051750Y0092704D01*
X0052584Y0091870D01*
X0052584Y0091036D01*
X0051750Y0090202D01*
X0052584Y0089368D01*
X0052584Y0088534D01*
X0051750Y0087700D01*
X0050082Y0087700D01*
X0049248Y0088534D01*
X0050916Y0090202D02*
X0051750Y0090202D01*
X0052478Y0089000D02*
X0052478Y0094000D01*
X0052480Y0094087D01*
X0052486Y0094174D01*
X0052495Y0094261D01*
X0052508Y0094347D01*
X0052525Y0094433D01*
X0052546Y0094518D01*
X0052571Y0094601D01*
X0052599Y0094684D01*
X0052630Y0094765D01*
X0052665Y0094845D01*
X0052704Y0094923D01*
X0052746Y0095000D01*
X0052791Y0095075D01*
X0052840Y0095147D01*
X0052891Y0095218D01*
X0052946Y0095286D01*
X0053003Y0095351D01*
X0053064Y0095414D01*
X0053127Y0095475D01*
X0053192Y0095532D01*
X0053260Y0095587D01*
X0053331Y0095638D01*
X0053403Y0095687D01*
X0053478Y0095732D01*
X0053555Y0095774D01*
X0053633Y0095813D01*
X0053713Y0095848D01*
X0053794Y0095879D01*
X0053877Y0095907D01*
X0053960Y0095932D01*
X0054045Y0095953D01*
X0054131Y0095970D01*
X0054217Y0095983D01*
X0054304Y0095992D01*
X0054391Y0095998D01*
X0054478Y0096000D01*
X0067478Y0096000D01*
X0066458Y0097534D02*
X0066458Y0098368D01*
X0065624Y0099202D01*
X0063122Y0099202D01*
X0063122Y0097534D01*
X0063956Y0096700D01*
X0065624Y0096700D01*
X0066458Y0097534D01*
X0067478Y0096000D02*
X0067565Y0095998D01*
X0067652Y0095992D01*
X0067739Y0095983D01*
X0067825Y0095970D01*
X0067911Y0095953D01*
X0067996Y0095932D01*
X0068079Y0095907D01*
X0068162Y0095879D01*
X0068243Y0095848D01*
X0068323Y0095813D01*
X0068401Y0095774D01*
X0068478Y0095732D01*
X0068553Y0095687D01*
X0068625Y0095638D01*
X0068696Y0095587D01*
X0068764Y0095532D01*
X0068829Y0095475D01*
X0068892Y0095414D01*
X0068953Y0095351D01*
X0069010Y0095286D01*
X0069065Y0095218D01*
X0069116Y0095147D01*
X0069165Y0095075D01*
X0069210Y0095000D01*
X0069252Y0094923D01*
X0069291Y0094845D01*
X0069326Y0094765D01*
X0069357Y0094684D01*
X0069385Y0094601D01*
X0069410Y0094518D01*
X0069431Y0094433D01*
X0069448Y0094347D01*
X0069461Y0094261D01*
X0069470Y0094174D01*
X0069476Y0094087D01*
X0069478Y0094000D01*
X0069478Y0089000D01*
X0069476Y0088913D01*
X0069470Y0088826D01*
X0069461Y0088739D01*
X0069448Y0088653D01*
X0069431Y0088567D01*
X0069410Y0088482D01*
X0069385Y0088399D01*
X0069357Y0088316D01*
X0069326Y0088235D01*
X0069291Y0088155D01*
X0069252Y0088077D01*
X0069210Y0088000D01*
X0069165Y0087925D01*
X0069116Y0087853D01*
X0069065Y0087782D01*
X0069010Y0087714D01*
X0068953Y0087649D01*
X0068892Y0087586D01*
X0068829Y0087525D01*
X0068764Y0087468D01*
X0068696Y0087413D01*
X0068625Y0087362D01*
X0068553Y0087313D01*
X0068478Y0087268D01*
X0068401Y0087226D01*
X0068323Y0087187D01*
X0068243Y0087152D01*
X0068162Y0087121D01*
X0068079Y0087093D01*
X0067996Y0087068D01*
X0067911Y0087047D01*
X0067825Y0087030D01*
X0067739Y0087017D01*
X0067652Y0087008D01*
X0067565Y0087002D01*
X0067478Y0087000D01*
X0054478Y0087000D01*
X0054391Y0087002D01*
X0054304Y0087008D01*
X0054217Y0087017D01*
X0054131Y0087030D01*
X0054045Y0087047D01*
X0053960Y0087068D01*
X0053877Y0087093D01*
X0053794Y0087121D01*
X0053713Y0087152D01*
X0053633Y0087187D01*
X0053555Y0087226D01*
X0053478Y0087268D01*
X0053403Y0087313D01*
X0053331Y0087362D01*
X0053260Y0087413D01*
X0053192Y0087468D01*
X0053127Y0087525D01*
X0053064Y0087586D01*
X0053003Y0087649D01*
X0052946Y0087714D01*
X0052891Y0087782D01*
X0052840Y0087853D01*
X0052791Y0087925D01*
X0052746Y0088000D01*
X0052704Y0088077D01*
X0052665Y0088155D01*
X0052630Y0088235D01*
X0052599Y0088316D01*
X0052571Y0088399D01*
X0052546Y0088482D01*
X0052525Y0088567D01*
X0052508Y0088653D01*
X0052495Y0088739D01*
X0052486Y0088826D01*
X0052480Y0088913D01*
X0052478Y0089000D01*
X0049248Y0091870D02*
X0050082Y0092704D01*
X0057966Y0097534D02*
X0057966Y0100870D01*
X0058800Y0101704D01*
X0060468Y0101704D01*
X0061302Y0100870D01*
X0063122Y0099202D02*
X0064790Y0100870D01*
X0066458Y0101704D01*
X0061302Y0097534D02*
X0060468Y0096700D01*
X0058800Y0096700D01*
X0057966Y0097534D01*
X0058937Y0081404D02*
X0056435Y0078902D01*
X0059771Y0078902D01*
X0058937Y0076400D02*
X0058937Y0081404D01*
X0054615Y0080570D02*
X0054615Y0078902D01*
X0053781Y0078068D01*
X0051278Y0078068D01*
X0051278Y0076400D02*
X0051278Y0081404D01*
X0053781Y0081404D01*
X0054615Y0080570D01*
X0052947Y0078068D02*
X0054615Y0076400D01*
X0053478Y0075500D02*
X0051978Y0075500D01*
X0051918Y0075498D01*
X0051857Y0075493D01*
X0051798Y0075484D01*
X0051739Y0075471D01*
X0051680Y0075455D01*
X0051623Y0075435D01*
X0051568Y0075412D01*
X0051513Y0075385D01*
X0051461Y0075356D01*
X0051410Y0075323D01*
X0051361Y0075287D01*
X0051315Y0075249D01*
X0051271Y0075207D01*
X0051229Y0075163D01*
X0051191Y0075117D01*
X0051155Y0075068D01*
X0051122Y0075017D01*
X0051093Y0074965D01*
X0051066Y0074910D01*
X0051043Y0074855D01*
X0051023Y0074798D01*
X0051007Y0074739D01*
X0050994Y0074680D01*
X0050985Y0074621D01*
X0050980Y0074560D01*
X0050978Y0074500D01*
X0050978Y0068500D01*
X0050980Y0068440D01*
X0050985Y0068379D01*
X0050994Y0068320D01*
X0051007Y0068261D01*
X0051023Y0068202D01*
X0051043Y0068145D01*
X0051066Y0068090D01*
X0051093Y0068035D01*
X0051122Y0067983D01*
X0051155Y0067932D01*
X0051191Y0067883D01*
X0051229Y0067837D01*
X0051271Y0067793D01*
X0051315Y0067751D01*
X0051361Y0067713D01*
X0051410Y0067677D01*
X0051461Y0067644D01*
X0051513Y0067615D01*
X0051568Y0067588D01*
X0051623Y0067565D01*
X0051680Y0067545D01*
X0051739Y0067529D01*
X0051798Y0067516D01*
X0051857Y0067507D01*
X0051918Y0067502D01*
X0051978Y0067500D01*
X0053478Y0067500D01*
X0053978Y0068000D01*
X0067978Y0068000D01*
X0068478Y0067500D01*
X0069978Y0067500D01*
X0070038Y0067502D01*
X0070099Y0067507D01*
X0070158Y0067516D01*
X0070217Y0067529D01*
X0070276Y0067545D01*
X0070333Y0067565D01*
X0070388Y0067588D01*
X0070443Y0067615D01*
X0070495Y0067644D01*
X0070546Y0067677D01*
X0070595Y0067713D01*
X0070641Y0067751D01*
X0070685Y0067793D01*
X0070727Y0067837D01*
X0070765Y0067883D01*
X0070801Y0067932D01*
X0070834Y0067983D01*
X0070863Y0068035D01*
X0070890Y0068090D01*
X0070913Y0068145D01*
X0070933Y0068202D01*
X0070949Y0068261D01*
X0070962Y0068320D01*
X0070971Y0068379D01*
X0070976Y0068440D01*
X0070978Y0068500D01*
X0070978Y0074500D01*
X0070976Y0074560D01*
X0070971Y0074621D01*
X0070962Y0074680D01*
X0070949Y0074739D01*
X0070933Y0074798D01*
X0070913Y0074855D01*
X0070890Y0074910D01*
X0070863Y0074965D01*
X0070834Y0075017D01*
X0070801Y0075068D01*
X0070765Y0075117D01*
X0070727Y0075163D01*
X0070685Y0075207D01*
X0070641Y0075249D01*
X0070595Y0075287D01*
X0070546Y0075323D01*
X0070495Y0075356D01*
X0070443Y0075385D01*
X0070388Y0075412D01*
X0070333Y0075435D01*
X0070276Y0075455D01*
X0070217Y0075471D01*
X0070158Y0075484D01*
X0070099Y0075493D01*
X0070038Y0075498D01*
X0069978Y0075500D01*
X0068478Y0075500D01*
X0067978Y0075000D01*
X0053978Y0075000D01*
X0053478Y0075500D01*
X0049750Y0063204D02*
X0047248Y0060702D01*
X0050584Y0060702D01*
X0049750Y0058200D02*
X0049750Y0063204D01*
X0045427Y0062370D02*
X0045427Y0059034D01*
X0044593Y0058200D01*
X0042091Y0058200D01*
X0042091Y0063204D01*
X0044593Y0063204D01*
X0045427Y0062370D01*
X0040271Y0063204D02*
X0036935Y0063204D01*
X0036935Y0058200D01*
X0040271Y0058200D01*
X0038603Y0060702D02*
X0036935Y0060702D01*
X0035115Y0058200D02*
X0031778Y0058200D01*
X0031778Y0063204D01*
X0015978Y0076500D02*
X0015981Y0076745D01*
X0015990Y0076991D01*
X0016005Y0077236D01*
X0016026Y0077480D01*
X0016053Y0077724D01*
X0016086Y0077967D01*
X0016125Y0078210D01*
X0016170Y0078451D01*
X0016221Y0078691D01*
X0016278Y0078930D01*
X0016340Y0079167D01*
X0016409Y0079403D01*
X0016483Y0079637D01*
X0016563Y0079869D01*
X0016648Y0080099D01*
X0016739Y0080327D01*
X0016836Y0080552D01*
X0016938Y0080776D01*
X0017046Y0080996D01*
X0017159Y0081214D01*
X0017277Y0081429D01*
X0017401Y0081641D01*
X0017529Y0081850D01*
X0017663Y0082056D01*
X0017802Y0082258D01*
X0017946Y0082457D01*
X0018095Y0082652D01*
X0018248Y0082844D01*
X0018406Y0083032D01*
X0018568Y0083216D01*
X0018736Y0083395D01*
X0018907Y0083571D01*
X0019083Y0083742D01*
X0019262Y0083910D01*
X0019446Y0084072D01*
X0019634Y0084230D01*
X0019826Y0084383D01*
X0020021Y0084532D01*
X0020220Y0084676D01*
X0020422Y0084815D01*
X0020628Y0084949D01*
X0020837Y0085077D01*
X0021049Y0085201D01*
X0021264Y0085319D01*
X0021482Y0085432D01*
X0021702Y0085540D01*
X0021926Y0085642D01*
X0022151Y0085739D01*
X0022379Y0085830D01*
X0022609Y0085915D01*
X0022841Y0085995D01*
X0023075Y0086069D01*
X0023311Y0086138D01*
X0023548Y0086200D01*
X0023787Y0086257D01*
X0024027Y0086308D01*
X0024268Y0086353D01*
X0024511Y0086392D01*
X0024754Y0086425D01*
X0024998Y0086452D01*
X0025242Y0086473D01*
X0025487Y0086488D01*
X0025733Y0086497D01*
X0025978Y0086500D01*
X0026223Y0086497D01*
X0026469Y0086488D01*
X0026714Y0086473D01*
X0026958Y0086452D01*
X0027202Y0086425D01*
X0027445Y0086392D01*
X0027688Y0086353D01*
X0027929Y0086308D01*
X0028169Y0086257D01*
X0028408Y0086200D01*
X0028645Y0086138D01*
X0028881Y0086069D01*
X0029115Y0085995D01*
X0029347Y0085915D01*
X0029577Y0085830D01*
X0029805Y0085739D01*
X0030030Y0085642D01*
X0030254Y0085540D01*
X0030474Y0085432D01*
X0030692Y0085319D01*
X0030907Y0085201D01*
X0031119Y0085077D01*
X0031328Y0084949D01*
X0031534Y0084815D01*
X0031736Y0084676D01*
X0031935Y0084532D01*
X0032130Y0084383D01*
X0032322Y0084230D01*
X0032510Y0084072D01*
X0032694Y0083910D01*
X0032873Y0083742D01*
X0033049Y0083571D01*
X0033220Y0083395D01*
X0033388Y0083216D01*
X0033550Y0083032D01*
X0033708Y0082844D01*
X0033861Y0082652D01*
X0034010Y0082457D01*
X0034154Y0082258D01*
X0034293Y0082056D01*
X0034427Y0081850D01*
X0034555Y0081641D01*
X0034679Y0081429D01*
X0034797Y0081214D01*
X0034910Y0080996D01*
X0035018Y0080776D01*
X0035120Y0080552D01*
X0035217Y0080327D01*
X0035308Y0080099D01*
X0035393Y0079869D01*
X0035473Y0079637D01*
X0035547Y0079403D01*
X0035616Y0079167D01*
X0035678Y0078930D01*
X0035735Y0078691D01*
X0035786Y0078451D01*
X0035831Y0078210D01*
X0035870Y0077967D01*
X0035903Y0077724D01*
X0035930Y0077480D01*
X0035951Y0077236D01*
X0035966Y0076991D01*
X0035975Y0076745D01*
X0035978Y0076500D01*
X0035975Y0076255D01*
X0035966Y0076009D01*
X0035951Y0075764D01*
X0035930Y0075520D01*
X0035903Y0075276D01*
X0035870Y0075033D01*
X0035831Y0074790D01*
X0035786Y0074549D01*
X0035735Y0074309D01*
X0035678Y0074070D01*
X0035616Y0073833D01*
X0035547Y0073597D01*
X0035473Y0073363D01*
X0035393Y0073131D01*
X0035308Y0072901D01*
X0035217Y0072673D01*
X0035120Y0072448D01*
X0035018Y0072224D01*
X0034910Y0072004D01*
X0034797Y0071786D01*
X0034679Y0071571D01*
X0034555Y0071359D01*
X0034427Y0071150D01*
X0034293Y0070944D01*
X0034154Y0070742D01*
X0034010Y0070543D01*
X0033861Y0070348D01*
X0033708Y0070156D01*
X0033550Y0069968D01*
X0033388Y0069784D01*
X0033220Y0069605D01*
X0033049Y0069429D01*
X0032873Y0069258D01*
X0032694Y0069090D01*
X0032510Y0068928D01*
X0032322Y0068770D01*
X0032130Y0068617D01*
X0031935Y0068468D01*
X0031736Y0068324D01*
X0031534Y0068185D01*
X0031328Y0068051D01*
X0031119Y0067923D01*
X0030907Y0067799D01*
X0030692Y0067681D01*
X0030474Y0067568D01*
X0030254Y0067460D01*
X0030030Y0067358D01*
X0029805Y0067261D01*
X0029577Y0067170D01*
X0029347Y0067085D01*
X0029115Y0067005D01*
X0028881Y0066931D01*
X0028645Y0066862D01*
X0028408Y0066800D01*
X0028169Y0066743D01*
X0027929Y0066692D01*
X0027688Y0066647D01*
X0027445Y0066608D01*
X0027202Y0066575D01*
X0026958Y0066548D01*
X0026714Y0066527D01*
X0026469Y0066512D01*
X0026223Y0066503D01*
X0025978Y0066500D01*
X0025733Y0066503D01*
X0025487Y0066512D01*
X0025242Y0066527D01*
X0024998Y0066548D01*
X0024754Y0066575D01*
X0024511Y0066608D01*
X0024268Y0066647D01*
X0024027Y0066692D01*
X0023787Y0066743D01*
X0023548Y0066800D01*
X0023311Y0066862D01*
X0023075Y0066931D01*
X0022841Y0067005D01*
X0022609Y0067085D01*
X0022379Y0067170D01*
X0022151Y0067261D01*
X0021926Y0067358D01*
X0021702Y0067460D01*
X0021482Y0067568D01*
X0021264Y0067681D01*
X0021049Y0067799D01*
X0020837Y0067923D01*
X0020628Y0068051D01*
X0020422Y0068185D01*
X0020220Y0068324D01*
X0020021Y0068468D01*
X0019826Y0068617D01*
X0019634Y0068770D01*
X0019446Y0068928D01*
X0019262Y0069090D01*
X0019083Y0069258D01*
X0018907Y0069429D01*
X0018736Y0069605D01*
X0018568Y0069784D01*
X0018406Y0069968D01*
X0018248Y0070156D01*
X0018095Y0070348D01*
X0017946Y0070543D01*
X0017802Y0070742D01*
X0017663Y0070944D01*
X0017529Y0071150D01*
X0017401Y0071359D01*
X0017277Y0071571D01*
X0017159Y0071786D01*
X0017046Y0072004D01*
X0016938Y0072224D01*
X0016836Y0072448D01*
X0016739Y0072673D01*
X0016648Y0072901D01*
X0016563Y0073131D01*
X0016483Y0073363D01*
X0016409Y0073597D01*
X0016340Y0073833D01*
X0016278Y0074070D01*
X0016221Y0074309D01*
X0016170Y0074549D01*
X0016125Y0074790D01*
X0016086Y0075033D01*
X0016053Y0075276D01*
X0016026Y0075520D01*
X0016005Y0075764D01*
X0015990Y0076009D01*
X0015981Y0076255D01*
X0015978Y0076500D01*
X0033778Y0087700D02*
X0033778Y0092704D01*
X0033778Y0087700D02*
X0037115Y0087700D01*
X0051278Y0056404D02*
X0053781Y0056404D01*
X0054615Y0055570D01*
X0054615Y0053902D01*
X0053781Y0053068D01*
X0051278Y0053068D01*
X0051278Y0051400D02*
X0051278Y0056404D01*
X0052947Y0053068D02*
X0054615Y0051400D01*
X0053478Y0050500D02*
X0051978Y0050500D01*
X0051918Y0050498D01*
X0051857Y0050493D01*
X0051798Y0050484D01*
X0051739Y0050471D01*
X0051680Y0050455D01*
X0051623Y0050435D01*
X0051568Y0050412D01*
X0051513Y0050385D01*
X0051461Y0050356D01*
X0051410Y0050323D01*
X0051361Y0050287D01*
X0051315Y0050249D01*
X0051271Y0050207D01*
X0051229Y0050163D01*
X0051191Y0050117D01*
X0051155Y0050068D01*
X0051122Y0050017D01*
X0051093Y0049965D01*
X0051066Y0049910D01*
X0051043Y0049855D01*
X0051023Y0049798D01*
X0051007Y0049739D01*
X0050994Y0049680D01*
X0050985Y0049621D01*
X0050980Y0049560D01*
X0050978Y0049500D01*
X0050978Y0043500D01*
X0050980Y0043440D01*
X0050985Y0043379D01*
X0050994Y0043320D01*
X0051007Y0043261D01*
X0051023Y0043202D01*
X0051043Y0043145D01*
X0051066Y0043090D01*
X0051093Y0043035D01*
X0051122Y0042983D01*
X0051155Y0042932D01*
X0051191Y0042883D01*
X0051229Y0042837D01*
X0051271Y0042793D01*
X0051315Y0042751D01*
X0051361Y0042713D01*
X0051410Y0042677D01*
X0051461Y0042644D01*
X0051513Y0042615D01*
X0051568Y0042588D01*
X0051623Y0042565D01*
X0051680Y0042545D01*
X0051739Y0042529D01*
X0051798Y0042516D01*
X0051857Y0042507D01*
X0051918Y0042502D01*
X0051978Y0042500D01*
X0053478Y0042500D01*
X0053978Y0043000D01*
X0067978Y0043000D01*
X0068478Y0042500D01*
X0069978Y0042500D01*
X0070038Y0042502D01*
X0070099Y0042507D01*
X0070158Y0042516D01*
X0070217Y0042529D01*
X0070276Y0042545D01*
X0070333Y0042565D01*
X0070388Y0042588D01*
X0070443Y0042615D01*
X0070495Y0042644D01*
X0070546Y0042677D01*
X0070595Y0042713D01*
X0070641Y0042751D01*
X0070685Y0042793D01*
X0070727Y0042837D01*
X0070765Y0042883D01*
X0070801Y0042932D01*
X0070834Y0042983D01*
X0070863Y0043035D01*
X0070890Y0043090D01*
X0070913Y0043145D01*
X0070933Y0043202D01*
X0070949Y0043261D01*
X0070962Y0043320D01*
X0070971Y0043379D01*
X0070976Y0043440D01*
X0070978Y0043500D01*
X0070978Y0049500D01*
X0070976Y0049560D01*
X0070971Y0049621D01*
X0070962Y0049680D01*
X0070949Y0049739D01*
X0070933Y0049798D01*
X0070913Y0049855D01*
X0070890Y0049910D01*
X0070863Y0049965D01*
X0070834Y0050017D01*
X0070801Y0050068D01*
X0070765Y0050117D01*
X0070727Y0050163D01*
X0070685Y0050207D01*
X0070641Y0050249D01*
X0070595Y0050287D01*
X0070546Y0050323D01*
X0070495Y0050356D01*
X0070443Y0050385D01*
X0070388Y0050412D01*
X0070333Y0050435D01*
X0070276Y0050455D01*
X0070217Y0050471D01*
X0070158Y0050484D01*
X0070099Y0050493D01*
X0070038Y0050498D01*
X0069978Y0050500D01*
X0068478Y0050500D01*
X0067978Y0050000D01*
X0053978Y0050000D01*
X0053478Y0050500D01*
X0056435Y0052234D02*
X0057269Y0051400D01*
X0058937Y0051400D01*
X0059771Y0052234D01*
X0059771Y0053902D01*
X0058937Y0054736D01*
X0058103Y0054736D01*
X0056435Y0053902D01*
X0056435Y0056404D01*
X0059771Y0056404D01*
X0084174Y0050293D02*
X0084174Y0046956D01*
X0084174Y0045136D02*
X0084174Y0043468D01*
X0084174Y0044302D02*
X0088344Y0044302D01*
X0089178Y0043468D01*
X0089178Y0042634D01*
X0088344Y0041800D01*
X0090978Y0044000D02*
X0093478Y0041500D01*
X0098478Y0041500D01*
X0100978Y0044000D01*
X0100978Y0049000D01*
X0098478Y0051500D01*
X0100978Y0054000D01*
X0100978Y0059000D01*
X0098478Y0061500D01*
X0100978Y0064000D01*
X0100978Y0069000D01*
X0098478Y0071500D01*
X0093478Y0071500D01*
X0090978Y0069000D01*
X0090978Y0064000D01*
X0093478Y0061500D01*
X0090978Y0059000D01*
X0090978Y0054000D01*
X0093478Y0051500D01*
X0090978Y0049000D01*
X0090978Y0044000D01*
X0089178Y0046956D02*
X0088344Y0046956D01*
X0085008Y0050293D01*
X0084174Y0050293D01*
X0083478Y0026500D02*
X0088478Y0026500D01*
X0090978Y0024000D01*
X0093478Y0026500D01*
X0098478Y0026500D01*
X0100978Y0024000D01*
X0100978Y0019000D01*
X0098478Y0016500D01*
X0093478Y0016500D01*
X0090978Y0019000D01*
X0088478Y0016500D01*
X0083478Y0016500D01*
X0080978Y0019000D01*
X0078478Y0016500D01*
X0073478Y0016500D01*
X0070978Y0019000D01*
X0068478Y0016500D01*
X0063478Y0016500D01*
X0060978Y0019000D01*
X0058478Y0016500D01*
X0053478Y0016500D01*
X0050978Y0019000D01*
X0048478Y0016500D01*
X0043478Y0016500D01*
X0040978Y0019000D01*
X0040978Y0024000D01*
X0043478Y0026500D01*
X0048478Y0026500D01*
X0050978Y0024000D01*
X0053478Y0026500D01*
X0058478Y0026500D01*
X0060978Y0024000D01*
X0063478Y0026500D01*
X0068478Y0026500D01*
X0070978Y0024000D01*
X0073478Y0026500D01*
X0078478Y0026500D01*
X0080978Y0024000D01*
X0083478Y0026500D01*
X0049771Y0029134D02*
X0048937Y0028300D01*
X0047269Y0028300D01*
X0046435Y0029134D01*
X0046435Y0030802D02*
X0048103Y0031636D01*
X0048937Y0031636D01*
X0049771Y0030802D01*
X0049771Y0029134D01*
X0046435Y0030802D02*
X0046435Y0033304D01*
X0049771Y0033304D01*
X0044615Y0033304D02*
X0042947Y0033304D01*
X0043781Y0033304D02*
X0043781Y0029134D01*
X0042947Y0028300D01*
X0042113Y0028300D01*
X0041278Y0029134D01*
X0015978Y0046500D02*
X0015981Y0046745D01*
X0015990Y0046991D01*
X0016005Y0047236D01*
X0016026Y0047480D01*
X0016053Y0047724D01*
X0016086Y0047967D01*
X0016125Y0048210D01*
X0016170Y0048451D01*
X0016221Y0048691D01*
X0016278Y0048930D01*
X0016340Y0049167D01*
X0016409Y0049403D01*
X0016483Y0049637D01*
X0016563Y0049869D01*
X0016648Y0050099D01*
X0016739Y0050327D01*
X0016836Y0050552D01*
X0016938Y0050776D01*
X0017046Y0050996D01*
X0017159Y0051214D01*
X0017277Y0051429D01*
X0017401Y0051641D01*
X0017529Y0051850D01*
X0017663Y0052056D01*
X0017802Y0052258D01*
X0017946Y0052457D01*
X0018095Y0052652D01*
X0018248Y0052844D01*
X0018406Y0053032D01*
X0018568Y0053216D01*
X0018736Y0053395D01*
X0018907Y0053571D01*
X0019083Y0053742D01*
X0019262Y0053910D01*
X0019446Y0054072D01*
X0019634Y0054230D01*
X0019826Y0054383D01*
X0020021Y0054532D01*
X0020220Y0054676D01*
X0020422Y0054815D01*
X0020628Y0054949D01*
X0020837Y0055077D01*
X0021049Y0055201D01*
X0021264Y0055319D01*
X0021482Y0055432D01*
X0021702Y0055540D01*
X0021926Y0055642D01*
X0022151Y0055739D01*
X0022379Y0055830D01*
X0022609Y0055915D01*
X0022841Y0055995D01*
X0023075Y0056069D01*
X0023311Y0056138D01*
X0023548Y0056200D01*
X0023787Y0056257D01*
X0024027Y0056308D01*
X0024268Y0056353D01*
X0024511Y0056392D01*
X0024754Y0056425D01*
X0024998Y0056452D01*
X0025242Y0056473D01*
X0025487Y0056488D01*
X0025733Y0056497D01*
X0025978Y0056500D01*
X0026223Y0056497D01*
X0026469Y0056488D01*
X0026714Y0056473D01*
X0026958Y0056452D01*
X0027202Y0056425D01*
X0027445Y0056392D01*
X0027688Y0056353D01*
X0027929Y0056308D01*
X0028169Y0056257D01*
X0028408Y0056200D01*
X0028645Y0056138D01*
X0028881Y0056069D01*
X0029115Y0055995D01*
X0029347Y0055915D01*
X0029577Y0055830D01*
X0029805Y0055739D01*
X0030030Y0055642D01*
X0030254Y0055540D01*
X0030474Y0055432D01*
X0030692Y0055319D01*
X0030907Y0055201D01*
X0031119Y0055077D01*
X0031328Y0054949D01*
X0031534Y0054815D01*
X0031736Y0054676D01*
X0031935Y0054532D01*
X0032130Y0054383D01*
X0032322Y0054230D01*
X0032510Y0054072D01*
X0032694Y0053910D01*
X0032873Y0053742D01*
X0033049Y0053571D01*
X0033220Y0053395D01*
X0033388Y0053216D01*
X0033550Y0053032D01*
X0033708Y0052844D01*
X0033861Y0052652D01*
X0034010Y0052457D01*
X0034154Y0052258D01*
X0034293Y0052056D01*
X0034427Y0051850D01*
X0034555Y0051641D01*
X0034679Y0051429D01*
X0034797Y0051214D01*
X0034910Y0050996D01*
X0035018Y0050776D01*
X0035120Y0050552D01*
X0035217Y0050327D01*
X0035308Y0050099D01*
X0035393Y0049869D01*
X0035473Y0049637D01*
X0035547Y0049403D01*
X0035616Y0049167D01*
X0035678Y0048930D01*
X0035735Y0048691D01*
X0035786Y0048451D01*
X0035831Y0048210D01*
X0035870Y0047967D01*
X0035903Y0047724D01*
X0035930Y0047480D01*
X0035951Y0047236D01*
X0035966Y0046991D01*
X0035975Y0046745D01*
X0035978Y0046500D01*
X0035975Y0046255D01*
X0035966Y0046009D01*
X0035951Y0045764D01*
X0035930Y0045520D01*
X0035903Y0045276D01*
X0035870Y0045033D01*
X0035831Y0044790D01*
X0035786Y0044549D01*
X0035735Y0044309D01*
X0035678Y0044070D01*
X0035616Y0043833D01*
X0035547Y0043597D01*
X0035473Y0043363D01*
X0035393Y0043131D01*
X0035308Y0042901D01*
X0035217Y0042673D01*
X0035120Y0042448D01*
X0035018Y0042224D01*
X0034910Y0042004D01*
X0034797Y0041786D01*
X0034679Y0041571D01*
X0034555Y0041359D01*
X0034427Y0041150D01*
X0034293Y0040944D01*
X0034154Y0040742D01*
X0034010Y0040543D01*
X0033861Y0040348D01*
X0033708Y0040156D01*
X0033550Y0039968D01*
X0033388Y0039784D01*
X0033220Y0039605D01*
X0033049Y0039429D01*
X0032873Y0039258D01*
X0032694Y0039090D01*
X0032510Y0038928D01*
X0032322Y0038770D01*
X0032130Y0038617D01*
X0031935Y0038468D01*
X0031736Y0038324D01*
X0031534Y0038185D01*
X0031328Y0038051D01*
X0031119Y0037923D01*
X0030907Y0037799D01*
X0030692Y0037681D01*
X0030474Y0037568D01*
X0030254Y0037460D01*
X0030030Y0037358D01*
X0029805Y0037261D01*
X0029577Y0037170D01*
X0029347Y0037085D01*
X0029115Y0037005D01*
X0028881Y0036931D01*
X0028645Y0036862D01*
X0028408Y0036800D01*
X0028169Y0036743D01*
X0027929Y0036692D01*
X0027688Y0036647D01*
X0027445Y0036608D01*
X0027202Y0036575D01*
X0026958Y0036548D01*
X0026714Y0036527D01*
X0026469Y0036512D01*
X0026223Y0036503D01*
X0025978Y0036500D01*
X0025733Y0036503D01*
X0025487Y0036512D01*
X0025242Y0036527D01*
X0024998Y0036548D01*
X0024754Y0036575D01*
X0024511Y0036608D01*
X0024268Y0036647D01*
X0024027Y0036692D01*
X0023787Y0036743D01*
X0023548Y0036800D01*
X0023311Y0036862D01*
X0023075Y0036931D01*
X0022841Y0037005D01*
X0022609Y0037085D01*
X0022379Y0037170D01*
X0022151Y0037261D01*
X0021926Y0037358D01*
X0021702Y0037460D01*
X0021482Y0037568D01*
X0021264Y0037681D01*
X0021049Y0037799D01*
X0020837Y0037923D01*
X0020628Y0038051D01*
X0020422Y0038185D01*
X0020220Y0038324D01*
X0020021Y0038468D01*
X0019826Y0038617D01*
X0019634Y0038770D01*
X0019446Y0038928D01*
X0019262Y0039090D01*
X0019083Y0039258D01*
X0018907Y0039429D01*
X0018736Y0039605D01*
X0018568Y0039784D01*
X0018406Y0039968D01*
X0018248Y0040156D01*
X0018095Y0040348D01*
X0017946Y0040543D01*
X0017802Y0040742D01*
X0017663Y0040944D01*
X0017529Y0041150D01*
X0017401Y0041359D01*
X0017277Y0041571D01*
X0017159Y0041786D01*
X0017046Y0042004D01*
X0016938Y0042224D01*
X0016836Y0042448D01*
X0016739Y0042673D01*
X0016648Y0042901D01*
X0016563Y0043131D01*
X0016483Y0043363D01*
X0016409Y0043597D01*
X0016340Y0043833D01*
X0016278Y0044070D01*
X0016221Y0044309D01*
X0016170Y0044549D01*
X0016125Y0044790D01*
X0016086Y0045033D01*
X0016053Y0045276D01*
X0016026Y0045520D01*
X0016005Y0045764D01*
X0015990Y0046009D01*
X0015981Y0046255D01*
X0015978Y0046500D01*
X0056478Y0120500D02*
X0056478Y0121500D01*
X0055478Y0121500D01*
X0056478Y0121500D02*
X0056478Y0122500D01*
X0056478Y0121500D02*
X0057478Y0121500D01*
X0116478Y0145000D02*
X0116478Y0158000D01*
X0116480Y0158087D01*
X0116486Y0158174D01*
X0116495Y0158261D01*
X0116508Y0158347D01*
X0116525Y0158433D01*
X0116546Y0158518D01*
X0116571Y0158601D01*
X0116599Y0158684D01*
X0116630Y0158765D01*
X0116665Y0158845D01*
X0116704Y0158923D01*
X0116746Y0159000D01*
X0116791Y0159075D01*
X0116840Y0159147D01*
X0116891Y0159218D01*
X0116946Y0159286D01*
X0117003Y0159351D01*
X0117064Y0159414D01*
X0117127Y0159475D01*
X0117192Y0159532D01*
X0117260Y0159587D01*
X0117331Y0159638D01*
X0117403Y0159687D01*
X0117478Y0159732D01*
X0117555Y0159774D01*
X0117633Y0159813D01*
X0117713Y0159848D01*
X0117794Y0159879D01*
X0117877Y0159907D01*
X0117960Y0159932D01*
X0118045Y0159953D01*
X0118131Y0159970D01*
X0118217Y0159983D01*
X0118304Y0159992D01*
X0118391Y0159998D01*
X0118478Y0160000D01*
X0123478Y0160000D01*
X0123565Y0159998D01*
X0123652Y0159992D01*
X0123739Y0159983D01*
X0123825Y0159970D01*
X0123911Y0159953D01*
X0123996Y0159932D01*
X0124079Y0159907D01*
X0124162Y0159879D01*
X0124243Y0159848D01*
X0124323Y0159813D01*
X0124401Y0159774D01*
X0124478Y0159732D01*
X0124553Y0159687D01*
X0124625Y0159638D01*
X0124696Y0159587D01*
X0124764Y0159532D01*
X0124829Y0159475D01*
X0124892Y0159414D01*
X0124953Y0159351D01*
X0125010Y0159286D01*
X0125065Y0159218D01*
X0125116Y0159147D01*
X0125165Y0159075D01*
X0125210Y0159000D01*
X0125252Y0158923D01*
X0125291Y0158845D01*
X0125326Y0158765D01*
X0125357Y0158684D01*
X0125385Y0158601D01*
X0125410Y0158518D01*
X0125431Y0158433D01*
X0125448Y0158347D01*
X0125461Y0158261D01*
X0125470Y0158174D01*
X0125476Y0158087D01*
X0125478Y0158000D01*
X0125478Y0145000D01*
X0125476Y0144913D01*
X0125470Y0144826D01*
X0125461Y0144739D01*
X0125448Y0144653D01*
X0125431Y0144567D01*
X0125410Y0144482D01*
X0125385Y0144399D01*
X0125357Y0144316D01*
X0125326Y0144235D01*
X0125291Y0144155D01*
X0125252Y0144077D01*
X0125210Y0144000D01*
X0125165Y0143925D01*
X0125116Y0143853D01*
X0125065Y0143782D01*
X0125010Y0143714D01*
X0124953Y0143649D01*
X0124892Y0143586D01*
X0124829Y0143525D01*
X0124764Y0143468D01*
X0124696Y0143413D01*
X0124625Y0143362D01*
X0124553Y0143313D01*
X0124478Y0143268D01*
X0124401Y0143226D01*
X0124323Y0143187D01*
X0124243Y0143152D01*
X0124162Y0143121D01*
X0124079Y0143093D01*
X0123996Y0143068D01*
X0123911Y0143047D01*
X0123825Y0143030D01*
X0123739Y0143017D01*
X0123652Y0143008D01*
X0123565Y0143002D01*
X0123478Y0143000D01*
X0118478Y0143000D01*
X0118391Y0143002D01*
X0118304Y0143008D01*
X0118217Y0143017D01*
X0118131Y0143030D01*
X0118045Y0143047D01*
X0117960Y0143068D01*
X0117877Y0143093D01*
X0117794Y0143121D01*
X0117713Y0143152D01*
X0117633Y0143187D01*
X0117555Y0143226D01*
X0117478Y0143268D01*
X0117403Y0143313D01*
X0117331Y0143362D01*
X0117260Y0143413D01*
X0117192Y0143468D01*
X0117127Y0143525D01*
X0117064Y0143586D01*
X0117003Y0143649D01*
X0116946Y0143714D01*
X0116891Y0143782D01*
X0116840Y0143853D01*
X0116791Y0143925D01*
X0116746Y0144000D01*
X0116704Y0144077D01*
X0116665Y0144155D01*
X0116630Y0144235D01*
X0116599Y0144316D01*
X0116571Y0144399D01*
X0116546Y0144482D01*
X0116525Y0144567D01*
X0116508Y0144653D01*
X0116495Y0144739D01*
X0116486Y0144826D01*
X0116480Y0144913D01*
X0116478Y0145000D01*
X0126278Y0149134D02*
X0127112Y0148300D01*
X0128781Y0148300D01*
X0129615Y0149134D01*
X0131435Y0149134D02*
X0132269Y0148300D01*
X0133937Y0148300D01*
X0134771Y0149134D01*
X0134771Y0150802D01*
X0133937Y0151636D01*
X0133103Y0151636D01*
X0131435Y0150802D01*
X0131435Y0153304D01*
X0134771Y0153304D01*
X0129615Y0152470D02*
X0128781Y0153304D01*
X0127112Y0153304D01*
X0126278Y0152470D01*
X0126278Y0149134D01*
X0071378Y0200487D02*
X0066374Y0200487D01*
X0066374Y0202989D01*
X0067208Y0203823D01*
X0068876Y0203823D01*
X0069710Y0202989D01*
X0069710Y0200487D01*
X0069710Y0202155D02*
X0071378Y0203823D01*
X0070544Y0205644D02*
X0071378Y0206478D01*
X0071378Y0208146D01*
X0070544Y0208980D01*
X0069710Y0208980D01*
X0068876Y0208146D01*
X0068876Y0207312D01*
X0068876Y0208146D02*
X0068042Y0208980D01*
X0067208Y0208980D01*
X0066374Y0208146D01*
X0066374Y0206478D01*
X0067208Y0205644D01*
X0064978Y0204000D02*
X0064978Y0202500D01*
X0064976Y0202440D01*
X0064971Y0202379D01*
X0064962Y0202320D01*
X0064949Y0202261D01*
X0064933Y0202202D01*
X0064913Y0202145D01*
X0064890Y0202090D01*
X0064863Y0202035D01*
X0064834Y0201983D01*
X0064801Y0201932D01*
X0064765Y0201883D01*
X0064727Y0201837D01*
X0064685Y0201793D01*
X0064641Y0201751D01*
X0064595Y0201713D01*
X0064546Y0201677D01*
X0064495Y0201644D01*
X0064443Y0201615D01*
X0064388Y0201588D01*
X0064333Y0201565D01*
X0064276Y0201545D01*
X0064217Y0201529D01*
X0064158Y0201516D01*
X0064099Y0201507D01*
X0064038Y0201502D01*
X0063978Y0201500D01*
X0057978Y0201500D01*
X0057918Y0201502D01*
X0057857Y0201507D01*
X0057798Y0201516D01*
X0057739Y0201529D01*
X0057680Y0201545D01*
X0057623Y0201565D01*
X0057568Y0201588D01*
X0057513Y0201615D01*
X0057461Y0201644D01*
X0057410Y0201677D01*
X0057361Y0201713D01*
X0057315Y0201751D01*
X0057271Y0201793D01*
X0057229Y0201837D01*
X0057191Y0201883D01*
X0057155Y0201932D01*
X0057122Y0201983D01*
X0057093Y0202035D01*
X0057066Y0202090D01*
X0057043Y0202145D01*
X0057023Y0202202D01*
X0057007Y0202261D01*
X0056994Y0202320D01*
X0056985Y0202379D01*
X0056980Y0202440D01*
X0056978Y0202500D01*
X0056978Y0204000D01*
X0057478Y0204500D01*
X0057478Y0218500D01*
X0056978Y0219000D01*
X0056978Y0220500D01*
X0056980Y0220560D01*
X0056985Y0220621D01*
X0056994Y0220680D01*
X0057007Y0220739D01*
X0057023Y0220798D01*
X0057043Y0220855D01*
X0057066Y0220910D01*
X0057093Y0220965D01*
X0057122Y0221017D01*
X0057155Y0221068D01*
X0057191Y0221117D01*
X0057229Y0221163D01*
X0057271Y0221207D01*
X0057315Y0221249D01*
X0057361Y0221287D01*
X0057410Y0221323D01*
X0057461Y0221356D01*
X0057513Y0221385D01*
X0057568Y0221412D01*
X0057623Y0221435D01*
X0057680Y0221455D01*
X0057739Y0221471D01*
X0057798Y0221484D01*
X0057857Y0221493D01*
X0057918Y0221498D01*
X0057978Y0221500D01*
X0063978Y0221500D01*
X0064038Y0221498D01*
X0064099Y0221493D01*
X0064158Y0221484D01*
X0064217Y0221471D01*
X0064276Y0221455D01*
X0064333Y0221435D01*
X0064388Y0221412D01*
X0064443Y0221385D01*
X0064495Y0221356D01*
X0064546Y0221323D01*
X0064595Y0221287D01*
X0064641Y0221249D01*
X0064685Y0221207D01*
X0064727Y0221163D01*
X0064765Y0221117D01*
X0064801Y0221068D01*
X0064834Y0221017D01*
X0064863Y0220965D01*
X0064890Y0220910D01*
X0064913Y0220855D01*
X0064933Y0220798D01*
X0064949Y0220739D01*
X0064962Y0220680D01*
X0064971Y0220621D01*
X0064976Y0220560D01*
X0064978Y0220500D01*
X0064978Y0219000D01*
X0064478Y0218500D01*
X0064478Y0204500D01*
X0064978Y0204000D01*
X0056578Y0205136D02*
X0054910Y0203468D01*
X0054910Y0204302D02*
X0054910Y0201800D01*
X0056578Y0201800D02*
X0051574Y0201800D01*
X0051574Y0204302D01*
X0052408Y0205136D01*
X0054076Y0205136D01*
X0054910Y0204302D01*
X0053242Y0206956D02*
X0051574Y0208624D01*
X0056578Y0208624D01*
X0056578Y0206956D02*
X0056578Y0210293D01*
X0018978Y0259700D02*
X0011478Y0259700D01*
X0011478Y0263400D02*
X0018978Y0263400D01*
X0158978Y0046500D02*
X0163978Y0046500D01*
X0166478Y0044000D01*
X0168978Y0046500D01*
X0173978Y0046500D01*
X0176478Y0044000D01*
X0178978Y0046500D01*
X0183978Y0046500D01*
X0186478Y0044000D01*
X0188978Y0046500D01*
X0193978Y0046500D01*
X0196478Y0044000D01*
X0198978Y0046500D01*
X0203978Y0046500D01*
X0206478Y0044000D01*
X0208978Y0046500D01*
X0213978Y0046500D01*
X0216478Y0044000D01*
X0218978Y0046500D01*
X0223978Y0046500D01*
X0226478Y0044000D01*
X0228978Y0046500D01*
X0233978Y0046500D01*
X0236478Y0044000D01*
X0238978Y0046500D01*
X0243978Y0046500D01*
X0246478Y0044000D01*
X0248978Y0046500D01*
X0253978Y0046500D01*
X0256478Y0044000D01*
X0256478Y0029000D01*
X0253978Y0026500D01*
X0248978Y0026500D01*
X0246478Y0029000D01*
X0243978Y0026500D01*
X0238978Y0026500D01*
X0236478Y0029000D01*
X0233978Y0026500D01*
X0228978Y0026500D01*
X0226478Y0029000D01*
X0223978Y0026500D01*
X0218978Y0026500D01*
X0216478Y0029000D01*
X0213978Y0026500D01*
X0208978Y0026500D01*
X0206478Y0029000D01*
X0203978Y0026500D01*
X0198978Y0026500D01*
X0196478Y0029000D01*
X0193978Y0026500D01*
X0188978Y0026500D01*
X0186478Y0029000D01*
X0183978Y0026500D01*
X0178978Y0026500D01*
X0176478Y0029000D01*
X0173978Y0026500D01*
X0168978Y0026500D01*
X0166478Y0029000D01*
X0163978Y0026500D01*
X0158978Y0026500D01*
X0156478Y0029000D01*
X0156478Y0044000D01*
X0158978Y0046500D01*
X0246466Y0020534D02*
X0247300Y0019700D01*
X0248134Y0019700D01*
X0248968Y0020534D01*
X0248968Y0024704D01*
X0248134Y0024704D02*
X0249802Y0024704D01*
X0251622Y0023870D02*
X0252456Y0024704D01*
X0254124Y0024704D01*
X0254958Y0023870D01*
X0254958Y0023036D01*
X0251622Y0019700D01*
X0254958Y0019700D01*
D13*
X0118978Y0261500D02*
X0082978Y0261500D01*
X0082978Y0294000D01*
X0118978Y0294000D01*
X0118978Y0261500D01*
D14*
X0110978Y0308750D03*
X0100978Y0308750D03*
X0090978Y0308750D03*
D15*
X0090978Y0302000D03*
X0100978Y0302000D03*
X0110978Y0302000D03*
D16*
X0045728Y0277849D02*
X0045728Y0274846D01*
X0045728Y0276347D02*
X0041225Y0276347D01*
X0042726Y0274846D01*
X0042726Y0257849D02*
X0041975Y0257849D01*
X0041225Y0257098D01*
X0041225Y0255597D01*
X0041975Y0254846D01*
X0042726Y0257849D02*
X0045728Y0254846D01*
X0045728Y0257849D01*
X0157021Y0194003D02*
X0157771Y0194754D01*
X0159273Y0194754D01*
X0160023Y0194003D01*
X0160023Y0193253D01*
X0157021Y0190250D01*
X0160023Y0190250D01*
X0161625Y0191001D02*
X0162375Y0190250D01*
X0163876Y0190250D01*
X0164627Y0191001D01*
X0164627Y0194003D01*
X0161625Y0191001D01*
X0161625Y0194003D01*
X0162375Y0194754D01*
X0163876Y0194754D01*
X0164627Y0194003D01*
X0248625Y0218250D02*
X0251627Y0218250D01*
X0250126Y0218250D02*
X0250126Y0222754D01*
X0248625Y0221253D01*
X0211376Y0295750D02*
X0212127Y0296501D01*
X0212127Y0297251D01*
X0211376Y0298002D01*
X0209125Y0298002D01*
X0209125Y0296501D01*
X0209875Y0295750D01*
X0211376Y0295750D01*
X0209125Y0298002D02*
X0210626Y0299503D01*
X0212127Y0300254D01*
X0206022Y0300254D02*
X0206022Y0295750D01*
X0204521Y0295750D02*
X0207523Y0295750D01*
X0204521Y0298753D02*
X0206022Y0300254D01*
X0357625Y0298253D02*
X0359126Y0299754D01*
X0359126Y0295250D01*
X0357625Y0295250D02*
X0360627Y0295250D01*
X0388228Y0189649D02*
X0388228Y0186646D01*
X0388228Y0188147D02*
X0383725Y0188147D01*
X0385226Y0186646D01*
X0385977Y0144149D02*
X0385977Y0141146D01*
X0383725Y0143398D01*
X0388228Y0143398D01*
X0374228Y0087149D02*
X0374228Y0084146D01*
X0374228Y0085647D02*
X0369725Y0085647D01*
X0371226Y0084146D01*
X0398475Y0047149D02*
X0401478Y0044146D01*
X0402228Y0044897D01*
X0402228Y0046398D01*
X0401478Y0047149D01*
X0398475Y0047149D01*
X0397725Y0046398D01*
X0397725Y0044897D01*
X0398475Y0044146D01*
X0401478Y0044146D01*
X0402228Y0042545D02*
X0402228Y0039542D01*
X0402228Y0041043D02*
X0397725Y0041043D01*
X0399226Y0039542D01*
X0252127Y0048250D02*
X0249125Y0048250D01*
X0250626Y0048250D02*
X0250626Y0052754D01*
X0249125Y0051253D01*
X0165127Y0024003D02*
X0165127Y0021001D01*
X0164376Y0020250D01*
X0162875Y0020250D01*
X0162125Y0021001D01*
X0165127Y0024003D01*
X0164376Y0024754D01*
X0162875Y0024754D01*
X0162125Y0024003D01*
X0162125Y0021001D01*
X0160523Y0020250D02*
X0157521Y0020250D01*
X0160523Y0023253D01*
X0160523Y0024003D01*
X0159773Y0024754D01*
X0158271Y0024754D01*
X0157521Y0024003D01*
X0098228Y0036750D02*
X0098228Y0039753D01*
X0098228Y0038251D02*
X0093725Y0038251D01*
X0095226Y0036750D01*
X0096731Y0032754D02*
X0095230Y0032003D01*
X0093728Y0030502D01*
X0095980Y0030502D01*
X0096731Y0029751D01*
X0096731Y0029001D01*
X0095980Y0028250D01*
X0094479Y0028250D01*
X0093728Y0029001D01*
X0093728Y0030502D01*
X0045230Y0014754D02*
X0045230Y0010250D01*
X0046731Y0010250D02*
X0043728Y0010250D01*
X0043728Y0013253D02*
X0045230Y0014754D01*
D17*
X0050228Y0046500D03*
X0071728Y0046500D03*
X0071728Y0071500D03*
X0050228Y0071500D03*
X0205228Y0246500D03*
X0205228Y0256500D03*
X0226728Y0256500D03*
X0226728Y0246500D03*
X0226728Y0276500D03*
X0226728Y0286500D03*
X0205228Y0286500D03*
X0205228Y0276500D03*
X0315228Y0276500D03*
X0315228Y0286500D03*
X0336728Y0286500D03*
X0336728Y0276500D03*
X0336728Y0256500D03*
X0336728Y0246500D03*
X0315228Y0246500D03*
X0315228Y0256500D03*
D18*
X0194738Y0257740D02*
X0194738Y0295260D01*
X0157219Y0295260D01*
X0157219Y0292248D01*
X0158793Y0292248D01*
X0158793Y0260752D01*
X0157219Y0260752D01*
X0157219Y0257740D01*
X0194738Y0257740D01*
X0049738Y0230260D02*
X0049738Y0192740D01*
X0012219Y0192740D01*
X0012219Y0195752D01*
X0013793Y0195752D01*
X0013793Y0227248D01*
X0012219Y0227248D01*
X0012219Y0230260D01*
X0049738Y0230260D01*
X0020978Y0184000D02*
X0020978Y0169000D01*
X0015978Y0084000D02*
X0015978Y0069000D01*
X0015978Y0054000D02*
X0015978Y0039000D01*
D19*
X0016165Y0038757D01*
X0016357Y0038519D01*
X0016556Y0038286D01*
X0016760Y0038058D01*
X0016969Y0037835D01*
X0017184Y0037617D01*
X0017404Y0037404D01*
X0017629Y0037197D01*
X0017860Y0036995D01*
X0018095Y0036799D01*
X0018335Y0036609D01*
X0018579Y0036425D01*
X0018828Y0036247D01*
X0019082Y0036075D01*
X0019339Y0035909D01*
X0019600Y0035749D01*
X0019865Y0035596D01*
X0020134Y0035450D01*
X0020407Y0035310D01*
X0020682Y0035177D01*
X0020961Y0035051D01*
X0021243Y0034931D01*
X0021528Y0034819D01*
X0021815Y0034714D01*
X0022105Y0034615D01*
X0022397Y0034524D01*
X0022692Y0034440D01*
X0022988Y0034363D01*
X0023286Y0034293D01*
X0023586Y0034231D01*
X0023887Y0034176D01*
X0024189Y0034129D01*
X0024493Y0034089D01*
X0024797Y0034056D01*
X0025102Y0034031D01*
X0025408Y0034013D01*
X0025714Y0034003D01*
X0026020Y0034000D01*
X0026326Y0034005D01*
X0026632Y0034017D01*
X0026938Y0034037D01*
X0027242Y0034064D01*
X0027547Y0034099D01*
X0027850Y0034141D01*
X0028152Y0034190D01*
X0028453Y0034247D01*
X0028752Y0034312D01*
X0029050Y0034383D01*
X0029345Y0034462D01*
X0029639Y0034548D01*
X0029931Y0034641D01*
X0030220Y0034742D01*
X0030507Y0034849D01*
X0030791Y0034964D01*
X0031072Y0035085D01*
X0031350Y0035213D01*
X0031625Y0035348D01*
X0031896Y0035490D01*
X0032164Y0035638D01*
X0032428Y0035793D01*
X0032688Y0035954D01*
X0032944Y0036121D01*
X0033197Y0036295D01*
X0033444Y0036475D01*
X0033688Y0036661D01*
X0033926Y0036852D01*
X0034160Y0037050D01*
X0034389Y0037253D01*
X0034613Y0037462D01*
X0034832Y0037676D01*
X0035045Y0037896D01*
X0035253Y0038120D01*
X0035456Y0038350D01*
X0035652Y0038584D01*
X0035843Y0038824D01*
X0036028Y0039067D01*
X0036207Y0039316D01*
X0036380Y0039568D01*
X0036547Y0039825D01*
X0036707Y0040086D01*
X0036861Y0040351D01*
X0037008Y0040619D01*
X0037149Y0040891D01*
X0037283Y0041166D01*
X0037410Y0041445D01*
X0037531Y0041726D01*
X0037644Y0042011D01*
X0037750Y0042298D01*
X0037850Y0042587D01*
X0037942Y0042879D01*
X0038027Y0043173D01*
X0038105Y0043469D01*
X0038176Y0043767D01*
X0038239Y0044067D01*
X0038295Y0044368D01*
X0038343Y0044670D01*
X0038384Y0044973D01*
X0038418Y0045277D01*
X0038444Y0045582D01*
X0038463Y0045888D01*
X0038474Y0046194D01*
X0038478Y0046500D01*
X0038474Y0046806D01*
X0038463Y0047112D01*
X0038444Y0047418D01*
X0038418Y0047723D01*
X0038384Y0048027D01*
X0038343Y0048330D01*
X0038295Y0048632D01*
X0038239Y0048933D01*
X0038176Y0049233D01*
X0038105Y0049531D01*
X0038027Y0049827D01*
X0037942Y0050121D01*
X0037850Y0050413D01*
X0037750Y0050702D01*
X0037644Y0050989D01*
X0037531Y0051274D01*
X0037410Y0051555D01*
X0037283Y0051834D01*
X0037149Y0052109D01*
X0037008Y0052381D01*
X0036861Y0052649D01*
X0036707Y0052914D01*
X0036547Y0053175D01*
X0036380Y0053432D01*
X0036207Y0053684D01*
X0036028Y0053933D01*
X0035843Y0054176D01*
X0035652Y0054416D01*
X0035456Y0054650D01*
X0035253Y0054880D01*
X0035045Y0055104D01*
X0034832Y0055324D01*
X0034613Y0055538D01*
X0034389Y0055747D01*
X0034160Y0055950D01*
X0033926Y0056148D01*
X0033688Y0056339D01*
X0033444Y0056525D01*
X0033197Y0056705D01*
X0032944Y0056879D01*
X0032688Y0057046D01*
X0032428Y0057207D01*
X0032164Y0057362D01*
X0031896Y0057510D01*
X0031625Y0057652D01*
X0031350Y0057787D01*
X0031072Y0057915D01*
X0030791Y0058036D01*
X0030507Y0058151D01*
X0030220Y0058258D01*
X0029931Y0058359D01*
X0029639Y0058452D01*
X0029345Y0058538D01*
X0029050Y0058617D01*
X0028752Y0058688D01*
X0028453Y0058753D01*
X0028152Y0058810D01*
X0027850Y0058859D01*
X0027547Y0058901D01*
X0027242Y0058936D01*
X0026938Y0058963D01*
X0026632Y0058983D01*
X0026326Y0058995D01*
X0026020Y0059000D01*
X0025714Y0058997D01*
X0025408Y0058987D01*
X0025102Y0058969D01*
X0024797Y0058944D01*
X0024493Y0058911D01*
X0024189Y0058871D01*
X0023887Y0058824D01*
X0023586Y0058769D01*
X0023286Y0058707D01*
X0022988Y0058637D01*
X0022692Y0058560D01*
X0022397Y0058476D01*
X0022105Y0058385D01*
X0021815Y0058286D01*
X0021528Y0058181D01*
X0021243Y0058069D01*
X0020961Y0057949D01*
X0020682Y0057823D01*
X0020407Y0057690D01*
X0020134Y0057550D01*
X0019865Y0057404D01*
X0019600Y0057251D01*
X0019339Y0057091D01*
X0019082Y0056925D01*
X0018828Y0056753D01*
X0018579Y0056575D01*
X0018335Y0056391D01*
X0018095Y0056201D01*
X0017860Y0056005D01*
X0017629Y0055803D01*
X0017404Y0055596D01*
X0017184Y0055383D01*
X0016969Y0055165D01*
X0016760Y0054942D01*
X0016556Y0054714D01*
X0016357Y0054481D01*
X0016165Y0054243D01*
X0015978Y0054000D01*
X0015978Y0069000D02*
X0016165Y0068757D01*
X0016357Y0068519D01*
X0016556Y0068286D01*
X0016760Y0068058D01*
X0016969Y0067835D01*
X0017184Y0067617D01*
X0017404Y0067404D01*
X0017629Y0067197D01*
X0017860Y0066995D01*
X0018095Y0066799D01*
X0018335Y0066609D01*
X0018579Y0066425D01*
X0018828Y0066247D01*
X0019082Y0066075D01*
X0019339Y0065909D01*
X0019600Y0065749D01*
X0019865Y0065596D01*
X0020134Y0065450D01*
X0020407Y0065310D01*
X0020682Y0065177D01*
X0020961Y0065051D01*
X0021243Y0064931D01*
X0021528Y0064819D01*
X0021815Y0064714D01*
X0022105Y0064615D01*
X0022397Y0064524D01*
X0022692Y0064440D01*
X0022988Y0064363D01*
X0023286Y0064293D01*
X0023586Y0064231D01*
X0023887Y0064176D01*
X0024189Y0064129D01*
X0024493Y0064089D01*
X0024797Y0064056D01*
X0025102Y0064031D01*
X0025408Y0064013D01*
X0025714Y0064003D01*
X0026020Y0064000D01*
X0026326Y0064005D01*
X0026632Y0064017D01*
X0026938Y0064037D01*
X0027242Y0064064D01*
X0027547Y0064099D01*
X0027850Y0064141D01*
X0028152Y0064190D01*
X0028453Y0064247D01*
X0028752Y0064312D01*
X0029050Y0064383D01*
X0029345Y0064462D01*
X0029639Y0064548D01*
X0029931Y0064641D01*
X0030220Y0064742D01*
X0030507Y0064849D01*
X0030791Y0064964D01*
X0031072Y0065085D01*
X0031350Y0065213D01*
X0031625Y0065348D01*
X0031896Y0065490D01*
X0032164Y0065638D01*
X0032428Y0065793D01*
X0032688Y0065954D01*
X0032944Y0066121D01*
X0033197Y0066295D01*
X0033444Y0066475D01*
X0033688Y0066661D01*
X0033926Y0066852D01*
X0034160Y0067050D01*
X0034389Y0067253D01*
X0034613Y0067462D01*
X0034832Y0067676D01*
X0035045Y0067896D01*
X0035253Y0068120D01*
X0035456Y0068350D01*
X0035652Y0068584D01*
X0035843Y0068824D01*
X0036028Y0069067D01*
X0036207Y0069316D01*
X0036380Y0069568D01*
X0036547Y0069825D01*
X0036707Y0070086D01*
X0036861Y0070351D01*
X0037008Y0070619D01*
X0037149Y0070891D01*
X0037283Y0071166D01*
X0037410Y0071445D01*
X0037531Y0071726D01*
X0037644Y0072011D01*
X0037750Y0072298D01*
X0037850Y0072587D01*
X0037942Y0072879D01*
X0038027Y0073173D01*
X0038105Y0073469D01*
X0038176Y0073767D01*
X0038239Y0074067D01*
X0038295Y0074368D01*
X0038343Y0074670D01*
X0038384Y0074973D01*
X0038418Y0075277D01*
X0038444Y0075582D01*
X0038463Y0075888D01*
X0038474Y0076194D01*
X0038478Y0076500D01*
X0038474Y0076806D01*
X0038463Y0077112D01*
X0038444Y0077418D01*
X0038418Y0077723D01*
X0038384Y0078027D01*
X0038343Y0078330D01*
X0038295Y0078632D01*
X0038239Y0078933D01*
X0038176Y0079233D01*
X0038105Y0079531D01*
X0038027Y0079827D01*
X0037942Y0080121D01*
X0037850Y0080413D01*
X0037750Y0080702D01*
X0037644Y0080989D01*
X0037531Y0081274D01*
X0037410Y0081555D01*
X0037283Y0081834D01*
X0037149Y0082109D01*
X0037008Y0082381D01*
X0036861Y0082649D01*
X0036707Y0082914D01*
X0036547Y0083175D01*
X0036380Y0083432D01*
X0036207Y0083684D01*
X0036028Y0083933D01*
X0035843Y0084176D01*
X0035652Y0084416D01*
X0035456Y0084650D01*
X0035253Y0084880D01*
X0035045Y0085104D01*
X0034832Y0085324D01*
X0034613Y0085538D01*
X0034389Y0085747D01*
X0034160Y0085950D01*
X0033926Y0086148D01*
X0033688Y0086339D01*
X0033444Y0086525D01*
X0033197Y0086705D01*
X0032944Y0086879D01*
X0032688Y0087046D01*
X0032428Y0087207D01*
X0032164Y0087362D01*
X0031896Y0087510D01*
X0031625Y0087652D01*
X0031350Y0087787D01*
X0031072Y0087915D01*
X0030791Y0088036D01*
X0030507Y0088151D01*
X0030220Y0088258D01*
X0029931Y0088359D01*
X0029639Y0088452D01*
X0029345Y0088538D01*
X0029050Y0088617D01*
X0028752Y0088688D01*
X0028453Y0088753D01*
X0028152Y0088810D01*
X0027850Y0088859D01*
X0027547Y0088901D01*
X0027242Y0088936D01*
X0026938Y0088963D01*
X0026632Y0088983D01*
X0026326Y0088995D01*
X0026020Y0089000D01*
X0025714Y0088997D01*
X0025408Y0088987D01*
X0025102Y0088969D01*
X0024797Y0088944D01*
X0024493Y0088911D01*
X0024189Y0088871D01*
X0023887Y0088824D01*
X0023586Y0088769D01*
X0023286Y0088707D01*
X0022988Y0088637D01*
X0022692Y0088560D01*
X0022397Y0088476D01*
X0022105Y0088385D01*
X0021815Y0088286D01*
X0021528Y0088181D01*
X0021243Y0088069D01*
X0020961Y0087949D01*
X0020682Y0087823D01*
X0020407Y0087690D01*
X0020134Y0087550D01*
X0019865Y0087404D01*
X0019600Y0087251D01*
X0019339Y0087091D01*
X0019082Y0086925D01*
X0018828Y0086753D01*
X0018579Y0086575D01*
X0018335Y0086391D01*
X0018095Y0086201D01*
X0017860Y0086005D01*
X0017629Y0085803D01*
X0017404Y0085596D01*
X0017184Y0085383D01*
X0016969Y0085165D01*
X0016760Y0084942D01*
X0016556Y0084714D01*
X0016357Y0084481D01*
X0016165Y0084243D01*
X0015978Y0084000D01*
X0020978Y0169000D02*
X0021165Y0168757D01*
X0021357Y0168519D01*
X0021556Y0168286D01*
X0021760Y0168058D01*
X0021969Y0167835D01*
X0022184Y0167617D01*
X0022404Y0167404D01*
X0022629Y0167197D01*
X0022860Y0166995D01*
X0023095Y0166799D01*
X0023335Y0166609D01*
X0023579Y0166425D01*
X0023828Y0166247D01*
X0024082Y0166075D01*
X0024339Y0165909D01*
X0024600Y0165749D01*
X0024865Y0165596D01*
X0025134Y0165450D01*
X0025407Y0165310D01*
X0025682Y0165177D01*
X0025961Y0165051D01*
X0026243Y0164931D01*
X0026528Y0164819D01*
X0026815Y0164714D01*
X0027105Y0164615D01*
X0027397Y0164524D01*
X0027692Y0164440D01*
X0027988Y0164363D01*
X0028286Y0164293D01*
X0028586Y0164231D01*
X0028887Y0164176D01*
X0029189Y0164129D01*
X0029493Y0164089D01*
X0029797Y0164056D01*
X0030102Y0164031D01*
X0030408Y0164013D01*
X0030714Y0164003D01*
X0031020Y0164000D01*
X0031326Y0164005D01*
X0031632Y0164017D01*
X0031938Y0164037D01*
X0032242Y0164064D01*
X0032547Y0164099D01*
X0032850Y0164141D01*
X0033152Y0164190D01*
X0033453Y0164247D01*
X0033752Y0164312D01*
X0034050Y0164383D01*
X0034345Y0164462D01*
X0034639Y0164548D01*
X0034931Y0164641D01*
X0035220Y0164742D01*
X0035507Y0164849D01*
X0035791Y0164964D01*
X0036072Y0165085D01*
X0036350Y0165213D01*
X0036625Y0165348D01*
X0036896Y0165490D01*
X0037164Y0165638D01*
X0037428Y0165793D01*
X0037688Y0165954D01*
X0037944Y0166121D01*
X0038197Y0166295D01*
X0038444Y0166475D01*
X0038688Y0166661D01*
X0038926Y0166852D01*
X0039160Y0167050D01*
X0039389Y0167253D01*
X0039613Y0167462D01*
X0039832Y0167676D01*
X0040045Y0167896D01*
X0040253Y0168120D01*
X0040456Y0168350D01*
X0040652Y0168584D01*
X0040843Y0168824D01*
X0041028Y0169067D01*
X0041207Y0169316D01*
X0041380Y0169568D01*
X0041547Y0169825D01*
X0041707Y0170086D01*
X0041861Y0170351D01*
X0042008Y0170619D01*
X0042149Y0170891D01*
X0042283Y0171166D01*
X0042410Y0171445D01*
X0042531Y0171726D01*
X0042644Y0172011D01*
X0042750Y0172298D01*
X0042850Y0172587D01*
X0042942Y0172879D01*
X0043027Y0173173D01*
X0043105Y0173469D01*
X0043176Y0173767D01*
X0043239Y0174067D01*
X0043295Y0174368D01*
X0043343Y0174670D01*
X0043384Y0174973D01*
X0043418Y0175277D01*
X0043444Y0175582D01*
X0043463Y0175888D01*
X0043474Y0176194D01*
X0043478Y0176500D01*
X0043474Y0176806D01*
X0043463Y0177112D01*
X0043444Y0177418D01*
X0043418Y0177723D01*
X0043384Y0178027D01*
X0043343Y0178330D01*
X0043295Y0178632D01*
X0043239Y0178933D01*
X0043176Y0179233D01*
X0043105Y0179531D01*
X0043027Y0179827D01*
X0042942Y0180121D01*
X0042850Y0180413D01*
X0042750Y0180702D01*
X0042644Y0180989D01*
X0042531Y0181274D01*
X0042410Y0181555D01*
X0042283Y0181834D01*
X0042149Y0182109D01*
X0042008Y0182381D01*
X0041861Y0182649D01*
X0041707Y0182914D01*
X0041547Y0183175D01*
X0041380Y0183432D01*
X0041207Y0183684D01*
X0041028Y0183933D01*
X0040843Y0184176D01*
X0040652Y0184416D01*
X0040456Y0184650D01*
X0040253Y0184880D01*
X0040045Y0185104D01*
X0039832Y0185324D01*
X0039613Y0185538D01*
X0039389Y0185747D01*
X0039160Y0185950D01*
X0038926Y0186148D01*
X0038688Y0186339D01*
X0038444Y0186525D01*
X0038197Y0186705D01*
X0037944Y0186879D01*
X0037688Y0187046D01*
X0037428Y0187207D01*
X0037164Y0187362D01*
X0036896Y0187510D01*
X0036625Y0187652D01*
X0036350Y0187787D01*
X0036072Y0187915D01*
X0035791Y0188036D01*
X0035507Y0188151D01*
X0035220Y0188258D01*
X0034931Y0188359D01*
X0034639Y0188452D01*
X0034345Y0188538D01*
X0034050Y0188617D01*
X0033752Y0188688D01*
X0033453Y0188753D01*
X0033152Y0188810D01*
X0032850Y0188859D01*
X0032547Y0188901D01*
X0032242Y0188936D01*
X0031938Y0188963D01*
X0031632Y0188983D01*
X0031326Y0188995D01*
X0031020Y0189000D01*
X0030714Y0188997D01*
X0030408Y0188987D01*
X0030102Y0188969D01*
X0029797Y0188944D01*
X0029493Y0188911D01*
X0029189Y0188871D01*
X0028887Y0188824D01*
X0028586Y0188769D01*
X0028286Y0188707D01*
X0027988Y0188637D01*
X0027692Y0188560D01*
X0027397Y0188476D01*
X0027105Y0188385D01*
X0026815Y0188286D01*
X0026528Y0188181D01*
X0026243Y0188069D01*
X0025961Y0187949D01*
X0025682Y0187823D01*
X0025407Y0187690D01*
X0025134Y0187550D01*
X0024865Y0187404D01*
X0024600Y0187251D01*
X0024339Y0187091D01*
X0024082Y0186925D01*
X0023828Y0186753D01*
X0023579Y0186575D01*
X0023335Y0186391D01*
X0023095Y0186201D01*
X0022860Y0186005D01*
X0022629Y0185803D01*
X0022404Y0185596D01*
X0022184Y0185383D01*
X0021969Y0185165D01*
X0021760Y0184942D01*
X0021556Y0184714D01*
X0021357Y0184481D01*
X0021165Y0184243D01*
X0020978Y0184000D01*
D20*
X0060978Y0200750D03*
X0075978Y0200750D03*
X0090978Y0200750D03*
X0090978Y0222250D03*
X0075978Y0222250D03*
X0060978Y0222250D03*
X0357978Y0269750D03*
X0357978Y0291250D03*
D21*
X0181609Y0297050D02*
X0178607Y0297050D01*
X0180108Y0297050D02*
X0180108Y0301554D01*
X0178607Y0300053D01*
X0176453Y0297050D02*
X0173450Y0297050D01*
X0174952Y0297050D02*
X0174952Y0301554D01*
X0173450Y0300053D01*
X0171296Y0300803D02*
X0171296Y0299302D01*
X0170546Y0298551D01*
X0168294Y0298551D01*
X0168294Y0297050D02*
X0168294Y0301554D01*
X0170546Y0301554D01*
X0171296Y0300803D01*
X0169795Y0298551D02*
X0171296Y0297050D01*
X0040609Y0235303D02*
X0037607Y0232301D01*
X0038357Y0231550D01*
X0039859Y0231550D01*
X0040609Y0232301D01*
X0040609Y0235303D01*
X0039859Y0236054D01*
X0038357Y0236054D01*
X0037607Y0235303D01*
X0037607Y0232301D01*
X0035453Y0231550D02*
X0032450Y0231550D01*
X0033952Y0231550D02*
X0033952Y0236054D01*
X0032450Y0234553D01*
X0030296Y0235303D02*
X0030296Y0233802D01*
X0029546Y0233051D01*
X0027294Y0233051D01*
X0027294Y0231550D02*
X0027294Y0236054D01*
X0029546Y0236054D01*
X0030296Y0235303D01*
X0028795Y0233051D02*
X0030296Y0231550D01*
D22*
X0067978Y0255200D02*
X0073978Y0255200D01*
X0073978Y0257700D02*
X0067978Y0257700D01*
X0134678Y0259500D02*
X0134678Y0253500D01*
X0137178Y0253500D02*
X0137178Y0259500D01*
X0137178Y0268500D02*
X0137178Y0274500D01*
X0134678Y0274500D02*
X0134678Y0268500D01*
X0134678Y0293500D02*
X0134678Y0299500D01*
X0137178Y0299500D02*
X0137178Y0293500D01*
X0053978Y0177800D02*
X0047978Y0177800D01*
X0047978Y0175300D02*
X0053978Y0175300D01*
X0117978Y0152700D02*
X0123978Y0152700D01*
X0123978Y0150200D02*
X0117978Y0150200D01*
X0062178Y0094500D02*
X0062178Y0088500D01*
X0059678Y0088500D02*
X0059678Y0094500D01*
D23*
X0091478Y0181500D03*
D24*
X0097728Y0181500D03*
X0074228Y0181500D03*
D25*
X0353978Y0301500D02*
X0354978Y0302500D01*
X0355978Y0301500D01*
X0363978Y0301500D01*
X0363978Y0311500D01*
X0355978Y0311500D01*
X0354978Y0310500D01*
X0353978Y0311500D01*
M02*
