G75*
%MOIN*%
%OFA0B0*%
%FSLAX25Y25*%
%IPPOS*%
%LPD*%
%AMOC8*
5,1,8,0,0,1.08239X$1,22.5*
%
%ADD10C,0.00000*%
%ADD11C,0.00600*%
%ADD12R,0.02000X0.08000*%
%ADD13C,0.00500*%
%ADD14C,0.01000*%
%ADD15R,0.01500X0.02000*%
%ADD16C,0.00400*%
D10*
X0002000Y0001500D02*
X0002000Y0299201D01*
X0131921Y0299201D01*
X0131921Y0001500D01*
X0002000Y0001500D01*
X0009500Y0016500D02*
X0009502Y0016684D01*
X0009509Y0016868D01*
X0009520Y0017052D01*
X0009536Y0017235D01*
X0009556Y0017418D01*
X0009581Y0017600D01*
X0009610Y0017782D01*
X0009644Y0017963D01*
X0009682Y0018143D01*
X0009725Y0018322D01*
X0009772Y0018500D01*
X0009823Y0018677D01*
X0009879Y0018853D01*
X0009938Y0019027D01*
X0010003Y0019199D01*
X0010071Y0019370D01*
X0010143Y0019539D01*
X0010220Y0019707D01*
X0010301Y0019872D01*
X0010386Y0020035D01*
X0010474Y0020197D01*
X0010567Y0020356D01*
X0010664Y0020512D01*
X0010764Y0020667D01*
X0010868Y0020819D01*
X0010976Y0020968D01*
X0011087Y0021114D01*
X0011202Y0021258D01*
X0011321Y0021399D01*
X0011443Y0021537D01*
X0011568Y0021672D01*
X0011697Y0021803D01*
X0011828Y0021932D01*
X0011963Y0022057D01*
X0012101Y0022179D01*
X0012242Y0022298D01*
X0012386Y0022413D01*
X0012532Y0022524D01*
X0012681Y0022632D01*
X0012833Y0022736D01*
X0012988Y0022836D01*
X0013144Y0022933D01*
X0013303Y0023026D01*
X0013465Y0023114D01*
X0013628Y0023199D01*
X0013793Y0023280D01*
X0013961Y0023357D01*
X0014130Y0023429D01*
X0014301Y0023497D01*
X0014473Y0023562D01*
X0014647Y0023621D01*
X0014823Y0023677D01*
X0015000Y0023728D01*
X0015178Y0023775D01*
X0015357Y0023818D01*
X0015537Y0023856D01*
X0015718Y0023890D01*
X0015900Y0023919D01*
X0016082Y0023944D01*
X0016265Y0023964D01*
X0016448Y0023980D01*
X0016632Y0023991D01*
X0016816Y0023998D01*
X0017000Y0024000D01*
X0017184Y0023998D01*
X0017368Y0023991D01*
X0017552Y0023980D01*
X0017735Y0023964D01*
X0017918Y0023944D01*
X0018100Y0023919D01*
X0018282Y0023890D01*
X0018463Y0023856D01*
X0018643Y0023818D01*
X0018822Y0023775D01*
X0019000Y0023728D01*
X0019177Y0023677D01*
X0019353Y0023621D01*
X0019527Y0023562D01*
X0019699Y0023497D01*
X0019870Y0023429D01*
X0020039Y0023357D01*
X0020207Y0023280D01*
X0020372Y0023199D01*
X0020535Y0023114D01*
X0020697Y0023026D01*
X0020856Y0022933D01*
X0021012Y0022836D01*
X0021167Y0022736D01*
X0021319Y0022632D01*
X0021468Y0022524D01*
X0021614Y0022413D01*
X0021758Y0022298D01*
X0021899Y0022179D01*
X0022037Y0022057D01*
X0022172Y0021932D01*
X0022303Y0021803D01*
X0022432Y0021672D01*
X0022557Y0021537D01*
X0022679Y0021399D01*
X0022798Y0021258D01*
X0022913Y0021114D01*
X0023024Y0020968D01*
X0023132Y0020819D01*
X0023236Y0020667D01*
X0023336Y0020512D01*
X0023433Y0020356D01*
X0023526Y0020197D01*
X0023614Y0020035D01*
X0023699Y0019872D01*
X0023780Y0019707D01*
X0023857Y0019539D01*
X0023929Y0019370D01*
X0023997Y0019199D01*
X0024062Y0019027D01*
X0024121Y0018853D01*
X0024177Y0018677D01*
X0024228Y0018500D01*
X0024275Y0018322D01*
X0024318Y0018143D01*
X0024356Y0017963D01*
X0024390Y0017782D01*
X0024419Y0017600D01*
X0024444Y0017418D01*
X0024464Y0017235D01*
X0024480Y0017052D01*
X0024491Y0016868D01*
X0024498Y0016684D01*
X0024500Y0016500D01*
X0024498Y0016316D01*
X0024491Y0016132D01*
X0024480Y0015948D01*
X0024464Y0015765D01*
X0024444Y0015582D01*
X0024419Y0015400D01*
X0024390Y0015218D01*
X0024356Y0015037D01*
X0024318Y0014857D01*
X0024275Y0014678D01*
X0024228Y0014500D01*
X0024177Y0014323D01*
X0024121Y0014147D01*
X0024062Y0013973D01*
X0023997Y0013801D01*
X0023929Y0013630D01*
X0023857Y0013461D01*
X0023780Y0013293D01*
X0023699Y0013128D01*
X0023614Y0012965D01*
X0023526Y0012803D01*
X0023433Y0012644D01*
X0023336Y0012488D01*
X0023236Y0012333D01*
X0023132Y0012181D01*
X0023024Y0012032D01*
X0022913Y0011886D01*
X0022798Y0011742D01*
X0022679Y0011601D01*
X0022557Y0011463D01*
X0022432Y0011328D01*
X0022303Y0011197D01*
X0022172Y0011068D01*
X0022037Y0010943D01*
X0021899Y0010821D01*
X0021758Y0010702D01*
X0021614Y0010587D01*
X0021468Y0010476D01*
X0021319Y0010368D01*
X0021167Y0010264D01*
X0021012Y0010164D01*
X0020856Y0010067D01*
X0020697Y0009974D01*
X0020535Y0009886D01*
X0020372Y0009801D01*
X0020207Y0009720D01*
X0020039Y0009643D01*
X0019870Y0009571D01*
X0019699Y0009503D01*
X0019527Y0009438D01*
X0019353Y0009379D01*
X0019177Y0009323D01*
X0019000Y0009272D01*
X0018822Y0009225D01*
X0018643Y0009182D01*
X0018463Y0009144D01*
X0018282Y0009110D01*
X0018100Y0009081D01*
X0017918Y0009056D01*
X0017735Y0009036D01*
X0017552Y0009020D01*
X0017368Y0009009D01*
X0017184Y0009002D01*
X0017000Y0009000D01*
X0016816Y0009002D01*
X0016632Y0009009D01*
X0016448Y0009020D01*
X0016265Y0009036D01*
X0016082Y0009056D01*
X0015900Y0009081D01*
X0015718Y0009110D01*
X0015537Y0009144D01*
X0015357Y0009182D01*
X0015178Y0009225D01*
X0015000Y0009272D01*
X0014823Y0009323D01*
X0014647Y0009379D01*
X0014473Y0009438D01*
X0014301Y0009503D01*
X0014130Y0009571D01*
X0013961Y0009643D01*
X0013793Y0009720D01*
X0013628Y0009801D01*
X0013465Y0009886D01*
X0013303Y0009974D01*
X0013144Y0010067D01*
X0012988Y0010164D01*
X0012833Y0010264D01*
X0012681Y0010368D01*
X0012532Y0010476D01*
X0012386Y0010587D01*
X0012242Y0010702D01*
X0012101Y0010821D01*
X0011963Y0010943D01*
X0011828Y0011068D01*
X0011697Y0011197D01*
X0011568Y0011328D01*
X0011443Y0011463D01*
X0011321Y0011601D01*
X0011202Y0011742D01*
X0011087Y0011886D01*
X0010976Y0012032D01*
X0010868Y0012181D01*
X0010764Y0012333D01*
X0010664Y0012488D01*
X0010567Y0012644D01*
X0010474Y0012803D01*
X0010386Y0012965D01*
X0010301Y0013128D01*
X0010220Y0013293D01*
X0010143Y0013461D01*
X0010071Y0013630D01*
X0010003Y0013801D01*
X0009938Y0013973D01*
X0009879Y0014147D01*
X0009823Y0014323D01*
X0009772Y0014500D01*
X0009725Y0014678D01*
X0009682Y0014857D01*
X0009644Y0015037D01*
X0009610Y0015218D01*
X0009581Y0015400D01*
X0009556Y0015582D01*
X0009536Y0015765D01*
X0009520Y0015948D01*
X0009509Y0016132D01*
X0009502Y0016316D01*
X0009500Y0016500D01*
X0009500Y0286500D02*
X0009502Y0286684D01*
X0009509Y0286868D01*
X0009520Y0287052D01*
X0009536Y0287235D01*
X0009556Y0287418D01*
X0009581Y0287600D01*
X0009610Y0287782D01*
X0009644Y0287963D01*
X0009682Y0288143D01*
X0009725Y0288322D01*
X0009772Y0288500D01*
X0009823Y0288677D01*
X0009879Y0288853D01*
X0009938Y0289027D01*
X0010003Y0289199D01*
X0010071Y0289370D01*
X0010143Y0289539D01*
X0010220Y0289707D01*
X0010301Y0289872D01*
X0010386Y0290035D01*
X0010474Y0290197D01*
X0010567Y0290356D01*
X0010664Y0290512D01*
X0010764Y0290667D01*
X0010868Y0290819D01*
X0010976Y0290968D01*
X0011087Y0291114D01*
X0011202Y0291258D01*
X0011321Y0291399D01*
X0011443Y0291537D01*
X0011568Y0291672D01*
X0011697Y0291803D01*
X0011828Y0291932D01*
X0011963Y0292057D01*
X0012101Y0292179D01*
X0012242Y0292298D01*
X0012386Y0292413D01*
X0012532Y0292524D01*
X0012681Y0292632D01*
X0012833Y0292736D01*
X0012988Y0292836D01*
X0013144Y0292933D01*
X0013303Y0293026D01*
X0013465Y0293114D01*
X0013628Y0293199D01*
X0013793Y0293280D01*
X0013961Y0293357D01*
X0014130Y0293429D01*
X0014301Y0293497D01*
X0014473Y0293562D01*
X0014647Y0293621D01*
X0014823Y0293677D01*
X0015000Y0293728D01*
X0015178Y0293775D01*
X0015357Y0293818D01*
X0015537Y0293856D01*
X0015718Y0293890D01*
X0015900Y0293919D01*
X0016082Y0293944D01*
X0016265Y0293964D01*
X0016448Y0293980D01*
X0016632Y0293991D01*
X0016816Y0293998D01*
X0017000Y0294000D01*
X0017184Y0293998D01*
X0017368Y0293991D01*
X0017552Y0293980D01*
X0017735Y0293964D01*
X0017918Y0293944D01*
X0018100Y0293919D01*
X0018282Y0293890D01*
X0018463Y0293856D01*
X0018643Y0293818D01*
X0018822Y0293775D01*
X0019000Y0293728D01*
X0019177Y0293677D01*
X0019353Y0293621D01*
X0019527Y0293562D01*
X0019699Y0293497D01*
X0019870Y0293429D01*
X0020039Y0293357D01*
X0020207Y0293280D01*
X0020372Y0293199D01*
X0020535Y0293114D01*
X0020697Y0293026D01*
X0020856Y0292933D01*
X0021012Y0292836D01*
X0021167Y0292736D01*
X0021319Y0292632D01*
X0021468Y0292524D01*
X0021614Y0292413D01*
X0021758Y0292298D01*
X0021899Y0292179D01*
X0022037Y0292057D01*
X0022172Y0291932D01*
X0022303Y0291803D01*
X0022432Y0291672D01*
X0022557Y0291537D01*
X0022679Y0291399D01*
X0022798Y0291258D01*
X0022913Y0291114D01*
X0023024Y0290968D01*
X0023132Y0290819D01*
X0023236Y0290667D01*
X0023336Y0290512D01*
X0023433Y0290356D01*
X0023526Y0290197D01*
X0023614Y0290035D01*
X0023699Y0289872D01*
X0023780Y0289707D01*
X0023857Y0289539D01*
X0023929Y0289370D01*
X0023997Y0289199D01*
X0024062Y0289027D01*
X0024121Y0288853D01*
X0024177Y0288677D01*
X0024228Y0288500D01*
X0024275Y0288322D01*
X0024318Y0288143D01*
X0024356Y0287963D01*
X0024390Y0287782D01*
X0024419Y0287600D01*
X0024444Y0287418D01*
X0024464Y0287235D01*
X0024480Y0287052D01*
X0024491Y0286868D01*
X0024498Y0286684D01*
X0024500Y0286500D01*
X0024498Y0286316D01*
X0024491Y0286132D01*
X0024480Y0285948D01*
X0024464Y0285765D01*
X0024444Y0285582D01*
X0024419Y0285400D01*
X0024390Y0285218D01*
X0024356Y0285037D01*
X0024318Y0284857D01*
X0024275Y0284678D01*
X0024228Y0284500D01*
X0024177Y0284323D01*
X0024121Y0284147D01*
X0024062Y0283973D01*
X0023997Y0283801D01*
X0023929Y0283630D01*
X0023857Y0283461D01*
X0023780Y0283293D01*
X0023699Y0283128D01*
X0023614Y0282965D01*
X0023526Y0282803D01*
X0023433Y0282644D01*
X0023336Y0282488D01*
X0023236Y0282333D01*
X0023132Y0282181D01*
X0023024Y0282032D01*
X0022913Y0281886D01*
X0022798Y0281742D01*
X0022679Y0281601D01*
X0022557Y0281463D01*
X0022432Y0281328D01*
X0022303Y0281197D01*
X0022172Y0281068D01*
X0022037Y0280943D01*
X0021899Y0280821D01*
X0021758Y0280702D01*
X0021614Y0280587D01*
X0021468Y0280476D01*
X0021319Y0280368D01*
X0021167Y0280264D01*
X0021012Y0280164D01*
X0020856Y0280067D01*
X0020697Y0279974D01*
X0020535Y0279886D01*
X0020372Y0279801D01*
X0020207Y0279720D01*
X0020039Y0279643D01*
X0019870Y0279571D01*
X0019699Y0279503D01*
X0019527Y0279438D01*
X0019353Y0279379D01*
X0019177Y0279323D01*
X0019000Y0279272D01*
X0018822Y0279225D01*
X0018643Y0279182D01*
X0018463Y0279144D01*
X0018282Y0279110D01*
X0018100Y0279081D01*
X0017918Y0279056D01*
X0017735Y0279036D01*
X0017552Y0279020D01*
X0017368Y0279009D01*
X0017184Y0279002D01*
X0017000Y0279000D01*
X0016816Y0279002D01*
X0016632Y0279009D01*
X0016448Y0279020D01*
X0016265Y0279036D01*
X0016082Y0279056D01*
X0015900Y0279081D01*
X0015718Y0279110D01*
X0015537Y0279144D01*
X0015357Y0279182D01*
X0015178Y0279225D01*
X0015000Y0279272D01*
X0014823Y0279323D01*
X0014647Y0279379D01*
X0014473Y0279438D01*
X0014301Y0279503D01*
X0014130Y0279571D01*
X0013961Y0279643D01*
X0013793Y0279720D01*
X0013628Y0279801D01*
X0013465Y0279886D01*
X0013303Y0279974D01*
X0013144Y0280067D01*
X0012988Y0280164D01*
X0012833Y0280264D01*
X0012681Y0280368D01*
X0012532Y0280476D01*
X0012386Y0280587D01*
X0012242Y0280702D01*
X0012101Y0280821D01*
X0011963Y0280943D01*
X0011828Y0281068D01*
X0011697Y0281197D01*
X0011568Y0281328D01*
X0011443Y0281463D01*
X0011321Y0281601D01*
X0011202Y0281742D01*
X0011087Y0281886D01*
X0010976Y0282032D01*
X0010868Y0282181D01*
X0010764Y0282333D01*
X0010664Y0282488D01*
X0010567Y0282644D01*
X0010474Y0282803D01*
X0010386Y0282965D01*
X0010301Y0283128D01*
X0010220Y0283293D01*
X0010143Y0283461D01*
X0010071Y0283630D01*
X0010003Y0283801D01*
X0009938Y0283973D01*
X0009879Y0284147D01*
X0009823Y0284323D01*
X0009772Y0284500D01*
X0009725Y0284678D01*
X0009682Y0284857D01*
X0009644Y0285037D01*
X0009610Y0285218D01*
X0009581Y0285400D01*
X0009556Y0285582D01*
X0009536Y0285765D01*
X0009520Y0285948D01*
X0009509Y0286132D01*
X0009502Y0286316D01*
X0009500Y0286500D01*
D11*
X0042500Y0246500D02*
X0042500Y0236500D01*
X0042502Y0236440D01*
X0042507Y0236379D01*
X0042516Y0236320D01*
X0042529Y0236261D01*
X0042545Y0236202D01*
X0042565Y0236145D01*
X0042588Y0236090D01*
X0042615Y0236035D01*
X0042644Y0235983D01*
X0042677Y0235932D01*
X0042713Y0235883D01*
X0042751Y0235837D01*
X0042793Y0235793D01*
X0042837Y0235751D01*
X0042883Y0235713D01*
X0042932Y0235677D01*
X0042983Y0235644D01*
X0043035Y0235615D01*
X0043090Y0235588D01*
X0043145Y0235565D01*
X0043202Y0235545D01*
X0043261Y0235529D01*
X0043320Y0235516D01*
X0043379Y0235507D01*
X0043440Y0235502D01*
X0043500Y0235500D01*
X0060500Y0235500D01*
X0060560Y0235502D01*
X0060621Y0235507D01*
X0060680Y0235516D01*
X0060739Y0235529D01*
X0060798Y0235545D01*
X0060855Y0235565D01*
X0060910Y0235588D01*
X0060965Y0235615D01*
X0061017Y0235644D01*
X0061068Y0235677D01*
X0061117Y0235713D01*
X0061163Y0235751D01*
X0061207Y0235793D01*
X0061249Y0235837D01*
X0061287Y0235883D01*
X0061323Y0235932D01*
X0061356Y0235983D01*
X0061385Y0236035D01*
X0061412Y0236090D01*
X0061435Y0236145D01*
X0061455Y0236202D01*
X0061471Y0236261D01*
X0061484Y0236320D01*
X0061493Y0236379D01*
X0061498Y0236440D01*
X0061500Y0236500D01*
X0061500Y0246500D01*
X0061498Y0246560D01*
X0061493Y0246621D01*
X0061484Y0246680D01*
X0061471Y0246739D01*
X0061455Y0246798D01*
X0061435Y0246855D01*
X0061412Y0246910D01*
X0061385Y0246965D01*
X0061356Y0247017D01*
X0061323Y0247068D01*
X0061287Y0247117D01*
X0061249Y0247163D01*
X0061207Y0247207D01*
X0061163Y0247249D01*
X0061117Y0247287D01*
X0061068Y0247323D01*
X0061017Y0247356D01*
X0060965Y0247385D01*
X0060910Y0247412D01*
X0060855Y0247435D01*
X0060798Y0247455D01*
X0060739Y0247471D01*
X0060680Y0247484D01*
X0060621Y0247493D01*
X0060560Y0247498D01*
X0060500Y0247500D01*
X0043500Y0247500D01*
X0043440Y0247498D01*
X0043379Y0247493D01*
X0043320Y0247484D01*
X0043261Y0247471D01*
X0043202Y0247455D01*
X0043145Y0247435D01*
X0043090Y0247412D01*
X0043035Y0247385D01*
X0042983Y0247356D01*
X0042932Y0247323D01*
X0042883Y0247287D01*
X0042837Y0247249D01*
X0042793Y0247207D01*
X0042751Y0247163D01*
X0042713Y0247117D01*
X0042677Y0247068D01*
X0042644Y0247017D01*
X0042615Y0246965D01*
X0042588Y0246910D01*
X0042565Y0246855D01*
X0042545Y0246798D01*
X0042529Y0246739D01*
X0042516Y0246680D01*
X0042507Y0246621D01*
X0042502Y0246560D01*
X0042500Y0246500D01*
X0050500Y0241500D02*
X0051000Y0241500D01*
X0053000Y0241500D02*
X0053500Y0241500D01*
X0063000Y0220500D02*
X0064500Y0220500D01*
X0065000Y0220000D01*
X0079000Y0220000D01*
X0079500Y0220500D01*
X0081000Y0220500D01*
X0081060Y0220498D01*
X0081121Y0220493D01*
X0081180Y0220484D01*
X0081239Y0220471D01*
X0081298Y0220455D01*
X0081355Y0220435D01*
X0081410Y0220412D01*
X0081465Y0220385D01*
X0081517Y0220356D01*
X0081568Y0220323D01*
X0081617Y0220287D01*
X0081663Y0220249D01*
X0081707Y0220207D01*
X0081749Y0220163D01*
X0081787Y0220117D01*
X0081823Y0220068D01*
X0081856Y0220017D01*
X0081885Y0219965D01*
X0081912Y0219910D01*
X0081935Y0219855D01*
X0081955Y0219798D01*
X0081971Y0219739D01*
X0081984Y0219680D01*
X0081993Y0219621D01*
X0081998Y0219560D01*
X0082000Y0219500D01*
X0082000Y0213500D01*
X0081998Y0213440D01*
X0081993Y0213379D01*
X0081984Y0213320D01*
X0081971Y0213261D01*
X0081955Y0213202D01*
X0081935Y0213145D01*
X0081912Y0213090D01*
X0081885Y0213035D01*
X0081856Y0212983D01*
X0081823Y0212932D01*
X0081787Y0212883D01*
X0081749Y0212837D01*
X0081707Y0212793D01*
X0081663Y0212751D01*
X0081617Y0212713D01*
X0081568Y0212677D01*
X0081517Y0212644D01*
X0081465Y0212615D01*
X0081410Y0212588D01*
X0081355Y0212565D01*
X0081298Y0212545D01*
X0081239Y0212529D01*
X0081180Y0212516D01*
X0081121Y0212507D01*
X0081060Y0212502D01*
X0081000Y0212500D01*
X0079500Y0212500D01*
X0079000Y0213000D01*
X0065000Y0213000D01*
X0064500Y0212500D01*
X0063000Y0212500D01*
X0062940Y0212502D01*
X0062879Y0212507D01*
X0062820Y0212516D01*
X0062761Y0212529D01*
X0062702Y0212545D01*
X0062645Y0212565D01*
X0062590Y0212588D01*
X0062535Y0212615D01*
X0062483Y0212644D01*
X0062432Y0212677D01*
X0062383Y0212713D01*
X0062337Y0212751D01*
X0062293Y0212793D01*
X0062251Y0212837D01*
X0062213Y0212883D01*
X0062177Y0212932D01*
X0062144Y0212983D01*
X0062115Y0213035D01*
X0062088Y0213090D01*
X0062065Y0213145D01*
X0062045Y0213202D01*
X0062029Y0213261D01*
X0062016Y0213320D01*
X0062007Y0213379D01*
X0062002Y0213440D01*
X0062000Y0213500D01*
X0062000Y0219500D01*
X0062002Y0219560D01*
X0062007Y0219621D01*
X0062016Y0219680D01*
X0062029Y0219739D01*
X0062045Y0219798D01*
X0062065Y0219855D01*
X0062088Y0219910D01*
X0062115Y0219965D01*
X0062144Y0220017D01*
X0062177Y0220068D01*
X0062213Y0220117D01*
X0062251Y0220163D01*
X0062293Y0220207D01*
X0062337Y0220249D01*
X0062383Y0220287D01*
X0062432Y0220323D01*
X0062483Y0220356D01*
X0062535Y0220385D01*
X0062590Y0220412D01*
X0062645Y0220435D01*
X0062702Y0220455D01*
X0062761Y0220471D01*
X0062820Y0220484D01*
X0062879Y0220493D01*
X0062940Y0220498D01*
X0063000Y0220500D01*
X0052500Y0196500D02*
X0050000Y0196500D01*
X0050000Y0192500D01*
X0048000Y0192500D01*
X0048000Y0200500D01*
X0050000Y0200500D01*
X0050000Y0196500D01*
X0052000Y0195000D02*
X0052000Y0193000D01*
X0053000Y0194000D02*
X0051000Y0194000D01*
X0055487Y0201788D02*
X0055356Y0201994D01*
X0055219Y0202196D01*
X0055077Y0202395D01*
X0054931Y0202591D01*
X0054780Y0202783D01*
X0054624Y0202971D01*
X0054464Y0203155D01*
X0054299Y0203335D01*
X0054130Y0203512D01*
X0053957Y0203684D01*
X0053779Y0203851D01*
X0053598Y0204015D01*
X0053412Y0204174D01*
X0053223Y0204328D01*
X0053030Y0204478D01*
X0052833Y0204623D01*
X0052633Y0204763D01*
X0052430Y0204898D01*
X0052223Y0205028D01*
X0052013Y0205153D01*
X0051800Y0205273D01*
X0051585Y0205387D01*
X0051366Y0205496D01*
X0051145Y0205600D01*
X0050922Y0205699D01*
X0050696Y0205792D01*
X0050468Y0205879D01*
X0050238Y0205961D01*
X0050006Y0206038D01*
X0049772Y0206108D01*
X0049536Y0206173D01*
X0049299Y0206232D01*
X0049061Y0206285D01*
X0048822Y0206333D01*
X0048581Y0206374D01*
X0048339Y0206410D01*
X0048097Y0206440D01*
X0047854Y0206463D01*
X0047610Y0206481D01*
X0047366Y0206493D01*
X0047122Y0206499D01*
X0046878Y0206499D01*
X0046634Y0206493D01*
X0046390Y0206481D01*
X0046146Y0206463D01*
X0045903Y0206440D01*
X0045661Y0206410D01*
X0045419Y0206374D01*
X0045178Y0206333D01*
X0044939Y0206285D01*
X0044701Y0206232D01*
X0044464Y0206173D01*
X0044228Y0206108D01*
X0043994Y0206038D01*
X0043762Y0205961D01*
X0043532Y0205879D01*
X0043304Y0205792D01*
X0043078Y0205699D01*
X0042855Y0205600D01*
X0042634Y0205496D01*
X0042415Y0205387D01*
X0042200Y0205273D01*
X0041987Y0205153D01*
X0041777Y0205028D01*
X0041570Y0204898D01*
X0041367Y0204763D01*
X0041167Y0204623D01*
X0040970Y0204478D01*
X0040777Y0204328D01*
X0040588Y0204174D01*
X0040402Y0204015D01*
X0040221Y0203851D01*
X0040043Y0203684D01*
X0039870Y0203512D01*
X0039701Y0203335D01*
X0039536Y0203155D01*
X0039376Y0202971D01*
X0039220Y0202783D01*
X0039069Y0202591D01*
X0038923Y0202395D01*
X0038781Y0202196D01*
X0038644Y0201994D01*
X0038513Y0201788D01*
X0041500Y0196500D02*
X0044500Y0196500D01*
X0038513Y0191212D02*
X0038644Y0191006D01*
X0038781Y0190804D01*
X0038923Y0190605D01*
X0039069Y0190409D01*
X0039220Y0190217D01*
X0039376Y0190029D01*
X0039536Y0189845D01*
X0039701Y0189665D01*
X0039870Y0189488D01*
X0040043Y0189316D01*
X0040221Y0189149D01*
X0040402Y0188985D01*
X0040588Y0188826D01*
X0040777Y0188672D01*
X0040970Y0188522D01*
X0041167Y0188377D01*
X0041367Y0188237D01*
X0041570Y0188102D01*
X0041777Y0187972D01*
X0041987Y0187847D01*
X0042200Y0187727D01*
X0042415Y0187613D01*
X0042634Y0187504D01*
X0042855Y0187400D01*
X0043078Y0187301D01*
X0043304Y0187208D01*
X0043532Y0187121D01*
X0043762Y0187039D01*
X0043994Y0186962D01*
X0044228Y0186892D01*
X0044464Y0186827D01*
X0044701Y0186768D01*
X0044939Y0186715D01*
X0045178Y0186667D01*
X0045419Y0186626D01*
X0045661Y0186590D01*
X0045903Y0186560D01*
X0046146Y0186537D01*
X0046390Y0186519D01*
X0046634Y0186507D01*
X0046878Y0186501D01*
X0047122Y0186501D01*
X0047366Y0186507D01*
X0047610Y0186519D01*
X0047854Y0186537D01*
X0048097Y0186560D01*
X0048339Y0186590D01*
X0048581Y0186626D01*
X0048822Y0186667D01*
X0049061Y0186715D01*
X0049299Y0186768D01*
X0049536Y0186827D01*
X0049772Y0186892D01*
X0050006Y0186962D01*
X0050238Y0187039D01*
X0050468Y0187121D01*
X0050696Y0187208D01*
X0050922Y0187301D01*
X0051145Y0187400D01*
X0051366Y0187504D01*
X0051585Y0187613D01*
X0051800Y0187727D01*
X0052013Y0187847D01*
X0052223Y0187972D01*
X0052430Y0188102D01*
X0052633Y0188237D01*
X0052833Y0188377D01*
X0053030Y0188522D01*
X0053223Y0188672D01*
X0053412Y0188826D01*
X0053598Y0188985D01*
X0053779Y0189149D01*
X0053957Y0189316D01*
X0054130Y0189488D01*
X0054299Y0189665D01*
X0054464Y0189845D01*
X0054624Y0190029D01*
X0054780Y0190217D01*
X0054931Y0190409D01*
X0055077Y0190605D01*
X0055219Y0190804D01*
X0055356Y0191006D01*
X0055487Y0191212D01*
X0052000Y0184000D02*
X0054500Y0181500D01*
X0054500Y0176500D01*
X0052000Y0174000D01*
X0054500Y0171500D01*
X0054500Y0166500D01*
X0052000Y0164000D01*
X0054500Y0161500D01*
X0054500Y0156500D01*
X0052000Y0154000D01*
X0054500Y0151500D01*
X0054500Y0146500D01*
X0052000Y0144000D01*
X0054500Y0141500D01*
X0054500Y0136500D01*
X0052000Y0134000D01*
X0037000Y0134000D01*
X0034500Y0136500D01*
X0034500Y0141500D01*
X0037000Y0144000D01*
X0034500Y0146500D01*
X0034500Y0151500D01*
X0037000Y0154000D01*
X0034500Y0156500D01*
X0034500Y0161500D01*
X0037000Y0164000D01*
X0034500Y0166500D01*
X0034500Y0171500D01*
X0037000Y0174000D01*
X0034500Y0176500D01*
X0034500Y0181500D01*
X0037000Y0184000D01*
X0052000Y0184000D01*
X0082000Y0169500D02*
X0082000Y0163500D01*
X0082002Y0163440D01*
X0082007Y0163379D01*
X0082016Y0163320D01*
X0082029Y0163261D01*
X0082045Y0163202D01*
X0082065Y0163145D01*
X0082088Y0163090D01*
X0082115Y0163035D01*
X0082144Y0162983D01*
X0082177Y0162932D01*
X0082213Y0162883D01*
X0082251Y0162837D01*
X0082293Y0162793D01*
X0082337Y0162751D01*
X0082383Y0162713D01*
X0082432Y0162677D01*
X0082483Y0162644D01*
X0082535Y0162615D01*
X0082590Y0162588D01*
X0082645Y0162565D01*
X0082702Y0162545D01*
X0082761Y0162529D01*
X0082820Y0162516D01*
X0082879Y0162507D01*
X0082940Y0162502D01*
X0083000Y0162500D01*
X0084500Y0162500D01*
X0085000Y0163000D01*
X0099000Y0163000D01*
X0099500Y0162500D01*
X0101000Y0162500D01*
X0101060Y0162502D01*
X0101121Y0162507D01*
X0101180Y0162516D01*
X0101239Y0162529D01*
X0101298Y0162545D01*
X0101355Y0162565D01*
X0101410Y0162588D01*
X0101465Y0162615D01*
X0101517Y0162644D01*
X0101568Y0162677D01*
X0101617Y0162713D01*
X0101663Y0162751D01*
X0101707Y0162793D01*
X0101749Y0162837D01*
X0101787Y0162883D01*
X0101823Y0162932D01*
X0101856Y0162983D01*
X0101885Y0163035D01*
X0101912Y0163090D01*
X0101935Y0163145D01*
X0101955Y0163202D01*
X0101971Y0163261D01*
X0101984Y0163320D01*
X0101993Y0163379D01*
X0101998Y0163440D01*
X0102000Y0163500D01*
X0102000Y0169500D01*
X0101998Y0169560D01*
X0101993Y0169621D01*
X0101984Y0169680D01*
X0101971Y0169739D01*
X0101955Y0169798D01*
X0101935Y0169855D01*
X0101912Y0169910D01*
X0101885Y0169965D01*
X0101856Y0170017D01*
X0101823Y0170068D01*
X0101787Y0170117D01*
X0101749Y0170163D01*
X0101707Y0170207D01*
X0101663Y0170249D01*
X0101617Y0170287D01*
X0101568Y0170323D01*
X0101517Y0170356D01*
X0101465Y0170385D01*
X0101410Y0170412D01*
X0101355Y0170435D01*
X0101298Y0170455D01*
X0101239Y0170471D01*
X0101180Y0170484D01*
X0101121Y0170493D01*
X0101060Y0170498D01*
X0101000Y0170500D01*
X0099500Y0170500D01*
X0099000Y0170000D01*
X0085000Y0170000D01*
X0084500Y0170500D01*
X0083000Y0170500D01*
X0082940Y0170498D01*
X0082879Y0170493D01*
X0082820Y0170484D01*
X0082761Y0170471D01*
X0082702Y0170455D01*
X0082645Y0170435D01*
X0082590Y0170412D01*
X0082535Y0170385D01*
X0082483Y0170356D01*
X0082432Y0170323D01*
X0082383Y0170287D01*
X0082337Y0170249D01*
X0082293Y0170207D01*
X0082251Y0170163D01*
X0082213Y0170117D01*
X0082177Y0170068D01*
X0082144Y0170017D01*
X0082115Y0169965D01*
X0082088Y0169910D01*
X0082065Y0169855D01*
X0082045Y0169798D01*
X0082029Y0169739D01*
X0082016Y0169680D01*
X0082007Y0169621D01*
X0082002Y0169560D01*
X0082000Y0169500D01*
X0083000Y0130500D02*
X0084500Y0130500D01*
X0085000Y0130000D01*
X0099000Y0130000D01*
X0099500Y0130500D01*
X0101000Y0130500D01*
X0101060Y0130498D01*
X0101121Y0130493D01*
X0101180Y0130484D01*
X0101239Y0130471D01*
X0101298Y0130455D01*
X0101355Y0130435D01*
X0101410Y0130412D01*
X0101465Y0130385D01*
X0101517Y0130356D01*
X0101568Y0130323D01*
X0101617Y0130287D01*
X0101663Y0130249D01*
X0101707Y0130207D01*
X0101749Y0130163D01*
X0101787Y0130117D01*
X0101823Y0130068D01*
X0101856Y0130017D01*
X0101885Y0129965D01*
X0101912Y0129910D01*
X0101935Y0129855D01*
X0101955Y0129798D01*
X0101971Y0129739D01*
X0101984Y0129680D01*
X0101993Y0129621D01*
X0101998Y0129560D01*
X0102000Y0129500D01*
X0102000Y0123500D01*
X0101998Y0123440D01*
X0101993Y0123379D01*
X0101984Y0123320D01*
X0101971Y0123261D01*
X0101955Y0123202D01*
X0101935Y0123145D01*
X0101912Y0123090D01*
X0101885Y0123035D01*
X0101856Y0122983D01*
X0101823Y0122932D01*
X0101787Y0122883D01*
X0101749Y0122837D01*
X0101707Y0122793D01*
X0101663Y0122751D01*
X0101617Y0122713D01*
X0101568Y0122677D01*
X0101517Y0122644D01*
X0101465Y0122615D01*
X0101410Y0122588D01*
X0101355Y0122565D01*
X0101298Y0122545D01*
X0101239Y0122529D01*
X0101180Y0122516D01*
X0101121Y0122507D01*
X0101060Y0122502D01*
X0101000Y0122500D01*
X0099500Y0122500D01*
X0099000Y0123000D01*
X0085000Y0123000D01*
X0084500Y0122500D01*
X0083000Y0122500D01*
X0082940Y0122502D01*
X0082879Y0122507D01*
X0082820Y0122516D01*
X0082761Y0122529D01*
X0082702Y0122545D01*
X0082645Y0122565D01*
X0082590Y0122588D01*
X0082535Y0122615D01*
X0082483Y0122644D01*
X0082432Y0122677D01*
X0082383Y0122713D01*
X0082337Y0122751D01*
X0082293Y0122793D01*
X0082251Y0122837D01*
X0082213Y0122883D01*
X0082177Y0122932D01*
X0082144Y0122983D01*
X0082115Y0123035D01*
X0082088Y0123090D01*
X0082065Y0123145D01*
X0082045Y0123202D01*
X0082029Y0123261D01*
X0082016Y0123320D01*
X0082007Y0123379D01*
X0082002Y0123440D01*
X0082000Y0123500D01*
X0082000Y0129500D01*
X0082002Y0129560D01*
X0082007Y0129621D01*
X0082016Y0129680D01*
X0082029Y0129739D01*
X0082045Y0129798D01*
X0082065Y0129855D01*
X0082088Y0129910D01*
X0082115Y0129965D01*
X0082144Y0130017D01*
X0082177Y0130068D01*
X0082213Y0130117D01*
X0082251Y0130163D01*
X0082293Y0130207D01*
X0082337Y0130249D01*
X0082383Y0130287D01*
X0082432Y0130323D01*
X0082483Y0130356D01*
X0082535Y0130385D01*
X0082590Y0130412D01*
X0082645Y0130435D01*
X0082702Y0130455D01*
X0082761Y0130471D01*
X0082820Y0130484D01*
X0082879Y0130493D01*
X0082940Y0130498D01*
X0083000Y0130500D01*
X0083000Y0115500D02*
X0084500Y0115500D01*
X0085000Y0115000D01*
X0099000Y0115000D01*
X0099500Y0115500D01*
X0101000Y0115500D01*
X0101060Y0115498D01*
X0101121Y0115493D01*
X0101180Y0115484D01*
X0101239Y0115471D01*
X0101298Y0115455D01*
X0101355Y0115435D01*
X0101410Y0115412D01*
X0101465Y0115385D01*
X0101517Y0115356D01*
X0101568Y0115323D01*
X0101617Y0115287D01*
X0101663Y0115249D01*
X0101707Y0115207D01*
X0101749Y0115163D01*
X0101787Y0115117D01*
X0101823Y0115068D01*
X0101856Y0115017D01*
X0101885Y0114965D01*
X0101912Y0114910D01*
X0101935Y0114855D01*
X0101955Y0114798D01*
X0101971Y0114739D01*
X0101984Y0114680D01*
X0101993Y0114621D01*
X0101998Y0114560D01*
X0102000Y0114500D01*
X0102000Y0108500D01*
X0101998Y0108440D01*
X0101993Y0108379D01*
X0101984Y0108320D01*
X0101971Y0108261D01*
X0101955Y0108202D01*
X0101935Y0108145D01*
X0101912Y0108090D01*
X0101885Y0108035D01*
X0101856Y0107983D01*
X0101823Y0107932D01*
X0101787Y0107883D01*
X0101749Y0107837D01*
X0101707Y0107793D01*
X0101663Y0107751D01*
X0101617Y0107713D01*
X0101568Y0107677D01*
X0101517Y0107644D01*
X0101465Y0107615D01*
X0101410Y0107588D01*
X0101355Y0107565D01*
X0101298Y0107545D01*
X0101239Y0107529D01*
X0101180Y0107516D01*
X0101121Y0107507D01*
X0101060Y0107502D01*
X0101000Y0107500D01*
X0099500Y0107500D01*
X0099000Y0108000D01*
X0085000Y0108000D01*
X0084500Y0107500D01*
X0083000Y0107500D01*
X0082940Y0107502D01*
X0082879Y0107507D01*
X0082820Y0107516D01*
X0082761Y0107529D01*
X0082702Y0107545D01*
X0082645Y0107565D01*
X0082590Y0107588D01*
X0082535Y0107615D01*
X0082483Y0107644D01*
X0082432Y0107677D01*
X0082383Y0107713D01*
X0082337Y0107751D01*
X0082293Y0107793D01*
X0082251Y0107837D01*
X0082213Y0107883D01*
X0082177Y0107932D01*
X0082144Y0107983D01*
X0082115Y0108035D01*
X0082088Y0108090D01*
X0082065Y0108145D01*
X0082045Y0108202D01*
X0082029Y0108261D01*
X0082016Y0108320D01*
X0082007Y0108379D01*
X0082002Y0108440D01*
X0082000Y0108500D01*
X0082000Y0114500D01*
X0082002Y0114560D01*
X0082007Y0114621D01*
X0082016Y0114680D01*
X0082029Y0114739D01*
X0082045Y0114798D01*
X0082065Y0114855D01*
X0082088Y0114910D01*
X0082115Y0114965D01*
X0082144Y0115017D01*
X0082177Y0115068D01*
X0082213Y0115117D01*
X0082251Y0115163D01*
X0082293Y0115207D01*
X0082337Y0115249D01*
X0082383Y0115287D01*
X0082432Y0115323D01*
X0082483Y0115356D01*
X0082535Y0115385D01*
X0082590Y0115412D01*
X0082645Y0115435D01*
X0082702Y0115455D01*
X0082761Y0115471D01*
X0082820Y0115484D01*
X0082879Y0115493D01*
X0082940Y0115498D01*
X0083000Y0115500D01*
X0081000Y0085500D02*
X0079500Y0085500D01*
X0079000Y0085000D01*
X0065000Y0085000D01*
X0064500Y0085500D01*
X0063000Y0085500D01*
X0062940Y0085498D01*
X0062879Y0085493D01*
X0062820Y0085484D01*
X0062761Y0085471D01*
X0062702Y0085455D01*
X0062645Y0085435D01*
X0062590Y0085412D01*
X0062535Y0085385D01*
X0062483Y0085356D01*
X0062432Y0085323D01*
X0062383Y0085287D01*
X0062337Y0085249D01*
X0062293Y0085207D01*
X0062251Y0085163D01*
X0062213Y0085117D01*
X0062177Y0085068D01*
X0062144Y0085017D01*
X0062115Y0084965D01*
X0062088Y0084910D01*
X0062065Y0084855D01*
X0062045Y0084798D01*
X0062029Y0084739D01*
X0062016Y0084680D01*
X0062007Y0084621D01*
X0062002Y0084560D01*
X0062000Y0084500D01*
X0062000Y0078500D01*
X0062002Y0078440D01*
X0062007Y0078379D01*
X0062016Y0078320D01*
X0062029Y0078261D01*
X0062045Y0078202D01*
X0062065Y0078145D01*
X0062088Y0078090D01*
X0062115Y0078035D01*
X0062144Y0077983D01*
X0062177Y0077932D01*
X0062213Y0077883D01*
X0062251Y0077837D01*
X0062293Y0077793D01*
X0062337Y0077751D01*
X0062383Y0077713D01*
X0062432Y0077677D01*
X0062483Y0077644D01*
X0062535Y0077615D01*
X0062590Y0077588D01*
X0062645Y0077565D01*
X0062702Y0077545D01*
X0062761Y0077529D01*
X0062820Y0077516D01*
X0062879Y0077507D01*
X0062940Y0077502D01*
X0063000Y0077500D01*
X0064500Y0077500D01*
X0065000Y0078000D01*
X0079000Y0078000D01*
X0079500Y0077500D01*
X0081000Y0077500D01*
X0081060Y0077502D01*
X0081121Y0077507D01*
X0081180Y0077516D01*
X0081239Y0077529D01*
X0081298Y0077545D01*
X0081355Y0077565D01*
X0081410Y0077588D01*
X0081465Y0077615D01*
X0081517Y0077644D01*
X0081568Y0077677D01*
X0081617Y0077713D01*
X0081663Y0077751D01*
X0081707Y0077793D01*
X0081749Y0077837D01*
X0081787Y0077883D01*
X0081823Y0077932D01*
X0081856Y0077983D01*
X0081885Y0078035D01*
X0081912Y0078090D01*
X0081935Y0078145D01*
X0081955Y0078202D01*
X0081971Y0078261D01*
X0081984Y0078320D01*
X0081993Y0078379D01*
X0081998Y0078440D01*
X0082000Y0078500D01*
X0082000Y0084500D01*
X0081998Y0084560D01*
X0081993Y0084621D01*
X0081984Y0084680D01*
X0081971Y0084739D01*
X0081955Y0084798D01*
X0081935Y0084855D01*
X0081912Y0084910D01*
X0081885Y0084965D01*
X0081856Y0085017D01*
X0081823Y0085068D01*
X0081787Y0085117D01*
X0081749Y0085163D01*
X0081707Y0085207D01*
X0081663Y0085249D01*
X0081617Y0085287D01*
X0081568Y0085323D01*
X0081517Y0085356D01*
X0081465Y0085385D01*
X0081410Y0085412D01*
X0081355Y0085435D01*
X0081298Y0085455D01*
X0081239Y0085471D01*
X0081180Y0085484D01*
X0081121Y0085493D01*
X0081060Y0085498D01*
X0081000Y0085500D01*
X0057500Y0096500D02*
X0054500Y0096500D01*
X0060487Y0091212D02*
X0060356Y0091006D01*
X0060219Y0090804D01*
X0060077Y0090605D01*
X0059931Y0090409D01*
X0059780Y0090217D01*
X0059624Y0090029D01*
X0059464Y0089845D01*
X0059299Y0089665D01*
X0059130Y0089488D01*
X0058957Y0089316D01*
X0058779Y0089149D01*
X0058598Y0088985D01*
X0058412Y0088826D01*
X0058223Y0088672D01*
X0058030Y0088522D01*
X0057833Y0088377D01*
X0057633Y0088237D01*
X0057430Y0088102D01*
X0057223Y0087972D01*
X0057013Y0087847D01*
X0056800Y0087727D01*
X0056585Y0087613D01*
X0056366Y0087504D01*
X0056145Y0087400D01*
X0055922Y0087301D01*
X0055696Y0087208D01*
X0055468Y0087121D01*
X0055238Y0087039D01*
X0055006Y0086962D01*
X0054772Y0086892D01*
X0054536Y0086827D01*
X0054299Y0086768D01*
X0054061Y0086715D01*
X0053822Y0086667D01*
X0053581Y0086626D01*
X0053339Y0086590D01*
X0053097Y0086560D01*
X0052854Y0086537D01*
X0052610Y0086519D01*
X0052366Y0086507D01*
X0052122Y0086501D01*
X0051878Y0086501D01*
X0051634Y0086507D01*
X0051390Y0086519D01*
X0051146Y0086537D01*
X0050903Y0086560D01*
X0050661Y0086590D01*
X0050419Y0086626D01*
X0050178Y0086667D01*
X0049939Y0086715D01*
X0049701Y0086768D01*
X0049464Y0086827D01*
X0049228Y0086892D01*
X0048994Y0086962D01*
X0048762Y0087039D01*
X0048532Y0087121D01*
X0048304Y0087208D01*
X0048078Y0087301D01*
X0047855Y0087400D01*
X0047634Y0087504D01*
X0047415Y0087613D01*
X0047200Y0087727D01*
X0046987Y0087847D01*
X0046777Y0087972D01*
X0046570Y0088102D01*
X0046367Y0088237D01*
X0046167Y0088377D01*
X0045970Y0088522D01*
X0045777Y0088672D01*
X0045588Y0088826D01*
X0045402Y0088985D01*
X0045221Y0089149D01*
X0045043Y0089316D01*
X0044870Y0089488D01*
X0044701Y0089665D01*
X0044536Y0089845D01*
X0044376Y0090029D01*
X0044220Y0090217D01*
X0044069Y0090409D01*
X0043923Y0090605D01*
X0043781Y0090804D01*
X0043644Y0091006D01*
X0043513Y0091212D01*
X0046500Y0096500D02*
X0049000Y0096500D01*
X0049000Y0100500D01*
X0051000Y0100500D01*
X0051000Y0092500D01*
X0049000Y0092500D01*
X0049000Y0096500D01*
X0047000Y0098000D02*
X0047000Y0100000D01*
X0046000Y0099000D02*
X0048000Y0099000D01*
X0043513Y0101788D02*
X0043644Y0101994D01*
X0043781Y0102196D01*
X0043923Y0102395D01*
X0044069Y0102591D01*
X0044220Y0102783D01*
X0044376Y0102971D01*
X0044536Y0103155D01*
X0044701Y0103335D01*
X0044870Y0103512D01*
X0045043Y0103684D01*
X0045221Y0103851D01*
X0045402Y0104015D01*
X0045588Y0104174D01*
X0045777Y0104328D01*
X0045970Y0104478D01*
X0046167Y0104623D01*
X0046367Y0104763D01*
X0046570Y0104898D01*
X0046777Y0105028D01*
X0046987Y0105153D01*
X0047200Y0105273D01*
X0047415Y0105387D01*
X0047634Y0105496D01*
X0047855Y0105600D01*
X0048078Y0105699D01*
X0048304Y0105792D01*
X0048532Y0105879D01*
X0048762Y0105961D01*
X0048994Y0106038D01*
X0049228Y0106108D01*
X0049464Y0106173D01*
X0049701Y0106232D01*
X0049939Y0106285D01*
X0050178Y0106333D01*
X0050419Y0106374D01*
X0050661Y0106410D01*
X0050903Y0106440D01*
X0051146Y0106463D01*
X0051390Y0106481D01*
X0051634Y0106493D01*
X0051878Y0106499D01*
X0052122Y0106499D01*
X0052366Y0106493D01*
X0052610Y0106481D01*
X0052854Y0106463D01*
X0053097Y0106440D01*
X0053339Y0106410D01*
X0053581Y0106374D01*
X0053822Y0106333D01*
X0054061Y0106285D01*
X0054299Y0106232D01*
X0054536Y0106173D01*
X0054772Y0106108D01*
X0055006Y0106038D01*
X0055238Y0105961D01*
X0055468Y0105879D01*
X0055696Y0105792D01*
X0055922Y0105699D01*
X0056145Y0105600D01*
X0056366Y0105496D01*
X0056585Y0105387D01*
X0056800Y0105273D01*
X0057013Y0105153D01*
X0057223Y0105028D01*
X0057430Y0104898D01*
X0057633Y0104763D01*
X0057833Y0104623D01*
X0058030Y0104478D01*
X0058223Y0104328D01*
X0058412Y0104174D01*
X0058598Y0104015D01*
X0058779Y0103851D01*
X0058957Y0103684D01*
X0059130Y0103512D01*
X0059299Y0103335D01*
X0059464Y0103155D01*
X0059624Y0102971D01*
X0059780Y0102783D01*
X0059931Y0102591D01*
X0060077Y0102395D01*
X0060219Y0102196D01*
X0060356Y0101994D01*
X0060487Y0101788D01*
X0055500Y0062500D02*
X0038500Y0062500D01*
X0038440Y0062498D01*
X0038379Y0062493D01*
X0038320Y0062484D01*
X0038261Y0062471D01*
X0038202Y0062455D01*
X0038145Y0062435D01*
X0038090Y0062412D01*
X0038035Y0062385D01*
X0037983Y0062356D01*
X0037932Y0062323D01*
X0037883Y0062287D01*
X0037837Y0062249D01*
X0037793Y0062207D01*
X0037751Y0062163D01*
X0037713Y0062117D01*
X0037677Y0062068D01*
X0037644Y0062017D01*
X0037615Y0061965D01*
X0037588Y0061910D01*
X0037565Y0061855D01*
X0037545Y0061798D01*
X0037529Y0061739D01*
X0037516Y0061680D01*
X0037507Y0061621D01*
X0037502Y0061560D01*
X0037500Y0061500D01*
X0037500Y0051500D01*
X0037502Y0051440D01*
X0037507Y0051379D01*
X0037516Y0051320D01*
X0037529Y0051261D01*
X0037545Y0051202D01*
X0037565Y0051145D01*
X0037588Y0051090D01*
X0037615Y0051035D01*
X0037644Y0050983D01*
X0037677Y0050932D01*
X0037713Y0050883D01*
X0037751Y0050837D01*
X0037793Y0050793D01*
X0037837Y0050751D01*
X0037883Y0050713D01*
X0037932Y0050677D01*
X0037983Y0050644D01*
X0038035Y0050615D01*
X0038090Y0050588D01*
X0038145Y0050565D01*
X0038202Y0050545D01*
X0038261Y0050529D01*
X0038320Y0050516D01*
X0038379Y0050507D01*
X0038440Y0050502D01*
X0038500Y0050500D01*
X0055500Y0050500D01*
X0055560Y0050502D01*
X0055621Y0050507D01*
X0055680Y0050516D01*
X0055739Y0050529D01*
X0055798Y0050545D01*
X0055855Y0050565D01*
X0055910Y0050588D01*
X0055965Y0050615D01*
X0056017Y0050644D01*
X0056068Y0050677D01*
X0056117Y0050713D01*
X0056163Y0050751D01*
X0056207Y0050793D01*
X0056249Y0050837D01*
X0056287Y0050883D01*
X0056323Y0050932D01*
X0056356Y0050983D01*
X0056385Y0051035D01*
X0056412Y0051090D01*
X0056435Y0051145D01*
X0056455Y0051202D01*
X0056471Y0051261D01*
X0056484Y0051320D01*
X0056493Y0051379D01*
X0056498Y0051440D01*
X0056500Y0051500D01*
X0056500Y0061500D01*
X0056498Y0061560D01*
X0056493Y0061621D01*
X0056484Y0061680D01*
X0056471Y0061739D01*
X0056455Y0061798D01*
X0056435Y0061855D01*
X0056412Y0061910D01*
X0056385Y0061965D01*
X0056356Y0062017D01*
X0056323Y0062068D01*
X0056287Y0062117D01*
X0056249Y0062163D01*
X0056207Y0062207D01*
X0056163Y0062249D01*
X0056117Y0062287D01*
X0056068Y0062323D01*
X0056017Y0062356D01*
X0055965Y0062385D01*
X0055910Y0062412D01*
X0055855Y0062435D01*
X0055798Y0062455D01*
X0055739Y0062471D01*
X0055680Y0062484D01*
X0055621Y0062493D01*
X0055560Y0062498D01*
X0055500Y0062500D01*
X0048500Y0056500D02*
X0048000Y0056500D01*
X0046000Y0056500D02*
X0045500Y0056500D01*
X0062000Y0019500D02*
X0062000Y0013500D01*
X0062002Y0013440D01*
X0062007Y0013379D01*
X0062016Y0013320D01*
X0062029Y0013261D01*
X0062045Y0013202D01*
X0062065Y0013145D01*
X0062088Y0013090D01*
X0062115Y0013035D01*
X0062144Y0012983D01*
X0062177Y0012932D01*
X0062213Y0012883D01*
X0062251Y0012837D01*
X0062293Y0012793D01*
X0062337Y0012751D01*
X0062383Y0012713D01*
X0062432Y0012677D01*
X0062483Y0012644D01*
X0062535Y0012615D01*
X0062590Y0012588D01*
X0062645Y0012565D01*
X0062702Y0012545D01*
X0062761Y0012529D01*
X0062820Y0012516D01*
X0062879Y0012507D01*
X0062940Y0012502D01*
X0063000Y0012500D01*
X0064500Y0012500D01*
X0065000Y0013000D01*
X0079000Y0013000D01*
X0079500Y0012500D01*
X0081000Y0012500D01*
X0081060Y0012502D01*
X0081121Y0012507D01*
X0081180Y0012516D01*
X0081239Y0012529D01*
X0081298Y0012545D01*
X0081355Y0012565D01*
X0081410Y0012588D01*
X0081465Y0012615D01*
X0081517Y0012644D01*
X0081568Y0012677D01*
X0081617Y0012713D01*
X0081663Y0012751D01*
X0081707Y0012793D01*
X0081749Y0012837D01*
X0081787Y0012883D01*
X0081823Y0012932D01*
X0081856Y0012983D01*
X0081885Y0013035D01*
X0081912Y0013090D01*
X0081935Y0013145D01*
X0081955Y0013202D01*
X0081971Y0013261D01*
X0081984Y0013320D01*
X0081993Y0013379D01*
X0081998Y0013440D01*
X0082000Y0013500D01*
X0082000Y0019500D01*
X0081998Y0019560D01*
X0081993Y0019621D01*
X0081984Y0019680D01*
X0081971Y0019739D01*
X0081955Y0019798D01*
X0081935Y0019855D01*
X0081912Y0019910D01*
X0081885Y0019965D01*
X0081856Y0020017D01*
X0081823Y0020068D01*
X0081787Y0020117D01*
X0081749Y0020163D01*
X0081707Y0020207D01*
X0081663Y0020249D01*
X0081617Y0020287D01*
X0081568Y0020323D01*
X0081517Y0020356D01*
X0081465Y0020385D01*
X0081410Y0020412D01*
X0081355Y0020435D01*
X0081298Y0020455D01*
X0081239Y0020471D01*
X0081180Y0020484D01*
X0081121Y0020493D01*
X0081060Y0020498D01*
X0081000Y0020500D01*
X0079500Y0020500D01*
X0079000Y0020000D01*
X0065000Y0020000D01*
X0064500Y0020500D01*
X0063000Y0020500D01*
X0062940Y0020498D01*
X0062879Y0020493D01*
X0062820Y0020484D01*
X0062761Y0020471D01*
X0062702Y0020455D01*
X0062645Y0020435D01*
X0062590Y0020412D01*
X0062535Y0020385D01*
X0062483Y0020356D01*
X0062432Y0020323D01*
X0062383Y0020287D01*
X0062337Y0020249D01*
X0062293Y0020207D01*
X0062251Y0020163D01*
X0062213Y0020117D01*
X0062177Y0020068D01*
X0062144Y0020017D01*
X0062115Y0019965D01*
X0062088Y0019910D01*
X0062065Y0019855D01*
X0062045Y0019798D01*
X0062029Y0019739D01*
X0062016Y0019680D01*
X0062007Y0019621D01*
X0062002Y0019560D01*
X0062000Y0019500D01*
X0063000Y0277500D02*
X0064500Y0277500D01*
X0065000Y0278000D01*
X0079000Y0278000D01*
X0079500Y0277500D01*
X0081000Y0277500D01*
X0081060Y0277502D01*
X0081121Y0277507D01*
X0081180Y0277516D01*
X0081239Y0277529D01*
X0081298Y0277545D01*
X0081355Y0277565D01*
X0081410Y0277588D01*
X0081465Y0277615D01*
X0081517Y0277644D01*
X0081568Y0277677D01*
X0081617Y0277713D01*
X0081663Y0277751D01*
X0081707Y0277793D01*
X0081749Y0277837D01*
X0081787Y0277883D01*
X0081823Y0277932D01*
X0081856Y0277983D01*
X0081885Y0278035D01*
X0081912Y0278090D01*
X0081935Y0278145D01*
X0081955Y0278202D01*
X0081971Y0278261D01*
X0081984Y0278320D01*
X0081993Y0278379D01*
X0081998Y0278440D01*
X0082000Y0278500D01*
X0082000Y0284500D01*
X0081998Y0284560D01*
X0081993Y0284621D01*
X0081984Y0284680D01*
X0081971Y0284739D01*
X0081955Y0284798D01*
X0081935Y0284855D01*
X0081912Y0284910D01*
X0081885Y0284965D01*
X0081856Y0285017D01*
X0081823Y0285068D01*
X0081787Y0285117D01*
X0081749Y0285163D01*
X0081707Y0285207D01*
X0081663Y0285249D01*
X0081617Y0285287D01*
X0081568Y0285323D01*
X0081517Y0285356D01*
X0081465Y0285385D01*
X0081410Y0285412D01*
X0081355Y0285435D01*
X0081298Y0285455D01*
X0081239Y0285471D01*
X0081180Y0285484D01*
X0081121Y0285493D01*
X0081060Y0285498D01*
X0081000Y0285500D01*
X0079500Y0285500D01*
X0079000Y0285000D01*
X0065000Y0285000D01*
X0064500Y0285500D01*
X0063000Y0285500D01*
X0062940Y0285498D01*
X0062879Y0285493D01*
X0062820Y0285484D01*
X0062761Y0285471D01*
X0062702Y0285455D01*
X0062645Y0285435D01*
X0062590Y0285412D01*
X0062535Y0285385D01*
X0062483Y0285356D01*
X0062432Y0285323D01*
X0062383Y0285287D01*
X0062337Y0285249D01*
X0062293Y0285207D01*
X0062251Y0285163D01*
X0062213Y0285117D01*
X0062177Y0285068D01*
X0062144Y0285017D01*
X0062115Y0284965D01*
X0062088Y0284910D01*
X0062065Y0284855D01*
X0062045Y0284798D01*
X0062029Y0284739D01*
X0062016Y0284680D01*
X0062007Y0284621D01*
X0062002Y0284560D01*
X0062000Y0284500D01*
X0062000Y0278500D01*
X0062002Y0278440D01*
X0062007Y0278379D01*
X0062016Y0278320D01*
X0062029Y0278261D01*
X0062045Y0278202D01*
X0062065Y0278145D01*
X0062088Y0278090D01*
X0062115Y0278035D01*
X0062144Y0277983D01*
X0062177Y0277932D01*
X0062213Y0277883D01*
X0062251Y0277837D01*
X0062293Y0277793D01*
X0062337Y0277751D01*
X0062383Y0277713D01*
X0062432Y0277677D01*
X0062483Y0277644D01*
X0062535Y0277615D01*
X0062590Y0277588D01*
X0062645Y0277565D01*
X0062702Y0277545D01*
X0062761Y0277529D01*
X0062820Y0277516D01*
X0062879Y0277507D01*
X0062940Y0277502D01*
X0063000Y0277500D01*
D12*
X0045000Y0196500D03*
X0054000Y0096500D03*
D13*
X0053765Y0108250D02*
X0053765Y0112750D01*
X0052515Y0111750D01*
X0050750Y0112750D02*
X0049750Y0112750D01*
X0049690Y0112748D01*
X0049629Y0112743D01*
X0049570Y0112734D01*
X0049511Y0112721D01*
X0049452Y0112705D01*
X0049395Y0112685D01*
X0049340Y0112662D01*
X0049285Y0112635D01*
X0049233Y0112606D01*
X0049182Y0112573D01*
X0049133Y0112537D01*
X0049087Y0112499D01*
X0049043Y0112457D01*
X0049001Y0112413D01*
X0048963Y0112367D01*
X0048927Y0112318D01*
X0048894Y0112267D01*
X0048865Y0112215D01*
X0048838Y0112160D01*
X0048815Y0112105D01*
X0048795Y0112048D01*
X0048779Y0111989D01*
X0048766Y0111930D01*
X0048757Y0111871D01*
X0048752Y0111810D01*
X0048750Y0111750D01*
X0048750Y0109250D01*
X0048752Y0109190D01*
X0048757Y0109129D01*
X0048766Y0109070D01*
X0048779Y0109011D01*
X0048795Y0108952D01*
X0048815Y0108895D01*
X0048838Y0108840D01*
X0048865Y0108785D01*
X0048894Y0108733D01*
X0048927Y0108682D01*
X0048963Y0108633D01*
X0049001Y0108587D01*
X0049043Y0108543D01*
X0049087Y0108501D01*
X0049133Y0108463D01*
X0049182Y0108427D01*
X0049233Y0108394D01*
X0049285Y0108365D01*
X0049340Y0108338D01*
X0049395Y0108315D01*
X0049452Y0108295D01*
X0049511Y0108279D01*
X0049570Y0108266D01*
X0049629Y0108257D01*
X0049690Y0108252D01*
X0049750Y0108250D01*
X0050750Y0108250D01*
X0052515Y0108250D02*
X0055015Y0108250D01*
X0057250Y0133750D02*
X0056250Y0135000D01*
X0060750Y0135000D01*
X0060750Y0133750D02*
X0060750Y0136250D01*
X0059750Y0138500D02*
X0057250Y0140500D01*
X0056875Y0140375D02*
X0056819Y0140354D01*
X0056764Y0140328D01*
X0056710Y0140300D01*
X0056659Y0140268D01*
X0056610Y0140233D01*
X0056564Y0140194D01*
X0056520Y0140153D01*
X0056478Y0140109D01*
X0056440Y0140062D01*
X0056405Y0140013D01*
X0056373Y0139961D01*
X0056345Y0139908D01*
X0056320Y0139853D01*
X0056299Y0139797D01*
X0056281Y0139739D01*
X0056268Y0139680D01*
X0056258Y0139620D01*
X0056252Y0139560D01*
X0056250Y0139500D01*
X0056252Y0139440D01*
X0056258Y0139380D01*
X0056268Y0139320D01*
X0056281Y0139261D01*
X0056299Y0139203D01*
X0056320Y0139147D01*
X0056345Y0139092D01*
X0056373Y0139039D01*
X0056405Y0138987D01*
X0056440Y0138938D01*
X0056478Y0138891D01*
X0056520Y0138847D01*
X0056564Y0138806D01*
X0056610Y0138767D01*
X0056659Y0138732D01*
X0056710Y0138700D01*
X0056764Y0138672D01*
X0056819Y0138646D01*
X0056875Y0138625D01*
X0058500Y0140750D02*
X0058620Y0140748D01*
X0058740Y0140742D01*
X0058860Y0140732D01*
X0058979Y0140719D01*
X0059098Y0140701D01*
X0059216Y0140680D01*
X0059334Y0140655D01*
X0059450Y0140626D01*
X0059566Y0140593D01*
X0059680Y0140557D01*
X0059794Y0140517D01*
X0059906Y0140473D01*
X0060016Y0140426D01*
X0060125Y0140375D01*
X0060181Y0140354D01*
X0060236Y0140328D01*
X0060290Y0140300D01*
X0060341Y0140268D01*
X0060390Y0140233D01*
X0060436Y0140194D01*
X0060480Y0140153D01*
X0060522Y0140109D01*
X0060560Y0140062D01*
X0060595Y0140013D01*
X0060627Y0139961D01*
X0060655Y0139908D01*
X0060680Y0139853D01*
X0060701Y0139797D01*
X0060719Y0139739D01*
X0060732Y0139680D01*
X0060742Y0139620D01*
X0060748Y0139560D01*
X0060750Y0139500D01*
X0060748Y0139440D01*
X0060742Y0139380D01*
X0060732Y0139320D01*
X0060719Y0139261D01*
X0060701Y0139203D01*
X0060680Y0139147D01*
X0060655Y0139092D01*
X0060627Y0139039D01*
X0060595Y0138987D01*
X0060560Y0138938D01*
X0060522Y0138891D01*
X0060480Y0138847D01*
X0060436Y0138806D01*
X0060390Y0138767D01*
X0060341Y0138732D01*
X0060290Y0138700D01*
X0060236Y0138672D01*
X0060181Y0138646D01*
X0060125Y0138625D01*
X0058500Y0140750D02*
X0058380Y0140748D01*
X0058260Y0140742D01*
X0058140Y0140732D01*
X0058021Y0140719D01*
X0057902Y0140701D01*
X0057784Y0140680D01*
X0057666Y0140655D01*
X0057550Y0140626D01*
X0057434Y0140593D01*
X0057320Y0140557D01*
X0057206Y0140517D01*
X0057094Y0140473D01*
X0056984Y0140426D01*
X0056875Y0140375D01*
X0058500Y0138250D02*
X0058620Y0138252D01*
X0058740Y0138258D01*
X0058860Y0138268D01*
X0058979Y0138281D01*
X0059098Y0138299D01*
X0059216Y0138320D01*
X0059334Y0138345D01*
X0059450Y0138374D01*
X0059566Y0138407D01*
X0059680Y0138443D01*
X0059794Y0138483D01*
X0059906Y0138527D01*
X0060016Y0138574D01*
X0060125Y0138625D01*
X0058500Y0138250D02*
X0058380Y0138252D01*
X0058260Y0138258D01*
X0058140Y0138268D01*
X0058021Y0138281D01*
X0057902Y0138299D01*
X0057784Y0138320D01*
X0057666Y0138345D01*
X0057550Y0138374D01*
X0057434Y0138407D01*
X0057320Y0138443D01*
X0057206Y0138483D01*
X0057094Y0138527D01*
X0056984Y0138574D01*
X0056875Y0138625D01*
X0058125Y0173025D02*
X0058875Y0174400D01*
X0060750Y0173900D02*
X0060748Y0173812D01*
X0060743Y0173725D01*
X0060734Y0173637D01*
X0060721Y0173550D01*
X0060705Y0173464D01*
X0060685Y0173379D01*
X0060661Y0173294D01*
X0060634Y0173210D01*
X0060604Y0173128D01*
X0060570Y0173047D01*
X0060533Y0172967D01*
X0060493Y0172889D01*
X0060449Y0172813D01*
X0060402Y0172739D01*
X0060353Y0172667D01*
X0060300Y0172596D01*
X0060244Y0172528D01*
X0060186Y0172463D01*
X0060125Y0172400D01*
X0058875Y0174400D02*
X0058908Y0174452D01*
X0058944Y0174503D01*
X0058983Y0174551D01*
X0059025Y0174596D01*
X0059070Y0174639D01*
X0059118Y0174679D01*
X0059167Y0174716D01*
X0059219Y0174750D01*
X0059273Y0174781D01*
X0059329Y0174809D01*
X0059386Y0174833D01*
X0059445Y0174853D01*
X0059504Y0174870D01*
X0059565Y0174883D01*
X0059626Y0174892D01*
X0059688Y0174898D01*
X0059750Y0174900D01*
X0059810Y0174898D01*
X0059871Y0174893D01*
X0059930Y0174884D01*
X0059989Y0174871D01*
X0060048Y0174855D01*
X0060105Y0174835D01*
X0060160Y0174812D01*
X0060215Y0174785D01*
X0060267Y0174756D01*
X0060318Y0174723D01*
X0060367Y0174687D01*
X0060413Y0174649D01*
X0060457Y0174607D01*
X0060499Y0174563D01*
X0060537Y0174517D01*
X0060573Y0174468D01*
X0060606Y0174417D01*
X0060635Y0174365D01*
X0060662Y0174310D01*
X0060685Y0174255D01*
X0060705Y0174198D01*
X0060721Y0174139D01*
X0060734Y0174080D01*
X0060743Y0174021D01*
X0060748Y0173960D01*
X0060750Y0173900D01*
X0056625Y0174650D02*
X0056578Y0174585D01*
X0056534Y0174517D01*
X0056493Y0174448D01*
X0056455Y0174377D01*
X0056420Y0174305D01*
X0056388Y0174231D01*
X0056359Y0174156D01*
X0056334Y0174080D01*
X0056312Y0174002D01*
X0056293Y0173924D01*
X0056278Y0173845D01*
X0056266Y0173766D01*
X0056257Y0173686D01*
X0056252Y0173605D01*
X0056250Y0173525D01*
X0056252Y0173465D01*
X0056257Y0173404D01*
X0056266Y0173345D01*
X0056279Y0173286D01*
X0056295Y0173227D01*
X0056315Y0173170D01*
X0056338Y0173115D01*
X0056365Y0173060D01*
X0056394Y0173008D01*
X0056427Y0172957D01*
X0056463Y0172908D01*
X0056501Y0172862D01*
X0056543Y0172818D01*
X0056587Y0172776D01*
X0056633Y0172738D01*
X0056682Y0172702D01*
X0056733Y0172669D01*
X0056785Y0172640D01*
X0056840Y0172613D01*
X0056895Y0172590D01*
X0056952Y0172570D01*
X0057011Y0172554D01*
X0057070Y0172541D01*
X0057129Y0172532D01*
X0057190Y0172527D01*
X0057250Y0172525D01*
X0057312Y0172527D01*
X0057374Y0172533D01*
X0057435Y0172542D01*
X0057496Y0172555D01*
X0057555Y0172572D01*
X0057614Y0172592D01*
X0057671Y0172616D01*
X0057727Y0172644D01*
X0057781Y0172675D01*
X0057833Y0172709D01*
X0057882Y0172746D01*
X0057930Y0172786D01*
X0057975Y0172829D01*
X0058017Y0172874D01*
X0058056Y0172922D01*
X0058092Y0172973D01*
X0058125Y0173025D01*
X0056250Y0176500D02*
X0060750Y0178000D01*
X0056250Y0179500D01*
X0057250Y0181250D02*
X0056250Y0182500D01*
X0060750Y0182500D01*
X0060750Y0181250D02*
X0060750Y0183750D01*
X0068283Y0205650D02*
X0068283Y0210150D01*
X0069533Y0210150D01*
X0069602Y0210148D01*
X0069671Y0210142D01*
X0069739Y0210133D01*
X0069806Y0210120D01*
X0069873Y0210103D01*
X0069939Y0210082D01*
X0070003Y0210058D01*
X0070066Y0210030D01*
X0070128Y0209999D01*
X0070188Y0209965D01*
X0070245Y0209927D01*
X0070301Y0209886D01*
X0070354Y0209843D01*
X0070405Y0209796D01*
X0070453Y0209747D01*
X0070498Y0209695D01*
X0070540Y0209640D01*
X0070579Y0209584D01*
X0070616Y0209525D01*
X0070648Y0209464D01*
X0070678Y0209402D01*
X0070704Y0209338D01*
X0070726Y0209273D01*
X0070745Y0209207D01*
X0070760Y0209140D01*
X0070771Y0209072D01*
X0070779Y0209003D01*
X0070783Y0208934D01*
X0070783Y0208866D01*
X0070779Y0208797D01*
X0070771Y0208728D01*
X0070760Y0208660D01*
X0070745Y0208593D01*
X0070726Y0208527D01*
X0070704Y0208462D01*
X0070678Y0208398D01*
X0070648Y0208336D01*
X0070616Y0208275D01*
X0070579Y0208216D01*
X0070540Y0208160D01*
X0070498Y0208105D01*
X0070453Y0208053D01*
X0070405Y0208004D01*
X0070354Y0207957D01*
X0070301Y0207914D01*
X0070245Y0207873D01*
X0070188Y0207835D01*
X0070128Y0207801D01*
X0070066Y0207770D01*
X0070003Y0207742D01*
X0069939Y0207718D01*
X0069873Y0207697D01*
X0069806Y0207680D01*
X0069739Y0207667D01*
X0069671Y0207658D01*
X0069602Y0207652D01*
X0069533Y0207650D01*
X0068283Y0207650D01*
X0069783Y0207650D02*
X0070783Y0205650D01*
X0072750Y0206650D02*
X0075250Y0206650D01*
X0074500Y0207650D02*
X0074500Y0205650D01*
X0072750Y0206650D02*
X0073750Y0210150D01*
X0086783Y0175650D02*
X0088033Y0175650D01*
X0088102Y0175648D01*
X0088171Y0175642D01*
X0088239Y0175633D01*
X0088306Y0175620D01*
X0088373Y0175603D01*
X0088439Y0175582D01*
X0088503Y0175558D01*
X0088566Y0175530D01*
X0088628Y0175499D01*
X0088688Y0175465D01*
X0088745Y0175427D01*
X0088801Y0175386D01*
X0088854Y0175343D01*
X0088905Y0175296D01*
X0088953Y0175247D01*
X0088998Y0175195D01*
X0089040Y0175140D01*
X0089079Y0175084D01*
X0089116Y0175025D01*
X0089148Y0174964D01*
X0089178Y0174902D01*
X0089204Y0174838D01*
X0089226Y0174773D01*
X0089245Y0174707D01*
X0089260Y0174640D01*
X0089271Y0174572D01*
X0089279Y0174503D01*
X0089283Y0174434D01*
X0089283Y0174366D01*
X0089279Y0174297D01*
X0089271Y0174228D01*
X0089260Y0174160D01*
X0089245Y0174093D01*
X0089226Y0174027D01*
X0089204Y0173962D01*
X0089178Y0173898D01*
X0089148Y0173836D01*
X0089116Y0173775D01*
X0089079Y0173716D01*
X0089040Y0173660D01*
X0088998Y0173605D01*
X0088953Y0173553D01*
X0088905Y0173504D01*
X0088854Y0173457D01*
X0088801Y0173414D01*
X0088745Y0173373D01*
X0088688Y0173335D01*
X0088628Y0173301D01*
X0088566Y0173270D01*
X0088503Y0173242D01*
X0088439Y0173218D01*
X0088373Y0173197D01*
X0088306Y0173180D01*
X0088239Y0173167D01*
X0088171Y0173158D01*
X0088102Y0173152D01*
X0088033Y0173150D01*
X0086783Y0173150D01*
X0088283Y0173150D02*
X0089283Y0171150D01*
X0091250Y0171150D02*
X0092750Y0171150D01*
X0092810Y0171152D01*
X0092871Y0171157D01*
X0092930Y0171166D01*
X0092989Y0171179D01*
X0093048Y0171195D01*
X0093105Y0171215D01*
X0093160Y0171238D01*
X0093215Y0171265D01*
X0093267Y0171294D01*
X0093318Y0171327D01*
X0093367Y0171363D01*
X0093413Y0171401D01*
X0093457Y0171443D01*
X0093499Y0171487D01*
X0093537Y0171533D01*
X0093573Y0171582D01*
X0093606Y0171633D01*
X0093635Y0171685D01*
X0093662Y0171740D01*
X0093685Y0171795D01*
X0093705Y0171852D01*
X0093721Y0171911D01*
X0093734Y0171970D01*
X0093743Y0172029D01*
X0093748Y0172090D01*
X0093750Y0172150D01*
X0093750Y0172650D01*
X0093748Y0172710D01*
X0093743Y0172771D01*
X0093734Y0172830D01*
X0093721Y0172889D01*
X0093705Y0172948D01*
X0093685Y0173005D01*
X0093662Y0173060D01*
X0093635Y0173115D01*
X0093606Y0173167D01*
X0093573Y0173218D01*
X0093537Y0173267D01*
X0093499Y0173313D01*
X0093457Y0173357D01*
X0093413Y0173399D01*
X0093367Y0173437D01*
X0093318Y0173473D01*
X0093267Y0173506D01*
X0093215Y0173535D01*
X0093160Y0173562D01*
X0093105Y0173585D01*
X0093048Y0173605D01*
X0092989Y0173621D01*
X0092930Y0173634D01*
X0092871Y0173643D01*
X0092810Y0173648D01*
X0092750Y0173650D01*
X0091250Y0173650D01*
X0091250Y0175650D01*
X0093750Y0175650D01*
X0086783Y0175650D02*
X0086783Y0171150D01*
X0091177Y0159252D02*
X0091177Y0141535D01*
X0123264Y0141535D01*
X0125035Y0143307D01*
X0125232Y0143504D01*
X0125429Y0143701D01*
X0125429Y0144094D01*
X0125429Y0159252D01*
X0091177Y0159252D01*
X0094783Y0121150D02*
X0096033Y0121150D01*
X0096102Y0121148D01*
X0096171Y0121142D01*
X0096239Y0121133D01*
X0096306Y0121120D01*
X0096373Y0121103D01*
X0096439Y0121082D01*
X0096503Y0121058D01*
X0096566Y0121030D01*
X0096628Y0120999D01*
X0096688Y0120965D01*
X0096745Y0120927D01*
X0096801Y0120886D01*
X0096854Y0120843D01*
X0096905Y0120796D01*
X0096953Y0120747D01*
X0096998Y0120695D01*
X0097040Y0120640D01*
X0097079Y0120584D01*
X0097116Y0120525D01*
X0097148Y0120464D01*
X0097178Y0120402D01*
X0097204Y0120338D01*
X0097226Y0120273D01*
X0097245Y0120207D01*
X0097260Y0120140D01*
X0097271Y0120072D01*
X0097279Y0120003D01*
X0097283Y0119934D01*
X0097283Y0119866D01*
X0097279Y0119797D01*
X0097271Y0119728D01*
X0097260Y0119660D01*
X0097245Y0119593D01*
X0097226Y0119527D01*
X0097204Y0119462D01*
X0097178Y0119398D01*
X0097148Y0119336D01*
X0097116Y0119275D01*
X0097079Y0119216D01*
X0097040Y0119160D01*
X0096998Y0119105D01*
X0096953Y0119053D01*
X0096905Y0119004D01*
X0096854Y0118957D01*
X0096801Y0118914D01*
X0096745Y0118873D01*
X0096688Y0118835D01*
X0096628Y0118801D01*
X0096566Y0118770D01*
X0096503Y0118742D01*
X0096439Y0118718D01*
X0096373Y0118697D01*
X0096306Y0118680D01*
X0096239Y0118667D01*
X0096171Y0118658D01*
X0096102Y0118652D01*
X0096033Y0118650D01*
X0094783Y0118650D01*
X0096283Y0118650D02*
X0097283Y0116650D01*
X0099250Y0116650D02*
X0101750Y0116650D01*
X0100500Y0116650D02*
X0100500Y0121150D01*
X0099250Y0120150D01*
X0094783Y0121150D02*
X0094783Y0116650D01*
X0094783Y0106150D02*
X0096033Y0106150D01*
X0096102Y0106148D01*
X0096171Y0106142D01*
X0096239Y0106133D01*
X0096306Y0106120D01*
X0096373Y0106103D01*
X0096439Y0106082D01*
X0096503Y0106058D01*
X0096566Y0106030D01*
X0096628Y0105999D01*
X0096688Y0105965D01*
X0096745Y0105927D01*
X0096801Y0105886D01*
X0096854Y0105843D01*
X0096905Y0105796D01*
X0096953Y0105747D01*
X0096998Y0105695D01*
X0097040Y0105640D01*
X0097079Y0105584D01*
X0097116Y0105525D01*
X0097148Y0105464D01*
X0097178Y0105402D01*
X0097204Y0105338D01*
X0097226Y0105273D01*
X0097245Y0105207D01*
X0097260Y0105140D01*
X0097271Y0105072D01*
X0097279Y0105003D01*
X0097283Y0104934D01*
X0097283Y0104866D01*
X0097279Y0104797D01*
X0097271Y0104728D01*
X0097260Y0104660D01*
X0097245Y0104593D01*
X0097226Y0104527D01*
X0097204Y0104462D01*
X0097178Y0104398D01*
X0097148Y0104336D01*
X0097116Y0104275D01*
X0097079Y0104216D01*
X0097040Y0104160D01*
X0096998Y0104105D01*
X0096953Y0104053D01*
X0096905Y0104004D01*
X0096854Y0103957D01*
X0096801Y0103914D01*
X0096745Y0103873D01*
X0096688Y0103835D01*
X0096628Y0103801D01*
X0096566Y0103770D01*
X0096503Y0103742D01*
X0096439Y0103718D01*
X0096373Y0103697D01*
X0096306Y0103680D01*
X0096239Y0103667D01*
X0096171Y0103658D01*
X0096102Y0103652D01*
X0096033Y0103650D01*
X0094783Y0103650D01*
X0096283Y0103650D02*
X0097283Y0101650D01*
X0099250Y0101650D02*
X0101750Y0101650D01*
X0099250Y0101650D02*
X0101375Y0104150D01*
X0100625Y0106150D02*
X0100552Y0106148D01*
X0100480Y0106143D01*
X0100408Y0106134D01*
X0100336Y0106121D01*
X0100265Y0106105D01*
X0100195Y0106085D01*
X0100127Y0106061D01*
X0100059Y0106035D01*
X0099993Y0106004D01*
X0099928Y0105971D01*
X0099866Y0105934D01*
X0099805Y0105895D01*
X0099746Y0105852D01*
X0099689Y0105806D01*
X0099635Y0105758D01*
X0099584Y0105707D01*
X0099534Y0105653D01*
X0099488Y0105597D01*
X0099445Y0105539D01*
X0099404Y0105478D01*
X0099367Y0105416D01*
X0099333Y0105352D01*
X0099302Y0105286D01*
X0099274Y0105219D01*
X0099250Y0105150D01*
X0101375Y0104150D02*
X0101421Y0104196D01*
X0101465Y0104245D01*
X0101505Y0104296D01*
X0101543Y0104349D01*
X0101578Y0104404D01*
X0101610Y0104461D01*
X0101639Y0104519D01*
X0101665Y0104579D01*
X0101687Y0104641D01*
X0101706Y0104703D01*
X0101722Y0104766D01*
X0101734Y0104830D01*
X0101743Y0104895D01*
X0101748Y0104960D01*
X0101750Y0105025D01*
X0101748Y0105090D01*
X0101742Y0105156D01*
X0101733Y0105220D01*
X0101720Y0105284D01*
X0101703Y0105348D01*
X0101682Y0105410D01*
X0101658Y0105471D01*
X0101630Y0105530D01*
X0101599Y0105588D01*
X0101565Y0105643D01*
X0101527Y0105697D01*
X0101487Y0105748D01*
X0101443Y0105797D01*
X0101397Y0105843D01*
X0101348Y0105887D01*
X0101297Y0105927D01*
X0101243Y0105965D01*
X0101188Y0105999D01*
X0101130Y0106030D01*
X0101071Y0106058D01*
X0101010Y0106082D01*
X0100948Y0106103D01*
X0100884Y0106120D01*
X0100820Y0106133D01*
X0100756Y0106142D01*
X0100690Y0106148D01*
X0100625Y0106150D01*
X0094783Y0106150D02*
X0094783Y0101650D01*
X0091177Y0094252D02*
X0091177Y0076535D01*
X0123264Y0076535D01*
X0125035Y0078307D01*
X0125232Y0078504D01*
X0125429Y0078701D01*
X0125429Y0079094D01*
X0125429Y0094252D01*
X0091177Y0094252D01*
X0081750Y0076150D02*
X0080500Y0071650D01*
X0079250Y0075650D02*
X0079250Y0076150D01*
X0081750Y0076150D01*
X0076283Y0073650D02*
X0077283Y0071650D01*
X0076033Y0073650D02*
X0074783Y0073650D01*
X0076033Y0073650D02*
X0076102Y0073652D01*
X0076171Y0073658D01*
X0076239Y0073667D01*
X0076306Y0073680D01*
X0076373Y0073697D01*
X0076439Y0073718D01*
X0076503Y0073742D01*
X0076566Y0073770D01*
X0076628Y0073801D01*
X0076688Y0073835D01*
X0076745Y0073873D01*
X0076801Y0073914D01*
X0076854Y0073957D01*
X0076905Y0074004D01*
X0076953Y0074053D01*
X0076998Y0074105D01*
X0077040Y0074160D01*
X0077079Y0074216D01*
X0077116Y0074275D01*
X0077148Y0074336D01*
X0077178Y0074398D01*
X0077204Y0074462D01*
X0077226Y0074527D01*
X0077245Y0074593D01*
X0077260Y0074660D01*
X0077271Y0074728D01*
X0077279Y0074797D01*
X0077283Y0074866D01*
X0077283Y0074934D01*
X0077279Y0075003D01*
X0077271Y0075072D01*
X0077260Y0075140D01*
X0077245Y0075207D01*
X0077226Y0075273D01*
X0077204Y0075338D01*
X0077178Y0075402D01*
X0077148Y0075464D01*
X0077116Y0075525D01*
X0077079Y0075584D01*
X0077040Y0075640D01*
X0076998Y0075695D01*
X0076953Y0075747D01*
X0076905Y0075796D01*
X0076854Y0075843D01*
X0076801Y0075886D01*
X0076745Y0075927D01*
X0076688Y0075965D01*
X0076628Y0075999D01*
X0076566Y0076030D01*
X0076503Y0076058D01*
X0076439Y0076082D01*
X0076373Y0076103D01*
X0076306Y0076120D01*
X0076239Y0076133D01*
X0076171Y0076142D01*
X0076102Y0076148D01*
X0076033Y0076150D01*
X0074783Y0076150D01*
X0074783Y0071650D01*
X0091177Y0029252D02*
X0091177Y0011535D01*
X0123264Y0011535D01*
X0125035Y0013307D01*
X0125232Y0013504D01*
X0125429Y0013701D01*
X0125429Y0014094D01*
X0125429Y0029252D01*
X0091177Y0029252D01*
X0081750Y0008150D02*
X0081750Y0007900D01*
X0081750Y0008150D02*
X0081748Y0008210D01*
X0081743Y0008271D01*
X0081734Y0008330D01*
X0081721Y0008389D01*
X0081705Y0008448D01*
X0081685Y0008505D01*
X0081662Y0008560D01*
X0081635Y0008615D01*
X0081606Y0008667D01*
X0081573Y0008718D01*
X0081537Y0008767D01*
X0081499Y0008813D01*
X0081457Y0008857D01*
X0081413Y0008899D01*
X0081367Y0008937D01*
X0081318Y0008973D01*
X0081267Y0009006D01*
X0081215Y0009035D01*
X0081160Y0009062D01*
X0081105Y0009085D01*
X0081048Y0009105D01*
X0080989Y0009121D01*
X0080930Y0009134D01*
X0080871Y0009143D01*
X0080810Y0009148D01*
X0080750Y0009150D01*
X0079250Y0009150D01*
X0079250Y0007900D01*
X0079252Y0007831D01*
X0079258Y0007762D01*
X0079267Y0007694D01*
X0079280Y0007627D01*
X0079297Y0007560D01*
X0079318Y0007494D01*
X0079342Y0007430D01*
X0079370Y0007367D01*
X0079401Y0007305D01*
X0079435Y0007245D01*
X0079473Y0007188D01*
X0079514Y0007132D01*
X0079557Y0007079D01*
X0079604Y0007028D01*
X0079653Y0006980D01*
X0079705Y0006935D01*
X0079760Y0006893D01*
X0079816Y0006854D01*
X0079875Y0006817D01*
X0079936Y0006785D01*
X0079998Y0006755D01*
X0080062Y0006729D01*
X0080127Y0006707D01*
X0080193Y0006688D01*
X0080260Y0006673D01*
X0080328Y0006662D01*
X0080397Y0006654D01*
X0080466Y0006650D01*
X0080534Y0006650D01*
X0080603Y0006654D01*
X0080672Y0006662D01*
X0080740Y0006673D01*
X0080807Y0006688D01*
X0080873Y0006707D01*
X0080938Y0006729D01*
X0081002Y0006755D01*
X0081064Y0006785D01*
X0081125Y0006817D01*
X0081184Y0006854D01*
X0081240Y0006893D01*
X0081295Y0006935D01*
X0081347Y0006980D01*
X0081396Y0007028D01*
X0081443Y0007079D01*
X0081486Y0007132D01*
X0081527Y0007188D01*
X0081565Y0007245D01*
X0081599Y0007305D01*
X0081630Y0007367D01*
X0081658Y0007430D01*
X0081682Y0007494D01*
X0081703Y0007560D01*
X0081720Y0007627D01*
X0081733Y0007694D01*
X0081742Y0007762D01*
X0081748Y0007831D01*
X0081750Y0007900D01*
X0079250Y0009150D02*
X0079252Y0009237D01*
X0079258Y0009324D01*
X0079267Y0009411D01*
X0079280Y0009497D01*
X0079297Y0009583D01*
X0079318Y0009668D01*
X0079343Y0009751D01*
X0079371Y0009834D01*
X0079402Y0009915D01*
X0079437Y0009995D01*
X0079476Y0010073D01*
X0079518Y0010150D01*
X0079563Y0010225D01*
X0079612Y0010297D01*
X0079663Y0010368D01*
X0079718Y0010436D01*
X0079775Y0010501D01*
X0079836Y0010564D01*
X0079899Y0010625D01*
X0079964Y0010682D01*
X0080032Y0010737D01*
X0080103Y0010788D01*
X0080175Y0010837D01*
X0080250Y0010882D01*
X0080327Y0010924D01*
X0080405Y0010963D01*
X0080485Y0010998D01*
X0080566Y0011029D01*
X0080649Y0011057D01*
X0080732Y0011082D01*
X0080817Y0011103D01*
X0080903Y0011120D01*
X0080989Y0011133D01*
X0081076Y0011142D01*
X0081163Y0011148D01*
X0081250Y0011150D01*
X0076283Y0008650D02*
X0077283Y0006650D01*
X0076033Y0008650D02*
X0074783Y0008650D01*
X0076033Y0008650D02*
X0076102Y0008652D01*
X0076171Y0008658D01*
X0076239Y0008667D01*
X0076306Y0008680D01*
X0076373Y0008697D01*
X0076439Y0008718D01*
X0076503Y0008742D01*
X0076566Y0008770D01*
X0076628Y0008801D01*
X0076688Y0008835D01*
X0076745Y0008873D01*
X0076801Y0008914D01*
X0076854Y0008957D01*
X0076905Y0009004D01*
X0076953Y0009053D01*
X0076998Y0009105D01*
X0077040Y0009160D01*
X0077079Y0009216D01*
X0077116Y0009275D01*
X0077148Y0009336D01*
X0077178Y0009398D01*
X0077204Y0009462D01*
X0077226Y0009527D01*
X0077245Y0009593D01*
X0077260Y0009660D01*
X0077271Y0009728D01*
X0077279Y0009797D01*
X0077283Y0009866D01*
X0077283Y0009934D01*
X0077279Y0010003D01*
X0077271Y0010072D01*
X0077260Y0010140D01*
X0077245Y0010207D01*
X0077226Y0010273D01*
X0077204Y0010338D01*
X0077178Y0010402D01*
X0077148Y0010464D01*
X0077116Y0010525D01*
X0077079Y0010584D01*
X0077040Y0010640D01*
X0076998Y0010695D01*
X0076953Y0010747D01*
X0076905Y0010796D01*
X0076854Y0010843D01*
X0076801Y0010886D01*
X0076745Y0010927D01*
X0076688Y0010965D01*
X0076628Y0010999D01*
X0076566Y0011030D01*
X0076503Y0011058D01*
X0076439Y0011082D01*
X0076373Y0011103D01*
X0076306Y0011120D01*
X0076239Y0011133D01*
X0076171Y0011142D01*
X0076102Y0011148D01*
X0076033Y0011150D01*
X0074783Y0011150D01*
X0074783Y0006650D01*
X0044515Y0064250D02*
X0042015Y0064250D01*
X0044140Y0066750D01*
X0043390Y0068750D02*
X0043317Y0068748D01*
X0043245Y0068743D01*
X0043173Y0068734D01*
X0043101Y0068721D01*
X0043030Y0068705D01*
X0042960Y0068685D01*
X0042892Y0068661D01*
X0042824Y0068635D01*
X0042758Y0068604D01*
X0042693Y0068571D01*
X0042631Y0068534D01*
X0042570Y0068495D01*
X0042511Y0068452D01*
X0042454Y0068406D01*
X0042400Y0068358D01*
X0042349Y0068307D01*
X0042299Y0068253D01*
X0042253Y0068197D01*
X0042210Y0068139D01*
X0042169Y0068078D01*
X0042132Y0068016D01*
X0042098Y0067952D01*
X0042067Y0067886D01*
X0042039Y0067819D01*
X0042015Y0067750D01*
X0044139Y0066750D02*
X0044185Y0066796D01*
X0044229Y0066845D01*
X0044269Y0066896D01*
X0044307Y0066949D01*
X0044342Y0067004D01*
X0044374Y0067061D01*
X0044403Y0067119D01*
X0044429Y0067179D01*
X0044451Y0067241D01*
X0044470Y0067303D01*
X0044486Y0067366D01*
X0044498Y0067430D01*
X0044507Y0067495D01*
X0044512Y0067560D01*
X0044514Y0067625D01*
X0044515Y0067625D02*
X0044513Y0067690D01*
X0044507Y0067756D01*
X0044498Y0067820D01*
X0044485Y0067884D01*
X0044468Y0067948D01*
X0044447Y0068010D01*
X0044423Y0068071D01*
X0044395Y0068130D01*
X0044364Y0068188D01*
X0044330Y0068243D01*
X0044292Y0068297D01*
X0044252Y0068348D01*
X0044208Y0068397D01*
X0044162Y0068443D01*
X0044113Y0068487D01*
X0044062Y0068527D01*
X0044008Y0068565D01*
X0043953Y0068599D01*
X0043895Y0068630D01*
X0043836Y0068658D01*
X0043775Y0068682D01*
X0043713Y0068703D01*
X0043649Y0068720D01*
X0043585Y0068733D01*
X0043521Y0068742D01*
X0043455Y0068748D01*
X0043390Y0068750D01*
X0040250Y0068750D02*
X0039250Y0068750D01*
X0039190Y0068748D01*
X0039129Y0068743D01*
X0039070Y0068734D01*
X0039011Y0068721D01*
X0038952Y0068705D01*
X0038895Y0068685D01*
X0038840Y0068662D01*
X0038785Y0068635D01*
X0038733Y0068606D01*
X0038682Y0068573D01*
X0038633Y0068537D01*
X0038587Y0068499D01*
X0038543Y0068457D01*
X0038501Y0068413D01*
X0038463Y0068367D01*
X0038427Y0068318D01*
X0038394Y0068267D01*
X0038365Y0068215D01*
X0038338Y0068160D01*
X0038315Y0068105D01*
X0038295Y0068048D01*
X0038279Y0067989D01*
X0038266Y0067930D01*
X0038257Y0067871D01*
X0038252Y0067810D01*
X0038250Y0067750D01*
X0038250Y0065250D01*
X0038252Y0065190D01*
X0038257Y0065129D01*
X0038266Y0065070D01*
X0038279Y0065011D01*
X0038295Y0064952D01*
X0038315Y0064895D01*
X0038338Y0064840D01*
X0038365Y0064785D01*
X0038394Y0064733D01*
X0038427Y0064682D01*
X0038463Y0064633D01*
X0038501Y0064587D01*
X0038543Y0064543D01*
X0038587Y0064501D01*
X0038633Y0064463D01*
X0038682Y0064427D01*
X0038733Y0064394D01*
X0038785Y0064365D01*
X0038840Y0064338D01*
X0038895Y0064315D01*
X0038952Y0064295D01*
X0039011Y0064279D01*
X0039070Y0064266D01*
X0039129Y0064257D01*
X0039190Y0064252D01*
X0039250Y0064250D01*
X0040250Y0064250D01*
X0032750Y0178250D02*
X0032750Y0180750D01*
X0032750Y0179500D02*
X0028250Y0179500D01*
X0029250Y0178250D01*
X0045485Y0207750D02*
X0046485Y0207750D01*
X0045485Y0207750D02*
X0045425Y0207752D01*
X0045364Y0207757D01*
X0045305Y0207766D01*
X0045246Y0207779D01*
X0045187Y0207795D01*
X0045130Y0207815D01*
X0045075Y0207838D01*
X0045020Y0207865D01*
X0044968Y0207894D01*
X0044917Y0207927D01*
X0044868Y0207963D01*
X0044822Y0208001D01*
X0044778Y0208043D01*
X0044736Y0208087D01*
X0044698Y0208133D01*
X0044662Y0208182D01*
X0044629Y0208233D01*
X0044600Y0208285D01*
X0044573Y0208340D01*
X0044550Y0208395D01*
X0044530Y0208452D01*
X0044514Y0208511D01*
X0044501Y0208570D01*
X0044492Y0208629D01*
X0044487Y0208690D01*
X0044485Y0208750D01*
X0044485Y0211250D01*
X0044487Y0211310D01*
X0044492Y0211371D01*
X0044501Y0211430D01*
X0044514Y0211489D01*
X0044530Y0211548D01*
X0044550Y0211605D01*
X0044573Y0211660D01*
X0044600Y0211715D01*
X0044629Y0211767D01*
X0044662Y0211818D01*
X0044698Y0211867D01*
X0044736Y0211913D01*
X0044778Y0211957D01*
X0044822Y0211999D01*
X0044868Y0212037D01*
X0044917Y0212073D01*
X0044968Y0212106D01*
X0045020Y0212135D01*
X0045075Y0212162D01*
X0045130Y0212185D01*
X0045187Y0212205D01*
X0045246Y0212221D01*
X0045305Y0212234D01*
X0045364Y0212243D01*
X0045425Y0212248D01*
X0045485Y0212250D01*
X0046485Y0212250D01*
X0048250Y0212250D02*
X0049750Y0212250D01*
X0049812Y0212248D01*
X0049873Y0212242D01*
X0049934Y0212233D01*
X0049994Y0212220D01*
X0050053Y0212203D01*
X0050111Y0212182D01*
X0050168Y0212158D01*
X0050223Y0212131D01*
X0050276Y0212100D01*
X0050328Y0212066D01*
X0050377Y0212029D01*
X0050424Y0211989D01*
X0050468Y0211946D01*
X0050509Y0211901D01*
X0050548Y0211853D01*
X0050584Y0211802D01*
X0050616Y0211750D01*
X0050645Y0211696D01*
X0050671Y0211640D01*
X0050693Y0211582D01*
X0050712Y0211524D01*
X0050727Y0211464D01*
X0050738Y0211403D01*
X0050746Y0211342D01*
X0050750Y0211281D01*
X0050750Y0211219D01*
X0050746Y0211158D01*
X0050738Y0211097D01*
X0050727Y0211036D01*
X0050712Y0210976D01*
X0050693Y0210918D01*
X0050671Y0210860D01*
X0050645Y0210804D01*
X0050616Y0210750D01*
X0050584Y0210698D01*
X0050548Y0210647D01*
X0050509Y0210599D01*
X0050468Y0210554D01*
X0050424Y0210511D01*
X0050377Y0210471D01*
X0050328Y0210434D01*
X0050276Y0210400D01*
X0050223Y0210369D01*
X0050168Y0210342D01*
X0050111Y0210318D01*
X0050053Y0210297D01*
X0049994Y0210280D01*
X0049934Y0210267D01*
X0049873Y0210258D01*
X0049812Y0210252D01*
X0049750Y0210250D01*
X0048750Y0210250D01*
X0049500Y0210250D02*
X0049569Y0210248D01*
X0049638Y0210242D01*
X0049706Y0210233D01*
X0049773Y0210220D01*
X0049840Y0210203D01*
X0049906Y0210182D01*
X0049970Y0210158D01*
X0050033Y0210130D01*
X0050095Y0210099D01*
X0050155Y0210065D01*
X0050212Y0210027D01*
X0050268Y0209986D01*
X0050321Y0209943D01*
X0050372Y0209896D01*
X0050420Y0209847D01*
X0050465Y0209795D01*
X0050507Y0209740D01*
X0050546Y0209684D01*
X0050583Y0209625D01*
X0050615Y0209564D01*
X0050645Y0209502D01*
X0050671Y0209438D01*
X0050693Y0209373D01*
X0050712Y0209307D01*
X0050727Y0209240D01*
X0050738Y0209172D01*
X0050746Y0209103D01*
X0050750Y0209034D01*
X0050750Y0208966D01*
X0050746Y0208897D01*
X0050738Y0208828D01*
X0050727Y0208760D01*
X0050712Y0208693D01*
X0050693Y0208627D01*
X0050671Y0208562D01*
X0050645Y0208498D01*
X0050615Y0208436D01*
X0050583Y0208375D01*
X0050546Y0208316D01*
X0050507Y0208260D01*
X0050465Y0208205D01*
X0050420Y0208153D01*
X0050372Y0208104D01*
X0050321Y0208057D01*
X0050268Y0208014D01*
X0050212Y0207973D01*
X0050155Y0207935D01*
X0050095Y0207901D01*
X0050033Y0207870D01*
X0049970Y0207842D01*
X0049906Y0207818D01*
X0049840Y0207797D01*
X0049773Y0207780D01*
X0049706Y0207767D01*
X0049638Y0207758D01*
X0049569Y0207752D01*
X0049500Y0207750D01*
X0048250Y0207750D01*
X0049485Y0228750D02*
X0050485Y0228750D01*
X0049485Y0228750D02*
X0049425Y0228752D01*
X0049364Y0228757D01*
X0049305Y0228766D01*
X0049246Y0228779D01*
X0049187Y0228795D01*
X0049130Y0228815D01*
X0049075Y0228838D01*
X0049020Y0228865D01*
X0048968Y0228894D01*
X0048917Y0228927D01*
X0048868Y0228963D01*
X0048822Y0229001D01*
X0048778Y0229043D01*
X0048736Y0229087D01*
X0048698Y0229133D01*
X0048662Y0229182D01*
X0048629Y0229233D01*
X0048600Y0229285D01*
X0048573Y0229340D01*
X0048550Y0229395D01*
X0048530Y0229452D01*
X0048514Y0229511D01*
X0048501Y0229570D01*
X0048492Y0229629D01*
X0048487Y0229690D01*
X0048485Y0229750D01*
X0048485Y0232250D01*
X0048487Y0232310D01*
X0048492Y0232371D01*
X0048501Y0232430D01*
X0048514Y0232489D01*
X0048530Y0232548D01*
X0048550Y0232605D01*
X0048573Y0232660D01*
X0048600Y0232715D01*
X0048629Y0232767D01*
X0048662Y0232818D01*
X0048698Y0232867D01*
X0048736Y0232913D01*
X0048778Y0232957D01*
X0048822Y0232999D01*
X0048868Y0233037D01*
X0048917Y0233073D01*
X0048968Y0233106D01*
X0049020Y0233135D01*
X0049075Y0233162D01*
X0049130Y0233185D01*
X0049187Y0233205D01*
X0049246Y0233221D01*
X0049305Y0233234D01*
X0049364Y0233243D01*
X0049425Y0233248D01*
X0049485Y0233250D01*
X0050485Y0233250D01*
X0053250Y0233250D02*
X0052250Y0229750D01*
X0054750Y0229750D01*
X0054000Y0230750D02*
X0054000Y0228750D01*
X0067783Y0271150D02*
X0067783Y0275650D01*
X0069033Y0275650D01*
X0069102Y0275648D01*
X0069171Y0275642D01*
X0069239Y0275633D01*
X0069306Y0275620D01*
X0069373Y0275603D01*
X0069439Y0275582D01*
X0069503Y0275558D01*
X0069566Y0275530D01*
X0069628Y0275499D01*
X0069688Y0275465D01*
X0069745Y0275427D01*
X0069801Y0275386D01*
X0069854Y0275343D01*
X0069905Y0275296D01*
X0069953Y0275247D01*
X0069998Y0275195D01*
X0070040Y0275140D01*
X0070079Y0275084D01*
X0070116Y0275025D01*
X0070148Y0274964D01*
X0070178Y0274902D01*
X0070204Y0274838D01*
X0070226Y0274773D01*
X0070245Y0274707D01*
X0070260Y0274640D01*
X0070271Y0274572D01*
X0070279Y0274503D01*
X0070283Y0274434D01*
X0070283Y0274366D01*
X0070279Y0274297D01*
X0070271Y0274228D01*
X0070260Y0274160D01*
X0070245Y0274093D01*
X0070226Y0274027D01*
X0070204Y0273962D01*
X0070178Y0273898D01*
X0070148Y0273836D01*
X0070116Y0273775D01*
X0070079Y0273716D01*
X0070040Y0273660D01*
X0069998Y0273605D01*
X0069953Y0273553D01*
X0069905Y0273504D01*
X0069854Y0273457D01*
X0069801Y0273414D01*
X0069745Y0273373D01*
X0069688Y0273335D01*
X0069628Y0273301D01*
X0069566Y0273270D01*
X0069503Y0273242D01*
X0069439Y0273218D01*
X0069373Y0273197D01*
X0069306Y0273180D01*
X0069239Y0273167D01*
X0069171Y0273158D01*
X0069102Y0273152D01*
X0069033Y0273150D01*
X0067783Y0273150D01*
X0069283Y0273150D02*
X0070283Y0271150D01*
X0072250Y0271150D02*
X0073500Y0271150D01*
X0073569Y0271152D01*
X0073638Y0271158D01*
X0073706Y0271167D01*
X0073773Y0271180D01*
X0073840Y0271197D01*
X0073906Y0271218D01*
X0073970Y0271242D01*
X0074033Y0271270D01*
X0074095Y0271301D01*
X0074155Y0271335D01*
X0074212Y0271373D01*
X0074268Y0271414D01*
X0074321Y0271457D01*
X0074372Y0271504D01*
X0074420Y0271553D01*
X0074465Y0271605D01*
X0074507Y0271660D01*
X0074546Y0271716D01*
X0074583Y0271775D01*
X0074615Y0271836D01*
X0074645Y0271898D01*
X0074671Y0271962D01*
X0074693Y0272027D01*
X0074712Y0272093D01*
X0074727Y0272160D01*
X0074738Y0272228D01*
X0074746Y0272297D01*
X0074750Y0272366D01*
X0074750Y0272434D01*
X0074746Y0272503D01*
X0074738Y0272572D01*
X0074727Y0272640D01*
X0074712Y0272707D01*
X0074693Y0272773D01*
X0074671Y0272838D01*
X0074645Y0272902D01*
X0074615Y0272964D01*
X0074583Y0273025D01*
X0074546Y0273084D01*
X0074507Y0273140D01*
X0074465Y0273195D01*
X0074420Y0273247D01*
X0074372Y0273296D01*
X0074321Y0273343D01*
X0074268Y0273386D01*
X0074212Y0273427D01*
X0074155Y0273465D01*
X0074095Y0273499D01*
X0074033Y0273530D01*
X0073970Y0273558D01*
X0073906Y0273582D01*
X0073840Y0273603D01*
X0073773Y0273620D01*
X0073706Y0273633D01*
X0073638Y0273642D01*
X0073569Y0273648D01*
X0073500Y0273650D01*
X0073750Y0273650D02*
X0072750Y0273650D01*
X0073750Y0273650D02*
X0073812Y0273652D01*
X0073873Y0273658D01*
X0073934Y0273667D01*
X0073994Y0273680D01*
X0074053Y0273697D01*
X0074111Y0273718D01*
X0074168Y0273742D01*
X0074223Y0273769D01*
X0074276Y0273800D01*
X0074328Y0273834D01*
X0074377Y0273871D01*
X0074424Y0273911D01*
X0074468Y0273954D01*
X0074509Y0273999D01*
X0074548Y0274047D01*
X0074584Y0274098D01*
X0074616Y0274150D01*
X0074645Y0274204D01*
X0074671Y0274260D01*
X0074693Y0274318D01*
X0074712Y0274376D01*
X0074727Y0274436D01*
X0074738Y0274497D01*
X0074746Y0274558D01*
X0074750Y0274619D01*
X0074750Y0274681D01*
X0074746Y0274742D01*
X0074738Y0274803D01*
X0074727Y0274864D01*
X0074712Y0274924D01*
X0074693Y0274982D01*
X0074671Y0275040D01*
X0074645Y0275096D01*
X0074616Y0275150D01*
X0074584Y0275202D01*
X0074548Y0275253D01*
X0074509Y0275301D01*
X0074468Y0275346D01*
X0074424Y0275389D01*
X0074377Y0275429D01*
X0074328Y0275466D01*
X0074276Y0275500D01*
X0074223Y0275531D01*
X0074168Y0275558D01*
X0074111Y0275582D01*
X0074053Y0275603D01*
X0073994Y0275620D01*
X0073934Y0275633D01*
X0073873Y0275642D01*
X0073812Y0275648D01*
X0073750Y0275650D01*
X0072250Y0275650D01*
X0091177Y0271535D02*
X0123264Y0271535D01*
X0125035Y0273307D01*
X0125232Y0273504D01*
X0125429Y0273701D01*
X0125429Y0274094D01*
X0125429Y0289252D01*
X0091177Y0289252D01*
X0091177Y0271535D01*
X0091177Y0224252D02*
X0091177Y0206535D01*
X0123264Y0206535D01*
X0125035Y0208307D01*
X0125232Y0208504D01*
X0125429Y0208701D01*
X0125429Y0209094D01*
X0125429Y0224252D01*
X0091177Y0224252D01*
D14*
X0053000Y0238500D02*
X0053000Y0241500D01*
X0053000Y0244500D01*
X0051000Y0244500D02*
X0051000Y0241500D01*
X0051000Y0238500D01*
X0048000Y0059500D02*
X0048000Y0056500D01*
X0048000Y0053500D01*
X0046000Y0053500D02*
X0046000Y0056500D01*
X0046000Y0059500D01*
D15*
X0061250Y0081500D03*
X0081250Y0111500D03*
X0081250Y0126500D03*
X0081250Y0166500D03*
X0102750Y0166500D03*
X0102750Y0126500D03*
X0102750Y0111500D03*
X0082750Y0081500D03*
X0082750Y0016500D03*
X0061250Y0016500D03*
X0061250Y0216500D03*
X0082750Y0216500D03*
X0082750Y0281500D03*
X0061250Y0281500D03*
D16*
X0103033Y0227883D02*
X0104439Y0227117D01*
X0103928Y0225200D02*
X0103838Y0225202D01*
X0103749Y0225207D01*
X0103660Y0225217D01*
X0103571Y0225230D01*
X0103483Y0225246D01*
X0103395Y0225267D01*
X0103309Y0225291D01*
X0103223Y0225318D01*
X0103139Y0225349D01*
X0103056Y0225384D01*
X0102975Y0225422D01*
X0102895Y0225463D01*
X0102818Y0225507D01*
X0102742Y0225555D01*
X0102668Y0225606D01*
X0102596Y0225660D01*
X0102527Y0225717D01*
X0102459Y0225776D01*
X0102395Y0225839D01*
X0104439Y0227116D02*
X0104493Y0227082D01*
X0104544Y0227045D01*
X0104593Y0227005D01*
X0104640Y0226962D01*
X0104683Y0226916D01*
X0104724Y0226868D01*
X0104762Y0226817D01*
X0104797Y0226764D01*
X0104829Y0226709D01*
X0104857Y0226652D01*
X0104881Y0226594D01*
X0104902Y0226534D01*
X0104919Y0226473D01*
X0104933Y0226411D01*
X0104942Y0226348D01*
X0104948Y0226285D01*
X0104950Y0226222D01*
X0104948Y0226160D01*
X0104943Y0226099D01*
X0104933Y0226038D01*
X0104920Y0225977D01*
X0104904Y0225918D01*
X0104884Y0225860D01*
X0104860Y0225803D01*
X0104833Y0225747D01*
X0104803Y0225693D01*
X0104769Y0225641D01*
X0104733Y0225592D01*
X0104693Y0225544D01*
X0104651Y0225499D01*
X0104606Y0225457D01*
X0104558Y0225417D01*
X0104509Y0225381D01*
X0104457Y0225347D01*
X0104403Y0225317D01*
X0104347Y0225290D01*
X0104290Y0225266D01*
X0104232Y0225246D01*
X0104173Y0225230D01*
X0104112Y0225217D01*
X0104051Y0225207D01*
X0103990Y0225202D01*
X0103928Y0225200D01*
X0104694Y0229417D02*
X0104627Y0229465D01*
X0104559Y0229510D01*
X0104488Y0229552D01*
X0104415Y0229590D01*
X0104341Y0229626D01*
X0104266Y0229659D01*
X0104189Y0229688D01*
X0104111Y0229714D01*
X0104032Y0229737D01*
X0103952Y0229756D01*
X0103871Y0229772D01*
X0103790Y0229784D01*
X0103708Y0229793D01*
X0103626Y0229798D01*
X0103544Y0229800D01*
X0103482Y0229798D01*
X0103421Y0229793D01*
X0103360Y0229783D01*
X0103299Y0229770D01*
X0103240Y0229754D01*
X0103182Y0229734D01*
X0103125Y0229710D01*
X0103069Y0229683D01*
X0103015Y0229653D01*
X0102963Y0229619D01*
X0102914Y0229583D01*
X0102866Y0229543D01*
X0102821Y0229501D01*
X0102779Y0229456D01*
X0102740Y0229408D01*
X0102703Y0229359D01*
X0102669Y0229307D01*
X0102639Y0229253D01*
X0102612Y0229197D01*
X0102588Y0229140D01*
X0102568Y0229082D01*
X0102552Y0229023D01*
X0102539Y0228962D01*
X0102529Y0228901D01*
X0102524Y0228840D01*
X0102522Y0228778D01*
X0102524Y0228715D01*
X0102530Y0228652D01*
X0102539Y0228589D01*
X0102553Y0228527D01*
X0102570Y0228466D01*
X0102591Y0228406D01*
X0102615Y0228348D01*
X0102643Y0228291D01*
X0102675Y0228236D01*
X0102710Y0228183D01*
X0102748Y0228132D01*
X0102789Y0228084D01*
X0102832Y0228038D01*
X0102879Y0227995D01*
X0102928Y0227955D01*
X0102979Y0227918D01*
X0103033Y0227884D01*
X0106744Y0225200D02*
X0109300Y0225200D01*
X0106744Y0225200D02*
X0108917Y0227756D01*
X0108150Y0229800D02*
X0108076Y0229798D01*
X0108002Y0229793D01*
X0107928Y0229783D01*
X0107855Y0229770D01*
X0107782Y0229754D01*
X0107711Y0229733D01*
X0107641Y0229709D01*
X0107572Y0229682D01*
X0107504Y0229651D01*
X0107438Y0229617D01*
X0107374Y0229580D01*
X0107312Y0229539D01*
X0107252Y0229495D01*
X0107194Y0229449D01*
X0107138Y0229399D01*
X0107085Y0229347D01*
X0107035Y0229292D01*
X0106988Y0229235D01*
X0106944Y0229175D01*
X0106902Y0229113D01*
X0106864Y0229050D01*
X0106829Y0228984D01*
X0106798Y0228917D01*
X0106770Y0228848D01*
X0106745Y0228778D01*
X0108917Y0227756D02*
X0108964Y0227803D01*
X0109008Y0227853D01*
X0109050Y0227905D01*
X0109089Y0227959D01*
X0109124Y0228015D01*
X0109157Y0228073D01*
X0109187Y0228133D01*
X0109213Y0228194D01*
X0109236Y0228257D01*
X0109255Y0228321D01*
X0109271Y0228385D01*
X0109284Y0228451D01*
X0109293Y0228517D01*
X0109298Y0228583D01*
X0109300Y0228650D01*
X0109298Y0228717D01*
X0109292Y0228784D01*
X0109283Y0228850D01*
X0109269Y0228915D01*
X0109252Y0228980D01*
X0109231Y0229043D01*
X0109206Y0229105D01*
X0109178Y0229166D01*
X0109146Y0229225D01*
X0109111Y0229282D01*
X0109072Y0229337D01*
X0109031Y0229389D01*
X0108986Y0229439D01*
X0108939Y0229486D01*
X0108889Y0229531D01*
X0108837Y0229572D01*
X0108782Y0229611D01*
X0108725Y0229646D01*
X0108666Y0229678D01*
X0108605Y0229706D01*
X0108543Y0229731D01*
X0108480Y0229752D01*
X0108415Y0229769D01*
X0108350Y0229783D01*
X0108284Y0229792D01*
X0108217Y0229798D01*
X0108150Y0229800D01*
X0108522Y0290200D02*
X0108522Y0294800D01*
X0107244Y0293778D01*
X0107244Y0290200D02*
X0109800Y0290200D01*
X0104939Y0292117D02*
X0103533Y0292883D01*
X0104044Y0294800D02*
X0104126Y0294798D01*
X0104208Y0294793D01*
X0104290Y0294784D01*
X0104371Y0294772D01*
X0104452Y0294756D01*
X0104532Y0294737D01*
X0104611Y0294714D01*
X0104689Y0294688D01*
X0104766Y0294659D01*
X0104841Y0294626D01*
X0104915Y0294590D01*
X0104988Y0294552D01*
X0105059Y0294510D01*
X0105127Y0294465D01*
X0105194Y0294417D01*
X0103533Y0292884D02*
X0103479Y0292918D01*
X0103428Y0292955D01*
X0103379Y0292995D01*
X0103332Y0293038D01*
X0103289Y0293084D01*
X0103248Y0293132D01*
X0103210Y0293183D01*
X0103175Y0293236D01*
X0103143Y0293291D01*
X0103115Y0293348D01*
X0103091Y0293406D01*
X0103070Y0293466D01*
X0103053Y0293527D01*
X0103039Y0293589D01*
X0103030Y0293652D01*
X0103024Y0293715D01*
X0103022Y0293778D01*
X0103024Y0293840D01*
X0103029Y0293901D01*
X0103039Y0293962D01*
X0103052Y0294023D01*
X0103068Y0294082D01*
X0103088Y0294140D01*
X0103112Y0294197D01*
X0103139Y0294253D01*
X0103169Y0294307D01*
X0103203Y0294359D01*
X0103240Y0294408D01*
X0103279Y0294456D01*
X0103321Y0294501D01*
X0103366Y0294543D01*
X0103414Y0294583D01*
X0103463Y0294619D01*
X0103515Y0294653D01*
X0103569Y0294683D01*
X0103625Y0294710D01*
X0103682Y0294734D01*
X0103740Y0294754D01*
X0103799Y0294770D01*
X0103860Y0294783D01*
X0103921Y0294793D01*
X0103982Y0294798D01*
X0104044Y0294800D01*
X0102895Y0290839D02*
X0102959Y0290776D01*
X0103027Y0290717D01*
X0103096Y0290660D01*
X0103168Y0290606D01*
X0103242Y0290555D01*
X0103318Y0290507D01*
X0103395Y0290463D01*
X0103475Y0290422D01*
X0103556Y0290384D01*
X0103639Y0290349D01*
X0103723Y0290318D01*
X0103809Y0290291D01*
X0103895Y0290267D01*
X0103983Y0290246D01*
X0104071Y0290230D01*
X0104160Y0290217D01*
X0104249Y0290207D01*
X0104338Y0290202D01*
X0104428Y0290200D01*
X0104490Y0290202D01*
X0104551Y0290207D01*
X0104612Y0290217D01*
X0104673Y0290230D01*
X0104732Y0290246D01*
X0104790Y0290266D01*
X0104847Y0290290D01*
X0104903Y0290317D01*
X0104957Y0290347D01*
X0105009Y0290381D01*
X0105058Y0290417D01*
X0105106Y0290457D01*
X0105151Y0290499D01*
X0105193Y0290544D01*
X0105233Y0290592D01*
X0105269Y0290641D01*
X0105303Y0290693D01*
X0105333Y0290747D01*
X0105360Y0290803D01*
X0105384Y0290860D01*
X0105404Y0290918D01*
X0105420Y0290977D01*
X0105433Y0291038D01*
X0105443Y0291099D01*
X0105448Y0291160D01*
X0105450Y0291222D01*
X0105448Y0291285D01*
X0105442Y0291348D01*
X0105433Y0291411D01*
X0105419Y0291473D01*
X0105402Y0291534D01*
X0105381Y0291594D01*
X0105357Y0291652D01*
X0105329Y0291709D01*
X0105297Y0291764D01*
X0105262Y0291817D01*
X0105224Y0291868D01*
X0105183Y0291916D01*
X0105140Y0291962D01*
X0105093Y0292005D01*
X0105044Y0292045D01*
X0104993Y0292082D01*
X0104939Y0292116D01*
X0109744Y0139300D02*
X0111278Y0139300D01*
X0111341Y0139298D01*
X0111404Y0139292D01*
X0111466Y0139283D01*
X0111527Y0139269D01*
X0111588Y0139252D01*
X0111647Y0139231D01*
X0111705Y0139206D01*
X0111762Y0139178D01*
X0111816Y0139147D01*
X0111868Y0139112D01*
X0111919Y0139074D01*
X0111967Y0139033D01*
X0112012Y0138989D01*
X0112054Y0138943D01*
X0112094Y0138894D01*
X0112130Y0138843D01*
X0112163Y0138789D01*
X0112193Y0138734D01*
X0112219Y0138676D01*
X0112242Y0138618D01*
X0112261Y0138558D01*
X0112276Y0138497D01*
X0112288Y0138435D01*
X0112296Y0138372D01*
X0112300Y0138309D01*
X0112300Y0138247D01*
X0112296Y0138184D01*
X0112288Y0138121D01*
X0112276Y0138059D01*
X0112261Y0137998D01*
X0112242Y0137938D01*
X0112219Y0137880D01*
X0112193Y0137822D01*
X0112163Y0137767D01*
X0112130Y0137713D01*
X0112094Y0137662D01*
X0112054Y0137613D01*
X0112012Y0137567D01*
X0111967Y0137523D01*
X0111919Y0137482D01*
X0111868Y0137444D01*
X0111816Y0137409D01*
X0111762Y0137378D01*
X0111705Y0137350D01*
X0111647Y0137325D01*
X0111588Y0137304D01*
X0111527Y0137287D01*
X0111466Y0137273D01*
X0111404Y0137264D01*
X0111341Y0137258D01*
X0111278Y0137256D01*
X0110256Y0137256D01*
X0111022Y0137256D02*
X0111092Y0137254D01*
X0111163Y0137248D01*
X0111232Y0137239D01*
X0111301Y0137225D01*
X0111370Y0137208D01*
X0111437Y0137187D01*
X0111503Y0137162D01*
X0111567Y0137134D01*
X0111630Y0137102D01*
X0111691Y0137067D01*
X0111750Y0137028D01*
X0111807Y0136987D01*
X0111861Y0136942D01*
X0111913Y0136894D01*
X0111962Y0136844D01*
X0112009Y0136790D01*
X0112052Y0136735D01*
X0112092Y0136677D01*
X0112129Y0136617D01*
X0112162Y0136555D01*
X0112192Y0136491D01*
X0112219Y0136426D01*
X0112242Y0136360D01*
X0112261Y0136292D01*
X0112276Y0136223D01*
X0112288Y0136154D01*
X0112296Y0136084D01*
X0112300Y0136013D01*
X0112300Y0135943D01*
X0112296Y0135872D01*
X0112288Y0135802D01*
X0112276Y0135733D01*
X0112261Y0135664D01*
X0112242Y0135596D01*
X0112219Y0135530D01*
X0112192Y0135465D01*
X0112162Y0135401D01*
X0112129Y0135339D01*
X0112092Y0135279D01*
X0112052Y0135221D01*
X0112009Y0135166D01*
X0111962Y0135112D01*
X0111913Y0135062D01*
X0111861Y0135014D01*
X0111807Y0134969D01*
X0111750Y0134928D01*
X0111691Y0134889D01*
X0111630Y0134854D01*
X0111567Y0134822D01*
X0111503Y0134794D01*
X0111437Y0134769D01*
X0111370Y0134748D01*
X0111301Y0134731D01*
X0111232Y0134717D01*
X0111163Y0134708D01*
X0111092Y0134702D01*
X0111022Y0134700D01*
X0109744Y0134700D01*
X0107439Y0136617D02*
X0106033Y0137383D01*
X0106544Y0139300D02*
X0106626Y0139298D01*
X0106708Y0139293D01*
X0106790Y0139284D01*
X0106871Y0139272D01*
X0106952Y0139256D01*
X0107032Y0139237D01*
X0107111Y0139214D01*
X0107189Y0139188D01*
X0107266Y0139159D01*
X0107341Y0139126D01*
X0107415Y0139090D01*
X0107488Y0139052D01*
X0107559Y0139010D01*
X0107627Y0138965D01*
X0107694Y0138917D01*
X0106033Y0137384D02*
X0105979Y0137418D01*
X0105928Y0137455D01*
X0105879Y0137495D01*
X0105832Y0137538D01*
X0105789Y0137584D01*
X0105748Y0137632D01*
X0105710Y0137683D01*
X0105675Y0137736D01*
X0105643Y0137791D01*
X0105615Y0137848D01*
X0105591Y0137906D01*
X0105570Y0137966D01*
X0105553Y0138027D01*
X0105539Y0138089D01*
X0105530Y0138152D01*
X0105524Y0138215D01*
X0105522Y0138278D01*
X0105524Y0138340D01*
X0105529Y0138401D01*
X0105539Y0138462D01*
X0105552Y0138523D01*
X0105568Y0138582D01*
X0105588Y0138640D01*
X0105612Y0138697D01*
X0105639Y0138753D01*
X0105669Y0138807D01*
X0105703Y0138859D01*
X0105740Y0138908D01*
X0105779Y0138956D01*
X0105821Y0139001D01*
X0105866Y0139043D01*
X0105914Y0139083D01*
X0105963Y0139119D01*
X0106015Y0139153D01*
X0106069Y0139183D01*
X0106125Y0139210D01*
X0106182Y0139234D01*
X0106240Y0139254D01*
X0106299Y0139270D01*
X0106360Y0139283D01*
X0106421Y0139293D01*
X0106482Y0139298D01*
X0106544Y0139300D01*
X0105395Y0135339D02*
X0105459Y0135276D01*
X0105527Y0135217D01*
X0105596Y0135160D01*
X0105668Y0135106D01*
X0105742Y0135055D01*
X0105818Y0135007D01*
X0105895Y0134963D01*
X0105975Y0134922D01*
X0106056Y0134884D01*
X0106139Y0134849D01*
X0106223Y0134818D01*
X0106309Y0134791D01*
X0106395Y0134767D01*
X0106483Y0134746D01*
X0106571Y0134730D01*
X0106660Y0134717D01*
X0106749Y0134707D01*
X0106838Y0134702D01*
X0106928Y0134700D01*
X0106990Y0134702D01*
X0107051Y0134707D01*
X0107112Y0134717D01*
X0107173Y0134730D01*
X0107232Y0134746D01*
X0107290Y0134766D01*
X0107347Y0134790D01*
X0107403Y0134817D01*
X0107457Y0134847D01*
X0107509Y0134881D01*
X0107558Y0134917D01*
X0107606Y0134957D01*
X0107651Y0134999D01*
X0107693Y0135044D01*
X0107733Y0135092D01*
X0107769Y0135141D01*
X0107803Y0135193D01*
X0107833Y0135247D01*
X0107860Y0135303D01*
X0107884Y0135360D01*
X0107904Y0135418D01*
X0107920Y0135477D01*
X0107933Y0135538D01*
X0107943Y0135599D01*
X0107948Y0135660D01*
X0107950Y0135722D01*
X0107948Y0135785D01*
X0107942Y0135848D01*
X0107933Y0135911D01*
X0107919Y0135973D01*
X0107902Y0136034D01*
X0107881Y0136094D01*
X0107857Y0136152D01*
X0107829Y0136209D01*
X0107797Y0136264D01*
X0107762Y0136317D01*
X0107724Y0136368D01*
X0107683Y0136416D01*
X0107640Y0136462D01*
X0107593Y0136505D01*
X0107544Y0136545D01*
X0107493Y0136582D01*
X0107439Y0136616D01*
X0108767Y0074800D02*
X0107744Y0071222D01*
X0110300Y0071222D01*
X0109533Y0072244D02*
X0109533Y0070200D01*
X0105439Y0072117D02*
X0104033Y0072883D01*
X0104544Y0074800D02*
X0104626Y0074798D01*
X0104708Y0074793D01*
X0104790Y0074784D01*
X0104871Y0074772D01*
X0104952Y0074756D01*
X0105032Y0074737D01*
X0105111Y0074714D01*
X0105189Y0074688D01*
X0105266Y0074659D01*
X0105341Y0074626D01*
X0105415Y0074590D01*
X0105488Y0074552D01*
X0105559Y0074510D01*
X0105627Y0074465D01*
X0105694Y0074417D01*
X0104033Y0072884D02*
X0103979Y0072918D01*
X0103928Y0072955D01*
X0103879Y0072995D01*
X0103832Y0073038D01*
X0103789Y0073084D01*
X0103748Y0073132D01*
X0103710Y0073183D01*
X0103675Y0073236D01*
X0103643Y0073291D01*
X0103615Y0073348D01*
X0103591Y0073406D01*
X0103570Y0073466D01*
X0103553Y0073527D01*
X0103539Y0073589D01*
X0103530Y0073652D01*
X0103524Y0073715D01*
X0103522Y0073778D01*
X0103524Y0073840D01*
X0103529Y0073901D01*
X0103539Y0073962D01*
X0103552Y0074023D01*
X0103568Y0074082D01*
X0103588Y0074140D01*
X0103612Y0074197D01*
X0103639Y0074253D01*
X0103669Y0074307D01*
X0103703Y0074359D01*
X0103740Y0074408D01*
X0103779Y0074456D01*
X0103821Y0074501D01*
X0103866Y0074543D01*
X0103914Y0074583D01*
X0103963Y0074619D01*
X0104015Y0074653D01*
X0104069Y0074683D01*
X0104125Y0074710D01*
X0104182Y0074734D01*
X0104240Y0074754D01*
X0104299Y0074770D01*
X0104360Y0074783D01*
X0104421Y0074793D01*
X0104482Y0074798D01*
X0104544Y0074800D01*
X0103395Y0070839D02*
X0103459Y0070776D01*
X0103527Y0070717D01*
X0103596Y0070660D01*
X0103668Y0070606D01*
X0103742Y0070555D01*
X0103818Y0070507D01*
X0103895Y0070463D01*
X0103975Y0070422D01*
X0104056Y0070384D01*
X0104139Y0070349D01*
X0104223Y0070318D01*
X0104309Y0070291D01*
X0104395Y0070267D01*
X0104483Y0070246D01*
X0104571Y0070230D01*
X0104660Y0070217D01*
X0104749Y0070207D01*
X0104838Y0070202D01*
X0104928Y0070200D01*
X0104990Y0070202D01*
X0105051Y0070207D01*
X0105112Y0070217D01*
X0105173Y0070230D01*
X0105232Y0070246D01*
X0105290Y0070266D01*
X0105347Y0070290D01*
X0105403Y0070317D01*
X0105457Y0070347D01*
X0105509Y0070381D01*
X0105558Y0070417D01*
X0105606Y0070457D01*
X0105651Y0070499D01*
X0105693Y0070544D01*
X0105733Y0070592D01*
X0105769Y0070641D01*
X0105803Y0070693D01*
X0105833Y0070747D01*
X0105860Y0070803D01*
X0105884Y0070860D01*
X0105904Y0070918D01*
X0105920Y0070977D01*
X0105933Y0071038D01*
X0105943Y0071099D01*
X0105948Y0071160D01*
X0105950Y0071222D01*
X0105948Y0071285D01*
X0105942Y0071348D01*
X0105933Y0071411D01*
X0105919Y0071473D01*
X0105902Y0071534D01*
X0105881Y0071594D01*
X0105857Y0071652D01*
X0105829Y0071709D01*
X0105797Y0071764D01*
X0105762Y0071817D01*
X0105724Y0071868D01*
X0105683Y0071916D01*
X0105640Y0071962D01*
X0105593Y0072005D01*
X0105544Y0072045D01*
X0105493Y0072082D01*
X0105439Y0072116D01*
X0108744Y0010300D02*
X0111300Y0010300D01*
X0110278Y0008256D02*
X0108744Y0008256D01*
X0108744Y0010300D01*
X0110278Y0008255D02*
X0110340Y0008253D01*
X0110401Y0008248D01*
X0110462Y0008238D01*
X0110523Y0008225D01*
X0110582Y0008209D01*
X0110640Y0008189D01*
X0110697Y0008165D01*
X0110753Y0008138D01*
X0110807Y0008108D01*
X0110859Y0008074D01*
X0110908Y0008038D01*
X0110956Y0007998D01*
X0111001Y0007956D01*
X0111043Y0007911D01*
X0111083Y0007863D01*
X0111119Y0007814D01*
X0111153Y0007762D01*
X0111183Y0007708D01*
X0111210Y0007652D01*
X0111234Y0007595D01*
X0111254Y0007537D01*
X0111270Y0007478D01*
X0111283Y0007417D01*
X0111293Y0007356D01*
X0111298Y0007295D01*
X0111300Y0007233D01*
X0111300Y0006722D01*
X0111298Y0006660D01*
X0111293Y0006599D01*
X0111283Y0006538D01*
X0111270Y0006477D01*
X0111254Y0006418D01*
X0111234Y0006360D01*
X0111210Y0006303D01*
X0111183Y0006247D01*
X0111153Y0006193D01*
X0111119Y0006141D01*
X0111083Y0006092D01*
X0111043Y0006044D01*
X0111001Y0005999D01*
X0110956Y0005957D01*
X0110908Y0005917D01*
X0110859Y0005881D01*
X0110807Y0005847D01*
X0110753Y0005817D01*
X0110697Y0005790D01*
X0110640Y0005766D01*
X0110582Y0005746D01*
X0110523Y0005730D01*
X0110462Y0005717D01*
X0110401Y0005707D01*
X0110340Y0005702D01*
X0110278Y0005700D01*
X0108744Y0005700D01*
X0106950Y0006722D02*
X0106948Y0006660D01*
X0106943Y0006599D01*
X0106933Y0006538D01*
X0106920Y0006477D01*
X0106904Y0006418D01*
X0106884Y0006360D01*
X0106860Y0006303D01*
X0106833Y0006247D01*
X0106803Y0006193D01*
X0106769Y0006141D01*
X0106733Y0006092D01*
X0106693Y0006044D01*
X0106651Y0005999D01*
X0106606Y0005957D01*
X0106558Y0005917D01*
X0106509Y0005881D01*
X0106457Y0005847D01*
X0106403Y0005817D01*
X0106347Y0005790D01*
X0106290Y0005766D01*
X0106232Y0005746D01*
X0106173Y0005730D01*
X0106112Y0005717D01*
X0106051Y0005707D01*
X0105990Y0005702D01*
X0105928Y0005700D01*
X0106950Y0006722D02*
X0106948Y0006785D01*
X0106942Y0006848D01*
X0106933Y0006911D01*
X0106919Y0006973D01*
X0106902Y0007034D01*
X0106881Y0007094D01*
X0106857Y0007152D01*
X0106829Y0007209D01*
X0106797Y0007264D01*
X0106762Y0007317D01*
X0106724Y0007368D01*
X0106683Y0007416D01*
X0106640Y0007462D01*
X0106593Y0007505D01*
X0106544Y0007545D01*
X0106493Y0007582D01*
X0106439Y0007616D01*
X0106439Y0007617D02*
X0105033Y0008383D01*
X0105544Y0010300D02*
X0105626Y0010298D01*
X0105708Y0010293D01*
X0105790Y0010284D01*
X0105871Y0010272D01*
X0105952Y0010256D01*
X0106032Y0010237D01*
X0106111Y0010214D01*
X0106189Y0010188D01*
X0106266Y0010159D01*
X0106341Y0010126D01*
X0106415Y0010090D01*
X0106488Y0010052D01*
X0106559Y0010010D01*
X0106627Y0009965D01*
X0106694Y0009917D01*
X0105033Y0008384D02*
X0104979Y0008418D01*
X0104928Y0008455D01*
X0104879Y0008495D01*
X0104832Y0008538D01*
X0104789Y0008584D01*
X0104748Y0008632D01*
X0104710Y0008683D01*
X0104675Y0008736D01*
X0104643Y0008791D01*
X0104615Y0008848D01*
X0104591Y0008906D01*
X0104570Y0008966D01*
X0104553Y0009027D01*
X0104539Y0009089D01*
X0104530Y0009152D01*
X0104524Y0009215D01*
X0104522Y0009278D01*
X0104524Y0009340D01*
X0104529Y0009401D01*
X0104539Y0009462D01*
X0104552Y0009523D01*
X0104568Y0009582D01*
X0104588Y0009640D01*
X0104612Y0009697D01*
X0104639Y0009753D01*
X0104669Y0009807D01*
X0104703Y0009859D01*
X0104740Y0009908D01*
X0104779Y0009956D01*
X0104821Y0010001D01*
X0104866Y0010043D01*
X0104914Y0010083D01*
X0104963Y0010119D01*
X0105015Y0010153D01*
X0105069Y0010183D01*
X0105125Y0010210D01*
X0105182Y0010234D01*
X0105240Y0010254D01*
X0105299Y0010270D01*
X0105360Y0010283D01*
X0105421Y0010293D01*
X0105482Y0010298D01*
X0105544Y0010300D01*
X0104395Y0006339D02*
X0104459Y0006276D01*
X0104527Y0006217D01*
X0104596Y0006160D01*
X0104668Y0006106D01*
X0104742Y0006055D01*
X0104818Y0006007D01*
X0104895Y0005963D01*
X0104975Y0005922D01*
X0105056Y0005884D01*
X0105139Y0005849D01*
X0105223Y0005818D01*
X0105309Y0005791D01*
X0105395Y0005767D01*
X0105483Y0005746D01*
X0105571Y0005730D01*
X0105660Y0005717D01*
X0105749Y0005707D01*
X0105838Y0005702D01*
X0105928Y0005700D01*
M02*
