G75*
%MOIN*%
%OFA0B0*%
%FSLAX25Y25*%
%IPPOS*%
%LPD*%
%AMOC8*
5,1,8,0,0,1.08239X$1,22.5*
%
%ADD10C,0.07500*%
%ADD11OC8,0.07500*%
%ADD12OC8,0.05200*%
%ADD13R,0.04362X0.04362*%
%ADD14OC8,0.06000*%
%ADD15C,0.02000*%
D10*
X0042000Y0096500D03*
X0057000Y0196500D03*
D11*
X0037000Y0196500D03*
X0062000Y0096500D03*
D12*
X0057000Y0081500D03*
X0052000Y0056500D03*
X0042000Y0056500D03*
X0057000Y0016500D03*
X0087000Y0016500D03*
X0087000Y0081500D03*
X0077000Y0111500D03*
X0077000Y0126500D03*
X0077000Y0166500D03*
X0087000Y0216500D03*
X0107000Y0166500D03*
X0107000Y0126500D03*
X0107000Y0111500D03*
X0057000Y0216500D03*
X0057000Y0241500D03*
X0047000Y0241500D03*
X0057000Y0281500D03*
X0087000Y0281500D03*
D13*
X0100232Y0285315D03*
X0100232Y0275472D03*
X0116374Y0275472D03*
X0116374Y0285315D03*
X0116374Y0220315D03*
X0116374Y0210472D03*
X0100232Y0210472D03*
X0100232Y0220315D03*
X0100232Y0155315D03*
X0100232Y0145472D03*
X0116374Y0145472D03*
X0116374Y0155315D03*
X0116374Y0090315D03*
X0116374Y0080472D03*
X0100232Y0080472D03*
X0100232Y0090315D03*
X0100232Y0025315D03*
X0100232Y0015472D03*
X0116374Y0015472D03*
X0116374Y0025315D03*
D14*
X0049500Y0139000D03*
X0049500Y0149000D03*
X0049500Y0159000D03*
X0049500Y0169000D03*
X0049500Y0179000D03*
X0039500Y0179000D03*
X0039500Y0169000D03*
X0039500Y0159000D03*
X0039500Y0149000D03*
X0039500Y0139000D03*
D15*
X0007000Y0024178D02*
X0007000Y0278822D01*
X0009325Y0276498D01*
X0012175Y0274852D01*
X0015354Y0274000D01*
X0018646Y0274000D01*
X0021825Y0274852D01*
X0024675Y0276498D01*
X0027002Y0278825D01*
X0028648Y0281675D01*
X0029500Y0284854D01*
X0029500Y0288146D01*
X0028648Y0291325D01*
X0027002Y0294175D01*
X0026977Y0294201D01*
X0064044Y0294201D01*
X0056943Y0287100D01*
X0054680Y0287100D01*
X0051400Y0283820D01*
X0051400Y0279180D01*
X0053000Y0277580D01*
X0053000Y0245420D01*
X0051400Y0243820D01*
X0051400Y0243605D01*
X0048905Y0246100D01*
X0047000Y0246100D01*
X0047000Y0241500D01*
X0037000Y0231500D01*
X0037000Y0196500D01*
X0037000Y0196070D01*
X0037000Y0190642D01*
X0010000Y0163642D01*
X0010000Y0126529D01*
X0015826Y0120703D01*
X0015826Y0074754D01*
X0039680Y0050900D01*
X0044320Y0050900D01*
X0049920Y0056500D01*
X0052000Y0056500D01*
X0052000Y0078580D01*
X0051400Y0079180D01*
X0051400Y0083820D01*
X0054680Y0087100D01*
X0059320Y0087100D01*
X0059364Y0087055D01*
X0062000Y0089691D01*
X0062000Y0096500D01*
X0067750Y0096500D01*
X0067750Y0098882D01*
X0067382Y0099250D01*
X0069750Y0099250D01*
X0068609Y0098109D01*
X0068000Y0096639D01*
X0068000Y0080704D01*
X0068609Y0079234D01*
X0096232Y0051611D01*
X0096232Y0029920D01*
X0095508Y0029195D01*
X0095051Y0028093D01*
X0095051Y0025791D01*
X0090340Y0021080D01*
X0089320Y0022100D01*
X0084680Y0022100D01*
X0081400Y0018820D01*
X0081400Y0014180D01*
X0084680Y0010900D01*
X0089320Y0010900D01*
X0090920Y0012500D01*
X0092213Y0012500D01*
X0093683Y0013109D01*
X0096051Y0015477D01*
X0096051Y0015472D01*
X0096051Y0013028D01*
X0096187Y0012519D01*
X0096451Y0012063D01*
X0096823Y0011691D01*
X0097279Y0011428D01*
X0097788Y0011291D01*
X0100232Y0011291D01*
X0100232Y0015472D01*
X0100232Y0015472D01*
X0096051Y0015472D01*
X0100232Y0015472D01*
X0100232Y0015472D01*
X0100232Y0011291D01*
X0102677Y0011291D01*
X0103185Y0011428D01*
X0103641Y0011691D01*
X0104014Y0012063D01*
X0104277Y0012519D01*
X0104413Y0013028D01*
X0104413Y0015472D01*
X0100232Y0015472D01*
X0096047Y0015472D01*
X0091474Y0010900D01*
X0077600Y0010900D01*
X0072000Y0016500D01*
X0072000Y0074420D01*
X0059364Y0087055D01*
X0059320Y0087100D02*
X0054680Y0087100D01*
X0051400Y0083820D01*
X0051400Y0079180D01*
X0053000Y0077580D01*
X0053000Y0065704D01*
X0053609Y0064234D01*
X0058000Y0059843D01*
X0058000Y0023157D01*
X0056943Y0022100D01*
X0054680Y0022100D01*
X0051400Y0018820D01*
X0051400Y0014180D01*
X0054680Y0010900D01*
X0056943Y0010900D01*
X0061343Y0006500D01*
X0024678Y0006500D01*
X0027002Y0008825D01*
X0028648Y0011675D01*
X0029500Y0014854D01*
X0029500Y0018146D01*
X0028648Y0021325D01*
X0027002Y0024175D01*
X0024675Y0026502D01*
X0021825Y0028148D01*
X0018646Y0029000D01*
X0015354Y0029000D01*
X0012175Y0028148D01*
X0009325Y0026502D01*
X0007000Y0024178D01*
X0007000Y0025482D02*
X0008304Y0025482D01*
X0007000Y0027481D02*
X0011019Y0027481D01*
X0007000Y0029479D02*
X0058000Y0029479D01*
X0058000Y0027481D02*
X0022981Y0027481D01*
X0025696Y0025482D02*
X0058000Y0025482D01*
X0058000Y0023484D02*
X0027402Y0023484D01*
X0028556Y0021485D02*
X0054066Y0021485D01*
X0052067Y0019487D02*
X0029141Y0019487D01*
X0029500Y0017488D02*
X0051400Y0017488D01*
X0051400Y0015490D02*
X0029500Y0015490D01*
X0029135Y0013491D02*
X0052089Y0013491D01*
X0054088Y0011493D02*
X0028543Y0011493D01*
X0027389Y0009494D02*
X0058349Y0009494D01*
X0060348Y0007496D02*
X0025673Y0007496D01*
X0007000Y0031478D02*
X0058000Y0031478D01*
X0058000Y0033476D02*
X0007000Y0033476D01*
X0007000Y0035475D02*
X0058000Y0035475D01*
X0058000Y0037473D02*
X0007000Y0037473D01*
X0007000Y0039472D02*
X0058000Y0039472D01*
X0058000Y0041470D02*
X0007000Y0041470D01*
X0007000Y0043469D02*
X0058000Y0043469D01*
X0058000Y0045467D02*
X0007000Y0045467D01*
X0007000Y0047466D02*
X0058000Y0047466D01*
X0058000Y0049464D02*
X0007000Y0049464D01*
X0007000Y0051463D02*
X0039118Y0051463D01*
X0039680Y0050900D02*
X0044320Y0050900D01*
X0047600Y0054180D01*
X0047600Y0054395D01*
X0050095Y0051900D01*
X0052000Y0051900D01*
X0053905Y0051900D01*
X0056600Y0054595D01*
X0056600Y0056500D01*
X0056600Y0058405D01*
X0053905Y0061100D01*
X0052000Y0061100D01*
X0052000Y0056500D01*
X0052000Y0056500D01*
X0056600Y0056500D01*
X0052000Y0056500D01*
X0052000Y0056500D01*
X0052000Y0056500D01*
X0047600Y0056500D01*
X0047600Y0056500D01*
X0052000Y0056500D01*
X0052000Y0061100D01*
X0050095Y0061100D01*
X0047600Y0058605D01*
X0047600Y0058820D01*
X0046000Y0060420D01*
X0046000Y0090954D01*
X0047546Y0092500D01*
X0053250Y0092500D01*
X0054720Y0093109D01*
X0055845Y0094234D01*
X0055845Y0094234D01*
X0056250Y0094639D01*
X0056250Y0094118D01*
X0059618Y0090750D01*
X0062000Y0090750D01*
X0064382Y0090750D01*
X0067750Y0094118D01*
X0067750Y0096500D01*
X0062000Y0096500D01*
X0062000Y0096500D01*
X0062000Y0090750D01*
X0062000Y0096500D01*
X0062000Y0096500D01*
X0062000Y0095430D02*
X0062000Y0095430D01*
X0062000Y0093432D02*
X0062000Y0093432D01*
X0062000Y0091433D02*
X0062000Y0091433D01*
X0065065Y0091433D02*
X0068000Y0091433D01*
X0068000Y0089434D02*
X0046000Y0089434D01*
X0046000Y0087436D02*
X0068000Y0087436D01*
X0068000Y0085437D02*
X0060982Y0085437D01*
X0062600Y0083820D02*
X0059320Y0087100D01*
X0058935Y0091433D02*
X0046479Y0091433D01*
X0046000Y0085437D02*
X0053018Y0085437D01*
X0051400Y0083439D02*
X0046000Y0083439D01*
X0046000Y0081440D02*
X0051400Y0081440D01*
X0051400Y0079442D02*
X0046000Y0079442D01*
X0046000Y0077443D02*
X0053000Y0077443D01*
X0053000Y0075445D02*
X0046000Y0075445D01*
X0046000Y0073446D02*
X0053000Y0073446D01*
X0053000Y0071448D02*
X0046000Y0071448D01*
X0046000Y0069449D02*
X0053000Y0069449D01*
X0053000Y0067451D02*
X0046000Y0067451D01*
X0046000Y0065452D02*
X0053104Y0065452D01*
X0054389Y0063454D02*
X0046000Y0063454D01*
X0046000Y0061455D02*
X0056388Y0061455D01*
X0055549Y0059457D02*
X0058000Y0059457D01*
X0058000Y0057458D02*
X0056600Y0057458D01*
X0056600Y0055460D02*
X0058000Y0055460D01*
X0058000Y0053461D02*
X0055467Y0053461D01*
X0058000Y0051463D02*
X0044882Y0051463D01*
X0046881Y0053461D02*
X0048533Y0053461D01*
X0052000Y0053461D02*
X0052000Y0053461D01*
X0052000Y0051900D02*
X0052000Y0056500D01*
X0052000Y0056500D01*
X0052000Y0051900D01*
X0052000Y0055460D02*
X0052000Y0055460D01*
X0052000Y0057458D02*
X0052000Y0057458D01*
X0052000Y0059457D02*
X0052000Y0059457D01*
X0048451Y0059457D02*
X0046963Y0059457D01*
X0042000Y0056500D02*
X0042000Y0096500D01*
X0052454Y0096500D01*
X0059204Y0103250D01*
X0073750Y0103250D01*
X0077000Y0106500D01*
X0077000Y0111500D01*
X0077000Y0126500D01*
X0074737Y0126500D01*
X0056737Y0108500D01*
X0033686Y0108500D01*
X0014000Y0128186D01*
X0014000Y0161985D01*
X0037015Y0185000D01*
X0041985Y0185000D01*
X0047985Y0179000D01*
X0049500Y0179000D01*
X0047642Y0185000D02*
X0044251Y0188391D01*
X0042781Y0189000D01*
X0036219Y0189000D01*
X0034749Y0188391D01*
X0011734Y0165376D01*
X0010609Y0164251D01*
X0010000Y0162781D01*
X0010000Y0127391D01*
X0010609Y0125920D01*
X0011734Y0124795D01*
X0011734Y0124795D01*
X0031420Y0105109D01*
X0032891Y0104500D01*
X0054797Y0104500D01*
X0050797Y0100500D01*
X0047546Y0100500D01*
X0045824Y0102222D01*
X0043343Y0103250D01*
X0040657Y0103250D01*
X0038176Y0102222D01*
X0036278Y0100324D01*
X0035250Y0097843D01*
X0035250Y0095157D01*
X0036278Y0092676D01*
X0038000Y0090954D01*
X0038000Y0060420D01*
X0036400Y0058820D01*
X0036400Y0054180D01*
X0039680Y0050900D01*
X0037119Y0053461D02*
X0007000Y0053461D01*
X0007000Y0055460D02*
X0036400Y0055460D01*
X0036400Y0057458D02*
X0007000Y0057458D01*
X0007000Y0059457D02*
X0037037Y0059457D01*
X0038000Y0061455D02*
X0007000Y0061455D01*
X0007000Y0063454D02*
X0038000Y0063454D01*
X0038000Y0065452D02*
X0007000Y0065452D01*
X0007000Y0067451D02*
X0038000Y0067451D01*
X0038000Y0069449D02*
X0007000Y0069449D01*
X0007000Y0071448D02*
X0038000Y0071448D01*
X0038000Y0073446D02*
X0007000Y0073446D01*
X0007000Y0075445D02*
X0038000Y0075445D01*
X0038000Y0077443D02*
X0007000Y0077443D01*
X0007000Y0079442D02*
X0038000Y0079442D01*
X0038000Y0081440D02*
X0007000Y0081440D01*
X0007000Y0083439D02*
X0038000Y0083439D01*
X0038000Y0085437D02*
X0007000Y0085437D01*
X0007000Y0087436D02*
X0038000Y0087436D01*
X0038000Y0089434D02*
X0007000Y0089434D01*
X0007000Y0091433D02*
X0037521Y0091433D01*
X0035965Y0093432D02*
X0007000Y0093432D01*
X0007000Y0095430D02*
X0035250Y0095430D01*
X0035250Y0097429D02*
X0007000Y0097429D01*
X0007000Y0099427D02*
X0035906Y0099427D01*
X0037380Y0101426D02*
X0007000Y0101426D01*
X0007000Y0103424D02*
X0053721Y0103424D01*
X0051723Y0101426D02*
X0046620Y0101426D01*
X0053424Y0116500D02*
X0037000Y0116500D01*
X0023830Y0129670D01*
X0023830Y0153330D01*
X0039500Y0169000D01*
X0039500Y0179000D02*
X0018000Y0157500D01*
X0018000Y0129843D01*
X0035343Y0112500D01*
X0055080Y0112500D01*
X0074680Y0132100D01*
X0079320Y0132100D01*
X0082600Y0128820D01*
X0082600Y0106443D01*
X0072000Y0095843D01*
X0072000Y0081500D01*
X0100232Y0053268D01*
X0100232Y0025315D01*
X0091417Y0016500D01*
X0087000Y0016500D01*
X0084066Y0021485D02*
X0066000Y0021485D01*
X0066000Y0020704D02*
X0065391Y0019234D01*
X0062657Y0016500D01*
X0068657Y0010500D01*
X0113092Y0010500D01*
X0112494Y0010748D01*
X0111650Y0011592D01*
X0111193Y0012695D01*
X0111193Y0018250D01*
X0111650Y0019353D01*
X0112494Y0020197D01*
X0113596Y0020654D01*
X0115898Y0020654D01*
X0116379Y0021134D01*
X0116374Y0021134D01*
X0116374Y0025315D01*
X0104232Y0037457D01*
X0104232Y0054925D01*
X0100232Y0058925D01*
X0100232Y0080472D01*
X0100232Y0080472D01*
X0100232Y0076291D01*
X0097788Y0076291D01*
X0097279Y0076428D01*
X0096823Y0076691D01*
X0096451Y0077063D01*
X0096187Y0077519D01*
X0096051Y0078028D01*
X0096051Y0080472D01*
X0100232Y0080472D01*
X0100232Y0080472D01*
X0100232Y0076291D01*
X0102677Y0076291D01*
X0103185Y0076428D01*
X0103641Y0076691D01*
X0104014Y0077063D01*
X0104277Y0077519D01*
X0104413Y0078028D01*
X0104413Y0080472D01*
X0100232Y0080472D01*
X0096051Y0080472D01*
X0096051Y0082917D01*
X0096187Y0083426D01*
X0096451Y0083882D01*
X0096823Y0084254D01*
X0097279Y0084517D01*
X0097788Y0084654D01*
X0100232Y0084654D01*
X0100232Y0080473D01*
X0100232Y0080473D01*
X0100232Y0084654D01*
X0102677Y0084654D01*
X0103185Y0084517D01*
X0103641Y0084254D01*
X0104014Y0083882D01*
X0104277Y0083426D01*
X0104413Y0082917D01*
X0104413Y0080472D01*
X0100232Y0080472D01*
X0100232Y0081710D01*
X0105413Y0086891D01*
X0105413Y0093744D01*
X0101400Y0097757D01*
X0101400Y0144305D01*
X0100232Y0145472D01*
X0100232Y0145472D01*
X0100232Y0141291D01*
X0097788Y0141291D01*
X0097279Y0141428D01*
X0096823Y0141691D01*
X0096451Y0142063D01*
X0096187Y0142519D01*
X0096051Y0143028D01*
X0096051Y0144894D01*
X0088991Y0137834D01*
X0087866Y0136709D01*
X0086564Y0136170D01*
X0088866Y0133868D01*
X0089991Y0132742D01*
X0090600Y0131272D01*
X0090600Y0108557D01*
X0103623Y0095534D01*
X0103769Y0095182D01*
X0104113Y0095039D01*
X0104957Y0094195D01*
X0105413Y0093093D01*
X0105413Y0087537D01*
X0104957Y0086434D01*
X0104113Y0085591D01*
X0103010Y0085134D01*
X0097454Y0085134D01*
X0096632Y0085475D01*
X0092600Y0081443D01*
X0092600Y0079180D01*
X0089320Y0075900D01*
X0084680Y0075900D01*
X0081400Y0079180D01*
X0081400Y0083820D01*
X0084680Y0087100D01*
X0086943Y0087100D01*
X0093549Y0093706D01*
X0093965Y0093878D01*
X0084828Y0103015D01*
X0076000Y0094186D01*
X0076000Y0083157D01*
X0103623Y0055534D01*
X0104232Y0054063D01*
X0104232Y0029920D01*
X0104957Y0029195D01*
X0105413Y0028093D01*
X0105413Y0022537D01*
X0104957Y0021434D01*
X0104113Y0020591D01*
X0103010Y0020134D01*
X0100708Y0020134D01*
X0100228Y0019654D01*
X0100232Y0019654D01*
X0100232Y0015473D01*
X0100232Y0015473D01*
X0100232Y0019654D01*
X0102677Y0019654D01*
X0103185Y0019517D01*
X0103641Y0019254D01*
X0104014Y0018882D01*
X0104277Y0018426D01*
X0104413Y0017917D01*
X0104413Y0015472D01*
X0100232Y0015472D01*
X0106531Y0015472D01*
X0116374Y0025315D01*
X0116374Y0029496D01*
X0113930Y0029496D01*
X0113421Y0029360D01*
X0112965Y0029096D01*
X0112593Y0028724D01*
X0112329Y0028268D01*
X0112193Y0027759D01*
X0112193Y0025315D01*
X0116374Y0025315D01*
X0116374Y0025315D01*
X0116374Y0029496D01*
X0118000Y0029496D01*
X0118000Y0075291D01*
X0113596Y0075291D01*
X0112494Y0075748D01*
X0111650Y0076592D01*
X0111193Y0077695D01*
X0111193Y0079997D01*
X0107148Y0084042D01*
X0106022Y0085167D01*
X0105413Y0086637D01*
X0105413Y0093743D01*
X0103609Y0095548D01*
X0103000Y0097018D01*
X0103000Y0107580D01*
X0101400Y0109180D01*
X0101400Y0113820D01*
X0104680Y0117100D01*
X0109320Y0117100D01*
X0112600Y0113820D01*
X0112600Y0109180D01*
X0111000Y0107580D01*
X0111000Y0099471D01*
X0112804Y0097666D01*
X0113413Y0096196D01*
X0113413Y0095420D01*
X0113596Y0095496D01*
X0119152Y0095496D01*
X0120254Y0095039D01*
X0121098Y0094195D01*
X0121555Y0093093D01*
X0121555Y0089553D01*
X0122921Y0088187D01*
X0122921Y0156205D01*
X0121555Y0154839D01*
X0121555Y0152537D01*
X0121098Y0151434D01*
X0120254Y0150591D01*
X0119779Y0150394D01*
X0120254Y0150197D01*
X0121098Y0149353D01*
X0121555Y0148250D01*
X0121555Y0142695D01*
X0121098Y0141592D01*
X0120374Y0140868D01*
X0120374Y0140078D01*
X0119765Y0138608D01*
X0111288Y0130131D01*
X0112600Y0128820D01*
X0112600Y0124180D01*
X0109320Y0120900D01*
X0104680Y0120900D01*
X0101400Y0124180D01*
X0101400Y0128820D01*
X0103000Y0130420D01*
X0103000Y0132296D01*
X0103609Y0133766D01*
X0104734Y0134891D01*
X0111587Y0141744D01*
X0111193Y0142695D01*
X0111193Y0148250D01*
X0111650Y0149353D01*
X0112494Y0150197D01*
X0112969Y0150394D01*
X0112494Y0150591D01*
X0111650Y0151434D01*
X0111193Y0152537D01*
X0111193Y0158093D01*
X0111650Y0159195D01*
X0112494Y0160039D01*
X0113596Y0160496D01*
X0115898Y0160496D01*
X0118000Y0162598D01*
X0118000Y0199843D01*
X0112983Y0204860D01*
X0112640Y0205687D01*
X0112494Y0205748D01*
X0111650Y0206592D01*
X0111193Y0207695D01*
X0111193Y0213250D01*
X0111650Y0214353D01*
X0112494Y0215197D01*
X0112969Y0215394D01*
X0112494Y0215591D01*
X0111650Y0216434D01*
X0111193Y0217537D01*
X0111193Y0223093D01*
X0111650Y0224195D01*
X0112374Y0224920D01*
X0112374Y0270868D01*
X0111650Y0271592D01*
X0111193Y0272695D01*
X0111193Y0278250D01*
X0111650Y0279353D01*
X0112494Y0280197D01*
X0113596Y0280654D01*
X0119152Y0280654D01*
X0120254Y0280197D01*
X0121098Y0279353D01*
X0121555Y0278250D01*
X0121555Y0272695D01*
X0121098Y0271592D01*
X0120374Y0270868D01*
X0120374Y0224920D01*
X0121098Y0224195D01*
X0121555Y0223093D01*
X0121555Y0217537D01*
X0121098Y0216434D01*
X0120254Y0215591D01*
X0119779Y0215394D01*
X0120254Y0215197D01*
X0121098Y0214353D01*
X0121555Y0213250D01*
X0121555Y0207695D01*
X0121528Y0207629D01*
X0122921Y0206236D01*
X0122921Y0284922D01*
X0120555Y0287288D01*
X0120555Y0285315D01*
X0116374Y0285315D01*
X0111193Y0290496D01*
X0075996Y0290496D01*
X0063750Y0278250D01*
X0063750Y0196500D01*
X0063750Y0194093D01*
X0063750Y0194546D01*
X0063623Y0194851D01*
X0063750Y0195157D01*
X0063750Y0197843D01*
X0062722Y0200324D01*
X0061000Y0202046D01*
X0061000Y0212580D01*
X0062600Y0214180D01*
X0062600Y0218820D01*
X0061000Y0220420D01*
X0061000Y0237580D01*
X0062600Y0239180D01*
X0062600Y0243820D01*
X0061000Y0245420D01*
X0061000Y0277580D01*
X0062600Y0279180D01*
X0062600Y0281443D01*
X0071858Y0290701D01*
X0117142Y0290701D01*
X0118347Y0289496D01*
X0116374Y0289496D01*
X0113930Y0289496D01*
X0113421Y0289360D01*
X0112965Y0289096D01*
X0112593Y0288724D01*
X0112329Y0288268D01*
X0112193Y0287759D01*
X0112193Y0285315D01*
X0116374Y0285315D01*
X0110075Y0285315D01*
X0100232Y0275472D01*
X0100232Y0275472D01*
X0100232Y0271291D01*
X0097788Y0271291D01*
X0097279Y0271428D01*
X0096823Y0271691D01*
X0096451Y0272063D01*
X0096187Y0272519D01*
X0096051Y0273028D01*
X0096051Y0275472D01*
X0100232Y0275472D01*
X0100232Y0275472D01*
X0100232Y0271291D01*
X0102677Y0271291D01*
X0103185Y0271428D01*
X0103641Y0271691D01*
X0104014Y0272063D01*
X0104277Y0272519D01*
X0104413Y0273028D01*
X0104413Y0275472D01*
X0100232Y0275472D01*
X0096051Y0275472D01*
X0096051Y0277917D01*
X0096187Y0278426D01*
X0096451Y0278882D01*
X0096823Y0279254D01*
X0097279Y0279517D01*
X0097788Y0279654D01*
X0100232Y0279654D01*
X0100232Y0275473D01*
X0100232Y0275473D01*
X0100232Y0279654D01*
X0102677Y0279654D01*
X0103185Y0279517D01*
X0103641Y0279254D01*
X0104014Y0278882D01*
X0104277Y0278426D01*
X0104413Y0277917D01*
X0104413Y0275472D01*
X0100232Y0275472D01*
X0100232Y0233268D01*
X0107000Y0226500D01*
X0107000Y0217240D01*
X0100232Y0210472D01*
X0100232Y0210472D01*
X0100232Y0206291D01*
X0097788Y0206291D01*
X0097279Y0206428D01*
X0096823Y0206691D01*
X0096451Y0207063D01*
X0096187Y0207519D01*
X0096051Y0208028D01*
X0096051Y0210472D01*
X0100232Y0210472D01*
X0100232Y0210472D01*
X0100232Y0206291D01*
X0102677Y0206291D01*
X0103185Y0206428D01*
X0103641Y0206691D01*
X0104014Y0207063D01*
X0104277Y0207519D01*
X0104413Y0208028D01*
X0104413Y0210472D01*
X0100232Y0210472D01*
X0096051Y0210472D01*
X0096051Y0212917D01*
X0096187Y0213426D01*
X0096451Y0213882D01*
X0096823Y0214254D01*
X0097279Y0214517D01*
X0097788Y0214654D01*
X0100232Y0214654D01*
X0100232Y0210473D01*
X0100232Y0210473D01*
X0100232Y0214654D01*
X0102677Y0214654D01*
X0103185Y0214517D01*
X0103641Y0214254D01*
X0104014Y0213882D01*
X0104277Y0213426D01*
X0104413Y0212917D01*
X0104413Y0210472D01*
X0100232Y0210472D01*
X0100232Y0183268D01*
X0112600Y0170900D01*
X0112600Y0164180D01*
X0111193Y0162773D01*
X0111193Y0155693D01*
X0102000Y0146500D01*
X0101260Y0146500D01*
X0100232Y0145472D01*
X0100232Y0141291D01*
X0102677Y0141291D01*
X0103185Y0141428D01*
X0103641Y0141691D01*
X0104014Y0142063D01*
X0104277Y0142519D01*
X0104413Y0143028D01*
X0104413Y0145472D01*
X0100232Y0145472D01*
X0100232Y0145472D01*
X0104413Y0145472D01*
X0104413Y0147917D01*
X0104277Y0148426D01*
X0104014Y0148882D01*
X0103641Y0149254D01*
X0103185Y0149517D01*
X0102677Y0149654D01*
X0100810Y0149654D01*
X0101291Y0150134D01*
X0103010Y0150134D01*
X0104113Y0150591D01*
X0104957Y0151434D01*
X0105413Y0152537D01*
X0105413Y0154839D01*
X0110391Y0159817D01*
X0111000Y0161287D01*
X0111000Y0162580D01*
X0112600Y0164180D01*
X0112600Y0168820D01*
X0109320Y0172100D01*
X0104680Y0172100D01*
X0101400Y0168820D01*
X0101400Y0164180D01*
X0102420Y0163160D01*
X0099757Y0160496D01*
X0099051Y0160496D01*
X0099051Y0177275D01*
X0099162Y0177542D01*
X0099162Y0179134D01*
X0098553Y0180604D01*
X0091000Y0188157D01*
X0091000Y0212580D01*
X0092600Y0214180D01*
X0092600Y0216315D01*
X0095627Y0216315D01*
X0096352Y0215591D01*
X0097454Y0215134D01*
X0103010Y0215134D01*
X0104113Y0215591D01*
X0104957Y0216434D01*
X0105413Y0217537D01*
X0105413Y0223093D01*
X0104957Y0224195D01*
X0104113Y0225039D01*
X0103010Y0225496D01*
X0097454Y0225496D01*
X0096352Y0225039D01*
X0095627Y0224315D01*
X0090424Y0224315D01*
X0091000Y0225704D01*
X0091000Y0277580D01*
X0092600Y0279180D01*
X0092600Y0281315D01*
X0095627Y0281315D01*
X0096352Y0280591D01*
X0097454Y0280134D01*
X0103010Y0280134D01*
X0104113Y0280591D01*
X0104957Y0281434D01*
X0105413Y0282537D01*
X0105413Y0288093D01*
X0104957Y0289195D01*
X0104113Y0290039D01*
X0103010Y0290496D01*
X0097454Y0290496D01*
X0096352Y0290039D01*
X0095627Y0289315D01*
X0090019Y0289315D01*
X0088549Y0288706D01*
X0086943Y0287100D01*
X0084680Y0287100D01*
X0081400Y0283820D01*
X0081400Y0279180D01*
X0083000Y0277580D01*
X0083000Y0228157D01*
X0078009Y0223166D01*
X0077400Y0221696D01*
X0077400Y0181304D01*
X0078009Y0179834D01*
X0079134Y0178709D01*
X0087051Y0170792D01*
X0087051Y0160465D01*
X0078715Y0152128D01*
X0067286Y0152128D01*
X0065816Y0151519D01*
X0055500Y0141204D01*
X0055500Y0141485D01*
X0052985Y0144000D01*
X0055500Y0146515D01*
X0055500Y0151485D01*
X0052278Y0154707D01*
X0054500Y0156929D01*
X0054500Y0159000D01*
X0054500Y0161071D01*
X0053071Y0162500D01*
X0073080Y0162500D01*
X0074680Y0160900D01*
X0079320Y0160900D01*
X0082600Y0164180D01*
X0082600Y0168820D01*
X0081000Y0170420D01*
X0081000Y0175982D01*
X0080391Y0177452D01*
X0063750Y0194093D01*
X0086672Y0171172D01*
X0086672Y0161172D01*
X0082000Y0156500D01*
X0052000Y0156500D01*
X0049500Y0159000D01*
X0054500Y0159000D01*
X0049500Y0159000D01*
X0049500Y0159000D01*
X0052956Y0155385D02*
X0081972Y0155385D01*
X0083970Y0157384D02*
X0054500Y0157384D01*
X0054500Y0159382D02*
X0085969Y0159382D01*
X0087051Y0161381D02*
X0079800Y0161381D01*
X0081799Y0163379D02*
X0087051Y0163379D01*
X0087051Y0165378D02*
X0082600Y0165378D01*
X0082600Y0167376D02*
X0087051Y0167376D01*
X0087051Y0169375D02*
X0082045Y0169375D01*
X0081000Y0171373D02*
X0086470Y0171373D01*
X0084471Y0173372D02*
X0081000Y0173372D01*
X0081000Y0175370D02*
X0082473Y0175370D01*
X0080474Y0177369D02*
X0080425Y0177369D01*
X0078476Y0179368D02*
X0078476Y0179368D01*
X0077400Y0181366D02*
X0076477Y0181366D01*
X0077400Y0183365D02*
X0074479Y0183365D01*
X0072480Y0185363D02*
X0077400Y0185363D01*
X0077400Y0187362D02*
X0070482Y0187362D01*
X0068483Y0189360D02*
X0077400Y0189360D01*
X0077400Y0191359D02*
X0066485Y0191359D01*
X0064486Y0193357D02*
X0077400Y0193357D01*
X0077400Y0195356D02*
X0063750Y0195356D01*
X0063750Y0195407D02*
X0063750Y0196500D01*
X0063750Y0197354D02*
X0077400Y0197354D01*
X0077400Y0199353D02*
X0063125Y0199353D01*
X0061695Y0201351D02*
X0077400Y0201351D01*
X0077400Y0203350D02*
X0061000Y0203350D01*
X0061000Y0205348D02*
X0077400Y0205348D01*
X0077400Y0207347D02*
X0061000Y0207347D01*
X0061000Y0209345D02*
X0077400Y0209345D01*
X0077400Y0211344D02*
X0061000Y0211344D01*
X0061762Y0213342D02*
X0077400Y0213342D01*
X0077400Y0215341D02*
X0062600Y0215341D01*
X0062600Y0217339D02*
X0077400Y0217339D01*
X0077400Y0219338D02*
X0062082Y0219338D01*
X0061000Y0221336D02*
X0077400Y0221336D01*
X0078178Y0223335D02*
X0061000Y0223335D01*
X0061000Y0225333D02*
X0080176Y0225333D01*
X0081400Y0220900D02*
X0087000Y0226500D01*
X0087000Y0281500D01*
X0090815Y0285315D01*
X0100232Y0285315D01*
X0100232Y0279293D02*
X0100232Y0279293D01*
X0100232Y0277295D02*
X0100232Y0277295D01*
X0100232Y0275472D02*
X0100232Y0275472D01*
X0100232Y0275296D02*
X0100232Y0275296D01*
X0100232Y0273298D02*
X0100232Y0273298D01*
X0100232Y0271299D02*
X0100232Y0271299D01*
X0097759Y0271299D02*
X0091000Y0271299D01*
X0091000Y0269301D02*
X0112374Y0269301D01*
X0112374Y0267302D02*
X0091000Y0267302D01*
X0091000Y0265303D02*
X0112374Y0265303D01*
X0112374Y0263305D02*
X0091000Y0263305D01*
X0091000Y0261306D02*
X0112374Y0261306D01*
X0112374Y0259308D02*
X0091000Y0259308D01*
X0091000Y0257309D02*
X0112374Y0257309D01*
X0112374Y0255311D02*
X0091000Y0255311D01*
X0091000Y0253312D02*
X0112374Y0253312D01*
X0112374Y0251314D02*
X0091000Y0251314D01*
X0091000Y0249315D02*
X0112374Y0249315D01*
X0112374Y0247317D02*
X0091000Y0247317D01*
X0091000Y0245318D02*
X0112374Y0245318D01*
X0112374Y0243320D02*
X0091000Y0243320D01*
X0091000Y0241321D02*
X0112374Y0241321D01*
X0112374Y0239323D02*
X0091000Y0239323D01*
X0091000Y0237324D02*
X0112374Y0237324D01*
X0112374Y0235326D02*
X0091000Y0235326D01*
X0091000Y0233327D02*
X0112374Y0233327D01*
X0112374Y0231329D02*
X0091000Y0231329D01*
X0091000Y0229330D02*
X0112374Y0229330D01*
X0112374Y0227332D02*
X0091000Y0227332D01*
X0090846Y0225333D02*
X0097061Y0225333D01*
X0100232Y0220315D02*
X0090815Y0220315D01*
X0087000Y0216500D01*
X0087000Y0186500D01*
X0095162Y0178338D01*
X0095051Y0178227D01*
X0095051Y0162471D01*
X0095051Y0161500D01*
X0095051Y0157151D01*
X0082000Y0144100D01*
X0069710Y0144100D01*
X0059400Y0133790D01*
X0059290Y0133790D01*
X0052000Y0126500D01*
X0042000Y0126500D01*
X0032000Y0136500D01*
X0032000Y0141500D01*
X0039500Y0149000D01*
X0039500Y0157485D02*
X0028000Y0145985D01*
X0028000Y0134843D01*
X0040343Y0122500D01*
X0053767Y0122500D01*
X0071367Y0140100D01*
X0085600Y0140100D01*
X0100232Y0154732D01*
X0100232Y0155315D01*
X0107000Y0162083D01*
X0107000Y0166500D01*
X0103954Y0171373D02*
X0099051Y0171373D01*
X0099051Y0169375D02*
X0101955Y0169375D01*
X0101400Y0167376D02*
X0099051Y0167376D01*
X0099051Y0165378D02*
X0101400Y0165378D01*
X0102201Y0163379D02*
X0099051Y0163379D01*
X0099051Y0161381D02*
X0100641Y0161381D01*
X0105413Y0153387D02*
X0111193Y0153387D01*
X0111193Y0155385D02*
X0105960Y0155385D01*
X0107958Y0157384D02*
X0111193Y0157384D01*
X0111837Y0159382D02*
X0109957Y0159382D01*
X0111000Y0161381D02*
X0116783Y0161381D01*
X0118000Y0163379D02*
X0111799Y0163379D01*
X0112600Y0165378D02*
X0118000Y0165378D01*
X0118000Y0167376D02*
X0112600Y0167376D01*
X0112045Y0169375D02*
X0118000Y0169375D01*
X0118000Y0171373D02*
X0110046Y0171373D01*
X0122000Y0160941D02*
X0116374Y0155315D01*
X0111696Y0151388D02*
X0104911Y0151388D01*
X0103406Y0149390D02*
X0111687Y0149390D01*
X0111193Y0147391D02*
X0104413Y0147391D01*
X0104413Y0145393D02*
X0111193Y0145393D01*
X0111193Y0143394D02*
X0104413Y0143394D01*
X0103067Y0141396D02*
X0111239Y0141396D01*
X0109240Y0139397D02*
X0090554Y0139397D01*
X0088556Y0137399D02*
X0107242Y0137399D01*
X0105243Y0135400D02*
X0087333Y0135400D01*
X0089332Y0133402D02*
X0103458Y0133402D01*
X0103000Y0131403D02*
X0090546Y0131403D01*
X0090600Y0129405D02*
X0101985Y0129405D01*
X0101400Y0127406D02*
X0090600Y0127406D01*
X0090600Y0125408D02*
X0101400Y0125408D01*
X0102171Y0123409D02*
X0090600Y0123409D01*
X0090600Y0121411D02*
X0104170Y0121411D01*
X0107000Y0126500D02*
X0107000Y0131500D01*
X0116374Y0140874D01*
X0116374Y0145472D01*
X0120092Y0139397D02*
X0122921Y0139397D01*
X0122921Y0137399D02*
X0118556Y0137399D01*
X0116557Y0135400D02*
X0122921Y0135400D01*
X0122921Y0133402D02*
X0114559Y0133402D01*
X0112560Y0131403D02*
X0122921Y0131403D01*
X0122921Y0129405D02*
X0112015Y0129405D01*
X0112600Y0127406D02*
X0122921Y0127406D01*
X0122921Y0125408D02*
X0112600Y0125408D01*
X0111829Y0123409D02*
X0122921Y0123409D01*
X0122921Y0121411D02*
X0109830Y0121411D01*
X0111004Y0115415D02*
X0122921Y0115415D01*
X0122921Y0113417D02*
X0112600Y0113417D01*
X0112600Y0111418D02*
X0122921Y0111418D01*
X0122921Y0109420D02*
X0112600Y0109420D01*
X0111000Y0107421D02*
X0122921Y0107421D01*
X0122921Y0105423D02*
X0111000Y0105423D01*
X0111000Y0103424D02*
X0122921Y0103424D01*
X0122921Y0101426D02*
X0111000Y0101426D01*
X0111044Y0099427D02*
X0122921Y0099427D01*
X0122921Y0097429D02*
X0112903Y0097429D01*
X0113413Y0095430D02*
X0113437Y0095430D01*
X0116374Y0090315D02*
X0116374Y0089077D01*
X0122000Y0083451D01*
X0122000Y0021098D01*
X0116374Y0015472D01*
X0116374Y0021134D02*
X0113930Y0021134D01*
X0113421Y0021270D01*
X0112965Y0021533D01*
X0112593Y0021906D01*
X0112329Y0022362D01*
X0112193Y0022871D01*
X0112193Y0025315D01*
X0116374Y0025315D01*
X0116374Y0025315D01*
X0116374Y0025315D01*
X0116374Y0021134D01*
X0116374Y0021485D02*
X0116374Y0021485D01*
X0116374Y0023484D02*
X0116374Y0023484D01*
X0116374Y0025482D02*
X0116374Y0025482D01*
X0116374Y0027481D02*
X0116374Y0027481D01*
X0116374Y0029479D02*
X0116374Y0029479D01*
X0113867Y0029479D02*
X0104673Y0029479D01*
X0104232Y0031478D02*
X0118000Y0031478D01*
X0118000Y0033476D02*
X0104232Y0033476D01*
X0104232Y0035475D02*
X0118000Y0035475D01*
X0118000Y0037473D02*
X0104232Y0037473D01*
X0104232Y0039472D02*
X0118000Y0039472D01*
X0118000Y0041470D02*
X0104232Y0041470D01*
X0104232Y0043469D02*
X0118000Y0043469D01*
X0118000Y0045467D02*
X0104232Y0045467D01*
X0104232Y0047466D02*
X0118000Y0047466D01*
X0118000Y0049464D02*
X0104232Y0049464D01*
X0104232Y0051463D02*
X0118000Y0051463D01*
X0118000Y0053461D02*
X0104232Y0053461D01*
X0103654Y0055460D02*
X0118000Y0055460D01*
X0118000Y0057458D02*
X0101699Y0057458D01*
X0099700Y0059457D02*
X0118000Y0059457D01*
X0118000Y0061455D02*
X0097702Y0061455D01*
X0095703Y0063454D02*
X0118000Y0063454D01*
X0118000Y0065452D02*
X0093704Y0065452D01*
X0091706Y0067451D02*
X0118000Y0067451D01*
X0118000Y0069449D02*
X0089707Y0069449D01*
X0087709Y0071448D02*
X0118000Y0071448D01*
X0118000Y0073446D02*
X0085710Y0073446D01*
X0083712Y0075445D02*
X0113225Y0075445D01*
X0111297Y0077443D02*
X0104233Y0077443D01*
X0104413Y0079442D02*
X0111193Y0079442D01*
X0109749Y0081440D02*
X0104413Y0081440D01*
X0104269Y0083439D02*
X0107751Y0083439D01*
X0105910Y0085437D02*
X0103743Y0085437D01*
X0105371Y0087436D02*
X0105413Y0087436D01*
X0105413Y0089434D02*
X0105413Y0089434D01*
X0105413Y0091433D02*
X0105413Y0091433D01*
X0105413Y0093432D02*
X0105273Y0093432D01*
X0103727Y0095430D02*
X0103666Y0095430D01*
X0103000Y0097429D02*
X0101728Y0097429D01*
X0103000Y0099427D02*
X0099730Y0099427D01*
X0097731Y0101426D02*
X0103000Y0101426D01*
X0103000Y0103424D02*
X0095733Y0103424D01*
X0093734Y0105423D02*
X0103000Y0105423D01*
X0103000Y0107421D02*
X0091736Y0107421D01*
X0090600Y0109420D02*
X0101400Y0109420D01*
X0101400Y0111418D02*
X0090600Y0111418D01*
X0090600Y0113417D02*
X0101400Y0113417D01*
X0102996Y0115415D02*
X0090600Y0115415D01*
X0090600Y0117414D02*
X0122921Y0117414D01*
X0122921Y0119412D02*
X0090600Y0119412D01*
X0086600Y0130476D02*
X0086600Y0106900D01*
X0100232Y0093268D01*
X0100232Y0090315D01*
X0095815Y0090315D01*
X0087000Y0081500D01*
X0083137Y0077443D02*
X0081713Y0077443D01*
X0081400Y0079442D02*
X0079715Y0079442D01*
X0081400Y0081440D02*
X0077716Y0081440D01*
X0076000Y0083439D02*
X0081400Y0083439D01*
X0083018Y0085437D02*
X0076000Y0085437D01*
X0076000Y0087436D02*
X0087279Y0087436D01*
X0089278Y0089434D02*
X0076000Y0089434D01*
X0076000Y0091433D02*
X0091276Y0091433D01*
X0093275Y0093432D02*
X0076000Y0093432D01*
X0077244Y0095430D02*
X0092413Y0095430D01*
X0090415Y0097429D02*
X0079242Y0097429D01*
X0081241Y0099427D02*
X0088416Y0099427D01*
X0086418Y0101426D02*
X0083239Y0101426D01*
X0092600Y0081440D02*
X0096051Y0081440D01*
X0096051Y0079442D02*
X0092600Y0079442D01*
X0094596Y0083439D02*
X0096195Y0083439D01*
X0096594Y0085437D02*
X0096721Y0085437D01*
X0100232Y0083439D02*
X0100232Y0083439D01*
X0100232Y0081440D02*
X0100232Y0081440D01*
X0100232Y0080472D02*
X0100232Y0080472D01*
X0100232Y0079442D02*
X0100232Y0079442D01*
X0100232Y0077443D02*
X0100232Y0077443D01*
X0096231Y0077443D02*
X0090863Y0077443D01*
X0084389Y0063454D02*
X0065520Y0063454D01*
X0065391Y0063766D02*
X0064266Y0064891D01*
X0061000Y0068157D01*
X0061000Y0077580D01*
X0062600Y0079180D01*
X0062600Y0083820D01*
X0062600Y0083439D02*
X0068000Y0083439D01*
X0068000Y0081440D02*
X0062600Y0081440D01*
X0062600Y0079442D02*
X0068523Y0079442D01*
X0070400Y0077443D02*
X0061000Y0077443D01*
X0061000Y0075445D02*
X0072398Y0075445D01*
X0074397Y0073446D02*
X0061000Y0073446D01*
X0061000Y0071448D02*
X0076395Y0071448D01*
X0078394Y0069449D02*
X0061000Y0069449D01*
X0061706Y0067451D02*
X0080392Y0067451D01*
X0082391Y0065452D02*
X0063704Y0065452D01*
X0065391Y0063766D02*
X0066000Y0062296D01*
X0066000Y0020704D01*
X0065496Y0019487D02*
X0082067Y0019487D01*
X0081400Y0017488D02*
X0063645Y0017488D01*
X0063667Y0015490D02*
X0081400Y0015490D01*
X0082089Y0013491D02*
X0065666Y0013491D01*
X0067664Y0011493D02*
X0084088Y0011493D01*
X0089912Y0011493D02*
X0097167Y0011493D01*
X0096051Y0013491D02*
X0094065Y0013491D01*
X0090746Y0021485D02*
X0089934Y0021485D01*
X0092744Y0023484D02*
X0066000Y0023484D01*
X0066000Y0025482D02*
X0094743Y0025482D01*
X0095051Y0027481D02*
X0066000Y0027481D01*
X0066000Y0029479D02*
X0095792Y0029479D01*
X0096232Y0031478D02*
X0066000Y0031478D01*
X0066000Y0033476D02*
X0096232Y0033476D01*
X0096232Y0035475D02*
X0066000Y0035475D01*
X0066000Y0037473D02*
X0096232Y0037473D01*
X0096232Y0039472D02*
X0066000Y0039472D01*
X0066000Y0041470D02*
X0096232Y0041470D01*
X0096232Y0043469D02*
X0066000Y0043469D01*
X0066000Y0045467D02*
X0096232Y0045467D01*
X0096232Y0047466D02*
X0066000Y0047466D01*
X0066000Y0049464D02*
X0096232Y0049464D01*
X0096232Y0051463D02*
X0066000Y0051463D01*
X0066000Y0053461D02*
X0094382Y0053461D01*
X0092383Y0055460D02*
X0066000Y0055460D01*
X0066000Y0057458D02*
X0090385Y0057458D01*
X0088386Y0059457D02*
X0066000Y0059457D01*
X0066000Y0061455D02*
X0086388Y0061455D01*
X0068000Y0093432D02*
X0067063Y0093432D01*
X0067750Y0095430D02*
X0068000Y0095430D01*
X0067750Y0097429D02*
X0068327Y0097429D01*
X0056937Y0093432D02*
X0055042Y0093432D01*
X0057000Y0081500D02*
X0057000Y0066500D01*
X0062000Y0061500D01*
X0062000Y0021500D01*
X0057000Y0016500D01*
X0067000Y0006500D01*
X0122000Y0006500D01*
X0126921Y0011421D01*
X0126921Y0286579D01*
X0118799Y0294701D01*
X0070201Y0294701D01*
X0057000Y0281500D01*
X0057000Y0241500D01*
X0057000Y0216500D01*
X0057000Y0196500D01*
X0059750Y0193750D01*
X0059750Y0192436D01*
X0077000Y0175186D01*
X0077000Y0166500D01*
X0052000Y0166500D01*
X0049500Y0169000D01*
X0052985Y0174000D02*
X0055500Y0176515D01*
X0055500Y0181485D01*
X0051985Y0185000D01*
X0047642Y0185000D01*
X0047279Y0185363D02*
X0061166Y0185363D01*
X0059168Y0187362D02*
X0045281Y0187362D01*
X0039382Y0190750D02*
X0042750Y0194118D01*
X0042750Y0196500D01*
X0042750Y0198882D01*
X0039382Y0202250D01*
X0037000Y0202250D01*
X0037000Y0196500D01*
X0042750Y0196500D01*
X0037000Y0196500D01*
X0037000Y0196500D01*
X0037000Y0196500D01*
X0037000Y0190750D01*
X0039382Y0190750D01*
X0039990Y0191359D02*
X0052595Y0191359D01*
X0053176Y0190778D02*
X0055657Y0189750D01*
X0056779Y0189750D01*
X0073000Y0173529D01*
X0073000Y0170500D01*
X0055500Y0170500D01*
X0055500Y0171485D01*
X0052985Y0174000D01*
X0053613Y0173372D02*
X0073000Y0173372D01*
X0073000Y0171373D02*
X0055500Y0171373D01*
X0054356Y0175370D02*
X0071159Y0175370D01*
X0069160Y0177369D02*
X0055500Y0177369D01*
X0055500Y0179368D02*
X0067162Y0179368D01*
X0065163Y0181366D02*
X0055500Y0181366D01*
X0053621Y0183365D02*
X0063165Y0183365D01*
X0057169Y0189360D02*
X0007000Y0189360D01*
X0007000Y0187362D02*
X0033719Y0187362D01*
X0034618Y0190750D02*
X0037000Y0190750D01*
X0037000Y0196500D01*
X0037000Y0196500D01*
X0037000Y0196500D01*
X0031250Y0196500D01*
X0031250Y0198882D01*
X0034618Y0202250D01*
X0037000Y0202250D01*
X0037000Y0196500D01*
X0031250Y0196500D01*
X0031250Y0194118D01*
X0034618Y0190750D01*
X0034010Y0191359D02*
X0007000Y0191359D01*
X0007000Y0193357D02*
X0032011Y0193357D01*
X0031250Y0195356D02*
X0007000Y0195356D01*
X0007000Y0197354D02*
X0031250Y0197354D01*
X0031721Y0199353D02*
X0007000Y0199353D01*
X0007000Y0201351D02*
X0033719Y0201351D01*
X0037000Y0201351D02*
X0037000Y0201351D01*
X0037000Y0199353D02*
X0037000Y0199353D01*
X0037000Y0197354D02*
X0037000Y0197354D01*
X0037000Y0196070D02*
X0037000Y0193580D01*
X0037000Y0193357D02*
X0037000Y0193357D01*
X0037000Y0191359D02*
X0037000Y0191359D01*
X0037000Y0195356D02*
X0037000Y0195356D01*
X0040281Y0201351D02*
X0052305Y0201351D01*
X0053000Y0202046D02*
X0051278Y0200324D01*
X0050250Y0197843D01*
X0050250Y0195157D01*
X0051278Y0192676D01*
X0053176Y0190778D01*
X0050996Y0193357D02*
X0041989Y0193357D01*
X0042750Y0195356D02*
X0050250Y0195356D01*
X0050250Y0197354D02*
X0042750Y0197354D01*
X0042279Y0199353D02*
X0050875Y0199353D01*
X0053000Y0202046D02*
X0053000Y0212580D01*
X0051400Y0214180D01*
X0051400Y0218820D01*
X0053000Y0220420D01*
X0053000Y0237580D01*
X0051400Y0239180D01*
X0051400Y0239395D01*
X0048905Y0236900D01*
X0047000Y0236900D01*
X0047000Y0241500D01*
X0047000Y0241500D01*
X0047000Y0241500D01*
X0047000Y0241500D01*
X0042400Y0241500D01*
X0042400Y0243405D01*
X0045095Y0246100D01*
X0047000Y0246100D01*
X0047000Y0241500D01*
X0047000Y0236900D01*
X0045095Y0236900D01*
X0042400Y0239595D01*
X0042400Y0241500D01*
X0047000Y0241500D01*
X0047000Y0241321D02*
X0047000Y0241321D01*
X0047000Y0239323D02*
X0047000Y0239323D01*
X0047000Y0237324D02*
X0047000Y0237324D01*
X0049330Y0237324D02*
X0053000Y0237324D01*
X0053000Y0235326D02*
X0007000Y0235326D01*
X0007000Y0237324D02*
X0044670Y0237324D01*
X0042672Y0239323D02*
X0007000Y0239323D01*
X0007000Y0241321D02*
X0042400Y0241321D01*
X0042400Y0243320D02*
X0007000Y0243320D01*
X0007000Y0245318D02*
X0044313Y0245318D01*
X0047000Y0245318D02*
X0047000Y0245318D01*
X0047000Y0243320D02*
X0047000Y0243320D01*
X0049687Y0245318D02*
X0052899Y0245318D01*
X0053000Y0247317D02*
X0007000Y0247317D01*
X0007000Y0249315D02*
X0053000Y0249315D01*
X0053000Y0251314D02*
X0007000Y0251314D01*
X0007000Y0253312D02*
X0053000Y0253312D01*
X0053000Y0255311D02*
X0007000Y0255311D01*
X0007000Y0257309D02*
X0053000Y0257309D01*
X0053000Y0259308D02*
X0007000Y0259308D01*
X0007000Y0261306D02*
X0053000Y0261306D01*
X0053000Y0263305D02*
X0007000Y0263305D01*
X0007000Y0265303D02*
X0053000Y0265303D01*
X0053000Y0267302D02*
X0007000Y0267302D01*
X0007000Y0269301D02*
X0053000Y0269301D01*
X0053000Y0271299D02*
X0007000Y0271299D01*
X0007000Y0273298D02*
X0053000Y0273298D01*
X0053000Y0275296D02*
X0022594Y0275296D01*
X0025472Y0277295D02*
X0053000Y0277295D01*
X0051400Y0279293D02*
X0027273Y0279293D01*
X0028427Y0281292D02*
X0051400Y0281292D01*
X0051400Y0283290D02*
X0029081Y0283290D01*
X0029500Y0285289D02*
X0052869Y0285289D01*
X0057130Y0287287D02*
X0029500Y0287287D01*
X0029195Y0289286D02*
X0059129Y0289286D01*
X0061127Y0291284D02*
X0028659Y0291284D01*
X0027518Y0293283D02*
X0063126Y0293283D01*
X0066445Y0285289D02*
X0082869Y0285289D01*
X0081400Y0283290D02*
X0064447Y0283290D01*
X0062600Y0281292D02*
X0081400Y0281292D01*
X0081400Y0279293D02*
X0062600Y0279293D01*
X0061000Y0277295D02*
X0083000Y0277295D01*
X0083000Y0275296D02*
X0061000Y0275296D01*
X0061000Y0273298D02*
X0083000Y0273298D01*
X0083000Y0271299D02*
X0061000Y0271299D01*
X0061000Y0269301D02*
X0083000Y0269301D01*
X0083000Y0267302D02*
X0061000Y0267302D01*
X0061000Y0265303D02*
X0083000Y0265303D01*
X0083000Y0263305D02*
X0061000Y0263305D01*
X0061000Y0261306D02*
X0083000Y0261306D01*
X0083000Y0259308D02*
X0061000Y0259308D01*
X0061000Y0257309D02*
X0083000Y0257309D01*
X0083000Y0255311D02*
X0061000Y0255311D01*
X0061000Y0253312D02*
X0083000Y0253312D01*
X0083000Y0251314D02*
X0061000Y0251314D01*
X0061000Y0249315D02*
X0083000Y0249315D01*
X0083000Y0247317D02*
X0061000Y0247317D01*
X0061101Y0245318D02*
X0083000Y0245318D01*
X0083000Y0243320D02*
X0062600Y0243320D01*
X0062600Y0241321D02*
X0083000Y0241321D01*
X0083000Y0239323D02*
X0062600Y0239323D01*
X0061000Y0237324D02*
X0083000Y0237324D01*
X0083000Y0235326D02*
X0061000Y0235326D01*
X0061000Y0233327D02*
X0083000Y0233327D01*
X0083000Y0231329D02*
X0061000Y0231329D01*
X0061000Y0229330D02*
X0083000Y0229330D01*
X0082175Y0227332D02*
X0061000Y0227332D01*
X0053000Y0227332D02*
X0007000Y0227332D01*
X0007000Y0229330D02*
X0053000Y0229330D01*
X0053000Y0231329D02*
X0007000Y0231329D01*
X0007000Y0233327D02*
X0053000Y0233327D01*
X0051400Y0239323D02*
X0051328Y0239323D01*
X0053000Y0225333D02*
X0007000Y0225333D01*
X0007000Y0223335D02*
X0053000Y0223335D01*
X0053000Y0221336D02*
X0007000Y0221336D01*
X0007000Y0219338D02*
X0051918Y0219338D01*
X0051400Y0217339D02*
X0007000Y0217339D01*
X0007000Y0215341D02*
X0051400Y0215341D01*
X0052238Y0213342D02*
X0007000Y0213342D01*
X0007000Y0211344D02*
X0053000Y0211344D01*
X0053000Y0209345D02*
X0007000Y0209345D01*
X0007000Y0207347D02*
X0053000Y0207347D01*
X0053000Y0205348D02*
X0007000Y0205348D01*
X0007000Y0203350D02*
X0053000Y0203350D01*
X0054190Y0161381D02*
X0074199Y0161381D01*
X0079973Y0153387D02*
X0053598Y0153387D01*
X0055500Y0151388D02*
X0065684Y0151388D01*
X0068081Y0148128D02*
X0055400Y0135447D01*
X0055400Y0135400D01*
X0050500Y0130500D01*
X0048000Y0130500D01*
X0039500Y0139000D01*
X0053591Y0143394D02*
X0057690Y0143394D01*
X0059689Y0145393D02*
X0054378Y0145393D01*
X0055500Y0147391D02*
X0061687Y0147391D01*
X0063686Y0149390D02*
X0055500Y0149390D01*
X0055500Y0141396D02*
X0055692Y0141396D01*
X0067712Y0130788D02*
X0053424Y0116500D01*
X0067400Y0130476D02*
X0067712Y0130788D01*
X0073024Y0136100D01*
X0080976Y0136100D01*
X0086600Y0130476D01*
X0092553Y0141396D02*
X0097398Y0141396D01*
X0096051Y0143394D02*
X0094551Y0143394D01*
X0100232Y0143394D02*
X0100232Y0143394D01*
X0100232Y0141396D02*
X0100232Y0141396D01*
X0100232Y0145393D02*
X0100232Y0145393D01*
X0091051Y0158808D02*
X0091051Y0172449D01*
X0081400Y0182100D01*
X0081400Y0220900D01*
X0091000Y0211344D02*
X0096051Y0211344D01*
X0096051Y0209345D02*
X0091000Y0209345D01*
X0091000Y0207347D02*
X0096287Y0207347D01*
X0096165Y0213342D02*
X0091762Y0213342D01*
X0092600Y0215341D02*
X0096955Y0215341D01*
X0100232Y0213342D02*
X0100232Y0213342D01*
X0100232Y0211344D02*
X0100232Y0211344D01*
X0100232Y0210472D02*
X0100232Y0210472D01*
X0100232Y0209345D02*
X0100232Y0209345D01*
X0100232Y0207347D02*
X0100232Y0207347D01*
X0104177Y0207347D02*
X0111337Y0207347D01*
X0111193Y0209345D02*
X0104413Y0209345D01*
X0104413Y0211344D02*
X0111193Y0211344D01*
X0111231Y0213342D02*
X0104299Y0213342D01*
X0103510Y0215341D02*
X0112841Y0215341D01*
X0111275Y0217339D02*
X0105331Y0217339D01*
X0105413Y0219338D02*
X0111193Y0219338D01*
X0111193Y0221336D02*
X0105413Y0221336D01*
X0105313Y0223335D02*
X0111293Y0223335D01*
X0112374Y0225333D02*
X0103403Y0225333D01*
X0112781Y0205348D02*
X0091000Y0205348D01*
X0091000Y0203350D02*
X0114493Y0203350D01*
X0116492Y0201351D02*
X0091000Y0201351D01*
X0091000Y0199353D02*
X0118000Y0199353D01*
X0118000Y0197354D02*
X0091000Y0197354D01*
X0091000Y0195356D02*
X0118000Y0195356D01*
X0118000Y0193357D02*
X0091000Y0193357D01*
X0091000Y0191359D02*
X0118000Y0191359D01*
X0118000Y0189360D02*
X0091000Y0189360D01*
X0091795Y0187362D02*
X0118000Y0187362D01*
X0118000Y0185363D02*
X0093794Y0185363D01*
X0095792Y0183365D02*
X0118000Y0183365D01*
X0118000Y0181366D02*
X0097791Y0181366D01*
X0099065Y0179368D02*
X0118000Y0179368D01*
X0118000Y0177369D02*
X0099090Y0177369D01*
X0099051Y0175370D02*
X0118000Y0175370D01*
X0118000Y0173372D02*
X0099051Y0173372D01*
X0091051Y0158808D02*
X0080372Y0148128D01*
X0068081Y0148128D01*
X0031721Y0185363D02*
X0007000Y0185363D01*
X0007000Y0183365D02*
X0029722Y0183365D01*
X0027724Y0181366D02*
X0007000Y0181366D01*
X0007000Y0179368D02*
X0025725Y0179368D01*
X0023727Y0177369D02*
X0007000Y0177369D01*
X0007000Y0175370D02*
X0021728Y0175370D01*
X0019730Y0173372D02*
X0007000Y0173372D01*
X0007000Y0171373D02*
X0017731Y0171373D01*
X0015733Y0169375D02*
X0007000Y0169375D01*
X0007000Y0167376D02*
X0013734Y0167376D01*
X0011736Y0165378D02*
X0007000Y0165378D01*
X0007000Y0163379D02*
X0010248Y0163379D01*
X0010000Y0161381D02*
X0007000Y0161381D01*
X0007000Y0159382D02*
X0010000Y0159382D01*
X0010000Y0157384D02*
X0007000Y0157384D01*
X0007000Y0155385D02*
X0010000Y0155385D01*
X0010000Y0153387D02*
X0007000Y0153387D01*
X0007000Y0151388D02*
X0010000Y0151388D01*
X0010000Y0149390D02*
X0007000Y0149390D01*
X0007000Y0147391D02*
X0010000Y0147391D01*
X0010000Y0145393D02*
X0007000Y0145393D01*
X0007000Y0143394D02*
X0010000Y0143394D01*
X0010000Y0141396D02*
X0007000Y0141396D01*
X0007000Y0139397D02*
X0010000Y0139397D01*
X0010000Y0137399D02*
X0007000Y0137399D01*
X0007000Y0135400D02*
X0010000Y0135400D01*
X0010000Y0133402D02*
X0007000Y0133402D01*
X0007000Y0131403D02*
X0010000Y0131403D01*
X0010000Y0129405D02*
X0007000Y0129405D01*
X0007000Y0127406D02*
X0010000Y0127406D01*
X0011122Y0125408D02*
X0007000Y0125408D01*
X0007000Y0123409D02*
X0013120Y0123409D01*
X0015119Y0121411D02*
X0007000Y0121411D01*
X0007000Y0119412D02*
X0017117Y0119412D01*
X0019116Y0117414D02*
X0007000Y0117414D01*
X0007000Y0115415D02*
X0021114Y0115415D01*
X0023113Y0113417D02*
X0007000Y0113417D01*
X0007000Y0111418D02*
X0025111Y0111418D01*
X0027110Y0109420D02*
X0007000Y0109420D01*
X0007000Y0107421D02*
X0029108Y0107421D01*
X0031107Y0105423D02*
X0007000Y0105423D01*
X0007000Y0275296D02*
X0011406Y0275296D01*
X0008528Y0277295D02*
X0007000Y0277295D01*
X0068444Y0287287D02*
X0087130Y0287287D01*
X0089949Y0289286D02*
X0070442Y0289286D01*
X0091000Y0277295D02*
X0096051Y0277295D01*
X0096051Y0275296D02*
X0091000Y0275296D01*
X0091000Y0273298D02*
X0096051Y0273298D01*
X0096891Y0279293D02*
X0092600Y0279293D01*
X0092600Y0281292D02*
X0095651Y0281292D01*
X0102705Y0271299D02*
X0111943Y0271299D01*
X0111193Y0273298D02*
X0104413Y0273298D01*
X0104413Y0275296D02*
X0111193Y0275296D01*
X0111193Y0277295D02*
X0104413Y0277295D01*
X0103574Y0279293D02*
X0111625Y0279293D01*
X0112965Y0281533D02*
X0113421Y0281270D01*
X0113930Y0281134D01*
X0116374Y0281134D01*
X0118818Y0281134D01*
X0119327Y0281270D01*
X0119783Y0281533D01*
X0120156Y0281906D01*
X0120419Y0282362D01*
X0120555Y0282871D01*
X0120555Y0285315D01*
X0116374Y0285315D01*
X0116374Y0289496D01*
X0116374Y0285315D01*
X0116374Y0285315D01*
X0116374Y0285315D01*
X0116374Y0285315D01*
X0112193Y0285315D01*
X0112193Y0282871D01*
X0112329Y0282362D01*
X0112593Y0281906D01*
X0112965Y0281533D01*
X0113384Y0281292D02*
X0104814Y0281292D01*
X0105413Y0283290D02*
X0112193Y0283290D01*
X0112193Y0285289D02*
X0105413Y0285289D01*
X0105413Y0287287D02*
X0112193Y0287287D01*
X0113293Y0289286D02*
X0104866Y0289286D01*
X0116374Y0289286D02*
X0116374Y0289286D01*
X0116374Y0287287D02*
X0116374Y0287287D01*
X0116374Y0285315D02*
X0116374Y0281134D01*
X0116374Y0285315D01*
X0116374Y0285315D01*
X0116374Y0285289D02*
X0116374Y0285289D01*
X0116374Y0283290D02*
X0116374Y0283290D01*
X0116374Y0281292D02*
X0116374Y0281292D01*
X0116374Y0275472D02*
X0116374Y0220315D01*
X0119907Y0215341D02*
X0122921Y0215341D01*
X0122921Y0217339D02*
X0121473Y0217339D01*
X0121555Y0219338D02*
X0122921Y0219338D01*
X0122921Y0221336D02*
X0121555Y0221336D01*
X0121455Y0223335D02*
X0122921Y0223335D01*
X0122921Y0225333D02*
X0120374Y0225333D01*
X0120374Y0227332D02*
X0122921Y0227332D01*
X0122921Y0229330D02*
X0120374Y0229330D01*
X0120374Y0231329D02*
X0122921Y0231329D01*
X0122921Y0233327D02*
X0120374Y0233327D01*
X0120374Y0235326D02*
X0122921Y0235326D01*
X0122921Y0237324D02*
X0120374Y0237324D01*
X0120374Y0239323D02*
X0122921Y0239323D01*
X0122921Y0241321D02*
X0120374Y0241321D01*
X0120374Y0243320D02*
X0122921Y0243320D01*
X0122921Y0245318D02*
X0120374Y0245318D01*
X0120374Y0247317D02*
X0122921Y0247317D01*
X0122921Y0249315D02*
X0120374Y0249315D01*
X0120374Y0251314D02*
X0122921Y0251314D01*
X0122921Y0253312D02*
X0120374Y0253312D01*
X0120374Y0255311D02*
X0122921Y0255311D01*
X0122921Y0257309D02*
X0120374Y0257309D01*
X0120374Y0259308D02*
X0122921Y0259308D01*
X0122921Y0261306D02*
X0120374Y0261306D01*
X0120374Y0263305D02*
X0122921Y0263305D01*
X0122921Y0265303D02*
X0120374Y0265303D01*
X0120374Y0267302D02*
X0122921Y0267302D01*
X0122921Y0269301D02*
X0120374Y0269301D01*
X0120805Y0271299D02*
X0122921Y0271299D01*
X0122921Y0273298D02*
X0121555Y0273298D01*
X0121555Y0275296D02*
X0122921Y0275296D01*
X0122921Y0277295D02*
X0121555Y0277295D01*
X0121123Y0279293D02*
X0122921Y0279293D01*
X0122921Y0281292D02*
X0119364Y0281292D01*
X0120555Y0283290D02*
X0122921Y0283290D01*
X0122555Y0285289D02*
X0120555Y0285289D01*
X0120555Y0287287D02*
X0120556Y0287287D01*
X0121517Y0213342D02*
X0122921Y0213342D01*
X0122921Y0211344D02*
X0121555Y0211344D01*
X0121555Y0209345D02*
X0122921Y0209345D01*
X0122921Y0207347D02*
X0121810Y0207347D01*
X0116374Y0207126D02*
X0122000Y0201500D01*
X0122000Y0160941D01*
X0122101Y0155385D02*
X0122921Y0155385D01*
X0122921Y0153387D02*
X0121555Y0153387D01*
X0121052Y0151388D02*
X0122921Y0151388D01*
X0122921Y0149390D02*
X0121061Y0149390D01*
X0121555Y0147391D02*
X0122921Y0147391D01*
X0122921Y0145393D02*
X0121555Y0145393D01*
X0121555Y0143394D02*
X0122921Y0143394D01*
X0122921Y0141396D02*
X0120902Y0141396D01*
X0107000Y0111500D02*
X0107000Y0097814D01*
X0109413Y0095400D01*
X0109413Y0087433D01*
X0116374Y0080472D01*
X0121674Y0089434D02*
X0122921Y0089434D01*
X0122921Y0091433D02*
X0121555Y0091433D01*
X0121415Y0093432D02*
X0122921Y0093432D01*
X0122921Y0095430D02*
X0119311Y0095430D01*
X0112193Y0027481D02*
X0105413Y0027481D01*
X0105413Y0025482D02*
X0112193Y0025482D01*
X0112193Y0023484D02*
X0105413Y0023484D01*
X0104978Y0021485D02*
X0113049Y0021485D01*
X0111783Y0019487D02*
X0103238Y0019487D01*
X0104413Y0017488D02*
X0111193Y0017488D01*
X0111193Y0015490D02*
X0104413Y0015490D01*
X0104413Y0013491D02*
X0111193Y0013491D01*
X0111749Y0011493D02*
X0103298Y0011493D01*
X0100232Y0011493D02*
X0100232Y0011493D01*
X0100232Y0013491D02*
X0100232Y0013491D01*
X0100232Y0015472D02*
X0100232Y0015472D01*
X0100232Y0015490D02*
X0100232Y0015490D01*
X0100232Y0017488D02*
X0100232Y0017488D01*
X0100232Y0019487D02*
X0100232Y0019487D01*
X0116374Y0207126D02*
X0116374Y0210472D01*
M02*
